<svg width="100" height="70" viewBox="0 0 100 70" fill="none" xmlns="http://www.w3.org/2000/svg">
<path d="M70.7852 59.5959C60.1494 71.9515 42.685 70.6351 34.2471 60.1568C23.1951 42.7991 42.957 18.4675 52.194 1.28177C62.0739 16.4088 81.421 47.2402 70.7852 59.5959Z" fill="url(#paint0_linear_3_343)"/>
<path d="M46.3785 57.7252C46.5845 57.7905 46.5847 57.7905 46.7949 57.8573C48.2362 58.3566 49.5443 59.1788 50.8494 59.9529C53.5413 61.5455 56.2819 63.0594 59.4801 63.0684C59.7277 63.0695 59.975 63.0732 60.2223 63.0772C64.936 63.1153 69.7138 60.5273 71.0508 59.4584C62.4214 69.7852 42.3069 74.1935 33.3131 58.8547C37.6893 56.8351 41.7695 56.1584 46.3785 57.7252Z" fill="#11BAF9"/>
<path d="M52.2476 1.16629C54.0661 4.34133 56.794 9.01403 59.4508 13.3273C58.7307 13.3273 58.0106 13.3273 57.2686 13.3273C58.1 14.9095 58.1 14.9095 58.9811 16.4649C60.8804 19.7204 62.5695 23.3435 61.7129 27.1831C61.5864 27.6305 61.4023 28.0347 61.1862 28.4462C61.1427 28.5293 61.0991 28.6125 61.0543 28.6982C60.3016 30.0892 58.9898 30.9312 57.4808 31.4189C56.1734 31.7139 54.6252 31.7134 53.3889 31.1795C53.3148 31.1478 53.2407 31.1164 53.1642 31.0838C51.8159 30.5035 50.573 29.818 49.3582 28.9961C48.5589 28.4598 47.7557 28.0252 46.8647 27.6524C46.7707 27.6129 46.6764 27.5735 46.5797 27.5326C42.9432 26.0691 38.0016 27.6247 35.3954 30.5804C39.7478 21.4616 45.2499 13.0145 50.4291 4.34133C51.0808 3.24952 51.7626 2.1847 52.2476 1.16629Z" fill="#11BAF9"/>
<path d="M15.51 28.7536C17.3485 28.7536 19.1869 28.7536 21.081 28.7536C21.0759 34.6125 21.0043 40.4737 21.0414 46.3326C21.0567 49.0106 19.9481 51.2222 18.2851 53.2406C8.31456 63.87 -7.16073 48.7409 3.72096 38.1577C6.47294 35.5947 12.4177 34.7642 15.3889 37.7453C15.4289 34.778 15.4689 31.8108 15.51 28.7536Z" fill="#1C3656"/>
<path d="M98.4088 40.7889C99.7171 42.9261 99.9587 45.0954 99.9383 47.5376C99.9305 50.3344 99.918 53.1312 99.9028 55.9279C98.1409 55.9279 96.379 55.9279 94.5637 55.9279C94.5236 55.2529 94.4836 54.5778 94.4423 53.8825C92.3848 55.8046 90.1187 56.4651 87.2993 56.3219C82.2575 55.5672 79.2739 51.4656 78.8716 47.3501C78.3801 36.7926 91.7316 31.0229 98.4088 40.7889Z" fill="#1C3656"/>
<path d="M64.4864 36.4612C65.7952 37.3499 66.1723 38.8293 66.5268 40.2915C66.8197 41.5427 66.8197 41.5427 67.1957 42.7702C67.8818 44.7116 68.298 46.8892 68.8474 48.876C68.9084 48.8762 68.9691 48.8762 69.0802 48.876C70.0633 45.1282 71.0506 41.2642 72.1673 37.5795C72.2952 37.1534 72.3966 36.739 72.4846 36.3016C74.3303 36.3016 76.176 36.3016 78.0776 36.3016C76.386 42.5887 74.4848 48.0217 72.6523 53.7709C72.2469 54.7989 71.5054 55.5455 70.5317 56.0626C69.6305 56.4164 68.6128 56.4102 67.6957 56.1222C66.6559 55.6471 65.9539 55.0069 65.5176 53.9485C64.3456 50.6924 63.3153 46.0954 62.5144 42.5887C62.3941 42.5887 62.2737 42.5887 62.1497 42.5887C61.1931 46.0868 60.122 49.5527 59.1504 53.0464C58.7751 54.3554 58.3111 55.1487 57.174 55.928C56.304 56.4058 55.2107 56.4007 54.2465 56.2515C52.7333 55.7631 51.8218 54.5002 51.4878 53.0171C50.0012 48.0903 48.1774 41.8635 46.5864 36.3016C48.392 36.3016 50.1975 36.3016 52.0578 36.3016C53.2587 40.4813 54.3788 44.6661 55.4624 48.876C55.5425 48.876 55.6229 48.876 55.7056 48.876C56.5063 45.4908 57.3033 42.3912 58.2248 39.2032C58.5927 37.9785 59.0998 36.9607 60.2234 36.2587C61.6384 35.5314 63.1342 35.661 64.4864 36.4612Z" fill="#1C3656"/>
<path d="M42.9362 28.7552C43.0517 28.7547 43.1674 28.7545 43.2863 28.754C44.1674 28.7605 44.9159 28.8871 45.8055 29.0344C45.8055 30.6282 45.8055 32.2219 45.8055 33.8642C45.0039 33.8642 44.2025 33.8642 43.3764 33.8642C42.4325 34.0988 41.9496 34.2642 41.327 34.9658C41.1145 35.4582 41.1145 35.4582 41.0688 36.6411C42.4316 36.6411 43.7944 36.6411 45.1984 36.6411C45.1984 38.3148 45.1984 39.9882 45.1984 41.7125C43.7956 41.7125 42.3928 41.7125 40.9473 41.7125C40.9473 46.454 40.9473 51.1956 40.9473 56.0808C39.1838 56.0808 37.4203 56.0808 35.6034 56.0808C35.6034 51.3392 35.6034 46.5977 35.6034 41.7125C34.7619 41.7125 33.9201 41.7125 33.0529 41.7125C33.0529 40.039 33.0529 38.3653 33.0529 36.6411C33.9346 36.6411 34.8164 36.6411 35.7249 36.6411C35.7173 36.3672 35.7099 36.0933 35.702 35.8111C35.6891 33.8238 36.6665 32.0198 38.0325 30.6041C38.4732 30.2226 38.9471 29.9196 39.4519 29.6305C39.5203 29.5896 39.5884 29.5489 39.6586 29.5067C40.7113 28.9023 41.7323 28.7351 42.9362 28.7552Z" fill="#1D3757"/>
<path d="M24.4647 36.5616C26.1823 36.5616 27.9001 36.5616 29.6698 36.5616C29.6698 43.003 29.6698 49.4443 29.6698 56.081C27.952 56.081 26.2345 56.081 24.4647 56.081C24.4647 49.6397 24.4647 43.1981 24.4647 36.5616Z" fill="#1C3757"/>
<path d="M10.2804 51.3965C13.227 51.3965 15.6157 49.0078 15.6157 46.0612C15.6157 43.1146 13.227 40.7259 10.2804 40.7259C7.33377 40.7259 4.94507 43.1146 4.94507 46.0612C4.94507 49.0078 7.33377 51.3965 10.2804 51.3965Z" fill="white"/>
<path d="M89.1388 51.3965C92.0854 51.3965 94.4741 49.0078 94.4741 46.0612C94.4741 43.1146 92.0854 40.7259 89.1388 40.7259C86.1922 40.7259 83.8035 43.1146 83.8035 46.0612C83.8035 49.0078 86.1922 51.3965 89.1388 51.3965Z" fill="white"/>
<defs>
<linearGradient id="paint0_linear_3_343" x1="47.575" y1="42.7367" x2="82.6046" y2="1.53825" gradientUnits="userSpaceOnUse">
<stop stop-color="white" stop-opacity="0.37"/>
<stop offset="1" stop-color="#11BAF9" stop-opacity="0.37"/>
</linearGradient>
</defs>
</svg>
