<svg width="146" height="103" viewBox="0 0 146 103" fill="none" xmlns="http://www.w3.org/2000/svg">
<path d="M102.52 88.8291C87.1513 107.227 61.916 105.266 49.7236 89.6643C33.7541 63.8189 62.3091 27.5893 75.656 2C89.9321 24.524 117.888 70.4316 102.52 88.8291Z" fill="url(#paint0_linear_3_401)"/>
<path d="M67.7126 84.9385C68.0134 85.0346 68.0137 85.0346 68.3206 85.1328C70.4249 85.8675 72.3347 87.0773 74.2401 88.2164C78.1703 90.5598 82.1717 92.7873 86.841 92.8006C87.2025 92.8023 87.5636 92.8077 87.9247 92.8135C94.8066 92.8696 101.782 89.0615 103.734 87.4888C91.1353 102.684 61.7681 109.17 48.6372 86.6005C55.0265 83.6288 60.9835 82.6331 67.7126 84.9385Z" fill="#11BAF9"/>
<path d="M76.2815 1.71609C78.9364 6.38793 82.9192 13.2635 86.7982 19.6102C85.7468 19.6102 84.6955 19.6102 83.6121 19.6102C84.826 21.9383 84.826 21.9383 86.1123 24.2269C88.8853 29.0171 91.3515 34.3482 90.1009 39.998C89.9161 40.6563 89.6474 41.251 89.3318 41.8565C89.2684 41.9789 89.2046 42.1012 89.1392 42.2273C88.0404 44.274 86.1252 45.513 83.922 46.2307C82.0132 46.6647 79.7527 46.664 77.9478 45.8783C77.8396 45.8318 77.7313 45.7855 77.6197 45.7376C75.6513 44.8837 73.8365 43.8751 72.063 42.6656C70.896 41.8766 69.7233 41.237 68.4224 40.6886C68.2852 40.6304 68.1476 40.5723 68.0063 40.5122C62.697 38.3587 55.4824 40.6478 51.6772 44.9968C58.0318 31.5792 66.0648 19.1499 73.6265 6.38793C74.578 4.78141 75.5734 3.21461 76.2815 1.71609Z" fill="#11BAF9"/>
<path d="M22.6447 42.3088C25.3288 42.3088 28.0129 42.3088 30.7783 42.3088C30.7709 50.9298 30.6663 59.5541 30.7205 68.1751C30.7429 72.1156 29.1242 75.3698 26.6963 78.3398C12.1393 93.9801 -10.4546 71.7187 5.43263 56.1464C9.45053 52.375 18.1299 51.153 22.4679 55.5395C22.5262 51.1734 22.5846 46.8074 22.6447 42.3088Z" fill="white"/>
<path d="M143.677 60.018C145.587 63.1627 145.94 66.3546 145.91 69.9482C145.899 74.0635 145.88 78.1787 145.858 82.294C143.286 82.294 140.713 82.294 138.063 82.294C138.004 81.3007 137.946 80.3074 137.886 79.2842C134.882 82.1125 131.573 83.0844 127.457 82.8737C120.096 81.7632 115.74 75.7279 115.153 69.6723C114.435 54.1377 133.928 45.6479 143.677 60.018Z" fill="white"/>
<path d="M94.1501 53.6501C96.0609 54.9577 96.6115 57.1346 97.1291 59.286C97.5567 61.1272 97.5567 61.1272 98.1056 62.9333C99.1074 65.7899 99.715 68.994 100.517 71.9175C100.606 71.9179 100.695 71.9179 100.857 71.9175C102.292 66.4029 103.734 60.7173 105.364 55.2955C105.551 54.6685 105.699 54.0589 105.827 53.4152C108.522 53.4152 111.217 53.4152 113.993 53.4152C111.523 62.6662 108.748 70.6605 106.072 79.12C105.48 80.6326 104.398 81.7312 102.976 82.4921C101.661 83.0127 100.175 83.0035 98.8356 82.5798C97.3176 81.8808 96.2926 80.9388 95.6556 79.3814C93.9444 74.5902 92.4403 67.8261 91.2709 62.6662C91.0952 62.6662 90.9196 62.6662 90.7385 62.6662C89.3419 67.8135 87.778 72.9132 86.3595 78.054C85.8116 79.9801 85.1342 81.1474 83.4739 82.294C82.2037 82.9971 80.6075 82.9896 79.1998 82.7701C76.9906 82.0513 75.6597 80.1932 75.1721 78.0109C73.0017 70.7614 70.339 61.5992 68.0161 53.4152C70.6522 53.4152 73.2883 53.4152 76.0043 53.4152C77.7577 59.5653 79.393 65.7229 80.975 71.9175C81.092 71.9175 81.2094 71.9175 81.3301 71.9175C82.4991 66.9364 83.6627 62.3757 85.0081 57.6848C85.5452 55.8827 86.2857 54.3851 87.9261 53.352C89.992 52.2819 92.1759 52.4726 94.1501 53.6501Z" fill="white"/>
<path d="M62.6869 42.3112C62.8555 42.3105 63.0244 42.3102 63.1981 42.3095C64.4844 42.319 65.5773 42.5053 66.8761 42.7221C66.8761 45.0672 66.8761 47.4123 66.8761 49.8288C65.7057 49.8288 64.5357 49.8288 63.3296 49.8288C61.9515 50.174 61.2465 50.4173 60.3374 51.4497C60.0272 52.1742 60.0272 52.1742 59.9605 53.9148C61.9502 53.9148 63.9399 53.9148 65.9896 53.9148C65.9896 56.3775 65.9896 58.8398 65.9896 61.3769C63.9416 61.3769 61.8935 61.3769 59.7831 61.3769C59.7831 68.3538 59.7831 75.3307 59.7831 82.5189C57.2084 82.5189 54.6337 82.5189 51.981 82.5189C51.981 75.5421 51.981 68.5652 51.981 61.3769C50.7523 61.3769 49.5233 61.3769 48.2572 61.3769C48.2572 58.9146 48.2572 56.4519 48.2572 53.9148C49.5446 53.9148 50.8319 53.9148 52.1584 53.9148C52.1473 53.5118 52.1365 53.1087 52.125 52.6935C52.1061 49.7693 53.5331 47.1149 55.5275 45.0318C56.1709 44.4705 56.8628 44.0246 57.5999 43.5991C57.6997 43.539 57.7991 43.4792 57.9016 43.417C59.4385 42.5277 60.9292 42.2817 62.6869 42.3112Z" fill="white"/>
<path d="M35.7184 53.7979C38.226 53.7979 40.734 53.7979 43.3178 53.7979C43.3178 63.2758 43.3178 72.7538 43.3178 82.5193C40.8099 82.5193 38.3022 82.5193 35.7184 82.5193C35.7184 73.0413 35.7184 63.563 35.7184 53.7979Z" fill="white"/>
<path d="M15.0895 76.0296C19.3916 76.0296 22.8791 72.5148 22.8791 68.1791C22.8791 63.8434 19.3916 60.3286 15.0895 60.3286C10.7875 60.3286 7.29999 63.8434 7.29999 68.1791C7.29999 72.5148 10.7875 76.0296 15.0895 76.0296Z" fill="#081539"/>
<path d="M130.143 75.6263C134.445 75.6263 137.932 72.1115 137.932 67.7758C137.932 63.44 134.445 59.9252 130.143 59.9252C125.841 59.9252 122.353 63.44 122.353 67.7758C122.353 72.1115 125.841 75.6263 130.143 75.6263Z" fill="#081539"/>
<defs>
<linearGradient id="paint0_linear_3_401" x1="49.5" y1="91.1753" x2="122.145" y2="4.51716" gradientUnits="userSpaceOnUse">
<stop offset="0.186373" stop-color="#010614"/>
<stop offset="1" stop-color="#11BAF9" stop-opacity="0.37"/>
</linearGradient>
</defs>
</svg>
