<svg width="119" height="37" viewBox="0 0 119 37" fill="none" xmlns="http://www.w3.org/2000/svg">
<path d="M26.9043 31.6644C19.7159 38.3735 7.91231 37.6587 2.20944 31.969C-5.2602 22.5438 8.09618 9.33179 14.3391 0C21.0166 8.21394 34.0927 24.9553 26.9043 31.6644Z" fill="url(#paint0_linear_243_23)"/>
<path d="M10.3938 30.8016C10.533 30.8371 10.5332 30.8371 10.6752 30.8734C11.6494 31.1445 12.5335 31.5909 13.4155 32.0113C15.2349 32.8761 17.0872 33.6981 19.2487 33.703C19.4161 33.7036 19.5832 33.7056 19.7504 33.7077C22.9362 33.7284 26.1654 32.3232 27.069 31.7428C21.2367 37.3502 7.64196 39.7439 1.56339 31.415C4.52112 30.3183 7.27874 29.9509 10.3938 30.8016Z" fill="#11BAF9"/>
<path d="M14.3605 0.0902939C15.5896 1.81433 17.4333 4.3516 19.2289 6.6937C18.7422 6.6937 18.2556 6.6937 17.754 6.6937C18.316 7.55284 18.316 7.55284 18.9114 8.39741C20.1951 10.1651 21.3368 12.1325 20.7578 14.2174C20.6723 14.4603 20.5479 14.6798 20.4018 14.9032C20.3724 14.9484 20.3429 14.9935 20.3126 15.04C19.804 15.7953 18.9174 16.2526 17.8975 16.5174C17.0139 16.6776 15.9674 16.6773 15.1319 16.3874C15.0818 16.3702 15.0317 16.3531 14.98 16.3355C14.0688 16.0203 13.2287 15.6481 12.4077 15.2018C11.8675 14.9106 11.3246 14.6746 10.7224 14.4722C10.6589 14.4508 10.5952 14.4293 10.5298 14.4071C8.07199 13.6124 4.73215 14.4572 2.97069 16.0621C5.91234 11.1106 9.63101 6.52386 13.1315 1.81433C13.5719 1.22148 14.0327 0.643288 14.3605 0.0902939Z" fill="#11BAF9"/>
<path d="M88.945 13.5878C90.0958 14.35 90.4274 15.6189 90.7391 16.873C90.9966 17.9462 90.9966 17.9462 91.3272 18.999C91.9305 20.664 92.2965 22.5317 92.7796 24.2358C92.8332 24.236 92.8866 24.236 92.9843 24.2358C93.8487 21.0214 94.7168 17.7073 95.6987 14.5469C95.8112 14.1814 95.9003 13.8261 95.9777 13.4509C97.6006 13.4509 99.2235 13.4509 100.896 13.4509C99.4081 18.8433 97.7365 23.5031 96.1251 28.4342C95.7687 29.3158 95.1167 29.9562 94.2605 30.3997C93.4682 30.7032 92.5732 30.6978 91.7669 30.4508C90.8526 30.0434 90.2353 29.4943 89.8517 28.5865C88.8211 25.7937 87.9153 21.8509 87.211 18.8433C87.1052 18.8433 86.9994 18.8433 86.8904 18.8433C86.0493 21.8436 85.1074 24.8162 84.2531 27.8128C83.9231 28.9355 83.5152 29.6159 82.5153 30.2842C81.7503 30.6941 80.789 30.6897 79.9412 30.5618C78.6107 30.1428 77.8091 29.0597 77.5155 27.7876C76.2084 23.562 74.6047 18.2213 73.2058 13.4509C74.7934 13.4509 76.381 13.4509 78.0167 13.4509C79.0726 17.0358 80.0575 20.625 81.0103 24.2358C81.0808 24.2358 81.1514 24.2358 81.2241 24.2358C81.9282 21.3324 82.629 18.6739 83.4392 15.9396C83.7627 14.8892 84.2086 14.0162 85.1966 13.4141C86.4408 12.7903 87.7561 12.9014 88.945 13.5878Z" fill="#1C3656"/>
<path d="M68.7068 7.00136C68.8083 7.00096 68.9101 7.00076 69.0147 7.00037C69.7894 7.00591 70.4475 7.11446 71.2297 7.24084C71.2297 8.60779 71.2297 9.97475 71.2297 11.3833C70.5249 11.3833 69.8202 11.3833 69.0939 11.3833C68.2639 11.5846 67.8393 11.7264 67.2918 12.3282C67.105 12.7505 67.105 12.7505 67.0648 13.765C68.2631 13.765 69.4614 13.765 70.6959 13.765C70.6959 15.2005 70.6959 16.6358 70.6959 18.1147C69.4624 18.1147 68.229 18.1147 66.958 18.1147C66.958 22.1815 66.958 26.2483 66.958 30.4383C65.4073 30.4383 63.8567 30.4383 62.2592 30.4383C62.2592 26.3715 62.2592 22.3047 62.2592 18.1147C61.5192 18.1147 60.779 18.1147 60.0165 18.1147C60.0165 16.6794 60.0165 15.2439 60.0165 13.765C60.7918 13.765 61.5671 13.765 62.366 13.765C62.3593 13.5301 62.3528 13.2952 62.3459 13.0531C62.3345 11.3486 63.1939 9.80143 64.395 8.58719C64.7825 8.25996 65.1992 8.00008 65.6431 7.75208C65.7032 7.71702 65.7631 7.68216 65.8249 7.64591C66.7504 7.12753 67.6482 6.98412 68.7068 7.00136Z" fill="#1D3757"/>
<path d="M44.6378 7C46.2543 7 47.8708 7 49.5363 7C49.5318 12.0251 49.4688 17.0522 49.5015 22.0774C49.5149 24.3743 48.5401 26.2711 47.0779 28.0024C38.3109 37.1191 24.7037 24.1429 34.2718 15.0659C36.6916 12.8676 41.9187 12.1553 44.5313 14.7121C44.5664 12.1671 44.6016 9.6222 44.6378 7Z" fill="#1C3656"/>
<path d="M53 13C54.5102 13 56.0206 13 57.5768 13C57.5768 18.5247 57.5768 24.0494 57.5768 29.7416C56.0663 29.7416 54.5561 29.7416 53 29.7416C53 24.217 53 18.6921 53 13Z" fill="#1C3757"/>
<path d="M40.0394 26.4207C42.6303 26.4207 44.7307 24.3719 44.7307 21.8446C44.7307 19.3173 42.6303 17.2686 40.0394 17.2686C37.4485 17.2686 35.3481 19.3173 35.3481 21.8446C35.3481 24.3719 37.4485 26.4207 40.0394 26.4207Z" fill="white"/>
<path d="M117.654 16.4419C118.804 18.275 119.017 20.1355 118.999 22.2303C118.992 24.629 118.981 27.0278 118.968 29.4265C117.419 29.4265 115.869 29.4265 114.273 29.4265C114.238 28.8476 114.203 28.2686 114.166 27.6721C112.357 29.3208 110.365 29.8873 107.886 29.7645C103.452 29.1171 100.829 25.5992 100.475 22.0694C100.043 13.0143 111.783 8.06566 117.654 16.4419Z" fill="#1C3656"/>
<path d="M109.503 25.54C112.094 25.54 114.194 23.4912 114.194 20.9639C114.194 18.4366 112.094 16.3879 109.503 16.3879C106.912 16.3879 104.812 18.4366 104.812 20.9639C104.812 23.4912 106.912 25.54 109.503 25.54Z" fill="white"/>
<defs>
<linearGradient id="paint0_linear_243_23" x1="11.2173" y1="22.51" x2="29.1696" y2="-3.77019" gradientUnits="userSpaceOnUse">
<stop stop-color="#11BAF9" stop-opacity="0.37"/>
</linearGradient>
</defs>
</svg>
