<svg width="533" height="934" viewBox="0 0 533 934" fill="none" xmlns="http://www.w3.org/2000/svg">
<path d="M261.584 387.467L264.368 395.489C265.198 406.001 266.722 421.111 268.588 439.606C274.741 500.603 284.61 598.427 285.549 689.638C286.161 749.101 282.976 805.703 272.507 847.426C267.272 868.289 260.226 885.388 250.957 897.262C241.7 909.12 230.24 915.753 216.129 915.753C202.024 915.753 190.677 908.975 181.614 896.858C172.538 884.724 165.769 867.254 160.87 845.949C151.074 803.345 148.793 745.582 150.33 685.009C152.648 593.621 163.65 495.952 170.578 434.452C172.833 414.427 174.657 398.236 175.608 387.346L175.65 386.869L175.175 386.807C148.971 383.392 125.388 361.566 108.161 340.699C104.055 334.706 99.7378 325.015 95.5496 312.6C91.3602 300.181 87.3102 285.068 83.7319 268.268C76.5752 234.667 71.3104 194.341 70.5855 155.364C69.8604 116.376 73.6786 78.7828 84.6552 50.619C95.6258 22.4705 113.698 3.83945 141.466 2.49978C146.919 2.5047 150.956 5.88518 153.919 12.0349C156.891 18.2017 158.726 27.0561 159.774 37.7506C161.869 59.1297 160.803 87.6532 159.585 116.225C159.517 117.812 159.449 119.399 159.381 120.984C158.223 147.93 157.08 174.562 158.497 194.826C159.247 205.549 160.717 214.54 163.309 220.864C165.899 227.187 169.683 230.993 175.11 230.993C179.758 230.993 183.183 227.105 185.777 220.779C188.387 214.414 190.255 205.357 191.678 194.544C193.981 177.046 195.133 154.832 196.329 131.742C196.612 126.285 196.897 120.778 197.201 115.274C198.791 86.4569 200.883 57.6861 205.734 36.1242C208.16 25.3402 211.266 16.4049 215.315 10.1765C219.357 3.95851 224.292 0.5 230.394 0.5C236.833 0.5 241.695 4.0476 245.353 10.4138C249.023 16.8002 251.443 25.97 252.964 37.0525C256.005 59.2088 255.426 88.8014 254.25 118.522C253.995 124.977 253.712 131.438 253.431 137.83C252.422 160.841 251.452 182.946 251.979 200.593C252.316 211.865 253.264 221.363 255.22 228.136C257.161 234.859 260.176 239.153 264.824 239.499C268.287 239.756 271.218 238.997 273.671 237.327C276.116 235.663 278.05 233.12 279.572 229.87C282.61 223.384 284.066 213.964 284.626 202.677C285.374 187.594 284.526 169.033 283.63 149.434C283.185 139.699 282.728 129.707 282.45 119.758C281.61 89.7308 282.39 60.0822 289.932 38.77C293.699 28.1233 299.138 19.6025 306.863 14.1447C314.579 8.69338 324.634 6.25618 337.722 7.8848C349.938 9.40493 358.34 19.2264 364.055 34.1149C369.766 48.9914 372.73 68.782 374.145 89.9342C376.076 118.784 375.122 150.043 374.37 174.699C374.018 186.213 373.711 196.288 373.762 204.003C373.908 227.948 369.115 258.046 359.743 286.747C350.37 315.449 336.435 342.703 318.33 361.008C300.932 376.803 285.808 384.9 262.016 386.805L261.372 386.856L261.584 387.467Z" fill="url(#paint0_linear_267_360)" stroke="black"/>
<path d="M128.05 401.215L128.045 401.217C93.0828 419.022 58.7032 438.179 25.1015 461.726C18.795 464.898 13.9236 466.278 10.2576 466.275C6.61749 466.272 4.17744 464.908 2.64272 462.557C1.08438 460.17 0.417108 456.699 0.508174 452.419C0.599011 448.149 1.44278 443.136 2.84275 437.719C5.64232 426.886 10.648 414.504 16.2003 403.353C21.7548 392.196 27.8382 382.307 32.7787 376.445C92.9255 305.076 162.456 271.982 230.151 268.171C297.854 264.36 363.776 289.834 416.7 335.702C522.542 427.431 576.369 600.703 488.335 784.142C435.427 880.35 352.748 921.733 273.237 932.535C174.882 940.882 81.3536 887.81 33.869 841.765C22.0011 830.257 13.0294 819.206 7.58054 809.686C4.85605 804.925 3.02133 800.563 2.13966 796.728C1.25744 792.892 1.33715 789.619 2.39456 787.007C4.48306 781.848 10.5555 778.95 21.7063 779.708C32.8212 780.464 48.7684 784.852 70.2112 793.98C176.087 858.22 257.806 853.521 314.518 813.219C371.188 772.949 402.734 697.231 408.525 619.751C414.316 542.271 394.366 462.872 347.847 415.208C324.578 391.367 294.668 375.474 258.038 371.748C221.415 368.022 178.111 376.461 128.05 401.215Z" fill="#FB0B0F" stroke="black"/>
<defs>
<linearGradient id="paint0_linear_267_360" x1="-323.203" y1="49.0625" x2="-322.611" y2="1307.61" gradientUnits="userSpaceOnUse">
<stop stop-color="#FB0B0F"/>
<stop offset="0.57888" stop-color="#FF8A00"/>
</linearGradient>
</defs>
</svg>
