<svg width="500" height="500" viewBox="0 0 500 500" fill="none" xmlns="http://www.w3.org/2000/svg">
<path d="M111.714 173.153C111.703 173.153 111.691 173.269 111.68 173.498C111.672 173.765 111.661 174.099 111.648 174.513C111.644 174.959 111.613 175.512 111.633 176.165C111.667 176.826 111.706 177.578 111.749 178.418C111.987 181.801 112.857 186.693 114.994 192.39C117.139 198.078 120.611 204.493 125.323 210.992C130.017 217.514 135.945 224.058 142.091 230.944C148.234 237.832 153.945 244.55 158.226 251.292C162.524 258.015 165.412 264.676 166.965 270.501C168.508 276.337 168.789 281.266 168.618 284.631C168.561 285.466 168.51 286.213 168.465 286.869C168.409 287.516 168.313 288.059 168.263 288.501C168.214 288.911 168.174 289.243 168.142 289.507C168.118 289.734 168.112 289.852 168.123 289.854C168.134 289.856 168.163 289.743 168.209 289.519C168.258 289.256 168.319 288.928 168.396 288.521C168.467 288.081 168.585 287.539 168.662 286.89C168.725 286.231 168.797 285.481 168.877 284.644C169.129 281.262 168.919 276.283 167.421 270.381C165.913 264.49 163.045 257.752 158.744 250.963C154.459 244.152 148.737 237.395 142.588 230.501C136.437 223.611 130.513 217.096 125.819 210.631C121.106 204.187 117.618 197.843 115.433 192.22C113.256 186.588 112.322 181.75 112.007 178.393C111.941 177.558 111.883 176.812 111.831 176.155C111.79 175.506 111.801 174.955 111.783 174.51C111.769 174.097 111.758 173.763 111.749 173.497C111.736 173.271 111.725 173.153 111.714 173.153Z" fill="#E0E0E0"/>
<path d="M131.691 239.931C131.935 239.619 132.53 239.639 133.033 239.704C137.045 240.225 141.042 241.832 144.181 244.186C147.32 246.54 149.578 249.626 150.481 252.792L149.74 252.613C146.066 252.365 142.44 250.672 139.544 248.52C136.649 246.368 134.371 243.77 132.126 241.2C131.778 240.801 131.414 240.285 131.691 239.931Z" fill="#EBEBEB"/>
<path d="M144.146 208.207C144.541 208.174 144.93 208.624 145.224 209.038C147.567 212.336 149.102 216.362 149.505 220.265C149.908 224.168 149.177 227.921 147.467 230.733L147.096 230.068C144.783 227.203 143.563 223.391 143.176 219.804C142.789 216.217 143.15 212.781 143.511 209.388C143.565 208.861 143.697 208.244 144.146 208.207Z" fill="#EBEBEB"/>
<path d="M139.312 244.567C139.283 244.593 139.603 245.014 140.261 245.706C140.917 246.4 141.945 247.33 143.307 248.361C146.009 250.47 150.195 252.664 154.607 255.318C159.008 257.983 162.479 261.207 164.233 264.073C166.037 266.92 166.28 269.081 166.426 269.035C166.46 269.03 166.423 268.5 166.199 267.568C165.984 266.634 165.498 265.316 164.634 263.828C162.935 260.816 159.413 257.449 154.955 254.752C150.497 252.071 146.319 249.965 143.583 247.98C140.81 246.052 139.398 244.482 139.312 244.567Z" fill="#E0E0E0"/>
<path d="M105.581 212.67C105.761 212.317 106.348 212.223 106.855 212.191C110.893 211.936 115.123 212.75 118.654 214.461C122.184 216.172 124.991 218.77 126.481 221.705L125.72 221.67C122.066 222.128 118.183 221.159 114.93 219.6C111.677 218.041 108.945 215.925 106.25 213.832C105.832 213.508 105.377 213.071 105.581 212.67Z" fill="#EBEBEB"/>
<path d="M113.947 215.765C113.924 215.796 114.321 216.151 115.105 216.706C115.886 217.266 117.082 217.986 118.627 218.741C121.703 220.302 126.266 221.656 131.128 223.441C135.956 225.295 139.601 228.412 142.02 230.765C144.447 233.147 145.779 234.795 145.866 234.722C145.9 234.695 145.603 234.255 145.016 233.498C144.427 232.742 143.539 231.676 142.353 230.434C139.998 227.977 136.331 224.73 131.365 222.821C126.447 221.016 121.912 219.749 118.825 218.316C115.712 216.946 114.016 215.665 113.947 215.765Z" fill="#E0E0E0"/>
<path d="M89.428 165.54C89.724 165.277 90.305 165.403 90.789 165.558C94.643 166.79 98.287 169.088 100.952 171.968C103.617 174.847 105.286 178.288 105.605 181.564L104.909 181.255C101.339 180.352 98.075 178.036 95.613 175.399C93.15 172.763 91.376 169.798 89.628 166.867C89.357 166.412 89.092 165.839 89.428 165.54Z" fill="#EBEBEB"/>
<path d="M96.093 171.468C96.054 171.492 96.228 171.829 96.579 172.422C96.944 173.003 97.506 173.828 98.296 174.77C99.845 176.687 102.351 179 105.218 181.374C106.646 182.57 108.011 183.698 109.217 184.759C110.414 185.812 111.393 186.871 112.171 187.797C113.72 189.659 114.515 190.949 114.606 190.892C114.643 190.869 114.49 190.521 114.151 189.924C113.809 189.33 113.283 188.484 112.538 187.504C111.794 186.525 110.83 185.408 109.626 184.304C108.432 183.208 107.072 182.06 105.645 180.865C102.779 178.491 100.266 176.271 98.65 174.461C97.002 172.682 96.191 171.404 96.093 171.468Z" fill="#E0E0E0"/>
<path d="M145.132 213.856C145.091 213.856 145.045 214.368 145.05 215.293C145.049 216.219 145.114 217.557 145.274 219.204C145.435 220.851 145.695 222.806 146.114 224.957C146.558 227.1 147.094 229.465 148.112 231.819C148.634 233.008 149.284 234.049 149.861 235.084C150.444 236.111 151.007 237.104 151.547 238.056C152.607 239.955 153.518 241.687 154.227 243.169C155.654 246.129 156.326 248.056 156.429 248.021C156.47 248.007 156.35 247.509 156.067 246.628C155.784 245.747 155.316 244.49 154.654 242.973C153.994 241.454 153.12 239.686 152.084 237.762C151.553 236.802 151 235.8 150.428 234.764C149.857 233.725 149.209 232.67 148.721 231.553C147.738 229.283 147.185 226.945 146.715 224.835C146.267 222.713 145.962 220.779 145.742 219.151C145.525 217.522 145.388 216.198 145.31 215.281C145.224 214.364 145.182 213.855 145.132 213.856Z" fill="#E0E0E0"/>
<path d="M122.676 178.222C123.071 178.254 123.381 178.762 123.604 179.218C125.376 182.855 126.231 187.077 125.991 190.993C125.751 194.909 124.416 198.492 122.268 200.987L122.011 200.27C120.198 197.065 119.617 193.105 119.823 189.503C120.029 185.901 120.946 182.57 121.857 179.282C121.996 178.773 122.227 178.185 122.676 178.222Z" fill="#EBEBEB"/>
<path d="M123.017 183.966C122.937 183.947 122.526 185.339 122.183 187.648C121.832 189.953 121.51 193.17 121.561 196.74C121.593 198.525 121.724 200.229 122.011 201.764C122.299 203.315 122.807 204.609 123.151 205.714C123.881 207.92 124.377 209.273 124.465 209.247C124.553 209.222 124.217 207.823 123.601 205.581C123.312 204.454 122.852 203.137 122.613 201.657C122.367 200.164 122.256 198.489 122.224 196.729C122.174 193.206 122.418 190.01 122.648 187.708C122.871 185.402 123.116 183.988 123.017 183.966Z" fill="#E0E0E0"/>
<path d="M363.195 62.139C363.218 62.15 363.088 62.476 362.821 63.085C362.519 63.759 362.124 64.641 361.632 65.739C360.596 68.041 359.154 71.397 357.434 75.572C355.709 79.744 353.731 84.746 351.41 90.254C349.084 95.758 346.381 101.768 343.012 107.808C339.61 113.834 335.753 119.23 331.711 123.668C327.662 128.098 323.481 131.597 319.637 134.015C315.803 136.448 312.422 137.949 310.017 138.745C308.836 139.206 307.862 139.393 307.227 139.59C306.584 139.762 306.243 139.841 306.237 139.816C306.23 139.791 306.558 139.664 307.185 139.446C307.804 139.204 308.76 138.973 309.918 138.473C312.277 137.599 315.592 136.038 319.351 133.574C323.12 131.124 327.22 127.621 331.203 123.208C335.18 118.787 338.987 113.425 342.364 107.444C345.712 101.442 348.424 95.465 350.78 89.985C353.094 84.502 355.183 79.552 356.949 75.367C358.733 71.214 360.251 67.884 361.37 65.616C361.915 64.475 362.381 63.61 362.687 63.019C362.998 62.431 363.172 62.128 363.195 62.139Z" fill="#E0E0E0"/>
<path d="M338.77 78.7831C339.203 78.8771 339.473 79.4851 339.653 80.0251C341.084 84.3201 341.414 89.1301 340.572 93.4391C339.73 97.7481 337.723 101.528 334.974 103.98L334.794 103.147C333.253 99.3251 333.191 94.8471 333.947 90.8811C334.703 86.9151 336.211 83.3551 337.704 79.8401C337.935 79.2941 338.278 78.6761 338.77 78.7831Z" fill="#EBEBEB"/>
<path d="M376.798 75.865C377.023 76.247 376.76 76.8581 376.486 77.3561C374.305 81.3231 370.998 84.832 367.264 87.141C363.529 89.45 359.392 90.5431 355.725 90.1901L356.214 89.492C357.973 85.765 361.218 82.6781 364.642 80.5401C368.066 78.4021 371.704 77.0901 375.298 75.8001C375.856 75.5991 376.542 75.431 376.798 75.865Z" fill="#EBEBEB"/>
<path d="M337.815 88.719C337.943 88.765 337.049 90.952 336.458 94.685C335.792 98.409 335.707 103.644 335.18 109.441C334.636 115.246 332.961 120.435 330.755 123.615C329.677 125.211 328.586 126.343 327.75 127.015C326.921 127.695 326.405 127.991 326.383 127.959C326.266 127.835 328.324 126.537 330.313 123.331C332.345 120.167 333.9 115.098 334.44 109.366C334.963 103.628 335.133 98.341 335.94 94.592C336.314 92.718 336.75 91.228 337.13 90.23C337.506 89.23 337.774 88.702 337.815 88.719Z" fill="#E0E0E0"/>
<path d="M353.504 39.193C353.948 39.202 354.328 39.748 354.608 40.243C356.833 44.186 358.076 48.844 358.072 53.235C358.069 57.625 356.821 61.719 354.591 64.651L354.255 63.867C352.012 60.41 351.096 56.026 351.081 51.989C351.066 47.952 351.865 44.169 352.66 40.434C352.782 39.854 353 39.182 353.504 39.193Z" fill="#EBEBEB"/>
<path d="M354.464 49.128C354.598 49.149 354.135 51.482 354.272 55.284C354.333 59.092 355.267 64.278 355.846 70.112C356.344 76.045 354.861 81.322 353.533 84.892C352.861 86.692 352.219 88.107 351.745 89.068C351.268 90.028 350.97 90.541 350.926 90.521C350.81 90.469 351.821 88.324 353.037 84.718C354.227 81.135 355.591 75.944 355.105 70.177C354.534 64.409 353.673 59.152 353.746 55.293C353.754 53.369 353.896 51.814 354.079 50.754C354.258 49.693 354.421 49.12 354.464 49.128Z" fill="#E0E0E0"/>
<path d="M371.589 79.6121C371.614 79.6631 371.122 79.9531 370.24 80.4841C369.355 81.0101 368.087 81.7921 366.552 82.8051C365.019 83.8201 363.22 85.0701 361.301 86.5561C359.404 88.0581 357.319 89.7561 355.511 91.8521C354.623 92.8891 353.877 94.0561 353.108 95.1371C352.343 96.2191 351.604 97.2641 350.896 98.2671C349.462 100.248 348.107 101.991 346.899 103.396C345.693 104.803 344.656 105.886 343.906 106.601C343.157 107.316 342.713 107.679 342.679 107.645C342.593 107.559 344.207 105.943 346.493 103.062C347.64 101.626 348.941 99.8641 350.337 97.8711C351.033 96.8631 351.758 95.8121 352.508 94.7241C353.269 93.6381 354.002 92.4761 354.944 91.3701C356.82 89.1971 358.941 87.5051 360.883 86.0131C362.845 84.5421 364.689 83.3281 366.269 82.3631C367.851 81.4001 369.167 80.6821 370.1 80.2311C371.031 79.7741 371.568 79.5701 371.589 79.6121Z" fill="#E0E0E0"/>
<path d="M389.006 309.622C388.788 309.291 388.194 309.263 387.686 309.287C383.645 309.481 379.531 310.759 376.212 312.851C372.893 314.943 370.392 317.836 369.236 320.918L369.989 320.799C373.671 320.849 377.423 319.456 380.483 317.546C383.543 315.636 386.024 313.23 388.47 310.852C388.85 310.482 389.254 309.997 389.006 309.622Z" fill="#EBEBEB"/>
<path d="M381.035 313.624C381.062 313.653 380.707 314.049 379.989 314.688C379.275 315.331 378.166 316.179 376.715 317.101C373.831 318.993 369.446 320.845 364.812 323.158C360.219 325.536 356.942 329.038 354.799 331.644C352.651 334.28 351.51 336.066 351.415 336.003C351.378 335.98 351.624 335.51 352.124 334.692C352.625 333.876 353.39 332.717 354.431 331.352C356.499 328.649 359.784 325.015 364.508 322.567C369.195 320.228 373.562 318.466 376.471 316.699C379.412 314.994 380.956 313.533 381.035 313.624Z" fill="#E0E0E0"/>
<path d="M399.29 265.077C398.966 264.848 398.403 265.038 397.939 265.246C394.246 266.898 390.879 269.586 388.55 272.743C386.221 275.9 384.944 279.505 384.989 282.796L385.647 282.412C389.095 281.118 392.082 278.455 394.237 275.562C396.392 272.669 397.826 269.525 399.239 266.419C399.458 265.936 399.658 265.337 399.29 265.077Z" fill="#EBEBEB"/>
<path d="M393.324 271.707C393.365 271.727 393.23 272.081 392.947 272.709C392.649 273.327 392.181 274.209 391.501 275.233C390.174 277.31 387.94 279.886 385.354 282.564C384.067 283.911 382.836 285.183 381.755 286.372C380.682 287.551 379.827 288.712 379.156 289.719C377.823 291.741 377.176 293.112 377.079 293.065C377.039 293.047 377.154 292.683 377.424 292.052C377.698 291.423 378.127 290.524 378.759 289.468C379.39 288.412 380.224 287.196 381.299 285.964C382.364 284.742 383.588 283.451 384.874 282.105C387.459 279.428 389.71 276.942 391.116 274.966C392.555 273.015 393.219 271.654 393.324 271.707Z" fill="#E0E0E0"/>
<path d="M368.865 277.419C368.476 277.495 368.224 278.034 368.054 278.512C366.697 282.323 366.314 286.614 366.987 290.48C367.66 294.345 369.384 297.759 371.795 300L371.971 299.259C373.418 295.873 373.556 291.873 372.952 288.316C372.349 284.759 371.067 281.55 369.798 278.383C369.602 277.892 369.307 277.333 368.865 277.419Z" fill="#EBEBEB"/>
<path d="M369.163 283.167C369.241 283.139 369.803 284.477 370.4 286.734C371.005 288.986 371.681 292.147 372.026 295.701C372.192 297.478 372.251 299.187 372.136 300.743C372.022 302.317 371.661 303.659 371.441 304.795C370.96 307.069 370.617 308.468 370.527 308.452C370.437 308.436 370.616 307.009 370.979 304.712C371.141 303.56 371.453 302.2 371.526 300.703C371.605 299.192 371.53 297.515 371.366 295.762C371.025 292.255 370.429 289.106 369.945 286.843C369.467 284.577 369.067 283.199 369.163 283.167Z" fill="#E0E0E0"/>
<path d="M377.017 272.772C377.025 272.769 377.059 272.84 377.116 272.983C377.182 273.156 377.261 273.365 377.358 273.621C377.586 274.178 377.84 275.025 378.131 276.129C378.694 278.336 379.148 281.654 378.856 285.736C378.552 289.81 377.445 294.611 375.315 299.576C373.2 304.553 370.043 309.612 366.438 314.665C362.822 319.718 359.16 324.36 356.098 328.768C353.022 333.165 350.551 337.33 348.823 340.997C347.099 344.667 346.084 347.801 345.538 350.001C345.27 351.103 345.075 351.962 344.972 352.551C344.916 352.818 344.87 353.037 344.832 353.217C344.797 353.367 344.775 353.443 344.766 353.442C344.757 353.441 344.762 353.362 344.779 353.209C344.803 353.026 344.833 352.804 344.869 352.533C344.939 351.937 345.103 351.068 345.342 349.953C345.83 347.728 346.798 344.554 348.49 340.841C350.186 337.131 352.64 332.921 355.704 328.494C358.755 324.055 362.408 319.4 366.014 314.362C369.608 309.325 372.755 304.306 374.874 299.386C377.008 294.477 378.141 289.734 378.488 285.706C378.824 281.67 378.432 278.38 377.933 276.175C377.674 275.072 377.453 274.22 377.258 273.654C377.181 273.392 377.118 273.178 377.066 273.001C377.025 272.853 377.009 272.775 377.017 272.772Z" fill="#E0E0E0"/>
<path d="M387.966 246.885C381.961 242.331 380.225 233.034 384.181 226.62C388.084 232.194 389.775 240.327 387.966 246.885Z" fill="#EBEBEB"/>
<path d="M418.471 226.474C410.356 218.709 409.369 204.647 416.321 195.825C421.148 204.742 422.267 217.072 418.471 226.474Z" fill="#F5F5F5"/>
<path d="M127.36 108.458C125.245 101.225 129.384 92.72 136.381 89.921C136.199 96.723 132.717 104.265 127.36 108.458Z" fill="#F5F5F5"/>
<path d="M382.298 155.884C382.177 150.332 377.38 145.277 371.842 144.865C373.482 149.602 377.603 154.127 382.298 155.884Z" fill="#F5F5F5"/>
<path d="M99.591 118.604C99.47 113.052 94.673 107.997 89.135 107.585C90.774 112.322 94.896 116.847 99.591 118.604Z" fill="#F5F5F5"/>
<path d="M115.772 360.608C107.382 362.345 98.123 356.879 95.589 348.694C103.28 349.521 111.509 354.155 115.772 360.608Z" fill="#EBEBEB"/>
<path d="M99.62 325.018C93.693 318.831 93.407 308.083 98.997 301.59C102.38 308.545 102.824 317.979 99.62 325.018Z" fill="#EBEBEB"/>
<path d="M393.751 199.563C386.559 197.31 381.78 189.149 383.333 181.774C388.891 185.698 393.234 192.779 393.751 199.563Z" fill="#EBEBEB"/>
<path d="M115.655 144.562C112.507 137.715 115.36 128.697 121.874 124.907C122.686 131.662 120.343 139.631 115.655 144.562Z" fill="#EBEBEB"/>
<path d="M154.532 92.097C158.53 85.708 167.634 83.147 174.377 86.513C169.175 90.898 161.226 93.311 154.532 92.097Z" fill="#EBEBEB"/>
<path d="M319.753 24.645C327.137 26.152 332.725 33.783 331.933 41.278C326.003 37.941 320.959 31.34 319.753 24.645Z" fill="#EBEBEB"/>
<path d="M128.123 476.723C135.174 468.864 139.109 454.659 139.975 444.135C141.444 426.303 137.598 408.067 129.055 392.347C127.185 388.908 125.079 385.543 123.974 381.788C122.273 376.011 122.912 369.315 119.263 364.525C117.428 362.116 114.446 359.347 115.937 356.711C117.088 354.676 120.308 354.833 122.034 356.412C123.759 357.991 124.391 360.401 124.998 362.659C127.252 371.037 130.257 379.212 133.967 387.055C135.048 389.338 137.078 392.002 139.475 391.204C142.75 390.114 141.074 385.159 138.861 382.511C141.26 381.839 143.715 383.823 144.625 386.142C145.533 388.461 145.367 391.037 145.519 393.524C146.374 407.523 157.22 418.584 167.385 428.246C168.189 429.01 169.075 429.814 170.177 429.937C172.034 430.144 173.562 428.205 173.639 426.338C173.716 424.47 172.783 422.728 171.877 421.093C176.117 418.419 181.741 421.926 184.358 426.202C186.975 430.478 188.204 435.683 191.772 439.204C195.34 442.725 202.806 442.879 204.189 438.06C205.239 434.402 202.146 429.959 204.443 426.924C206.158 424.657 209.607 424.987 212.376 425.627C211.722 430.428 211.144 435.646 213.592 439.827C216.041 444.008 222.86 445.755 225.659 441.8C226.845 440.125 226.992 437.961 227.404 435.951C228.218 431.977 230.241 428.259 233.136 425.418C234.733 423.85 236.848 422.479 239.058 422.827C242.171 423.318 243.939 426.907 246.959 427.805C249.546 428.574 252.375 427.074 253.984 424.907C255.592 422.739 256.247 420.031 256.864 417.404C257.804 413.411 258.744 409.418 259.683 405.425C260.69 401.146 261.913 396.519 265.403 393.847C268.893 391.174 275.296 392.246 276.025 396.581C276.99 402.32 267.878 407.714 271.319 412.405C272.142 413.527 273.523 414.12 274.896 414.341C280.892 415.305 286.207 410.034 288.564 404.438C290.921 398.843 291.492 392.572 294.246 387.161C297 381.749 303.282 377.22 308.931 379.447C310.547 380.085 311.962 381.222 313.653 381.617C315.595 382.07 317.644 381.472 319.407 380.539C326.377 376.856 329.524 368.769 332.526 361.478C333.192 359.861 333.989 358.126 335.544 357.323C337.151 356.492 339.088 356.899 340.89 356.728C346.579 356.189 349.91 350.272 352.48 345.17C355.052 340.068 359.06 334.342 364.761 334.714C365.434 334.757 366.148 334.917 366.604 335.412C367.436 336.313 366.993 337.788 366.299 338.799C363.467 342.937 357.719 344.182 354.65 348.147C350.658 353.307 352.632 360.76 351.179 367.119C349.074 376.334 340.234 382.063 332.811 387.914C320.656 397.495 310.578 409.971 305.03 424.419C299.48 438.867 298.679 455.326 304.062 469.836C305.146 472.757 307.271 476.085 310.369 475.759" fill="#E8505B"/>
<g opacity="0.9">
<path d="M310.371 475.759L309.522 475.748C309.797 475.779 310.078 475.791 310.371 475.759Z" fill="white"/>
</g>
<g opacity="0.8">
<path d="M366.606 335.413C366.15 334.918 365.436 334.758 364.763 334.715C359.062 334.343 355.054 340.069 352.482 345.171C349.911 350.273 346.58 356.19 340.892 356.729C339.09 356.9 337.153 356.493 335.546 357.324C333.991 358.127 333.194 359.862 332.528 361.479C329.525 368.77 326.379 376.857 319.409 380.54C317.646 381.472 315.597 382.071 313.655 381.618C311.964 381.224 310.549 380.086 308.933 379.449C303.284 377.222 297.003 381.751 294.248 387.162C291.494 392.574 290.923 398.844 288.566 404.44C286.209 410.036 280.894 415.307 274.898 414.343C273.525 414.122 272.144 413.529 271.321 412.407C267.879 407.716 276.991 402.321 276.027 396.583C275.298 392.247 268.895 391.175 265.405 393.848C261.915 396.52 260.692 401.147 259.685 405.426C258.746 409.419 257.806 413.412 256.866 417.405C256.249 420.032 255.593 422.74 253.986 424.908C252.378 427.075 249.548 428.575 246.961 427.806C243.94 426.909 242.173 423.319 239.06 422.829C236.85 422.481 234.735 423.852 233.138 425.42C230.243 428.261 228.22 431.979 227.406 435.953C226.994 437.963 226.847 440.127 225.661 441.802C222.862 445.757 216.043 444.01 213.594 439.829C211.146 435.648 211.724 430.43 212.378 425.629C209.609 424.989 206.16 424.66 204.445 426.926C202.148 429.962 205.241 434.404 204.191 438.062C202.808 442.881 195.342 442.727 191.774 439.206C188.206 435.685 186.977 430.48 184.36 426.204C181.743 421.928 176.119 418.421 171.879 421.095C172.785 422.729 173.718 424.472 173.641 426.34C173.564 428.207 172.037 430.146 170.179 429.939C169.077 429.816 168.191 429.012 167.387 428.248C157.222 418.585 146.376 407.525 145.521 393.526C145.37 391.04 145.536 388.464 144.627 386.144C143.717 383.825 141.263 381.841 138.863 382.513C141.076 385.161 142.752 390.116 139.477 391.206C137.08 392.004 135.049 389.34 133.97 387.057C130.259 379.215 127.254 371.039 125 362.661C124.393 360.402 123.76 357.993 122.036 356.414C120.31 354.835 117.091 354.677 115.939 356.713C114.447 359.349 117.43 362.118 119.265 364.527C122.915 369.317 122.275 376.013 123.976 381.79C125.081 385.545 127.188 388.91 129.057 392.349C137.6 408.07 141.446 426.306 139.978 444.137C139.111 454.661 135.176 468.866 128.125 476.725L309.524 475.75C306.885 475.453 305.047 472.484 304.066 469.838C298.683 455.328 299.485 438.869 305.034 424.421C310.582 409.973 320.66 397.497 332.815 387.916C340.239 382.065 349.079 376.337 351.183 367.121C352.636 360.761 350.662 353.308 354.655 348.149C357.723 344.184 363.471 342.94 366.303 338.801C366.994 337.789 367.438 336.315 366.606 335.413Z" fill="white"/>
</g>
<path d="M358.758 344.148C358.759 344.157 358.642 344.182 358.416 344.222C358.19 344.255 357.854 344.311 357.428 344.445C356.584 344.701 355.34 345.231 354.116 346.407C352.874 347.549 351.665 349.28 350.717 351.487C349.752 353.691 349.206 356.406 348.312 359.326C347.863 360.787 347.316 362.31 346.492 363.782C346.091 364.523 345.583 365.225 345.028 365.905C344.458 366.574 343.82 367.19 343.194 367.824C342.57 368.458 341.953 369.117 341.457 369.87C340.961 370.624 340.584 371.471 340.273 372.36C339.65 374.137 339.298 376.092 338.503 377.984C336.924 381.74 334.012 385.182 330.135 387.368C328.21 388.468 326.028 389.223 323.785 389.611C321.567 390.034 319.27 390.374 317.35 391.617C315.372 392.859 313.852 394.68 312.551 396.561C311.248 398.458 310.113 400.429 309.122 402.424C308.134 404.42 307.303 406.447 306.618 408.474C305.922 410.5 305.44 412.533 304.939 414.528C304.425 416.514 303.82 418.465 302.791 420.159C301.767 421.834 300.351 423.257 298.63 424.005C295.173 425.719 290.785 423.143 290.881 419.785L291.123 419.96C288.388 420.958 286.31 422.73 284.9 424.539C283.466 426.352 282.685 428.224 282.239 429.775C281.397 432.931 281.831 434.775 281.728 434.764C281.719 434.765 281.704 434.655 281.681 434.436C281.663 434.217 281.618 433.891 281.604 433.461C281.595 432.603 281.635 431.318 282.048 429.724C282.47 428.143 283.235 426.229 284.674 424.364C286.088 422.505 288.193 420.669 291 419.619L291.248 419.526L291.242 419.793C291.207 421.255 292.192 422.699 293.616 423.453C295.023 424.268 296.857 424.367 298.457 423.613C300.071 422.905 301.424 421.541 302.402 419.923C303.384 418.293 303.974 416.383 304.475 414.409C304.964 412.429 305.449 410.363 306.147 408.316C306.834 406.267 307.669 404.217 308.664 402.197C309.664 400.18 310.807 398.189 312.125 396.266C313.444 394.357 315 392.478 317.073 391.175C319.104 389.863 321.493 389.519 323.686 389.1C325.904 388.717 327.996 387.992 329.882 386.923C333.661 384.8 336.509 381.449 338.058 377.798C338.836 375.97 339.194 374.029 339.84 372.207C340.161 371.297 340.558 370.415 341.084 369.623C341.611 368.831 342.252 368.156 342.885 367.519C343.52 366.882 344.154 366.277 344.709 365.632C345.25 364.978 345.746 364.303 346.141 363.583C346.952 362.155 347.504 360.661 347.959 359.215C348.869 356.323 349.442 353.603 350.45 351.37C351.436 349.141 352.69 347.398 353.978 346.256C355.247 345.081 356.534 344.568 357.399 344.342C357.836 344.223 358.177 344.183 358.408 344.167C358.64 344.146 358.757 344.139 358.758 344.148Z" fill="white"/>
<path d="M172.958 140.016C173.335 131.087 174.001 121.4 179.896 114.682C186.927 106.669 198.781 105.666 209.38 104.522C219.979 103.378 232.05 100.448 236.756 90.8813C237.843 88.6714 238.469 86.194 240.021 84.2816C243.562 79.9175 251.655 80.884 254.068 85.9601C258.727 87.2611 261.441 80.3094 259.917 75.7185C258.394 71.1276 254.93 66.7782 255.84 62.0272C256.675 57.6617 261.309 54.7117 265.752 54.8038C270.196 54.897 274.284 57.468 277.265 60.764C284.2 68.4299 285.783 80.4255 281.219 89.7002C276.655 98.9749 266.293 105.019 255.966 104.586C249.306 104.307 241.766 101.832 236.555 105.99C232.89 108.913 231.776 114.302 227.909 116.951C222.08 120.944 214.462 116.554 207.639 114.721C192.605 110.682 175.392 122.564 173.838 138.053" fill="#E8505B"/>
<g opacity="0.8">
<path d="M172.958 140.016C173.335 131.087 174.001 121.4 179.896 114.682C186.927 106.669 198.781 105.666 209.38 104.522C219.979 103.378 232.05 100.448 236.756 90.8813C237.843 88.6714 238.469 86.194 240.021 84.2816C243.562 79.9175 251.655 80.884 254.068 85.9601C258.727 87.2611 261.441 80.3094 259.917 75.7185C258.394 71.1276 254.93 66.7782 255.84 62.0272C256.675 57.6617 261.309 54.7117 265.752 54.8038C270.196 54.897 274.284 57.468 277.265 60.764C284.2 68.4299 285.783 80.4255 281.219 89.7002C276.655 98.9749 266.293 105.019 255.966 104.586C249.306 104.307 241.766 101.832 236.555 105.99C232.89 108.913 231.776 114.302 227.909 116.951C222.08 120.944 214.462 116.554 207.639 114.721C192.605 110.682 175.392 122.564 173.838 138.053" fill="white"/>
</g>
<path d="M142.321 347.707C143.816 344.57 145.188 340.98 142.316 337.533C141.623 336.7 140.558 335.847 139.193 335.566C137.457 335.21 135.999 335.946 135.43 336.87C134.476 338.419 135.248 340.454 136.784 342.212C138.32 343.971 140.128 346.189 142.321 347.707Z" fill="#E8505B"/>
<g opacity="0.8">
<path d="M142.321 347.707C143.816 344.57 145.188 340.98 142.316 337.533C141.623 336.7 140.558 335.847 139.193 335.566C137.457 335.21 135.999 335.946 135.43 336.87C134.476 338.419 135.248 340.454 136.784 342.212C138.32 343.971 140.128 346.189 142.321 347.707Z" fill="white"/>
</g>
<path d="M143.141 297.882C140.398 298.107 138.246 301.078 138.832 303.767C139.417 306.456 142.545 308.262 145.184 307.479C147.554 306.775 149.183 304.157 148.767 301.72C148.351 299.284 145.945 297.353 143.477 297.477" fill="#E8505B"/>
<g opacity="0.8">
<path d="M143.141 297.882C140.398 298.107 138.246 301.078 138.832 303.767C139.417 306.456 142.545 308.262 145.184 307.479C147.554 306.775 149.183 304.157 148.767 301.72C148.351 299.284 145.945 297.353 143.477 297.477" fill="white"/>
</g>
<path d="M122.258 332.252C123.353 327.366 121.077 322.4 118.607 318.043C117.236 315.623 115.76 313.218 113.744 311.303C111.728 309.388 109.091 307.988 106.31 307.974C103.529 307.96 100.664 309.555 99.6803 312.156C98.6647 314.841 99.8337 317.987 101.906 319.972C103.98 321.955 106.791 322.971 109.581 323.643C110.999 323.985 112.454 324.259 113.757 324.913C117.232 326.656 121.313 328.482 122.258 332.252Z" fill="#E8505B"/>
<g opacity="0.8">
<path d="M122.258 332.252C123.353 327.366 121.077 322.4 118.607 318.043C117.236 315.623 115.76 313.218 113.744 311.303C111.728 309.388 109.091 307.988 106.31 307.974C103.529 307.96 100.664 309.555 99.6803 312.156C98.6647 314.841 99.8337 317.987 101.906 319.972C103.98 321.955 106.791 322.971 109.581 323.643C110.999 323.985 112.454 324.259 113.757 324.913C117.232 326.656 121.313 328.482 122.258 332.252Z" fill="white"/>
</g>
<path d="M292.151 330.525C289.617 331.346 288.023 333.981 287.602 336.61C287.179 339.24 287.72 341.918 288.258 344.527C288.314 339.492 292.564 334.847 297.575 334.347C300.121 334.093 302.666 334.785 305.224 334.809C307.782 334.831 310.662 333.91 311.707 331.575C312.962 328.77 311.007 325.311 312.221 322.488C313.892 318.601 319.663 319.096 323.062 316.576C326.83 313.783 326.715 308.136 325.651 303.567C324.545 298.81 322.793 294.151 319.987 290.153C319.179 289.001 318.243 287.873 316.973 287.27C314.629 286.157 311.613 287.249 310.137 289.382C308.66 291.515 308.58 294.405 309.477 296.839C310.87 300.619 314.408 303.663 314.502 307.689C314.583 311.133 311.602 314.361 308.163 314.554C307.184 314.609 306.169 314.452 305.24 314.77C303.234 315.456 302.569 317.899 302.111 319.969C301.444 322.984 300.547 324.691 298.629 327.11C298.627 327.109 295.003 329.599 292.151 330.525Z" fill="#E8505B"/>
<g opacity="0.8">
<path d="M292.151 330.525C289.617 331.346 288.023 333.981 287.602 336.61C287.179 339.24 287.72 341.918 288.258 344.527C288.314 339.492 292.564 334.847 297.575 334.347C300.121 334.093 302.666 334.785 305.224 334.809C307.782 334.831 310.662 333.91 311.707 331.575C312.962 328.77 311.007 325.311 312.221 322.488C313.892 318.601 319.663 319.096 323.062 316.576C326.83 313.783 326.715 308.136 325.651 303.567C324.545 298.81 322.793 294.151 319.987 290.153C319.179 289.001 318.243 287.873 316.973 287.27C314.629 286.157 311.613 287.249 310.137 289.382C308.66 291.515 308.58 294.405 309.477 296.839C310.87 300.619 314.408 303.663 314.502 307.689C314.583 311.133 311.602 314.361 308.163 314.554C307.184 314.609 306.169 314.452 305.24 314.77C303.234 315.456 302.569 317.899 302.111 319.969C301.444 322.984 300.547 324.691 298.629 327.11C298.627 327.109 295.003 329.599 292.151 330.525Z" fill="white"/>
</g>
<path d="M121.881 185.444C121.657 187.683 119.66 189.318 117.421 189.094C115.182 188.87 113.547 186.874 113.771 184.634C113.995 182.395 115.991 180.76 118.231 180.984C120.472 181.208 122.105 183.205 121.881 185.444Z" fill="#E8505B"/>
<path opacity="0.8" d="M121.881 185.444C121.657 187.683 119.66 189.318 117.421 189.094C115.182 188.87 113.547 186.874 113.771 184.634C113.995 182.395 115.991 180.76 118.231 180.984C120.472 181.208 122.105 183.205 121.881 185.444Z" fill="white"/>
<path d="M310.878 262.276C310.704 260.614 308.719 258.229 307.052 258.33C305.568 258.507 303.945 258.754 302.954 259.873C301.607 261.394 302.154 263.969 303.688 265.302C304.95 266.397 306.813 266.814 308.371 266.21C309.929 265.605 311.052 263.937 310.878 262.276Z" fill="#E8505B"/>
<g opacity="0.8">
<path d="M310.878 262.276C310.704 260.614 308.719 258.229 307.052 258.33C305.568 258.507 303.945 258.754 302.954 259.873C301.607 261.394 302.154 263.969 303.688 265.302C304.95 266.397 306.813 266.814 308.371 266.21C309.929 265.605 311.052 263.937 310.878 262.276Z" fill="white"/>
</g>
<path d="M250.041 28.4129C250.053 30.6089 248.282 32.3995 246.085 32.4113C243.888 32.4231 242.099 30.6517 242.087 28.4557C242.075 26.2597 243.847 24.4692 246.043 24.4574C248.239 24.4456 250.029 26.217 250.041 28.4129Z" fill="#E8505B"/>
<path opacity="0.8" d="M250.041 28.4129C250.053 30.6089 248.282 32.3995 246.085 32.4113C243.888 32.4231 242.099 30.6517 242.087 28.4557C242.075 26.2597 243.847 24.4692 246.043 24.4574C248.239 24.4456 250.029 26.217 250.041 28.4129Z" fill="white"/>
<path d="M311.755 251.389C302.76 246.867 290.991 257.311 282.47 251.986C280.3 250.63 278.801 248.444 277.43 246.283C275.029 242.498 272.774 238.53 269.474 235.496C266.175 232.462 261.535 230.466 257.189 231.563C252.74 232.686 249.566 236.711 245.26 238.295C239.277 240.496 232.475 237.427 228.009 232.877C223.544 228.327 220.714 222.464 217.09 217.22C213.466 211.976 208.53 207.047 202.238 206.022C200.933 205.809 199.48 205.718 198.546 204.782C197.834 204.068 197.597 203.021 197.412 202.03C196.504 197.147 196.122 192.167 196.275 187.202C196.389 183.522 196.79 179.775 195.898 176.203C195.006 172.63 192.451 169.173 188.829 168.51C185.285 167.862 180.995 169.802 178.364 167.342C177.323 166.368 176.88 164.937 176.364 163.608C174.464 158.71 170.562 154.146 165.371 153.339C160.18 152.533 154.319 157.122 155.323 162.278C155.463 162.998 155.77 163.752 156.411 164.108C157.11 164.497 157.979 164.297 158.737 164.041C160.958 163.288 163.125 162.105 165.53 162.499C166.869 162.719 168.1 163.547 168.546 164.828C169.293 166.976 167.371 168.702 165.421 168.989C164.954 169.058 164.486 169.064 164.019 169.026C160.315 168.726 157.06 171.653 157.495 175.343C157.51 175.473 157.528 175.603 157.547 175.733C157.654 176.463 157.942 177.161 158.36 177.769C165.503 188.149 170.783 171.56 178.732 191.215C179.068 192.045 179.146 192.973 178.869 193.825C178.029 196.407 176.2 198.543 174.827 200.893C173.421 203.3 172.495 206.347 173.755 208.834C175.007 211.304 178.155 212.673 178.676 215.393C179.029 217.237 178.019 219.044 177.747 220.902C177.354 223.588 178.535 226.275 180.108 228.487C183.839 233.731 190.009 237.16 196.432 237.56C198.233 237.672 200.113 237.573 201.758 238.315C203.848 239.258 205.135 241.357 206.263 243.353C211.218 252.117 216.76 262.143 226.556 264.469C239.58 267.562 253.211 255.081 265.725 259.831C269.728 261.351 272.885 264.445 276.311 267.014C279.737 269.583 283.938 271.752 288.142 270.942C294.565 269.704 299.784 261.869 305.898 264.197C310.231 265.847 310.671 273.071 306.57 275.235C312.425 273.132 317.438 267.983 317.544 261.479C317.613 257.307 315.486 253.265 311.755 251.389Z" fill="#E8505B"/>
<g opacity="0.8">
<path d="M311.755 251.389C302.76 246.867 290.991 257.311 282.47 251.986C280.3 250.63 278.801 248.444 277.43 246.283C275.029 242.498 272.774 238.53 269.474 235.496C266.175 232.462 261.535 230.466 257.189 231.563C252.74 232.686 249.566 236.711 245.26 238.295C239.277 240.496 232.475 237.427 228.009 232.877C223.544 228.327 220.714 222.464 217.09 217.22C213.466 211.976 208.53 207.047 202.238 206.022C200.933 205.809 199.48 205.718 198.546 204.782C197.834 204.068 197.597 203.021 197.412 202.03C196.504 197.147 196.122 192.167 196.275 187.202C196.389 183.522 196.79 179.775 195.898 176.203C195.006 172.63 192.451 169.173 188.829 168.51C185.285 167.862 180.995 169.802 178.364 167.342C177.323 166.368 176.88 164.937 176.364 163.608C174.464 158.71 170.562 154.146 165.371 153.339C160.18 152.533 154.319 157.122 155.323 162.278C155.463 162.998 155.77 163.752 156.411 164.108C157.11 164.497 157.979 164.297 158.737 164.041C160.958 163.288 163.125 162.105 165.53 162.499C166.869 162.719 168.1 163.547 168.546 164.828C169.293 166.976 167.371 168.702 165.421 168.989C164.954 169.058 164.486 169.064 164.019 169.026C160.315 168.726 157.06 171.653 157.495 175.343C157.51 175.473 157.528 175.603 157.547 175.733C157.654 176.463 157.942 177.161 158.36 177.769C165.503 188.149 170.783 171.56 178.732 191.215C179.068 192.045 179.146 192.973 178.869 193.825C178.029 196.407 176.2 198.543 174.827 200.893C173.421 203.3 172.495 206.347 173.755 208.834C175.007 211.304 178.155 212.673 178.676 215.393C179.029 217.237 178.019 219.044 177.747 220.902C177.354 223.588 178.535 226.275 180.108 228.487C183.839 233.731 190.009 237.16 196.432 237.56C198.233 237.672 200.113 237.573 201.758 238.315C203.848 239.258 205.135 241.357 206.263 243.353C211.218 252.117 216.76 262.143 226.556 264.469C239.58 267.562 253.211 255.081 265.725 259.831C269.728 261.351 272.885 264.445 276.311 267.014C279.737 269.583 283.938 271.752 288.142 270.942C294.565 269.704 299.784 261.869 305.898 264.197C310.231 265.847 310.671 273.071 306.57 275.235C312.425 273.132 317.438 267.983 317.544 261.479C317.613 257.307 315.486 253.265 311.755 251.389Z" fill="white"/>
</g>
<path d="M240.338 258.466C240.344 258.483 240.113 258.582 239.668 258.755C239.223 258.928 238.563 259.173 237.703 259.464C235.984 260.024 233.468 260.883 230.204 261.179C228.579 261.305 226.752 261.264 224.879 260.748C223.955 260.465 222.995 260.131 222.127 259.563C221.198 259.094 220.397 258.384 219.569 257.678C216.415 254.59 214.614 250.064 212.666 245.564C211.678 243.304 210.649 241.125 209.376 239.202C208.1 237.299 206.597 235.593 204.762 234.543C202.988 233.404 200.998 232.891 199.16 232.466C197.308 232.055 195.552 231.755 193.977 231.327C190.81 230.495 188.488 228.993 187.311 227.581C186.711 226.885 186.378 226.246 186.18 225.81C186.004 225.362 185.934 225.121 185.949 225.116C186.014 225.08 186.252 226.11 187.462 227.447C188.655 228.781 190.945 230.197 194.07 230.972C195.629 231.371 197.381 231.649 199.253 232.045C201.11 232.455 203.155 232.961 205.012 234.133C206.927 235.215 208.492 236.976 209.802 238.919C211.11 240.882 212.153 243.088 213.145 245.356C215.096 249.874 216.872 254.335 219.904 257.333C220.699 258.018 221.465 258.71 222.357 259.167C223.188 259.723 224.109 260.05 224.998 260.333C226.802 260.849 228.581 260.913 230.178 260.812C233.388 260.569 235.912 259.772 237.643 259.272C238.469 259.017 239.131 258.813 239.636 258.657C240.09 258.515 240.333 258.449 240.338 258.466Z" fill="white"/>
<path d="M249.462 256.939C249.473 257.082 248.079 257.306 246.349 257.438C244.618 257.57 243.207 257.561 243.196 257.417C243.185 257.274 244.579 257.05 246.31 256.918C248.039 256.787 249.451 256.796 249.462 256.939Z" fill="white"/>
<path d="M177.256 203.904C177.399 203.955 176.917 205.182 177.34 206.654C177.723 208.138 178.759 208.951 178.662 209.068C178.627 209.12 178.306 208.996 177.905 208.621C177.505 208.252 177.06 207.604 176.837 206.791C176.617 205.977 176.672 205.194 176.83 204.672C176.986 204.147 177.199 203.877 177.256 203.904Z" fill="white"/>
<path d="M164.995 172.075C165.044 172.094 164.913 172.398 164.843 172.972C164.77 173.54 164.808 174.396 165.194 175.342C165.585 176.267 166.366 177.307 167.589 177.822C168.815 178.353 170.353 178.108 171.947 177.909C172.751 177.815 173.569 177.76 174.358 177.882C175.146 178.009 175.874 178.305 176.48 178.706C177.702 179.514 178.456 180.6 179.01 181.504C179.555 182.424 179.903 183.212 180.13 183.759C180.356 184.307 180.453 184.621 180.422 184.635C180.337 184.677 179.821 183.462 178.699 181.701C178.121 180.844 177.359 179.83 176.221 179.111C175.657 178.753 174.997 178.497 174.283 178.387C173.566 178.282 172.798 178.333 172.006 178.427C170.445 178.616 168.793 178.888 167.401 178.264C166.033 177.654 165.226 176.488 164.851 175.478C164.48 174.443 164.503 173.526 164.642 172.94C164.716 172.645 164.789 172.424 164.866 172.283C164.935 172.138 164.979 172.068 164.995 172.075Z" fill="white"/>
<path d="M456.946 476.194C456.946 476.338 363.411 476.454 248.057 476.454C132.663 476.454 39.148 476.337 39.148 476.194C39.148 476.051 132.663 475.934 248.057 475.934C363.411 475.933 456.946 476.05 456.946 476.194Z" fill="#263238"/>
<path opacity="0.3" d="M251.115 298.459C255.217 293.46 256.878 286.278 254.949 279.08L230.641 188.421C228.114 178.999 222.07 170.929 213.993 166.193L185.275 149.355C182.07 147.477 179.673 144.275 178.671 140.537L175.113 127.265L120.816 140.932L124.375 154.204C125.377 157.942 124.891 161.87 123.035 165.022L106.407 193.274C101.73 201.221 100.504 211.12 103.031 220.543L127.339 311.201C129.269 318.4 134.329 323.891 140.423 326.322C136.322 331.32 134.659 338.503 136.589 345.701L167.577 461.27C170.646 472.716 181.624 479.857 192.097 477.221L281.781 454.646C292.254 452.01 298.256 440.594 295.187 429.148L264.199 313.579C262.268 306.382 257.209 300.891 251.115 298.459Z" fill="#407BFF"/>
<path opacity="0.3" d="M120.817 140.944L123.563 151.185L177.857 137.519L175.112 127.278L120.817 140.944Z" fill="#407BFF"/>
<path opacity="0.3" d="M214.299 168.649L185.58 151.809C185.58 151.809 172.687 157.026 189.087 171.117C202.958 183.035 217.27 175.417 214.299 168.649Z" fill="white"/>
<path opacity="0.2" d="M167.576 461.27C170.645 472.716 181.622 479.858 192.097 477.222L281.781 454.648C292.254 452.011 298.256 440.596 295.187 429.15L167.576 461.27Z" fill="#407BFF"/>
<path opacity="0.3" d="M211.244 172.083C217.717 175.879 222.592 182.386 224.616 189.938L248.925 280.597C250.195 285.333 249.215 290.277 246.305 293.824L240.26 301.192L249.242 304.778C253.566 306.504 256.905 310.362 258.175 315.096L289.163 430.665C291.253 438.463 287.15 446.268 280.015 448.064L190.331 470.638C183.196 472.434 175.69 467.551 173.6 459.754L142.612 344.185C141.343 339.448 142.322 334.505 145.231 330.958L151.277 323.59L142.295 320.004C137.971 318.278 134.632 314.42 133.361 309.684L109.053 219.026C107.029 211.473 108.016 203.491 111.764 197.122C117.631 188.842 142.986 195.473 167.75 189.241C192.514 183.007 205.234 171.029 211.244 172.083Z" fill="#407BFF"/>
<path opacity="0.2" d="M167.746 189.247C142.99 195.478 117.632 188.837 111.761 197.119C128.289 200.608 145.696 200.254 169.117 194.359C192.549 188.461 211.24 172.079 211.24 172.079C205.235 171.027 192.514 183.014 167.746 189.247Z" fill="#407BFF"/>
<path opacity="0.2" d="M127.338 311.201C129.268 318.399 134.327 323.89 140.422 326.321L251.115 298.459C255.217 293.46 256.878 286.278 254.949 279.08L127.338 311.201Z" fill="#407BFF"/>
<path d="M181.844 122.344L180.841 122.597L178.499 113.864C177.981 111.931 176.806 110.288 175.19 109.238C173.572 108.187 171.709 107.852 169.943 108.297L161.266 110.481L160.971 109.383L169.648 107.2C171.684 106.687 173.829 107.072 175.691 108.282C177.553 109.492 178.906 111.385 179.502 113.61L181.844 122.344Z" fill="#407BFF"/>
<path d="M182.931 133.963L181.983 133.43C182.693 131.835 182.826 129.997 182.359 128.256L183.362 128.003C183.9 130.011 183.748 132.128 182.931 133.963Z" fill="#407BFF"/>
<path d="M170.679 111.04L116.537 124.668C114.268 125.239 112.969 127.711 113.633 130.19L117.493 144.584C118.158 147.063 120.535 148.609 122.804 148.038L176.945 134.411C179.213 133.84 180.513 131.368 179.848 128.889L175.988 114.495C175.324 112.016 172.946 110.47 170.679 111.04Z" fill="#407BFF"/>
<path opacity="0.2" d="M124.724 144.956C124.71 144.961 124.696 144.965 124.682 144.968C124.405 145.037 124.115 144.848 124.033 144.546L119.365 127.138C119.284 126.835 119.445 126.529 119.72 126.463C119.997 126.394 120.288 126.583 120.369 126.885L125.037 144.293C125.113 144.582 124.974 144.868 124.724 144.956Z" fill="white"/>
<path opacity="0.2" d="M134.54 142.485C134.526 142.49 134.513 142.495 134.498 142.497C134.221 142.567 133.93 142.378 133.85 142.075L129.182 124.667C129.101 124.364 129.273 124.056 129.536 123.993C129.813 123.923 130.103 124.112 130.185 124.415L134.853 141.823C134.929 142.11 134.79 142.398 134.54 142.485Z" fill="white"/>
<path opacity="0.2" d="M144.355 140.015C144.341 140.02 144.328 140.023 144.314 140.027C144.036 140.096 143.746 139.908 143.665 139.605L138.998 122.197C138.917 121.893 139.102 121.582 139.353 121.522C139.63 121.453 139.919 121.642 140.001 121.944L144.668 139.353C144.745 139.64 144.606 139.927 144.355 140.015Z" fill="white"/>
<path opacity="0.2" d="M154.172 137.544C154.157 137.55 154.144 137.554 154.13 137.557C153.853 137.626 153.563 137.437 153.481 137.135L148.814 119.726C148.733 119.422 148.911 119.116 149.169 119.052C149.446 118.981 149.736 119.171 149.818 119.474L154.485 136.882C154.561 137.17 154.423 137.457 154.172 137.544Z" fill="white"/>
<path opacity="0.2" d="M163.988 135.074C163.973 135.079 163.96 135.082 163.946 135.086C163.669 135.155 163.379 134.966 163.298 134.664L158.631 117.256C158.549 116.952 158.738 116.641 158.985 116.581C159.263 116.512 159.552 116.701 159.634 117.003L164.301 134.412C164.378 134.699 164.239 134.986 163.988 135.074Z" fill="white"/>
<path opacity="0.2" d="M173.804 132.602C173.79 132.607 173.777 132.612 173.762 132.614C173.485 132.684 173.195 132.495 173.114 132.192L168.446 114.784C168.365 114.481 168.532 114.175 168.8 114.11C169.078 114.04 169.367 114.229 169.449 114.532L174.117 131.94C174.194 132.227 174.055 132.514 173.804 132.602Z" fill="white"/>
<path opacity="0.2" d="M133.291 275.998C128.65 267.495 116.911 272.316 119.425 281.693L127.338 311.201C129.268 318.399 134.327 323.89 140.422 326.321C136.32 331.32 134.658 338.503 136.588 345.7L167.576 461.269C170.645 472.715 181.623 479.857 192.096 477.221L215.263 471.39C226.204 468.637 231.132 455.295 225.216 444.451L133.291 275.998Z" fill="#407BFF"/>
<path opacity="0.3" d="M271.275 393.265C272.864 399.19 269.756 405.099 264.335 406.464C258.914 407.829 253.231 404.131 251.642 398.206C250.054 392.281 253.161 386.372 258.583 385.007C264.004 383.643 269.687 387.34 271.275 393.265Z" fill="#407BFF"/>
<path opacity="0.3" d="M226.701 363.262C227.825 367.452 225.628 371.63 221.794 372.595C217.96 373.56 213.943 370.946 212.818 366.756C211.695 362.566 213.892 358.389 217.726 357.424C221.559 356.458 225.578 359.072 226.701 363.262Z" fill="#407BFF"/>
<path opacity="0.3" d="M166.826 282.748C163.164 284.251 158.888 282.199 157.274 278.163C155.66 274.128 157.319 269.638 160.98 268.135C164.64 266.631 168.918 268.685 170.531 272.72C172.145 276.755 170.486 281.244 166.826 282.748Z" fill="#407BFF"/>
<path opacity="0.3" d="M169.708 231.899C167.119 232.961 164.095 231.51 162.954 228.657C161.813 225.803 162.986 222.628 165.575 221.566C168.163 220.503 171.188 221.954 172.329 224.808C173.471 227.661 172.296 230.835 169.708 231.899Z" fill="#407BFF"/>
<path opacity="0.3" d="M235.296 324.239C235.761 325.974 234.852 327.705 233.263 328.105C231.676 328.505 230.012 327.422 229.545 325.687C229.081 323.951 229.99 322.221 231.578 321.82C233.167 321.421 234.83 322.503 235.296 324.239Z" fill="#407BFF"/>
<path opacity="0.7" d="M214.087 425.873C213.932 425.928 213.774 425.975 213.612 426.016C212.058 426.407 210.42 426.113 209 425.189C207.579 424.265 206.547 422.821 206.092 421.122C205.152 417.617 207.014 414.104 210.203 413.303C211.758 412.912 213.395 413.206 214.815 414.129C216.236 415.053 217.268 416.497 217.723 418.196C218.616 421.524 216.998 424.855 214.087 425.873ZM210.011 414.251C207.476 415.138 206.068 418.038 206.846 420.934C207.242 422.412 208.141 423.669 209.378 424.474C210.614 425.278 212.04 425.534 213.392 425.193C216.196 424.484 217.79 421.436 216.971 418.386C216.574 416.907 215.675 415.65 214.439 414.846C213.203 414.042 211.777 413.786 210.425 414.127C210.284 414.162 210.146 414.204 210.011 414.251Z" fill="white"/>
<path opacity="0.7" d="M230.555 279.198C230.441 279.238 230.325 279.272 230.206 279.303C227.877 279.889 225.428 278.296 224.745 275.752C224.064 273.208 225.399 270.662 227.731 270.074C228.859 269.79 230.048 270.003 231.078 270.673C232.11 271.344 232.86 272.393 233.19 273.625C233.521 274.858 233.393 276.128 232.828 277.199C232.325 278.16 231.526 278.858 230.555 279.198ZM225.499 275.561C226.059 277.651 228.073 278.961 229.985 278.48C230.915 278.246 231.679 277.633 232.142 276.751C232.605 275.87 232.71 274.826 232.438 273.814C232.167 272.801 231.551 271.94 230.704 271.387C229.855 270.837 228.879 270.662 227.952 270.895C226.029 271.381 224.938 273.47 225.499 275.561Z" fill="white"/>
<path opacity="0.7" d="M134.178 206.163C134.125 206.182 134.072 206.198 134.017 206.211C132.931 206.484 131.788 205.741 131.469 204.555C131.152 203.368 131.791 202.176 132.862 201.906C133.948 201.633 135.091 202.376 135.41 203.562C135.712 204.69 135.163 205.818 134.178 206.163ZM132.223 204.364C132.42 205.098 133.126 205.557 133.796 205.388C134.476 205.219 134.853 204.484 134.657 203.751C134.461 203.018 133.754 202.559 133.084 202.728C132.404 202.901 132.027 203.631 132.223 204.364Z" fill="white"/>
<path opacity="0.7" d="M196.799 246.611C196.663 246.659 196.525 246.7 196.384 246.736C193.604 247.436 190.68 245.534 189.865 242.497C189.471 241.025 189.623 239.511 190.298 238.23C190.97 236.949 192.089 236.057 193.428 235.719C194.775 235.38 196.195 235.635 197.425 236.435C198.657 237.236 199.552 238.487 199.946 239.959C200.34 241.43 200.188 242.945 199.514 244.225C198.911 245.371 197.958 246.206 196.799 246.611ZM193.296 236.648C192.31 236.993 191.499 237.703 190.987 238.677C190.414 239.766 190.283 241.055 190.619 242.306C191.312 244.89 193.799 246.508 196.163 245.913C197.313 245.623 198.254 244.867 198.826 243.778C199.398 242.689 199.529 241.401 199.193 240.149C198.858 238.897 198.096 237.833 197.049 237.152C196.003 236.47 194.795 236.254 193.651 236.542C193.53 236.572 193.412 236.608 193.296 236.648Z" fill="white"/>
<path opacity="0.3" d="M253.275 279.502L230.095 193.05C229.472 190.727 227.244 189.278 225.118 189.812C222.993 190.348 221.775 192.664 222.398 194.987L245.578 281.439C247.143 287.277 245.938 293.372 242.351 297.743L239.328 301.427L243.82 303.219C249.148 305.345 253.263 310.101 254.829 315.939L285.816 431.508C287.675 438.438 284.962 443.089 280.442 447.621C279.092 448.973 280.412 451.478 282.236 451.019C291.046 448.802 296.095 439.199 293.514 429.57L262.526 314.001C260.961 308.163 256.846 303.408 251.518 301.282L247.026 299.489L250.049 295.805C253.634 291.434 254.841 285.339 253.275 279.502Z" fill="white"/>
<path d="M321.197 162.221L294.491 122.592L296.761 110.456L297.488 110.592C298.517 110.785 299.601 110.26 299.956 109.276C300.409 108.021 299.625 106.718 298.371 106.484L297.533 106.327L299.408 96.3027L254.625 88.2118L252.802 97.9618L251.899 97.7931C250.871 97.6008 249.786 98.1253 249.431 99.1098C248.979 100.364 249.763 101.667 251.017 101.902L252.03 102.091L249.834 113.835L210.882 143.768C206.953 146.787 204.277 151.15 203.366 156.022L201.795 164.421C201.263 167.264 201.883 170.201 203.516 172.587L174.16 329.565C173.991 330.468 174.064 331.384 174.219 332.289C174.469 333.747 174.089 335.243 173.19 336.404C172.376 337.453 171.778 338.652 171.519 339.955L162.517 385.308C162.075 387.673 161.863 390.086 162.054 392.484L155.578 424.874C154.525 430.139 154.103 435.521 154.48 440.877C155.175 450.714 158.538 463.478 171.016 465.811L179.525 467.402C182.079 467.88 184.71 467.151 186.653 465.429L189.101 463.261C190.581 461.95 192.925 462.778 193.254 464.727C193.848 468.256 196.608 471.022 200.134 471.626L219.985 475.021C222.056 475.374 223.954 474.225 225.001 472.404C226.044 470.591 228.72 470.767 229.514 472.708L230.318 474.674C230.983 476.299 232.427 477.476 234.153 477.799L243.727 479.59C249.84 480.733 256.118 478.497 260.051 473.681C260.121 473.594 260.193 473.508 260.263 473.419C264.806 467.769 267.754 461.007 269.087 453.88L275.872 417.6C274.663 414.936 275.249 411.8 277.339 409.752L286.805 359.135C285.372 357.043 285.818 354.196 287.823 352.642L288.053 352.464L297.959 299.493L317.918 192.763L318.151 192.603C320.537 190.969 322.176 188.454 322.708 185.612L324.288 177.162C325.259 171.969 324.149 166.603 321.197 162.221Z" fill="#F5F5F5"/>
<path d="M305.004 164.922C312.093 164.639 317.853 170.915 316.603 177.9C316.594 177.947 316.586 177.995 316.577 178.043L315.135 185.751C314.65 188.344 313.186 190.644 311.064 192.146L310.856 192.292L292.647 289.664L283.609 337.992L283.405 338.155C281.62 339.581 281.211 342.178 282.471 344.078L273.835 390.258C271.973 392.135 271.438 394.995 272.496 397.418L266.306 430.517C265.091 437.018 262.445 443.197 258.391 448.368C258.328 448.449 258.265 448.529 258.202 448.608C254.693 453.017 249.117 455.085 243.706 454.073L235.23 452.488L222.688 450.025L205.113 447.027L186.869 443.278L179.336 441.87C168.289 439.804 165.371 428.187 164.804 419.224C164.494 414.344 164.896 409.438 165.854 404.634L171.751 375.081C171.593 372.897 171.793 370.696 172.197 368.539L180.396 327.16C180.631 325.97 181.172 324.874 181.901 323.904C182.698 322.843 183.038 321.483 182.825 320.159C182.692 319.336 182.632 318.503 182.785 317.684L209.569 174.46C208.133 172.294 207.598 169.62 208.083 167.027L209.516 159.363C209.524 159.319 209.533 159.275 209.542 159.23C210.846 152.523 216.817 147.738 223.646 147.547C230.741 147.349 241.847 148.036 252.055 152.87C268.759 160.784 268.648 163.36 281.399 164.632C288.641 165.356 298.144 165.195 305.004 164.922Z" fill="#E8505B"/>
<path opacity="0.5" d="M305.004 164.922C312.093 164.639 317.853 170.915 316.603 177.9C316.594 177.947 316.586 177.995 316.577 178.043L315.135 185.751C314.65 188.344 313.186 190.644 311.064 192.146L310.856 192.292L292.647 289.664L283.609 337.992L283.405 338.155C281.62 339.581 281.211 342.178 282.471 344.078L273.835 390.258C271.973 392.135 271.438 394.995 272.496 397.418L266.306 430.517C265.091 437.018 262.445 443.197 258.391 448.368C258.328 448.449 258.265 448.529 258.202 448.608C254.693 453.017 249.117 455.085 243.706 454.073L235.23 452.488L222.688 450.025L205.113 447.027L186.869 443.278L179.336 441.87C168.289 439.804 165.371 428.187 164.804 419.224C164.494 414.344 164.896 409.438 165.854 404.634L171.751 375.081C171.593 372.897 171.793 370.696 172.197 368.539L180.396 327.16C180.631 325.97 181.172 324.874 181.901 323.904C182.698 322.843 183.038 321.483 182.825 320.159C182.692 319.336 182.632 318.503 182.785 317.684L209.569 174.46C208.133 172.294 207.598 169.62 208.083 167.027L209.516 159.363C209.524 159.319 209.533 159.275 209.542 159.23C210.846 152.523 216.817 147.738 223.646 147.547C230.741 147.349 241.847 148.036 252.055 152.87C268.759 160.784 268.648 163.36 281.399 164.632C288.641 165.356 298.144 165.195 305.004 164.922Z" fill="white"/>
<path d="M318.872 194.109C318.845 194.251 293.024 189.54 261.206 183.59C229.376 177.637 203.604 172.699 203.63 172.558C203.657 172.417 229.472 177.126 261.301 183.079C293.12 189.029 318.898 193.969 318.872 194.109Z" fill="#263238"/>
<path d="M197.356 241.123C205.079 230.52 217.754 223.689 230.858 223.068C243.176 222.484 255.593 227.064 267.686 224.647C280.32 222.121 290.216 212.442 298.417 202.505C301.584 198.666 305.453 194.327 310.419 194.657C308.462 197.805 309.782 202.338 307.477 205.241C306.695 206.227 305.585 206.887 304.529 207.569C296.231 212.93 289.929 220.839 284.238 228.915C280.733 233.889 277.202 239.169 271.886 242.133C268.031 244.282 263.52 245.02 259.107 244.987C247.824 244.904 236.646 240.057 225.535 242.02C217.063 243.518 209.669 248.899 204.11 255.467C198.551 262.035 194.595 269.778 190.69 277.445" fill="white"/>
<path d="M316.128 181.225C316.122 181.482 314.254 181.387 311.089 182.162C307.933 182.925 303.551 184.842 298.994 188.504C296.694 190.304 294.384 192.512 292.006 195.043C289.618 197.562 287.158 200.385 284.39 203.252C281.622 206.11 278.509 209.031 274.758 211.447C271.009 213.869 266.646 215.638 261.999 216.529C257.349 217.412 252.641 217.358 248.26 216.501C243.9 215.626 240.017 214.186 236.277 213.47C228.789 212.008 221.735 212.99 216.233 214.775C213.463 215.659 211.044 216.742 209.015 217.865C206.959 218.949 205.312 220.099 203.962 221.039C201.324 223.003 199.993 224.287 199.815 224.12C199.742 224.051 199.997 223.658 200.557 222.967C201.096 222.254 202.016 221.324 203.249 220.16C204.527 219.055 206.133 217.726 208.193 216.462C210.225 215.158 212.691 213.89 215.556 212.834C221.246 210.707 228.698 209.418 236.775 210.837C240.795 211.54 244.736 212.936 248.799 213.703C252.84 214.454 257.163 214.486 261.454 213.672C265.74 212.849 269.755 211.242 273.227 209.043C276.716 206.843 279.725 204.114 282.481 201.371C285.237 198.619 287.768 195.855 290.277 193.361C292.77 190.86 295.277 188.63 297.754 186.863C302.674 183.251 307.483 181.499 310.869 181.052C314.277 180.588 316.15 181.085 316.128 181.225Z" fill="white"/>
<path d="M172.273 372.831C177.172 369.452 183.791 369.942 189.474 371.711C195.157 373.478 200.497 376.373 206.342 377.491C214.41 379.033 223.107 376.902 229.548 371.805C231.951 369.902 234.036 367.627 236.407 365.683C242.296 360.853 249.941 358.214 257.556 358.383C260.969 358.459 264.422 359.073 267.768 358.395C274.61 357.006 279.184 350.729 283.072 344.93C280.729 355.139 278.386 365.347 276.043 375.555C265.535 371.455 253.847 376.568 243.988 382.05C234.13 387.532 223.406 393.716 212.303 391.717C206.383 390.651 201.038 387.304 195.089 386.403C183.893 384.707 173.458 391.82 164.388 398.6" fill="white"/>
<path d="M285.577 344.625C285.538 344.869 283.84 344.641 280.833 344.825C279.328 344.9 277.506 345.186 275.43 345.651C273.356 346.143 271.046 346.919 268.576 347.983C266.105 349.049 263.48 350.419 260.745 352.053C258.006 353.686 255.186 355.605 252.178 357.652C249.166 359.687 245.987 361.848 242.493 363.845C239.009 365.84 235.194 367.688 231 368.882C226.814 370.102 222.44 370.436 218.384 370.092C214.315 369.765 210.509 368.953 206.958 368.119C203.403 367.287 200.078 366.418 196.957 365.81C193.847 365.188 190.912 364.852 188.235 364.779C185.557 364.7 183.137 364.891 181.056 365.285C178.972 365.673 177.241 366.27 175.861 366.846C173.122 368.06 171.79 369.151 171.632 368.957C171.527 368.853 172.616 367.442 175.355 365.833C176.731 365.063 178.518 364.266 180.697 363.698C182.873 363.123 185.425 362.774 188.241 362.722C191.058 362.665 194.138 362.896 197.384 363.436C200.628 363.961 204.008 364.752 207.543 365.504C211.075 366.26 214.767 366.981 218.589 367.251C222.412 367.531 226.327 367.208 230.203 366.085C234.081 364.983 237.703 363.262 241.087 361.366C244.479 359.472 247.645 357.391 250.692 355.421C253.731 353.443 256.671 351.55 259.537 349.965C262.402 348.377 265.179 347.064 267.805 346.077C270.431 345.091 272.897 344.42 275.106 344.058C277.318 343.723 279.248 343.596 280.819 343.694C283.966 343.858 285.611 344.477 285.577 344.625Z" fill="white"/>
<path d="M162.454 423.535C172.746 432.683 188.341 433.512 201.521 429.524C214.7 425.537 226.189 417.482 237.883 410.211C249.576 402.941 262.214 396.194 275.957 395.357C275.069 393.54 274.757 391.447 275.078 389.45C258.69 393.282 241.861 397.306 228.055 406.932C223.284 410.259 218.927 414.224 213.784 416.939C208.866 419.535 203.396 420.896 197.936 421.952C186.91 424.084 175.281 425.022 164.627 421.476C163.796 421.2 162.799 420.923 162.118 421.472C161.436 422.021 162.165 423.515 162.854 422.978" fill="white"/>
<path d="M268.756 330.835C268.442 332.515 266.824 333.622 265.145 333.308C263.465 332.994 262.357 331.377 262.671 329.697C262.985 328.017 264.602 326.909 266.282 327.223C267.962 327.539 269.07 329.155 268.756 330.835Z" fill="white"/>
<path d="M252.627 334.481C252.469 335.321 251.661 335.874 250.822 335.717C249.981 335.56 249.428 334.752 249.585 333.912C249.742 333.072 250.551 332.519 251.39 332.676C252.231 332.833 252.784 333.642 252.627 334.481Z" fill="white"/>
<path d="M202.436 412.352C203.276 412.509 204.084 411.955 204.241 411.116C204.398 410.276 203.845 409.468 203.005 409.31C202.165 409.153 201.357 409.707 201.2 410.547C201.043 411.387 201.596 412.195 202.436 412.352Z" fill="white"/>
<path d="M286.694 359.737C286.667 359.878 260.82 355.162 228.968 349.206C197.105 343.247 171.306 338.305 171.332 338.163C171.359 338.022 197.202 342.736 229.063 348.695C260.915 354.651 286.72 359.596 286.694 359.737Z" fill="#263238"/>
<path d="M276.957 410.536C276.93 410.678 251.134 405.972 219.346 400.027C187.547 394.081 161.798 389.146 161.825 389.006C161.851 388.864 187.642 393.569 219.441 399.516C251.229 405.461 276.983 410.395 276.957 410.536Z" fill="#263238"/>
<path d="M276.191 418.181C276.165 418.322 250.368 413.616 218.58 407.672C186.782 401.725 161.033 396.791 161.059 396.65C161.086 396.509 186.876 401.214 218.676 407.161C250.464 413.105 276.218 418.039 276.191 418.181Z" fill="#263238"/>
<path d="M288.154 351.925C288.128 352.067 262.606 347.412 231.156 341.53C199.695 335.647 174.222 330.764 174.248 330.624C174.275 330.482 199.792 335.136 231.252 341.019C262.701 346.9 288.181 351.783 288.154 351.925Z" fill="#263238"/>
<path d="M198.062 470.94C198.052 470.96 197.737 470.86 197.253 470.524C196.772 470.192 196.114 469.622 195.516 468.753C194.251 467.032 193.405 464.242 192.397 461.274C191.392 458.286 190.511 455.57 189.898 453.597C189.284 451.623 188.939 450.391 189.007 450.368C189.075 450.345 189.544 451.536 190.246 453.479C190.949 455.422 191.886 458.119 192.891 461.108C193.903 464.094 194.683 466.849 195.821 468.546C196.914 470.279 198.125 470.856 198.062 470.94Z" fill="#263238"/>
<path d="M233.636 458.451C233.698 458.484 233.345 459.293 232.694 460.559C232.043 461.825 231.087 463.546 229.948 465.396C228.809 467.247 227.703 468.876 226.866 470.026C226.028 471.178 225.464 471.857 225.408 471.816C225.348 471.773 225.804 471.02 226.561 469.82C227.421 468.447 228.412 466.868 229.506 465.123C230.571 463.361 231.536 461.765 232.374 460.379C233.104 459.164 233.571 458.417 233.636 458.451Z" fill="#263238"/>
<path d="M273.377 429.681C273.381 429.689 273.283 429.749 273.089 429.858C272.869 429.978 272.582 430.134 272.22 430.332C271.455 430.747 270.313 431.335 268.833 432.073C265.865 433.529 261.535 435.589 255.984 437.652C253.208 438.677 250.126 439.703 246.753 440.58C243.381 441.443 239.715 442.203 235.793 442.465C227.995 443.036 219.154 442.09 210.822 438.431C206.663 436.616 202.914 434.138 199.749 431.265C196.58 428.388 193.933 425.211 191.519 422.138C189.103 419.06 186.888 416.081 184.68 413.406C182.484 410.723 180.255 408.379 178.044 406.433C173.64 402.503 169.265 400.364 166.114 399.445C164.529 399.004 163.265 398.78 162.404 398.678C161.995 398.633 161.671 398.598 161.423 398.57C161.201 398.543 161.087 398.525 161.088 398.516C161.089 398.507 161.202 398.507 161.425 398.517C161.676 398.531 162.003 398.549 162.416 398.574C163.285 398.642 164.562 398.835 166.17 399.249C169.365 400.115 173.817 402.228 178.287 406.155C180.531 408.097 182.792 410.445 185.012 413.129C187.244 415.804 189.475 418.778 191.896 421.839C194.315 424.897 196.953 428.045 200.091 430.886C203.226 433.72 206.921 436.159 211.033 437.954C219.267 441.571 228.024 442.527 235.761 441.986C239.645 441.741 243.289 441.003 246.647 440.162C250.007 439.308 253.082 438.306 255.858 437.306C261.408 435.293 265.755 433.288 268.747 431.89C270.211 431.183 271.361 430.63 272.175 430.238C272.547 430.059 272.842 429.918 273.068 429.81C273.267 429.717 273.373 429.673 273.377 429.681Z" fill="#263238"/>
<path d="M273.822 428.566C273.827 428.574 273.733 428.636 273.543 428.75C273.33 428.875 273.051 429.039 272.7 429.244C272.318 429.462 271.858 429.725 271.319 430.032C270.753 430.32 270.109 430.649 269.385 431.017C266.459 432.46 262.118 434.37 256.54 436.115C253.753 436.989 250.655 437.808 247.29 438.505C243.924 439.187 240.276 439.751 236.398 439.837C235.429 439.832 234.447 439.876 233.454 439.78C232.958 439.739 232.456 439.733 231.957 439.662C231.458 439.585 230.956 439.508 230.452 439.43C228.462 439.048 226.454 438.584 224.412 438.082C220.345 437.036 216.145 435.762 212.133 433.762C208.125 431.783 204.505 429.156 201.75 425.935C198.969 422.746 196.827 419.282 194.661 416.104C192.513 412.914 190.315 409.976 187.809 407.66C185.335 405.314 182.698 403.495 180.137 402.134C175.003 399.401 170.32 398.358 167.106 397.994C166.3 397.887 165.581 397.823 164.955 397.796C164.33 397.749 163.801 397.723 163.372 397.727C162.966 397.718 162.643 397.712 162.396 397.707C162.175 397.7 162.063 397.692 162.063 397.683C162.063 397.683 163.871 397.48 167.129 397.793C170.369 398.097 175.103 399.091 180.311 401.809C182.909 403.163 185.588 404.984 188.106 407.346C190.66 409.68 192.895 412.644 195.059 415.834C197.241 419.014 199.386 422.459 202.135 425.599C204.853 428.763 208.405 431.338 212.366 433.295C216.328 435.27 220.494 436.539 224.538 437.587C226.567 438.089 228.576 438.558 230.547 438.941C231.04 439.018 231.53 439.096 232.017 439.172C232.505 439.244 233.001 439.25 233.487 439.292C234.462 439.39 235.434 439.349 236.39 439.358C240.225 439.285 243.855 438.741 247.206 438.081C250.559 437.406 253.649 436.61 256.433 435.763C262.004 434.069 266.353 432.218 269.297 430.833C270.026 430.481 270.678 430.168 271.247 429.894C271.794 429.604 272.26 429.357 272.649 429.151C273.01 428.964 273.296 428.816 273.517 428.703C273.714 428.605 273.817 428.558 273.822 428.566Z" fill="#263238"/>
<path d="M317.741 193.349C317.715 193.491 292.203 188.838 260.767 182.959C229.32 177.079 203.857 172.198 203.884 172.057C203.91 171.916 229.416 176.567 260.863 182.448C292.3 188.326 317.767 193.208 317.741 193.349Z" fill="#263238"/>
<path d="M309.389 144.464C309.396 144.489 309.039 144.603 308.386 144.884C307.73 145.16 306.779 145.607 305.605 146.277C304.425 146.939 303.034 147.836 301.362 148.802C299.682 149.757 297.687 150.714 295.381 151.5C290.777 153.079 284.93 153.959 278.502 153.489C272.071 153.053 265.15 151.282 258.228 148.653C254.754 147.357 251.456 145.867 248.231 144.567C245.01 143.252 241.818 142.218 238.689 141.59C232.434 140.303 226.598 140.415 221.836 141.136C217.072 141.884 213.273 143.023 210.919 144.334C209.738 144.983 208.914 145.64 208.394 146.122C207.872 146.603 207.636 146.896 207.614 146.877C207.614 146.877 207.817 146.557 208.321 146.046C208.821 145.534 209.638 144.842 210.818 144.158C213.182 142.771 216.988 141.574 221.778 140.773C226.571 139.999 232.46 139.846 238.784 141.12C241.946 141.74 245.182 142.779 248.42 144.093C251.665 145.393 254.954 146.876 258.411 148.165C265.302 150.783 272.166 152.553 278.536 153.01C284.901 153.502 290.691 152.668 295.262 151.15C299.875 149.67 303.106 147.364 305.505 146.099C306.7 145.453 307.673 145.032 308.344 144.786C308.68 144.661 308.939 144.577 309.116 144.528C309.295 144.477 309.386 144.456 309.389 144.464Z" fill="#263238"/>
<path d="M308.021 142.018C308.027 142.025 307.965 142.089 307.838 142.209C307.686 142.346 307.498 142.518 307.265 142.73C306.752 143.178 305.995 143.838 304.978 144.639C302.944 146.217 299.919 148.521 295.61 150.306C291.319 152.082 285.638 152.937 279.552 151.972C273.459 151.087 267.056 148.616 260.931 145.103C257.853 143.372 254.913 141.584 251.956 140.093C249.001 138.611 246.025 137.398 243.053 136.8C240.091 136.162 237.179 136.128 234.482 136.271C231.781 136.429 229.273 136.743 227.006 137.148C222.467 137.953 218.893 139.074 216.463 139.93C215.244 140.348 214.342 140.781 213.779 141.155C213.214 141.526 212.964 141.786 212.947 141.767C212.947 141.767 213.165 141.474 213.72 141.068C214.272 140.661 215.178 140.189 216.393 139.74C218.809 138.824 222.383 137.642 226.94 136.787C229.216 136.356 231.736 136.019 234.457 135.841C237.174 135.679 240.127 135.695 243.15 136.331C246.18 136.928 249.203 138.15 252.185 139.639C255.17 141.137 258.119 142.925 261.186 144.651C267.278 148.144 273.607 150.598 279.624 151.499C285.632 152.478 291.221 151.673 295.473 149.966C299.746 148.249 302.789 146.004 304.854 144.481C305.886 143.706 306.663 143.073 307.197 142.652C307.444 142.456 307.643 142.298 307.803 142.171C307.941 142.063 308.015 142.012 308.021 142.018Z" fill="#263238"/>
<path d="M321.197 162.222C321.197 162.222 321.635 162.803 322.318 164.054C322.98 165.307 323.89 167.265 324.38 170.028C324.625 171.405 324.757 172.98 324.648 174.711C324.568 176.45 324.123 178.302 323.771 180.324C323.584 181.334 323.39 182.384 323.188 183.473C322.966 184.558 322.831 185.701 322.485 186.851C321.796 189.136 320.247 191.358 317.973 192.842L318.012 192.781C311.982 225.152 301.58 280.992 288.26 352.502L288.245 352.586L288.182 352.63C287.27 353.275 286.536 354.263 286.287 355.464C286.026 356.648 286.264 357.978 286.982 359.016L287.032 359.088L287.015 359.175C284.019 375.226 280.856 392.172 277.566 409.796L277.553 409.867L277.501 409.917C276.604 410.798 275.902 412.004 275.624 413.363C275.34 414.715 275.487 416.202 276.084 417.505L276.114 417.571L276.101 417.643C274.189 427.883 272.225 438.393 270.218 449.145C269.685 451.825 269.294 454.552 268.576 457.245C267.877 459.934 266.923 462.574 265.724 465.115C264.529 467.657 263.071 470.093 261.38 472.374C260.528 473.501 259.637 474.634 258.569 475.605C257.513 476.584 256.322 477.418 255.045 478.096C252.493 479.455 249.584 480.161 246.666 480.121C245.208 480.117 243.746 479.861 242.34 479.584C240.92 479.318 239.498 479.052 238.071 478.786C236.641 478.516 235.206 478.244 233.77 477.972C232.286 477.599 230.978 476.568 230.284 475.195C229.95 474.496 229.713 473.834 229.423 473.15C229.282 472.797 229.156 472.503 228.951 472.239C228.741 471.986 228.482 471.775 228.186 471.626C227.591 471.346 226.863 471.311 226.261 471.592C225.962 471.729 225.68 471.917 225.473 472.178C225.267 472.415 225.099 472.76 224.864 473.074C223.981 474.319 222.55 475.256 220.966 475.328C220.162 475.377 219.433 475.161 218.708 475.06L216.513 474.685C213.582 474.183 210.64 473.681 207.688 473.177C206.212 472.924 204.733 472.672 203.252 472.418L201.028 472.038C200.296 471.91 199.524 471.801 198.783 471.548C197.312 471.046 195.978 470.148 194.96 468.965C193.949 467.777 193.268 466.313 193 464.772C192.876 464.022 192.361 463.363 191.657 463.073C190.961 462.77 190.119 462.846 189.497 463.282C188.887 463.769 188.24 464.382 187.611 464.927C186.986 465.478 186.348 466.083 185.592 466.534C184.101 467.443 182.328 467.897 180.574 467.79C179.685 467.743 178.855 467.527 178.018 467.386L175.497 466.915C173.815 466.586 172.13 466.318 170.44 465.937C169.599 465.711 168.733 465.568 167.931 465.208L166.707 464.737C166.314 464.545 165.933 464.327 165.546 464.123C162.428 462.475 160.015 459.717 158.316 456.654C156.601 453.572 155.613 450.144 154.941 446.69C154.332 443.218 154.034 439.681 154.092 436.134C154.143 432.589 154.523 429.039 155.185 425.536C155.88 422.052 156.577 418.558 157.276 415.056C158.796 407.452 160.308 399.889 161.798 392.437L161.794 392.508C161.59 389.913 161.847 387.309 162.355 384.791C162.854 382.281 163.351 379.776 163.847 377.278C164.839 372.28 165.827 367.306 166.809 362.355C167.792 357.404 168.771 352.477 169.744 347.577C170.231 345.126 170.716 342.682 171.2 340.244C171.404 338.997 171.912 337.771 172.636 336.73C173.016 336.196 173.378 335.764 173.605 335.208C173.844 334.669 173.987 334.09 174.023 333.502C174.078 332.907 173.958 332.351 173.871 331.708C173.796 331.081 173.774 330.437 173.862 329.798C174.088 328.581 174.312 327.368 174.536 326.156C174.988 323.739 175.44 321.33 175.889 318.928C176.788 314.124 177.681 309.348 178.57 304.603C180.346 295.11 182.101 285.737 183.83 276.495C190.753 239.523 197.287 204.635 203.295 172.551L203.33 172.718C202.268 171.159 201.608 169.341 201.438 167.483C201.351 166.554 201.376 165.618 201.525 164.701C201.69 163.806 201.854 162.911 202.019 162.021C202.352 160.244 202.683 158.475 203.013 156.718C203.31 154.95 203.796 153.196 204.516 151.561C205.948 148.283 208.26 145.451 211.055 143.372C213.797 141.267 216.506 139.186 219.183 137.131C229.89 128.912 240.076 121.091 249.718 113.689L249.648 113.804C250.441 109.573 251.152 105.782 251.85 102.062L251.996 102.275C251.606 102.198 251.239 102.141 250.844 102.052C250.441 101.954 250.073 101.741 249.79 101.452C249.208 100.884 248.995 100.012 249.196 99.2664C249.378 98.5027 250.008 97.9094 250.718 97.6943C251.075 97.5861 251.452 97.5498 251.818 97.6039L252.835 97.79L252.626 97.9321C253.295 94.3663 253.88 91.2467 254.455 88.1832L254.487 88.0141L254.656 88.0448C271.545 91.1084 286.348 93.7944 299.433 96.1681L299.572 96.193L299.546 96.3316C298.813 100.236 298.228 103.347 297.662 106.354L297.558 106.201C297.964 106.288 298.346 106.322 298.748 106.458C299.138 106.597 299.472 106.844 299.716 107.151C300.222 107.76 300.324 108.595 300.092 109.267C299.87 109.962 299.279 110.457 298.642 110.65C298.322 110.746 297.987 110.78 297.661 110.747C297.333 110.702 297.045 110.636 296.738 110.581L296.882 110.482C295.968 115.344 295.266 119.078 294.601 122.616L294.584 122.533C303.26 135.449 309.919 145.365 314.415 152.056C316.653 155.401 318.352 157.939 319.494 159.645C320.631 161.347 321.197 162.222 321.197 162.222C321.197 162.222 320.598 161.37 319.446 159.676C318.293 157.976 316.578 155.449 314.319 152.119C309.803 145.44 303.113 135.545 294.399 122.655L294.374 122.618L294.382 122.573C295.04 119.034 295.735 115.298 296.64 110.435L296.663 110.313L296.785 110.336C297.395 110.45 297.987 110.612 298.569 110.407C299.141 110.232 299.658 109.794 299.851 109.185C300.055 108.585 299.964 107.85 299.515 107.311C299.299 107.04 299.003 106.823 298.659 106.701C298.324 106.586 297.905 106.54 297.509 106.457L297.381 106.43L297.404 106.303C297.964 103.294 298.544 100.183 299.27 96.277L299.383 96.4405C286.295 94.0855 271.487 91.4212 254.594 88.3821L254.795 88.2437C254.224 91.3089 253.642 94.4282 252.978 97.9948L252.945 98.1677L252.769 98.1378C252.086 98.0224 251.438 97.8106 250.826 98.0339C250.216 98.2229 249.699 98.7133 249.546 99.3532C249.377 99.9827 249.557 100.713 250.047 101.192C250.512 101.724 251.284 101.751 252.063 101.911L252.242 101.948L252.209 102.125C251.515 105.846 250.808 109.637 250.019 113.869L250.006 113.941L249.949 113.985C240.314 121.396 230.134 129.226 219.435 137.455C216.761 139.513 214.053 141.596 211.313 143.702C208.565 145.75 206.313 148.517 204.911 151.729C204.208 153.337 203.736 155.031 203.44 156.792C203.113 158.549 202.782 160.318 202.451 162.095C202.138 163.881 201.658 165.643 201.879 167.435C202.044 169.219 202.679 170.964 203.699 172.459L203.751 172.536L203.734 172.626C197.741 204.714 191.225 239.606 184.32 276.58C182.592 285.823 180.842 295.197 179.067 304.69C178.181 309.436 177.288 314.212 176.39 319.016C175.941 321.418 175.492 323.827 175.04 326.244C174.816 327.448 174.594 328.654 174.37 329.862C174.29 330.445 174.309 331.044 174.38 331.641C174.457 332.219 174.596 332.884 174.535 333.53C174.495 334.177 174.336 334.815 174.074 335.409C173.834 336.009 173.395 336.542 173.059 337.015C172.371 338.012 171.902 339.13 171.703 340.338C171.22 342.776 170.734 345.22 170.248 347.671C169.276 352.572 168.298 357.499 167.316 362.449C166.333 367.399 165.347 372.374 164.354 377.371C163.859 379.869 163.362 382.373 162.864 384.883C162.362 387.375 162.112 389.926 162.312 392.46L162.315 392.497L162.309 392.532C160.818 399.984 159.307 407.546 157.787 415.151C157.088 418.652 156.393 422.144 155.698 425.626C155.041 429.101 154.663 432.621 154.612 436.135C154.555 439.648 154.851 443.156 155.452 446.59C156.116 450.003 157.092 453.382 158.77 456.396C160.433 459.393 162.775 462.066 165.796 463.663C168.766 465.374 172.24 465.731 175.592 466.401L178.113 466.873C178.957 467.016 179.788 467.229 180.604 467.27C182.254 467.37 183.922 466.944 185.325 466.088C186.031 465.668 186.63 465.1 187.27 464.535C187.92 463.974 188.497 463.418 189.204 462.853C189.969 462.316 191.01 462.223 191.857 462.594C192.716 462.946 193.359 463.768 193.506 464.681C193.758 466.132 194.398 467.508 195.349 468.627C196.307 469.74 197.562 470.585 198.946 471.059C199.637 471.295 200.364 471.399 201.113 471.53L203.337 471.91C204.819 472.164 206.298 472.417 207.773 472.67C210.726 473.175 213.667 473.678 216.597 474.181L218.792 474.556C219.531 474.662 220.254 474.868 220.939 474.818C222.344 474.757 223.639 473.922 224.454 472.775C224.664 472.501 224.817 472.17 225.089 471.846C225.344 471.528 225.69 471.293 226.057 471.125C226.798 470.785 227.677 470.824 228.405 471.169C228.767 471.349 229.088 471.609 229.344 471.922C229.595 472.239 229.757 472.629 229.887 472.955C230.169 473.621 230.43 474.34 230.729 474.959C231.357 476.205 232.545 477.141 233.891 477.481C235.318 477.752 236.741 478.021 238.161 478.29C239.587 478.557 241.011 478.823 242.43 479.09C243.855 479.371 245.247 479.615 246.671 479.62C249.504 479.661 252.332 478.975 254.811 477.656C256.05 476.998 257.209 476.188 258.234 475.238C259.268 474.298 260.137 473.197 260.985 472.076C262.657 469.823 264.099 467.416 265.281 464.902C266.468 462.39 267.413 459.778 268.106 457.117C268.816 454.463 269.211 451.734 269.744 449.053C271.757 438.302 273.725 427.792 275.642 417.553L275.659 417.692C275.023 416.299 274.866 414.71 275.171 413.265C275.467 411.814 276.218 410.524 277.177 409.585L277.113 409.706C280.414 392.085 283.589 375.14 286.596 359.092L286.629 359.25C285.845 358.117 285.586 356.662 285.872 355.37C286.136 354.068 286.969 352.965 287.924 352.295L287.846 352.421C301.267 280.93 311.748 225.104 317.823 192.741L317.831 192.701L317.863 192.68C320.11 191.223 321.634 189.046 322.323 186.796C322.665 185.672 322.806 184.522 323.032 183.439C323.238 182.35 323.436 181.302 323.627 180.292C323.986 178.27 324.437 176.422 324.524 174.698C324.64 172.978 324.518 171.411 324.281 170.039C323.809 167.287 322.918 165.329 322.272 164.071C321.938 163.445 321.669 162.98 321.474 162.679C321.288 162.379 321.197 162.222 321.197 162.222Z" fill="#263238"/>
<path d="M297.703 106.118C297.677 106.259 287.604 104.548 275.208 102.296C262.806 100.043 252.778 98.104 252.804 97.9623C252.829 97.8205 262.9 99.532 275.3 101.784C287.697 104.036 297.728 105.976 297.703 106.118Z" fill="#263238"/>
<path d="M298.034 110.705C298.008 110.846 287.709 109.038 275.035 106.668C262.356 104.297 252.102 102.261 252.129 102.12C252.155 101.979 262.451 103.786 275.131 106.157C287.805 108.526 298.06 110.563 298.034 110.705Z" fill="#263238"/>
<path d="M296.094 114.021C296.068 114.162 286.055 112.408 273.732 110.103C261.406 107.798 251.438 105.815 251.464 105.674C251.49 105.534 261.502 107.287 273.828 109.592C286.151 111.895 296.121 113.879 296.094 114.021Z" fill="#263238"/>
<path d="M295.43 117.575C295.403 117.717 285.39 115.962 273.068 113.658C260.741 111.353 250.773 109.369 250.799 109.229C250.826 109.087 260.837 110.841 273.163 113.147C285.486 115.45 295.456 117.433 295.43 117.575Z" fill="#263238"/>
<path d="M252.111 102.212C252.55 103.507 253.631 104.505 254.844 105.133C256.059 105.759 257.41 106.062 258.746 106.349C270.352 108.834 282.122 110.556 293.954 111.501C294.917 111.579 296.123 111.515 296.522 110.635C294.663 110.208 292.788 109.853 290.914 109.499C279.785 107.403 268.641 105.379 257.498 103.356C255.456 102.985 253.415 102.615 251.373 102.244" fill="#E0E0E0"/>
<path d="M245.726 93.4146L252.075 59.4661C252.075 59.4661 253.021 52.532 283.851 58.2954C311.885 63.5358 310.324 71.4467 310.324 71.4467L304.172 104.344L245.726 93.4146Z" fill="#E8505B"/>
<path d="M250.797 87.4085C250.656 87.3821 251.637 81.5063 252.987 74.2854C254.338 67.0626 255.548 61.2296 255.688 61.2559C255.83 61.2824 254.849 67.1572 253.498 74.381C252.149 81.601 250.939 87.435 250.797 87.4085Z" fill="#263238"/>
<path d="M256.013 88.3839C255.871 88.3574 256.913 82.1582 258.337 74.5393C259.763 66.9174 261.033 60.762 261.174 60.7883C261.315 60.8147 260.274 67.013 258.849 74.6349C257.424 82.2538 256.153 88.4102 256.013 88.3839Z" fill="#263238"/>
<path d="M261.042 89.3243C260.9 89.2978 261.985 82.8646 263.464 74.9577C264.943 67.0478 266.257 60.6594 266.397 60.6857C266.538 60.712 265.454 67.1434 263.975 75.0533C262.496 82.9602 261.183 89.3507 261.042 89.3243Z" fill="#263238"/>
<path d="M266.071 90.2648C265.929 90.2383 267.043 83.6518 268.557 75.5542C270.072 67.4546 271.414 60.9119 271.555 60.9382C271.696 60.9646 270.583 67.5502 269.068 75.6498C267.554 83.7474 266.212 90.2912 266.071 90.2648Z" fill="#263238"/>
<path d="M271.099 91.2052C270.958 91.1787 272.072 84.5922 273.586 76.4946C275.101 68.395 276.443 61.8523 276.584 61.8786C276.724 61.9049 275.612 68.4906 274.097 76.5902C272.583 84.6878 271.241 91.2317 271.099 91.2052Z" fill="#263238"/>
<path d="M276.128 92.1455C275.987 92.119 277.1 85.5325 278.615 77.4349C280.129 69.3353 281.472 62.7926 281.613 62.8189C281.753 62.8452 280.641 69.4309 279.126 77.5305C277.612 85.6281 276.27 92.172 276.128 92.1455Z" fill="#263238"/>
<path d="M281.157 93.0859C281.016 93.0595 282.129 86.473 283.644 78.3753C285.158 70.2757 286.501 63.7331 286.641 63.7593C286.783 63.7858 285.669 70.3713 284.155 78.4709C282.64 86.5685 281.299 93.1124 281.157 93.0859Z" fill="#263238"/>
<path d="M286.186 94.0264C286.044 93.9999 287.158 87.4134 288.672 79.3158C290.187 71.2162 291.53 64.6735 291.67 64.6998C291.812 64.7262 290.698 71.3118 289.183 79.4114C287.669 87.509 286.327 94.0528 286.186 94.0264Z" fill="#263238"/>
<path d="M291.215 94.9669C291.073 94.9404 292.144 88.5829 293.606 80.7674C295.068 72.9499 296.367 66.6363 296.508 66.6625C296.648 66.6888 295.579 73.0455 294.117 80.863C292.655 88.6785 291.356 94.9933 291.215 94.9669Z" fill="#263238"/>
<path d="M296.244 95.9073C296.102 95.8808 297.124 89.7829 298.526 82.2888C299.928 74.7917 301.179 68.7385 301.319 68.7648C301.461 68.7913 300.439 74.8883 299.037 82.3844C297.635 89.8784 296.385 95.9338 296.244 95.9073Z" fill="#263238"/>
<path d="M301.272 96.8477C301.131 96.8212 302.09 91.0614 303.413 83.9841C304.737 76.9048 305.925 71.1887 306.066 71.215C306.207 71.2415 305.248 77.0004 303.925 84.0796C302.601 91.157 301.414 96.8741 301.272 96.8477Z" fill="#263238"/>
<path d="M307.987 72.3241C307.978 72.3397 307.794 72.2555 307.453 72.0818C307.065 71.877 306.576 71.6188 305.976 71.3021C305.342 70.9515 304.561 70.5327 303.63 70.0921C302.703 69.6452 301.668 69.0945 300.474 68.5904C299.294 68.0584 297.999 67.4805 296.574 66.9425C295.171 66.3545 293.626 65.8429 292.012 65.2765C288.758 64.2214 285.127 63.2259 281.253 62.4618C277.372 61.7279 273.631 61.2989 270.217 61.0675C268.508 60.992 266.885 60.8919 265.363 60.9145C263.841 60.8831 262.423 60.9376 261.13 60.9918C259.835 61.0151 258.669 61.1399 257.643 61.2104C256.615 61.2735 255.734 61.3712 255.015 61.4597C254.341 61.5299 253.791 61.5878 253.354 61.6333C252.973 61.6678 252.771 61.6769 252.768 61.659C252.765 61.6412 252.962 61.5976 253.338 61.5295C253.771 61.458 254.318 61.369 254.989 61.2584C255.706 61.1382 256.586 61.0109 257.615 60.9203C258.642 60.8225 259.81 60.6706 261.111 60.6239C262.409 60.5453 263.832 60.4706 265.362 60.483C266.893 60.4417 268.525 60.5252 270.245 60.5884C273.679 60.7952 277.447 61.2129 281.352 61.9512C285.25 62.7199 288.9 63.7352 292.164 64.8217C293.783 65.4032 295.33 65.9335 296.735 66.5422C298.159 67.1006 299.452 67.7004 300.628 68.2561C301.817 68.7837 302.845 69.3594 303.763 69.8331C304.683 70.3004 305.453 70.7463 306.074 71.1249C306.655 71.4768 307.129 71.7639 307.505 71.9908C307.83 72.194 307.996 72.3084 307.987 72.3241Z" fill="#263238"/>
<path d="M303.641 97.3772C303.615 97.5188 291.409 95.3542 276.382 92.5441C261.35 89.7329 249.19 87.3399 249.216 87.1993C249.242 87.0587 261.445 89.2218 276.478 92.033C291.504 94.843 303.668 97.2367 303.641 97.3772Z" fill="#263238"/>
<path d="M308.711 241.999L194.474 220.635L179.295 301.8L293.533 323.164L308.711 241.999Z" fill="#E8505B"/>
<g opacity="0.3">
<path d="M206.91 279.496L207.459 279.599L207.38 278.982L206.91 279.496Z" fill="black"/>
<path d="M272.037 273.525L265.04 280.612L252.925 241.591L231.32 267.886L227.665 256.781L209.304 276.878L212.514 277.478L212.879 280.614L215.048 281.019L216.573 278.237L221.266 279.115L221.619 282.248L223.808 282.657L225.321 279.873L230.422 280.827L228.908 283.611L232.49 284.281L234.355 281.562L239.257 282.479L240.013 285.688L242.778 286.205L243.332 283.241L256.278 285.662L255.723 288.626L256 288.677L256.554 285.714L268.059 287.865L267.505 290.829L268.586 291.031L269.14 288.068L275.874 289.327C278.704 289.856 280.582 291.362 281.169 293.384L282.131 293.564L272.037 273.525ZM226.124 266.894L222.37 269.964L223.051 266.319L215.136 272.382L226.531 259.91L229.773 269.765L226.124 266.894ZM231.253 279.547L231.788 276.582L229.932 278.695L228.966 278.514L227.98 275.974L227.446 278.834L225.449 278.461L226.665 271.96L228.467 272.297L229.936 276.156L232.645 273.079L234.447 273.416L233.25 279.919L231.254 279.546L231.253 279.547ZM236.336 280.498L234.238 280.105L235.188 275.025L237.286 275.418L236.336 280.498ZM236.313 274.813C235.542 274.669 235.138 274.112 235.25 273.51C235.363 272.905 235.941 272.534 236.712 272.678C237.483 272.823 237.895 273.341 237.782 273.946C237.663 274.585 237.083 274.957 236.313 274.813ZM242.871 281.72L240.772 281.327L241.246 278.792C241.364 278.161 241.168 277.874 240.787 277.803C240.36 277.723 239.948 277.924 239.807 278.677L239.361 281.064L237.262 280.672L238.212 275.592L240.208 275.965L240.114 276.467C240.588 276.143 241.163 276.048 241.758 276.159C242.928 276.378 243.711 277.227 243.413 278.823L242.871 281.72ZM239.711 260.139L252.326 244.786L256.765 259.079L252.699 254.069L248.209 257.991L248.884 254.38L239.711 260.139ZM249.629 280.86L246.101 280.201C246.177 280.618 246.491 280.889 247.01 280.986C247.475 281.073 247.757 281.001 248.14 280.812L249.029 282.122C248.436 282.568 247.669 282.713 246.657 282.523C244.79 282.174 243.793 280.825 244.076 279.311C244.364 277.77 245.803 276.915 247.447 277.222C248.951 277.503 250.072 278.655 249.751 280.372C249.722 280.522 249.666 280.712 249.629 280.86ZM254.19 280.405C254.008 280.342 253.881 280.308 253.732 280.28C253.101 280.162 252.6 280.368 252.449 281.175L252.027 283.432L249.929 283.039L250.879 277.959L252.875 278.333L252.772 278.881C253.224 278.523 253.83 278.416 254.536 278.548L254.189 280.405L254.19 280.405ZM259.138 284.762L257.188 284.397L257.313 283.729C256.976 284.193 256.446 284.354 255.731 284.22C254.487 283.988 253.978 283.163 254.141 282.29C254.325 281.306 255.171 280.897 256.75 281.192L257.595 281.35C257.602 280.948 257.343 280.687 256.75 280.576C256.295 280.491 255.756 280.545 255.376 280.732L254.965 279.224C255.629 278.964 256.568 278.928 257.357 279.075C259.103 279.402 259.966 280.341 259.649 282.032L259.139 284.762L259.138 284.762ZM262.142 285.323L260.043 284.931L261.332 278.041L263.43 278.434L262.142 285.323ZM271.964 279.667L271.314 283.141L269.273 280.497L267.462 280.162L271.575 275.998L275.574 283.939L271.964 279.667Z" fill="black"/>
<path d="M247.197 278.656C246.761 278.574 246.417 278.769 246.252 279.181L247.887 279.487C247.884 279.044 247.625 278.736 247.197 278.656Z" fill="black"/>
<path d="M256.174 282.574C256.13 282.806 256.283 283.017 256.599 283.076C256.887 283.13 257.175 283.031 257.349 282.716L257.415 282.363L256.895 282.266C256.448 282.182 256.226 282.295 256.174 282.574Z" fill="black"/>
<path d="M280.41 295.674C280.922 292.931 279.122 290.831 275.711 290.194L269.845 289.097L268.205 297.862C268.108 297.828 268.017 297.792 267.918 297.758C265.396 296.915 262.407 296.31 259.113 296.027L259.404 294.472L264.938 295.507L265.363 293.232L259.829 292.197L260.275 289.814L266.575 290.992L267.028 288.57L257.258 286.743L255.554 295.852C253.587 295.818 251.552 295.899 249.471 296.042L250.944 288.164L254.776 288.881L255.247 286.366L244.037 284.269L243.567 286.785L247.399 287.502L245.745 296.35C244.118 296.505 242.472 296.677 240.805 296.853C235.619 297.397 230.713 297.808 226.325 297.538C221.935 297.28 218.045 296.391 214.968 295.184C208.745 292.763 206.111 289.211 205.724 289.573C205.583 289.679 206.027 290.7 207.334 292.2C208.63 293.697 210.883 295.59 214.095 297.167C217.301 298.736 221.439 299.92 226.109 300.354C230.791 300.8 235.891 300.449 241.122 299.902C246.348 299.35 251.257 298.738 255.686 298.676C260.117 298.6 264.088 299.046 267.314 299.841C273.821 301.418 277.071 304.337 277.387 303.924C277.469 303.832 277.185 303.367 276.505 302.683C276.596 302.752 276.692 302.818 276.783 302.888L278.872 303.279L277.007 299.078L277.492 298.936C279.088 298.47 280.097 297.343 280.41 295.674ZM272.921 292.256L274.964 292.638C276.359 292.899 277.056 293.783 276.828 295.004C276.599 296.226 275.629 296.798 274.235 296.537L272.192 296.155L272.921 292.256ZM271.739 298.577L273.598 298.925L274.521 301.021C273.726 300.455 272.751 299.861 271.605 299.288L271.738 298.577L271.739 298.577Z" fill="black"/>
<path d="M237.553 293.217L238.01 295.636L241.609 296.309L238.529 283.24L234.757 282.535L227.162 293.607L230.687 294.267L231.987 292.176L237.553 293.217ZM236.108 285.544L237.102 290.779L233.289 290.065L236.108 285.544Z" fill="black"/>
<path d="M217.867 283.665L218.807 292.046L222.901 292.812L229.065 281.47L225.789 280.858L221.469 288.805L220.461 279.861L217.038 279.221L212.74 287.061L211.712 278.225L208.085 277.547L209.735 290.35L213.833 291.116L217.867 283.665Z" fill="black"/>
</g>
<path d="M188.214 297.353C188.072 297.327 190.668 282.813 194.011 264.94C197.354 247.061 200.179 232.594 200.319 232.62C200.461 232.647 197.865 247.157 194.522 265.036C191.18 282.909 188.354 297.379 188.214 297.353Z" fill="white"/>
<path opacity="0.3" d="M404.684 439.263C403.601 434.362 390.125 437.231 387.334 437.711C381.92 438.642 376.626 440.276 371.489 442.288C365.861 444.492 359.322 447.74 353.484 444.389C350.109 442.446 361.808 438.613 362.869 438.222C367.796 436.407 372.666 434.36 377.217 431.649C379.066 430.548 382.646 427.919 381.1 425.242C379.824 423.032 375.228 423.262 372.439 423.583C363.61 424.602 355.327 426.93 347.763 429.806C339.715 432.866 332.387 436.531 325.101 440.177C322.34 441.559 319.435 442.983 315.913 443.483C312.392 443.983 308.085 443.237 306.693 441.282C305.322 439.355 307.089 437.059 307.506 435.099C308 432.777 307.908 430.372 306.814 428.126C306.181 426.826 305.178 425.56 303.565 424.702C299.756 422.678 293.988 423.443 290.166 425.026C287.474 426.141 285.291 427.724 283.47 429.44C279.252 433.415 276.699 438.219 275.588 442.993C274.925 445.843 273.616 448.823 270.294 451.061C264.931 454.673 255.113 454.465 247.602 452.651C234.488 449.486 224.534 442.212 222.083 434.005C220.915 430.092 220.338 426.053 215.083 424.478C211.684 423.459 204.566 424.172 206.083 428.452C206.487 429.591 207.42 430.635 208.225 431.697C209.612 433.529 211.093 436.978 206.966 438.089C205.708 438.428 204.259 438.376 202.889 438.284C189.617 437.39 177.394 432.966 169.474 426.725C166.695 424.536 164.604 422.035 163.009 419.39C162.078 417.846 161.735 416.179 160.706 414.647C159.824 413.332 158.514 412.105 156.686 411.319C151.584 409.124 139.602 410.266 138.765 415.068C138.312 417.668 139.93 420.489 140.776 422.957C140.886 423.279 140.996 423.623 140.875 423.942C140.635 424.57 139.682 424.753 138.888 424.805C128.184 425.514 117.794 421.356 108.808 417.015C99.287 412.412 88.779 406.425 75.576 406.352C72.795 406.337 70.09 406.44 67.466 407.286C66.792 407.503 66.113 407.772 65.645 408.228C64.935 408.921 64.85 409.946 65.201 410.806C65.552 411.666 66.279 412.386 67.064 413.021C71.102 416.284 76.66 417.602 81.774 419.285C97.635 424.505 112.378 430.886 125.555 438.235C126.962 439.02 129.467 440.853 127.486 442.187C125.359 443.62 121.501 442.669 119.115 442.28C114.812 441.578 110.685 440.466 106.496 439.412C100.95 438.017 94.486 436.74 88.463 437.9C85.292 438.512 82.447 439.813 80.97 441.571C79.923 442.818 79.597 444.297 80.334 445.612C82.392 449.28 91.781 450.867 96.914 452.645C103.669 454.984 110.142 457.612 116.143 460.577C121.474 463.21 126.423 466.103 131.818 468.691C151.112 477.946 178.055 479.13 202.144 480.035C228.295 481.017 254.561 480.185 280.639 478.73C299.609 477.672 318.296 475.584 336.913 473.129C342.264 472.423 347.587 471.562 352.925 470.833C358.338 470.094 363.771 469.254 368.925 467.659C370.785 467.083 372.723 466.332 374.068 465.084C375.497 463.758 375.955 462.017 373.392 461.509C368.027 460.445 362.509 461.659 357.268 462.618C351.395 463.693 345.566 464.934 339.796 466.339C337.169 466.978 334.542 467.654 331.831 467.973C329.12 468.292 326.292 468.239 323.726 467.45C322.863 467.185 321.921 466.702 321.869 465.942C321.823 465.261 322.54 464.706 323.284 464.411C334.067 460.137 345.534 457.421 357.073 454.914C364.901 453.213 372.874 452.17 380.763 450.846C387.95 449.639 395.528 449.353 401.709 444.793C402.87 443.936 403.99 442.885 404.465 441.479C404.762 440.606 404.82 439.874 404.684 439.263Z" fill="#407BFF"/>
<path opacity="0.3" d="M95.247 398.779C92.312 390.441 81.876 375.692 79.677 384.408C78.444 389.299 95.247 398.779 95.247 398.779Z" fill="#407BFF"/>
<path opacity="0.3" d="M357.42 415.179C363.003 410.087 369.967 407.055 370.859 411.529C371.702 415.758 357.42 415.179 357.42 415.179Z" fill="#407BFF"/>
<path opacity="0.3" d="M128.487 374.691C124.66 372.66 121.678 369.486 123.922 368.14C126.042 366.868 128.487 374.691 128.487 374.691Z" fill="#407BFF"/>
<path opacity="0.1" d="M114.163 404.993C114.677 402.443 116.507 401.951 117.963 401.929C126.525 401.8 134.532 407.844 142.001 414.334C143.648 415.765 145.442 417.251 147.294 415.746C147.775 415.355 148.233 414.769 148.49 413.928C148.825 412.831 148.758 411.452 148.454 410.363C148.15 409.274 147.638 408.433 147.096 407.719C143.873 403.47 139.936 401.427 136.752 397.038C135.081 394.734 133.591 392.001 132.338 388.94C131.303 386.412 129.382 382.345 130.137 378.902C131.033 374.813 134.084 375.17 135.931 375.723C141.779 377.474 147.236 381.645 152.203 386.836C157.488 392.359 162.281 399.007 167.046 405.62C168.852 408.128 170.752 410.709 173.083 411.58C175.413 412.451 178.293 411.015 179.261 407.392C180.214 403.823 179.089 399.616 178.855 396.012C178.577 391.74 178.69 387.309 179.466 383.154C179.915 380.75 180.609 378.402 181.7 376.799C184.276 373.015 188.095 374.342 190.602 377.205C192.368 379.221 193.785 382.106 194.959 385.243C197.677 392.507 199.27 401.322 199.906 410.101C200.285 415.343 201.091 420.815 203.251 424.891C206.739 431.47 213.271 430.945 218.304 427.497C227.092 421.478 233.868 407.934 235.676 392.778C236.266 387.832 236.419 382.5 238.224 378.357C239.786 374.772 243.824 372.357 245.789 376.218C246.619 377.85 246.728 380.214 246.435 382.319C246.142 384.424 245.499 386.36 244.941 388.328C243.979 391.723 242.92 398.1 245.64 400.087C246.469 400.693 247.433 400.577 248.347 400.388C257.191 398.551 265.414 390.225 270.815 378.615C272.71 374.542 274.155 369.904 275.273 365.008C275.926 362.15 276.19 359.074 276.907 356.235C277.522 353.8 278.42 351.521 279.652 350.046C283.092 345.929 291.034 347.863 291.486 356.698C291.747 361.803 290.391 366.808 289.896 371.802C289.586 374.93 291.508 374.904 292.949 374.757C299.851 374.052 305.964 367.093 311.363 359.859C317.793 351.243 324.91 340.062 333.69 339.739C335.725 339.664 339.024 339.923 340.22 343.017C340.869 344.695 340.721 346.93 340.266 348.814C338.485 356.198 333.236 360.012 329.288 363.658C318.628 373.502 308.687 385.471 299.766 399.201C298.49 401.165 297.186 404.493 298.395 406.461C298.955 407.372 299.839 407.479 300.642 407.418C304.769 407.102 308.598 403.816 312.415 401.095C316.133 398.445 320.459 396 324.437 398.053C326.532 399.134 328.396 401.491 329.34 404.71C330.009 406.992 330.194 409.713 329.675 412.146C328.227 418.934 321.95 421.991 318.499 425.34C313.957 429.747 309.596 434.681 305.542 440.229C301.941 445.157 298.587 450.558 294.944 455.403C281.915 472.73 263.975 475.296 247.939 477.307C230.53 479.489 213.084 478.331 195.776 476.022C183.186 474.342 170.806 470.762 158.481 466.505C154.265 464.978 150.07 463.306 145.931 461.331C141.479 459.207 134.88 457.896 133.224 449.553C132.867 447.753 133.288 446.293 134.479 445.617C138.167 443.524 143.428 446.326 146.891 448.177C151.679 450.735 156.226 454.386 161.14 456.365C162.806 457.036 164.579 457.35 166.26 456.626C166.966 456.321 167.67 455.808 168.153 454.905C168.635 454.002 168.845 452.645 168.514 451.609C168.293 450.916 167.875 450.461 167.47 450.042C158.049 440.3 147.18 433.444 136.358 428.816C132.6 427.211 128.777 425.888 125.162 423.608C122.485 421.919 119.905 419.671 117.759 416.567C116.005 414.033 113.309 409.284 114.163 404.993Z" fill="#407BFF"/>
<path opacity="0.1" d="M305.434 331.487C302.349 334.694 297.005 331.844 297.905 327.486C301.359 310.771 308.838 298.561 317.778 304.879C324.443 309.588 314.001 322.58 305.434 331.487Z" fill="#407BFF"/>
<path opacity="0.1" d="M140.65 321.698C131.422 314.532 124.969 304.721 131.551 302.183C137.772 299.785 140.65 321.698 140.65 321.698Z" fill="#407BFF"/>
</svg>
