<svg width="56" height="100" viewBox="0 0 56 100" fill="none" xmlns="http://www.w3.org/2000/svg">
<path d="M67.4182 34.4891C67.067 31.5035 42.7007 16.7509 42.7007 16.7509H42.6021V6.08153H25.8061V16.7509L4.98858 34.4671C4.98858 34.4671 0.398778 46.9304 0.267606 48.0468C-0.0836802 51.0324 -0.316473 99.1195 1.08867 101.578C2.49355 104.037 10.7481 109.306 10.7481 109.306H31.766H36.7407H57.7586C57.7586 109.306 66.013 104.037 67.418 101.578C68.8233 99.1195 67.7696 37.4748 67.4182 34.4891Z" fill="#036D95"/>
<path d="M67.4182 34.4891C67.067 31.5035 43.9745 16.7011 43.9745 16.7011V6.29505L38.0359 6.08167V16.751H38.1345C38.1345 16.751 62.5007 31.5036 62.852 34.4893C63.2033 37.4749 64.2569 99.1196 62.852 101.578C61.4471 104.037 53.1926 109.306 53.1926 109.306H57.7589C57.7589 109.306 66.0133 104.037 67.4183 101.578C68.8233 99.1195 67.7695 37.4748 67.4182 34.4891Z" fill="#036D95"/>
<path d="M44.8076 8.142H25.1928C24.6762 8.142 24.2573 7.72315 24.2573 7.20651V0.935487C24.2573 0.418851 24.6762 0 25.1928 0H44.8076C45.3242 0 45.743 0.418851 45.743 0.935487V7.20651C45.7429 7.72315 45.3242 8.142 44.8076 8.142Z" fill="#036D95"/>
<path d="M44.29 11.6702H25.6088C25.284 11.6702 25.0208 11.4069 25.0208 11.0821C25.0208 10.7574 25.284 10.4941 25.6088 10.4941H44.29C44.6147 10.4941 44.8779 10.7574 44.8779 11.0821C44.8779 11.4069 44.6147 11.6702 44.29 11.6702Z" fill="#036D95"/>
<path d="M25.781 1.71895H25.2017V7.93719H25.781V1.71895Z" fill="#036D95"/>
<path d="M27.0719 1.71895H26.4927V7.93719H27.0719V1.71895Z" fill="#036D95"/>
<path d="M28.3635 1.71895H27.7842V7.93719H28.3635V1.71895Z" fill="#036D95"/>
<path d="M29.6546 1.71895H29.0754V7.93719H29.6546V1.71895Z" fill="#036D95"/>
<path d="M30.9457 1.71895H30.3665V7.93719H30.9457V1.71895Z" fill="#036D95"/>
<path d="M32.237 1.71895H31.6577V7.93719H32.237V1.71895Z" fill="#036D95"/>
<path d="M33.5283 1.71895H32.949V7.93719H33.5283V1.71895Z" fill="#036D95"/>
<path d="M34.8193 1.71895H34.24V7.93719H34.8193V1.71895Z" fill="#036D95"/>
<path d="M36.1108 1.71895H35.5315V7.93719H36.1108V1.71895Z" fill="#036D95"/>
<path d="M37.4019 1.71895H36.8228V7.93719H37.4019V1.71895Z" fill="#036D95"/>
<path d="M38.6932 1.71895H38.114V7.93719H38.6932V1.71895Z" fill="#036D95"/>
<path d="M39.9843 1.71895H39.405V7.93719H39.9843V1.71895Z" fill="#036D95"/>
<path d="M41.2755 1.71895H40.6963V7.93719H41.2755V1.71895Z" fill="#036D95"/>
<path d="M42.5668 1.71895H41.9875V7.93719H42.5668V1.71895Z" fill="#036D95"/>
<path d="M43.858 1.71895H43.2788V7.93719H43.858V1.71895Z" fill="#036D95"/>
<path d="M45.1492 1.71895H44.5701V7.93719H45.1492V1.71895Z" fill="#036D95"/>
<path d="M44.6076 1.01784H25.2727C25.134 1.01784 25.0205 0.904348 25.0205 0.765655C25.0205 0.626961 25.134 0.513474 25.2727 0.513474H44.6076C44.7461 0.513474 44.8596 0.626961 44.8596 0.765655C44.8596 0.904348 44.7461 1.01784 44.6076 1.01784Z" fill="#036D95"/>
<path opacity="0.58" d="M27.4438 20.3437L12.2011 32.0642C11.1863 32.8445 11.738 34.4672 13.0181 34.4672H22.9769C23.4966 34.4672 23.9693 34.167 24.1902 33.6967L29.6956 21.9764C30.1131 21.0873 29.4644 20.0659 28.4823 20.0659H28.2609C27.9653 20.0659 27.678 20.1636 27.4438 20.3437Z" fill="#0981AE"/>
<path opacity="0.58" d="M7.08716 40.0543V99.8769C7.08716 100.598 7.67201 101.183 8.39332 101.183H16.5395C17.2609 101.183 17.8456 100.598 17.8456 99.8769V40.0543C17.8456 39.333 17.2607 38.7481 16.5395 38.7481H8.39332C7.67188 38.7481 7.08716 39.333 7.08716 40.0543Z" fill="#0981AE"/>
<path d="M63.4187 34.4672L40.2361 35.06L64.2748 37.4309L63.4187 34.4672Z" fill="#036D95"/>
<path d="M27.2055 19.2022C27.2055 19.2022 10.2576 17.7093 7.97448 22.8026C6.09479 26.9956 7.05261 48.6043 7.05261 48.6043L0.267708 48.0469C0.267708 48.0469 -0.707765 24.2838 3.14477 18.1485C6.70118 12.4847 27.9372 13.4534 27.9372 13.4534L27.2055 19.2022Z" fill="#036D95"/>
<path opacity="0.58" d="M22.8611 14.723C22.5217 14.5466 22.1178 14.5644 21.7364 14.5937C18.5715 14.837 15.6102 14.7452 12.4666 15.1847C8.69893 15.7117 5.40158 17.6771 5.40158 17.6771C4.8187 18.0037 4.30852 18.6812 4.55371 19.3027C4.76973 19.85 5.48075 20.0494 6.05215 19.9084C6.62342 19.7673 7.09613 19.3812 7.57872 19.0444C9.6644 17.5891 12.2102 16.9354 14.735 16.6308C17.2599 16.3262 19.8136 16.3435 22.3436 16.0868C22.6867 16.052 23.0808 15.9792 23.2471 15.6772C23.4316 15.3419 23.2005 14.8996 22.8611 14.723Z" fill="#0981AE"/>
<path opacity="0.58" d="M2.63078 23.0123C2.47586 23.4553 2.50884 23.9387 2.53629 24.4071C2.69319 27.0754 2.61389 29.7575 2.29942 32.4119C2.21932 33.0876 2.25138 33.9787 2.89906 34.1869C3.33559 34.3273 3.8141 34.0156 4.02036 33.6063C4.22662 33.1968 4.22886 32.7186 4.22661 32.2601C4.2117 29.234 4.19665 26.2078 4.18174 23.1813C4.1754 21.9281 3.02311 21.8901 2.63078 23.0123Z" fill="#0981AE"/>
</svg>
