<svg width="393" height="162" viewBox="0 0 393 162" fill="none" xmlns="http://www.w3.org/2000/svg">
<path d="M70.01 109.398C59.7935 88.9385 67.3874 60.6682 85.4467 53.5398C106.463 45.2441 110.057 82.298 137.711 86.9995C165.526 91.7275 179.55 73.8373 186.656 51.0513C191.081 36.8644 186.38 3.48859 205.461 3.48859C219.841 3.48859 220.116 23.3989 212.928 36.8644C205.069 51.5812 203.994 74.8774 210.715 82.853C217.435 90.8286 231.595 71.5125 246.11 73C260.626 74.4874 253.3 104.673 258.831 110.079C264.361 115.484 237.263 141.172 173.937 145.994C129.652 149.363 87.383 144.189 70.01 109.398Z" fill="#222E4D"/>
<path opacity="0.5" d="M70.01 109.398C59.7935 88.9385 67.3874 60.6682 85.4467 53.5398C106.463 45.2441 110.057 82.298 137.711 86.9995C165.526 91.7275 179.55 73.8373 186.656 51.0513C191.081 36.8644 186.38 3.48859 205.461 3.48859C219.841 3.48859 220.116 23.3989 212.928 36.8644C205.069 51.5812 203.994 74.8774 210.715 82.853C217.435 90.8286 231.595 71.5125 246.11 73C260.626 74.4874 253.3 104.673 258.831 110.079C264.361 115.484 237.263 141.172 173.937 145.994C129.652 149.363 87.383 144.189 70.01 109.398Z" fill="#010614"/>
<path opacity="0.2" d="M208.503 5.977C205.827 1.41253 197.442 5.87496 195.506 13.8072C193.569 21.7395 213.203 13.9973 208.503 5.977Z" fill="#010614"/>
<path opacity="0.2" d="M73.0954 86.2264C72.1825 79.9914 73.8042 67.1717 81.5254 59.5652C91.1031 50.1287 102.04 53.2993 109.505 70.7911C109.505 70.7911 100.288 55.114 91.6693 57.4109C83.6755 59.5414 75.8621 68.1041 77.8234 86.7772C78.8048 96.1257 74.0181 92.53 73.0954 86.2264Z" fill="#010614"/>
<path opacity="0.2" d="M253.3 88.9358C253.3 88.9358 252.931 77.2751 245.374 75.1781C237.815 73.0811 222.514 84.1421 222.514 84.1421C222.514 84.1421 235.199 75.536 241.87 76.2154C248.542 76.8934 248.356 92.0701 250.644 92.4378C252.931 92.8069 253.493 90.9084 253.3 88.9358Z" fill="#010614"/>
<path d="M72.0819 99.4431C72.0819 99.4431 86.3233 107.37 91.1855 105.712C96.0478 104.054 97.0362 89.4097 111.718 88.7512C126.398 88.0928 144.349 101.656 152.275 102.024C160.202 102.393 174.951 79.1987 189.514 83.6989C204.078 88.1976 204.261 96.6779 212.005 96.1257C219.748 95.5721 225.6 87.1309 233.759 90.4106C241.916 93.6918 251.272 115.127 224.542 126.55C197.81 137.973 97.8917 141.312 72.0819 99.4431Z" fill="#222E4D"/>
<path opacity="0.4" d="M72.0819 99.4431C72.0819 99.4431 86.3233 107.37 91.1855 105.712C96.0478 104.054 97.0362 89.4097 111.718 88.7512C126.398 88.0928 144.349 101.656 152.275 102.024C160.202 102.393 174.951 79.1987 189.514 83.6989C204.078 88.1976 204.261 96.6779 212.005 96.1257C219.748 95.5721 225.6 87.1309 233.759 90.4106C241.917 93.6918 251.272 115.127 224.542 126.55C197.81 137.973 97.8917 141.312 72.0819 99.4431Z" fill="#010614"/>
<path d="M-6.26764 144.189C-6.26764 144.189 -0.737144 127.821 15.4852 130.23C31.7076 132.639 31.1568 138.681 36.1323 132.289C41.1078 125.897 46.0875 126.427 63.4157 129.988C80.7453 133.549 120.511 139.307 182.507 137.369C244.503 135.432 283.672 122.423 292.819 122.64C301.966 122.857 295.699 128.018 300.491 130.599C305.285 133.18 313.764 122.601 324.826 141.164C335.887 159.726 147.48 159.701 147.48 159.701C147.48 159.701 -0.737151 157.78 -6.26764 144.189Z" fill="#222E4D"/>
<path opacity="0.5" d="M-6.26764 144.189C-6.26764 144.189 -0.737144 127.821 15.4852 130.23C31.7076 132.639 31.1568 138.681 36.1323 132.289C41.1078 125.897 46.0875 126.427 63.4157 129.988C80.7453 133.549 120.511 139.307 182.507 137.369C244.503 135.432 283.672 122.423 292.819 122.64C301.966 122.857 295.699 128.018 300.491 130.599C305.285 133.18 313.764 122.601 324.826 141.164C335.887 159.726 147.48 159.701 147.48 159.701C147.48 159.701 -0.737151 157.78 -6.26764 144.189Z" fill="#010614"/>
<path opacity="0.2" d="M6.36049 133.456C11.322 130.016 24.8882 133.943 30.9709 137.709C37.055 141.475 47.5623 144.011 47.5623 144.011C47.5623 144.011 41.3301 148.882 30.9709 141.169C20.6117 133.456 6.36049 133.456 6.36049 133.456Z" fill="#010614"/>
<path opacity="0.2" d="M41.0183 132.133C42.619 130.74 44.8251 130.275 46.9137 130.189C49.0316 130.124 51.1398 130.421 53.2033 130.866C57.3246 131.801 61.3061 133.314 65.0164 135.436C72.0022 140.051 79.5458 143.495 87.5829 145.441C91.5868 146.42 95.6689 147.048 99.7693 147.448C103.875 147.843 108.01 147.854 112.135 147.738C116.281 147.541 120.432 147.318 124.57 146.904L137.037 145.588C141.221 145.186 145.45 144.913 149.681 144.893C153.908 144.902 158.132 145.067 162.327 145.446C164.427 145.616 166.513 145.883 168.605 146.097L174.853 146.923L187.246 148.847C195.486 150.013 203.783 150.874 212.111 151.046C220.424 151.238 228.824 150.976 236.986 149.12C233 150.42 228.833 151.085 224.671 151.583C220.502 152.055 216.307 152.341 212.107 152.416C203.705 152.57 195.302 152 186.961 151.01C170.368 148.71 153.837 146.394 137.308 148.37C129.038 149.209 120.637 150.182 112.221 150.376C103.763 150.553 95.2271 149.805 87.0335 147.544C82.9415 146.426 78.9377 144.961 75.1309 143.093C73.224 142.169 71.3675 141.143 69.5571 140.051C67.7565 138.962 65.9936 137.73 64.2978 136.592C60.8573 134.386 57.01 132.69 53.0285 131.58C51.0322 131.043 48.9841 130.656 46.9193 130.609C44.8768 130.56 42.7113 130.855 41.0183 132.133Z" fill="#010614"/>
<path opacity="0.2" d="M313.15 131.659C312.286 128.765 302.244 132.212 300.586 134.147C298.927 136.083 314.101 134.839 313.15 131.659Z" fill="#010614"/>
<path opacity="0.2" d="M293.812 123.916C296.487 122.486 292.706 130.242 288.835 129.43C284.964 128.618 286.622 127.53 289.664 126.691C292.704 125.851 291.998 124.884 293.812 123.916Z" fill="#010614"/>
<path d="M22.9827 29.943C38.562 14.3105 51.0853 56.8922 61.39 76.2153C74.8331 101.425 92.6394 117.946 106.962 110.076C121.284 102.208 108.749 55.2607 127.184 51.8189C145.619 48.377 136.77 98.8811 159.63 103.495C182.49 108.108 189.127 63.4614 205.349 64.3995C221.571 65.3375 213.46 95.9313 221.571 103.495C229.683 111.058 282.776 60.3802 286.462 23.7764C290.149 -12.8275 313.747 -0.40204 310.797 16.2453C307.848 32.8927 276.14 62.5848 268.028 86.4529C259.917 110.32 303.424 86.671 320.385 95.5455C337.345 104.42 269.289 145.995 176.114 145.995C82.9401 145.995 23.9473 124.581 18.0478 110.076C12.1482 95.5721 59.4901 117.399 61.5549 106.633C65.8859 84.0441 8.84892 44.1243 22.9827 29.943Z" fill="#222E4D"/>
<path opacity="0.6" d="M270.89 131.185C245.642 139.531 212.831 145.99 176.12 145.99C127.148 145.99 87.6123 140.076 60.2674 132.359C35.5927 125.397 20.8438 116.953 18.0478 110.075C12.1482 95.5779 59.4845 117.401 61.5535 106.636C65.8873 84.0444 8.84894 44.1315 22.9827 29.9418C38.5564 14.3121 51.0825 56.8952 61.3858 76.2156C74.8345 101.422 92.6451 117.946 106.961 110.075C121.29 102.204 108.75 55.2595 127.19 51.8205C145.615 48.3814 136.766 98.8772 159.637 103.491C182.495 108.104 189.121 63.4658 205.352 64.4025C221.569 65.3391 213.46 95.9274 221.569 103.491C229.677 111.054 282.773 60.3762 286.464 23.7766C290.155 -12.8231 313.753 -0.394818 310.803 16.2414C307.853 32.8916 276.147 62.5851 268.024 86.4489C259.916 110.327 303.422 86.6726 320.379 95.5499C330.669 100.932 309.727 118.309 270.89 131.185Z" fill="#010614"/>
<path opacity="0.2" d="M28.7593 116.219C28.0686 115.383 27.399 114.523 26.8314 113.588C26.5532 113.118 26.2946 112.629 26.1422 112.089C25.9842 111.572 25.9605 110.884 26.4092 110.423C26.8426 109.977 27.4367 109.836 27.9806 109.748C28.537 109.664 29.092 109.657 29.6428 109.672C30.7444 109.709 31.8335 109.851 32.9127 110.023C37.2213 110.771 41.4154 111.959 45.5954 113.16C49.6859 114.414 54.0239 115.355 58.0292 114.37C63.8365 112.941 64.9493 107.67 66.5905 102.779C67.105 101.248 68.4736 99.7213 70.0618 100.018C70.7719 100.151 71.3647 100.626 71.9127 101.097C74.6528 103.46 76.7051 106.44 79.7709 108.299C83.4574 110.535 87.1789 112.973 91.1198 114.765C94.9322 116.523 99.0116 117.598 103.12 117.584C105.164 117.582 107.236 117.315 109.204 116.845C111.118 116.363 112.894 115.519 114.371 114.28C117.376 111.82 119.111 107.981 120.355 103.998C120.98 101.99 121.511 99.9185 122.073 97.8061C122.65 95.6937 123.207 93.5352 124.21 91.3306C124.728 90.2373 125.361 89.1021 126.396 88.0928C127.404 87.0736 128.957 86.3383 130.432 86.253C131.901 86.1146 133.451 86.5242 134.633 87.2302C135.838 87.925 136.767 88.8113 137.577 89.7117C139.176 91.5318 140.355 93.4597 141.49 95.3652L144.723 101.045C146.858 104.761 149.074 108.372 151.843 111.34C154.59 114.307 157.992 116.481 161.783 117.097C165.502 117.772 169.285 116.557 172.611 114.298C175.962 112.057 178.921 109.014 181.794 105.853C184.688 102.687 187.452 99.3201 190.775 96.1928C192.459 94.655 194.282 93.1158 196.698 92.0869C197.891 91.5808 199.311 91.2551 200.719 91.304C202.099 91.325 203.815 91.7919 205.04 92.9606C206.265 94.1112 206.813 95.5161 207.158 96.7436C207.489 97.9934 207.633 99.1803 207.726 100.331C207.9 102.629 207.877 104.81 207.951 106.929C208.023 109.038 208.169 111.104 208.658 112.913C209.146 114.74 210.014 116.119 211.345 116.844C214.033 118.526 218.117 116.727 221.66 114.712C225.262 112.622 228.697 110.037 232.066 107.378C235.437 104.707 238.74 101.912 242.087 99.13C245.453 96.3605 248.803 93.5716 252.608 91.1125C253.577 90.5085 254.567 89.9228 255.712 89.4418C256.278 89.1986 256.902 88.9875 257.62 88.8603C258.326 88.7457 259.241 88.6953 260.198 89.1609C261.459 89.7872 262.657 91.0384 263.044 92.5342C263.436 93.9937 263.265 95.3022 263.056 96.4598C262.605 98.7665 261.824 100.798 261.649 102.667C261.561 103.591 261.659 104.392 262.003 104.981C262.33 105.551 263.026 106.133 263.685 106.291C265.329 106.717 267.566 106.502 269.619 106.253C271.719 105.98 273.833 105.585 275.942 105.157C280.166 104.291 284.386 103.282 288.625 102.32C292.869 101.378 297.137 100.482 301.457 99.7982C303.619 99.4641 305.794 99.1803 307.992 99.0391C310.186 98.9077 312.415 98.8783 314.639 99.3047C315.745 99.5452 316.845 99.8346 317.868 100.531C318.365 100.873 318.858 101.431 318.967 102.141C319.076 102.849 318.82 103.478 318.533 103.989C317.239 105.972 315.369 107.181 313.563 108.403C309.865 110.738 305.946 112.64 301.968 114.374C305.855 112.452 309.678 110.359 313.21 107.88C314.927 106.63 316.747 105.295 317.772 103.563C317.997 103.134 318.133 102.677 318.052 102.299C317.979 101.923 317.701 101.596 317.304 101.34C316.51 100.833 315.456 100.563 314.443 100.394C312.38 100.081 310.23 100.183 308.106 100.397C298.607 101.385 289.374 105.053 280.705 108.941C274.051 111.924 266.618 114.495 259.583 112.57C258.695 112.327 257.803 112.001 257.114 111.393C254.917 109.457 255.551 105.522 253.319 103.627C251.271 101.89 248.154 102.893 245.739 104.065C237.727 107.947 231.151 113.534 223.599 118.034C221.644 119.175 219.599 120.244 217.242 120.932C216.061 121.263 214.791 121.505 213.406 121.452C211.96 121.371 210.689 120.996 209.441 120.347C208.207 119.683 207.104 118.68 206.354 117.535C204.305 114.5 203.993 110.584 201.864 107.375C201.519 106.855 201.149 106.338 200.653 105.958C199.946 105.417 199.041 105.204 198.156 105.108C193.354 104.585 188.738 107.096 184.933 110.072C179.71 114.156 175.038 118.984 168.432 120.768C166.074 121.417 163.519 121.555 161.095 121.125C158.696 120.711 156.391 119.826 154.333 118.587C154.333 117.929 149.049 114.578 148.28 113.896C146.014 111.883 143.985 109.558 141.885 107.366C141.272 106.724 140.652 106.079 139.942 105.547C136.024 102.611 132.088 103.996 129.22 107.37C127.468 109.43 126.059 111.768 124.251 113.78C115.265 123.782 101.016 122.451 89.9986 117.14C82.1838 113.373 70.2141 99.6864 65.974 114.112C65.3924 116.092 64.5033 118.202 62.6566 119.12C61.1132 119.887 59.2762 119.629 57.5832 119.302C52.9041 118.396 48.9729 117.016 44.4854 115.334C43.3306 114.901 42.1745 114.469 41.0197 114.035C37.4241 112.688 33.4719 110.345 29.6162 110.138C28.5887 110.083 27.3906 110.001 26.6315 110.638C26.2722 110.967 26.2443 111.525 26.3687 112.029C26.4875 112.541 26.7154 113.035 26.967 113.51C27.4829 114.46 28.1092 115.351 28.7593 116.219Z" fill="#010614"/>
<path opacity="0.2" d="M34.8433 57.4109C34.8433 57.4109 19.6345 39.1362 24.336 32.2357C29.0374 25.3337 38.439 31.4178 40.6506 38.8846C42.8623 46.3513 34.4952 45.4216 32.0417 45.0567C29.5896 44.6919 34.8433 57.4109 34.8433 57.4109Z" fill="#010614"/>
<path opacity="0.2" d="M131.351 55.1992C129.822 50.0574 121.673 56.3051 121.12 62.666C120.567 69.0255 134.394 65.4312 131.351 55.1992Z" fill="#010614"/>
<path opacity="0.2" d="M126.446 72.9986C126.04 70.6639 131.473 69.505 133.209 72.9986C134.946 76.4922 127.703 80.243 126.446 72.9986Z" fill="#010614"/>
<path opacity="0.2" d="M299.481 2.10599C304.943 0.640885 307.499 9.01908 302.246 15.6554C296.992 22.2917 294.227 7.0493 293.396 8.8639C292.567 10.6785 288.695 17.8684 288.695 24.2279C288.695 24.2279 288.143 5.14804 299.481 2.10599Z" fill="#010614"/>
<path d="M270.89 131.185C245.642 139.531 212.831 145.99 176.12 145.99C127.148 145.99 87.6122 140.076 60.2674 132.359C64.727 132.904 69.62 132.96 73.0031 131.52C80.7481 128.207 86.2841 128.752 93.4699 133.729C100.656 138.706 113.377 142.243 127.763 141.166C142.134 140.09 138.821 134.009 155.681 136.777C172.555 139.545 170.416 144.228 190.295 144.186C210.175 144.144 221.107 135.141 233.186 132.639C243.475 130.514 247.613 137.406 270.89 131.185Z" fill="#222E4D"/>
<path opacity="0.5" d="M270.89 131.185C245.642 139.531 212.831 145.99 176.12 145.99C127.148 145.99 87.6122 140.076 60.2674 132.359C64.727 132.904 69.62 132.96 73.0031 131.52C80.7481 128.207 86.2841 128.752 93.4699 133.729C100.656 138.706 113.377 142.243 127.763 141.166C142.134 140.09 138.821 134.009 155.681 136.777C172.555 139.545 170.416 144.228 190.295 144.186C210.175 144.144 221.107 135.141 233.186 132.639C243.475 130.514 247.613 137.406 270.89 131.185Z" fill="#010614"/>
<path d="M346.634 143.086C342.347 141.944 339.647 137.583 340.755 133.289C341.587 130.065 341.067 127.23 333.311 126.739C325.454 126.25 319.582 131.073 313.879 134.973C309.153 138.217 304.54 140.817 299.018 139.209C290.686 136.763 288.351 131.003 281.333 128.165C279.04 127.242 276.244 126.627 272.582 126.557C271.1 126.529 269.478 126.585 267.675 126.739C247.893 128.487 228.601 150.505 197.257 153.455C165.914 156.405 127.567 150.883 98.4467 144.55C69.3124 138.217 59.7361 144.606 47.1961 147.555C38.2629 149.652 20.2426 145.221 5.75935 140.216C-0.0842864 138.203 -5.34078 136.106 -9.21324 134.288C-22.69 127.969 -28.0163 132.443 -28.6734 137.014C-29.3025 141.474 -19.0272 146.479 -33.119 151.064C-33.2029 151.092 -33.2728 151.12 -33.3567 151.148C-33.6643 151.246 -33.9998 151.344 -34.3353 151.442C-54.117 157.467 -66 161.829 -66 161.829H408.16C408.16 161.829 383.702 152.968 346.634 143.086Z" fill="#222E4D"/>
<path opacity="0.7" d="M346.634 143.086C342.347 141.944 339.647 137.583 340.755 133.289C341.587 130.065 341.067 127.23 333.311 126.739C325.454 126.25 319.582 131.073 313.879 134.973C309.153 138.217 304.54 140.817 299.018 139.209C290.686 136.763 288.351 131.003 281.333 128.165C279.04 127.242 276.244 126.627 272.582 126.557C271.1 126.529 269.478 126.585 267.675 126.739C247.893 128.487 228.601 150.505 197.257 153.455C165.914 156.405 127.567 150.883 98.4467 144.55C69.3124 138.217 59.7361 144.606 47.1961 147.555C38.2629 149.652 20.2426 145.221 5.75935 140.216C-0.0842896 138.203 -5.34077 136.106 -9.21324 134.288C-22.69 127.969 -28.0163 132.443 -28.6734 137.014C-29.3025 141.474 -19.0272 146.479 -33.119 151.064C-33.2029 151.092 -33.2728 151.12 -33.3567 151.148C-33.6643 151.246 -33.9998 151.344 -34.3353 151.442C-54.117 157.467 -66 161.829 -66 161.829H408.16C408.16 161.829 383.702 152.968 346.634 143.086Z" fill="#010614"/>
<path opacity="0.5" d="M-25.6244 138.526C-25.7012 137.646 -25.5587 136.651 -24.8764 135.907C-24.1858 135.187 -23.1904 134.861 -22.251 134.748C-20.3469 134.55 -18.4932 134.881 -16.7009 135.299C-13.1542 136.212 -9.68855 137.676 -6.52628 139.26C-3.37519 140.754 -0.057724 142.037 3.26113 143.251C6.57579 144.489 9.93098 145.629 13.3058 146.67C20.0427 148.671 26.9307 150.676 33.6355 151.225C37.0927 151.417 40.5248 151.521 43.9164 151.231C47.3107 150.965 50.6407 150.323 54.0043 149.471C60.7371 147.771 67.8417 145.46 75.3294 144.842C82.9122 144.323 90.0909 145.225 97.2389 146.285C111.518 148.432 125.381 151.991 139.369 155.088C132.193 154.723 125.076 153.741 117.973 152.912C110.876 152.019 103.787 151.168 96.7244 150.481C93.1945 150.146 89.6603 149.915 86.1597 149.764C82.6619 149.62 79.1627 149.612 75.8383 149.988C72.5153 150.458 69.0608 151.154 65.7056 152.016C62.3238 152.88 58.9323 153.954 55.3688 154.881C51.8011 155.78 48.067 156.421 44.3246 156.67C40.5807 156.912 36.8425 156.839 33.1713 156.435C29.3744 156.013 25.7899 155.174 22.2599 154.214C18.7342 153.251 15.2895 152.096 11.8924 150.835C5.0925 148.317 -1.541 145.503 -7.92287 141.912C-9.55154 140.992 -10.937 140.062 -12.5055 139.219C-14.0419 138.379 -15.6175 137.604 -17.2364 136.97C-18.8441 136.327 -20.5203 135.773 -22.2048 135.697C-23.0339 135.681 -23.8838 135.779 -24.5507 136.264C-25.2105 136.756 -25.5461 137.636 -25.6244 138.526Z" fill="#010614"/>
<path opacity="0.5" d="M192.833 157.515C199.346 156.965 205.647 155.416 211.848 153.638C214.946 152.738 218.018 151.763 221.04 150.653C222.56 150.125 224.075 149.592 225.57 148.997C227.075 148.435 228.564 147.832 230.039 147.196C235.964 144.723 241.75 141.953 247.334 138.833C252.934 135.69 259.178 132.313 266.162 131.185C269.643 130.596 273.327 130.553 276.896 131.323C280.479 132.05 283.817 133.714 286.675 135.798C287.392 136.321 288.081 136.872 288.748 137.444L290.545 139.008C291.684 139.928 292.888 140.774 294.175 141.447C295.452 142.152 296.813 142.685 298.217 143.031C299.616 143.413 301.066 143.558 302.51 143.526C305.409 143.516 308.306 142.602 310.864 141.001C312.078 140.202 313.465 139.157 314.78 138.183C316.125 137.218 317.509 136.301 318.916 135.428C321.72 133.666 324.745 132.211 327.907 131.187C329.504 130.723 331.126 130.31 332.795 130.234C334.439 130.143 336.164 130.23 337.642 130.967C336.089 130.445 334.432 130.56 332.866 130.83C331.286 131.097 329.775 131.661 328.296 132.249C325.366 133.531 322.634 135.228 320.058 137.132C318.773 138.087 317.512 139.081 316.292 140.121C315.067 141.183 313.939 142.211 312.548 143.37C309.791 145.51 306.381 147.038 302.76 147.383C300.96 147.557 299.123 147.501 297.346 147.158C295.561 146.849 293.819 146.308 292.18 145.558C290.515 144.852 288.989 143.883 287.554 142.813L285.594 141.253C285.004 140.789 284.4 140.349 283.782 139.938C278.85 136.596 272.98 135.493 267.108 136.63C264.181 137.179 261.266 138.134 258.406 139.32C256.976 139.914 255.565 140.586 254.169 141.302L249.881 143.568C243.991 146.62 237.896 149.261 231.643 151.417C230.081 151.962 228.51 152.472 226.923 152.94C225.349 153.441 223.755 153.878 222.161 154.309C218.964 155.138 215.732 155.823 212.493 156.427C206 157.474 199.371 158.284 192.833 157.515Z" fill="#010614"/>
<path opacity="0.5" d="M366.769 152.721C362.209 151.282 357.647 149.866 353.007 148.867C350.701 148.349 348.367 147.909 346.07 147.761C345.494 147.706 344.938 147.75 344.375 147.727C343.825 147.779 343.315 147.8 342.761 147.916C341.66 148.116 340.531 148.475 340.056 148.97C339.83 149.191 339.667 149.622 339.333 150.265C339.01 150.895 338.493 151.531 337.941 151.97C336.828 152.889 335.634 153.385 334.466 153.869C332.138 154.766 329.517 155.311 326.94 155.145C324.368 155.008 322.064 154.401 319.793 154.225C318.679 154.136 317.469 154.046 316.438 154.144C315.391 154.196 314.298 154.467 313.216 154.752C308.828 156.006 304.58 158.277 299.908 159.838C298.737 160.228 297.514 160.541 296.248 160.768C294.982 160.954 293.585 161.031 292.295 160.807C289.696 160.399 287.398 159.332 285.255 158.242C283.102 157.146 281.033 156.006 278.896 155.151C276.766 154.259 274.542 153.814 272.278 154.039C267.697 154.53 263.376 156.943 259.53 159.702C261.259 158.049 263.183 156.579 265.278 155.37C267.36 154.141 269.63 153.16 272.091 152.682C274.572 152.246 277.202 152.619 279.521 153.428C281.878 154.204 284.042 155.311 286.194 156.273C288.34 157.241 290.491 158.096 292.633 158.381C294.726 158.66 296.877 158.113 299.06 157.332C303.429 155.803 307.656 153.501 312.454 152.065C313.679 151.753 314.921 151.453 316.262 151.39C317.614 151.291 318.797 151.403 320.058 151.512C322.549 151.751 324.903 152.343 327.102 152.513C329.304 152.712 331.471 152.328 333.618 151.579C334.663 151.191 335.7 150.747 336.458 150.167C336.852 149.877 337.119 149.581 337.365 149.163C337.615 148.774 337.881 148.05 338.524 147.429C339.849 146.304 341.191 146.159 342.406 145.939C343.024 145.837 343.717 145.823 344.355 145.801C344.983 145.844 345.624 145.855 346.234 145.948C348.692 146.269 351.04 146.86 353.35 147.551C357.944 149.012 362.431 150.694 366.769 152.721Z" fill="#010614"/>
</svg>
