<svg width="512" height="512" viewBox="0 0 100 100" fill="none" xmlns="http://www.w3.org/2000/svg">
<path d="M49.4896 10.5498C51.9082 14.7681 55.5363 20.9761 59.0699 26.7066C58.1122 26.7066 57.1544 26.7066 56.1675 26.7066C57.2733 28.8087 57.2733 28.8087 58.4451 30.8751C60.9712 35.2002 63.2178 40.0138 62.0785 45.1151C61.9102 45.7094 61.6654 46.2463 61.3779 46.7931C61.3201 46.9036 61.2621 47.014 61.2025 47.1279C60.2015 48.9759 58.4568 50.0946 56.4498 50.7426C54.711 51.1344 52.6518 51.1338 51.0076 50.4244C50.909 50.3824 50.8104 50.3407 50.7087 50.2974C48.9155 49.5263 47.2624 48.6157 45.6467 47.5237C44.5836 46.8112 43.5153 46.2338 42.3303 45.7385C42.2053 45.6861 42.08 45.6336 41.9513 45.5793C37.1148 43.6349 30.5425 45.7017 27.0762 49.6285C32.8649 37.5136 40.1827 26.291 47.071 14.7681C47.9378 13.3175 48.8446 11.9028 49.4896 10.5498Z" fill="#06B6D4"/>
</svg>
