<svg width="133" height="93" viewBox="0 0 133 93" fill="none" xmlns="http://www.w3.org/2000/svg">
<path d="M61.6836 76.6924C61.9576 76.7792 61.9579 76.7792 62.2374 76.8679C64.1544 77.5312 65.8941 78.6236 67.6299 79.6521C71.2101 81.768 74.8552 83.7792 79.1087 83.7912C79.438 83.7927 79.767 83.7976 80.0959 83.8028C86.3651 83.8535 92.7196 80.4151 94.4977 78.9951C83.0207 92.715 56.2683 98.5718 44.3066 78.1931C50.127 75.5099 55.5536 74.6108 61.6836 76.6924Z" fill="#11BAF9"/>
<path d="M69.4896 1.5498C71.9082 5.76806 75.5363 11.9761 79.0699 17.7066C78.1122 17.7066 77.1544 17.7066 76.1675 17.7066C77.2733 19.8087 77.2733 19.8087 78.4451 21.8751C80.9712 26.2002 83.2178 31.0138 82.0785 36.1151C81.9102 36.7094 81.6654 37.2463 81.3779 37.7931C81.3201 37.9036 81.2621 38.014 81.2025 38.1279C80.2015 39.9759 78.4568 41.0946 76.4498 41.7426C74.711 42.1344 72.6518 42.1338 71.0076 41.4244C70.909 41.3824 70.8104 41.3407 70.7087 41.2974C68.9155 40.5263 67.2624 39.6157 65.6467 38.5237C64.5836 37.8112 63.5153 37.2338 62.3303 36.7385C62.2053 36.6861 62.08 36.6336 61.9513 36.5793C57.1148 34.6349 50.5425 36.7017 47.0762 40.6285C52.8649 28.5136 60.1827 17.291 67.071 5.76806C67.9378 4.31752 68.8446 2.90283 69.4896 1.5498Z" fill="#11BAF9"/>
<path d="M20.6283 38.2012C23.0735 38.2012 25.5185 38.2012 28.0377 38.2012C28.031 45.9851 27.9357 53.7722 27.9851 61.5561C28.0055 65.1141 26.531 68.0523 24.3192 70.734C11.0584 84.8558 -9.52377 64.7557 4.94887 50.6953C8.60902 47.2901 16.5156 46.1867 20.4673 50.1473C20.5204 46.2051 20.5736 42.263 20.6283 38.2012Z" fill="#1C3656"/>
<path d="M130.884 54.1913C132.624 57.0307 132.945 59.9127 132.918 63.1575C132.908 66.8732 132.891 70.5889 132.871 74.3046C130.528 74.3046 128.184 74.3046 125.77 74.3046C125.717 73.4077 125.663 72.5108 125.608 71.587C122.872 74.1407 119.858 75.0183 116.108 74.828C109.403 73.8253 105.434 68.376 104.899 62.9083C104.246 48.8819 122.003 41.2164 130.884 54.1913Z" fill="#1C3656"/>
<path d="M85.767 48.4416C87.5076 49.6223 88.0092 51.5879 88.4807 53.5304C88.8702 55.1928 88.8702 55.1928 89.3703 56.8236C90.2828 59.4028 90.8363 62.2959 91.5671 64.9355C91.6481 64.9359 91.7289 64.9359 91.8767 64.9355C93.1842 59.9563 94.4974 54.8228 95.9825 49.9273C96.1526 49.3612 96.2875 48.8107 96.4045 48.2296C98.8593 48.2296 101.314 48.2296 103.843 48.2296C101.593 56.5824 99.0648 63.8006 96.6275 71.4388C96.0884 72.8045 95.1022 73.7965 93.8072 74.4835C92.6086 74.9535 91.255 74.9452 90.0353 74.5626C88.6524 73.9315 87.7187 73.0809 87.1384 71.6747C85.5796 67.3488 84.2094 61.2413 83.1441 56.5824C82.9841 56.5824 82.8241 56.5824 82.6591 56.5824C81.3869 61.23 79.9623 65.8346 78.67 70.4763C78.1709 72.2154 77.5538 73.2693 76.0414 74.3046C74.8843 74.9394 73.4302 74.9327 72.1478 74.7344C70.1353 74.0855 68.923 72.4078 68.4788 70.4373C66.5016 63.8917 64.076 55.619 61.96 48.2296C64.3613 48.2296 66.7627 48.2296 69.2369 48.2296C70.8341 53.7826 72.3238 59.3423 73.765 64.9355C73.8716 64.9355 73.9785 64.9355 74.0885 64.9355C75.1534 60.438 76.2134 56.3201 77.439 52.0846C77.9283 50.4575 78.6028 49.1053 80.0971 48.1725C81.9791 47.2063 83.9685 47.3785 85.767 48.4416Z" fill="#1C3656"/>
<path d="M57.1048 38.2033C57.2584 38.2027 57.4123 38.2024 57.5705 38.2017C58.7423 38.2103 59.7378 38.3785 60.921 38.5742C60.921 40.6917 60.921 42.8091 60.921 44.991C59.8548 44.991 58.789 44.991 57.6903 44.991C56.4349 45.3027 55.7927 45.5224 54.9646 46.4545C54.682 47.1087 54.682 47.1087 54.6212 48.6803C56.4337 48.6803 58.2462 48.6803 60.1135 48.6803C60.1135 50.9039 60.1135 53.1271 60.1135 55.4179C58.2478 55.4179 56.3821 55.4179 54.4596 55.4179C54.4596 61.7175 54.4596 68.017 54.4596 74.5073C52.1141 74.5073 49.7686 74.5073 47.3522 74.5073C47.3522 68.2078 47.3522 61.9083 47.3522 55.4179C46.2329 55.4179 45.1133 55.4179 43.96 55.4179C43.96 53.1947 43.96 50.9711 43.96 48.6803C45.1327 48.6803 46.3054 48.6803 47.5138 48.6803C47.5037 48.3164 47.4938 47.9525 47.4834 47.5775C47.4662 44.9373 48.7661 42.5406 50.5829 40.6597C51.169 40.1529 51.7993 39.7503 52.4707 39.3662C52.5616 39.3118 52.6523 39.2578 52.7456 39.2017C54.1457 38.3987 55.5036 38.1766 57.1048 38.2033Z" fill="#1D3757"/>
<path d="M32.5381 48.5752C34.8224 48.5752 37.1071 48.5752 39.4608 48.5752C39.4608 57.133 39.4608 65.6908 39.4608 74.5081C37.1762 74.5081 34.8918 74.5081 32.5381 74.5081C32.5381 65.9503 32.5381 57.3922 32.5381 48.5752Z" fill="#1C3757"/>
<path d="M13.6731 68.2841C17.5921 68.2841 20.7691 65.1105 20.7691 61.1958C20.7691 57.281 17.5921 54.1074 13.6731 54.1074C9.75412 54.1074 6.57715 57.281 6.57715 61.1958C6.57715 65.1105 9.75412 68.2841 13.6731 68.2841Z" fill="white"/>
<path d="M118.555 68.2841C122.474 68.2841 125.651 65.1105 125.651 61.1958C125.651 57.281 122.474 54.1074 118.555 54.1074C114.636 54.1074 111.459 57.281 111.459 61.1958C111.459 65.1105 114.636 68.2841 118.555 68.2841Z" fill="white"/>
<path d="M38.4799 42.227L35.4138 36L32.3161 42.227C32.1264 42.6379 32 43.1121 32 43.6178C32.0316 45.4828 33.5489 47 35.4138 47C37.2787 47 38.796 45.4828 38.796 43.6178C38.796 43.1437 38.6695 42.6695 38.4799 42.227Z" fill="#11BAF9"/>
</svg>
