<svg width="626" height="497" viewBox="0 0 626 497" fill="none" xmlns="http://www.w3.org/2000/svg">
<path d="M0 358.075C9.3893 358.005 18.7785 357.952 28.168 357.919C32.5295 357.904 36.8908 357.883 41.2522 357.848C45.4733 357.815 49.6942 357.798 53.9154 357.79C55.5135 357.784 57.1115 357.774 58.7096 357.757C81.7322 357.531 105.56 362.457 122.719 378.801C123.472 379.551 124.224 380.302 125 381.075C125.975 382.014 125.975 382.014 126.969 382.973C138.309 394.761 141.47 410.939 141.356 426.707C141.18 433.489 140.243 439.646 138 446.075C137.722 446.942 137.443 447.81 137.156 448.703C134.875 455.145 131.451 459.943 127 465.075C126.233 465.986 125.466 466.897 124.676 467.836C110.549 484.092 90.4894 493.413 69.1139 494.92C57.4849 495.497 45.8088 495.281 34.1689 495.212C30.3067 495.191 26.4444 495.182 22.582 495.172C15.0546 495.151 7.52733 495.117 0 495.075C0 492.435 0 489.795 0 487.075C0.675469 486.988 1.35094 486.902 2.04688 486.813C7.83777 485.951 7.83777 485.951 12.5625 482.7C14.5726 479.029 15.123 475.954 15.1472 471.8C15.1543 470.953 15.1615 470.106 15.1689 469.234C15.1715 468.313 15.1742 467.393 15.177 466.444C15.1836 465.468 15.1901 464.492 15.1969 463.486C15.2166 460.258 15.2283 457.03 15.2383 453.801C15.2424 452.698 15.2464 451.595 15.2506 450.458C15.2715 444.622 15.2858 438.787 15.2952 432.951C15.3062 426.922 15.3407 420.895 15.3803 414.866C15.4065 410.23 15.4149 405.595 15.4184 400.958C15.4233 398.736 15.435 396.514 15.4535 394.291C15.4778 391.182 15.4769 388.073 15.47 384.964C15.4892 383.589 15.4892 383.589 15.5088 382.186C15.4639 376.677 14.7675 373.394 11 369.075C8.24183 367.735 8.24183 367.735 5.25 367.2C3.77273 366.863 3.77273 366.863 2.26562 366.52C1.51797 366.373 0.770312 366.226 0 366.075C0 363.435 0 360.795 0 358.075Z" fill="url(#paint0_linear_0_1)"/>
<path d="M319 358.074C338.14 358.074 357.28 358.074 377 358.074C377 360.384 377 362.694 377 365.074C376.043 365.381 376.043 365.381 375.066 365.695C374.24 365.964 373.414 366.234 372.562 366.511C371.739 366.778 370.915 367.045 370.066 367.32C368.038 367.895 368.038 367.895 367 369.074C365.824 377.711 368.554 385.669 371.062 393.824C371.476 395.202 371.888 396.58 372.3 397.958C373.513 402.003 374.753 406.039 376 410.074C376.511 411.736 376.511 411.736 377.033 413.432C380.135 423.475 383.378 433.448 387.055 443.297C387.936 445.885 388.536 448.382 389 451.074C389.66 451.074 390.32 451.074 391 451.074C391.088 450.269 391.175 449.465 391.266 448.636C392.192 444.144 393.904 440.256 395.75 436.074C398.807 429.016 401.556 421.963 403.992 414.664C407.661 405.236 407.275 399.173 402.812 389.074C402.425 388.153 402.038 387.233 401.639 386.285C400.464 383.529 399.245 380.799 398 378.074C397.365 376.677 397.365 376.677 396.718 375.252C396.295 374.361 395.873 373.469 395.438 372.55C394.873 371.353 394.873 371.353 394.297 370.131C392.17 366.758 389.607 365.63 386 364.074C386 362.094 386 360.114 386 358.074C398.21 358.074 410.42 358.074 423 358.074C424.135 364.316 424.541 370.255 429 375.074C429.66 375.074 430.32 375.074 431 375.074C436.901 362.759 433.919 357.512 450 358.074C450 360.636 450 360.636 449 364.074C447.328 365.679 447.328 365.679 445.25 367.324C440.474 371.184 438.303 375.462 436 381.074C435.567 382.126 435.134 383.178 434.688 384.261C433.134 390.616 434.261 395.781 436.598 401.746C436.868 402.462 437.138 403.179 437.416 403.917C438.287 406.224 439.175 408.524 440.062 410.824C440.663 412.403 441.262 413.983 441.86 415.564C443.034 418.663 444.214 421.76 445.397 424.856C447.694 430.881 449.895 436.941 452.082 443.006C453.105 446.294 453.105 446.294 455 449.074C457.399 441.369 459.792 433.662 462.178 425.952C463.451 421.841 464.731 417.732 466.016 413.625C473.968 392.227 473.968 392.227 475 370.074C472.34 366.62 469.139 366.089 465 365.074C465 362.764 465 360.454 465 358.074C480.18 358.074 495.36 358.074 511 358.074C511 360.714 511 363.354 511 366.074C510.336 366.221 509.672 366.368 508.988 366.519C502.15 368.232 502.15 368.232 497.126 372.991C491.811 382.821 488.329 393.553 484.877 404.141C484.103 406.516 483.321 408.888 482.537 411.26C480.631 417.033 478.74 422.811 476.85 428.589C456.582 490.492 456.582 490.492 452 495.074C450.039 495.312 450.039 495.312 447.625 495.386C446.834 495.424 446.042 495.461 445.227 495.5C443 495.074 443 495.074 441.41 493.617C439.366 489.931 438.129 486.068 436.812 482.074C433.25 471.581 429.212 461.321 425 451.074C424.513 449.884 424.025 448.694 423.523 447.468C421.348 442.203 419.095 436.985 416.699 431.816C416 430.074 416 430.074 416 428.074C415.34 428.074 414.68 428.074 414 428.074C413.716 428.798 413.433 429.523 413.141 430.269C412.082 432.871 410.939 435.405 409.75 437.949C407.759 442.297 405.938 446.686 404.188 451.136C401.673 457.527 398.935 463.797 396.12 470.06C392.262 478.667 388.629 487.368 385 496.074C381.37 496.074 377.74 496.074 374 496.074C373.674 495.084 373.348 494.094 373.012 493.074C370.056 484.099 370.056 484.099 366.812 475.226C365.237 471.053 363.772 466.84 362.281 462.636C361.41 460.213 360.517 457.796 359.607 455.387C357.081 448.659 354.774 441.855 352.439 435.059C351.859 433.372 351.276 431.686 350.691 430.001C347.39 420.49 344.318 411.006 341.816 401.252C338.059 382.686 338.059 382.686 328 368.074C325.32 367.518 322.739 367.298 320 367.074C319.67 366.744 319.34 366.414 319 366.074C319 363.434 319 360.794 319 358.074Z" fill="url(#paint1_linear_0_1)"/>
<path d="M562.191 356.84C563.581 356.956 563.581 356.956 565 357.074C570.414 367.08 574.332 377.481 578.25 388.136C578.916 389.932 579.582 391.727 580.249 393.523C581.569 397.08 582.886 400.639 584.199 404.199C585.727 408.338 587.266 412.473 588.812 416.605C592.228 425.749 595.606 434.9 598.809 444.121C599.293 445.51 599.778 446.899 600.263 448.288C601.181 450.921 602.086 453.557 602.983 456.197C605.182 462.523 607.578 468.697 610.457 474.742C610.989 475.862 611.521 476.983 612.07 478.137C614.981 482.566 618.229 484.68 623.375 485.824C624.241 485.906 625.108 485.989 626 486.074C626 489.044 626 492.014 626 495.074C618.365 495.099 610.729 495.117 603.094 495.129C600.495 495.134 597.896 495.141 595.298 495.149C591.567 495.161 587.836 495.167 584.105 495.171C582.357 495.179 582.357 495.179 580.573 495.187C579.492 495.187 578.411 495.187 577.298 495.187C576.345 495.189 575.392 495.192 574.411 495.194C572 495.074 572 495.074 569 494.074C569 491.764 569 489.454 569 487.074C570.093 486.764 571.186 486.455 572.312 486.136C574.554 485.49 576.787 484.811 579 484.074C576.911 474.155 574.042 464.807 571 455.074C551.695 454.579 551.695 454.579 532 454.074C531.01 457.704 530.02 461.334 529 465.074C528.443 466.6 527.886 468.126 527.312 469.699C525.811 474.084 525.25 478.468 526 483.074C528.686 485.759 531.376 486.134 535 487.074C535 489.714 535 492.354 535 495.074C520.81 495.074 506.62 495.074 492 495.074C492 492.434 492 489.794 492 487.074C492.641 486.973 493.281 486.873 493.941 486.769C499.19 485.627 502.456 484.276 505.688 479.886C509.253 474.159 511.85 467.983 514.438 461.769C515.571 459.047 516.794 456.425 518.188 453.824C520.213 449.891 521.467 445.772 522.82 441.57C524.971 435.195 527.496 428.963 529.964 422.706C531.099 419.823 532.224 416.937 533.348 414.05C534.148 411.996 534.949 409.941 535.75 407.886C536.127 406.918 536.503 405.951 536.891 404.953C538.845 399.954 540.878 395.005 543 390.074C543.76 388.203 544.516 386.33 545.27 384.457C545.684 383.437 546.098 382.417 546.525 381.367C547.379 379.265 548.226 377.161 549.064 375.054C556.342 357.269 556.342 357.269 562.191 356.84Z" fill="url(#paint2_linear_0_1)"/>
<path d="M312 357.074C313.91 368.484 314.224 379.523 314 391.074C311.36 391.074 308.72 391.074 306 391.074C305.541 390.098 305.082 389.122 304.609 388.117C303.99 386.831 303.37 385.546 302.75 384.261C302.299 383.297 302.299 383.297 301.84 382.314C300.024 378.585 298.593 376.164 295 374.074C292.006 373.571 292.006 373.571 288.703 373.562C287.074 373.512 287.074 373.512 285.411 373.462C284.038 373.437 282.665 373.412 281.25 373.386C276.878 373.283 272.505 373.18 268 373.074C268 388.584 268 404.094 268 420.074C271.816 419.971 275.631 419.868 279.562 419.761C281.346 419.724 281.346 419.724 283.166 419.686C289.092 419.481 293.897 419.236 299 416.074C300.66 413.656 300.66 413.656 301.438 410.886C301.746 409.985 302.054 409.084 302.371 408.156C302.579 407.469 302.786 406.782 303 406.074C304.666 406.031 306.334 406.033 308 406.074C308.33 406.404 308.66 406.734 309 407.074C308.904 409.46 308.75 411.819 308.562 414.199C307.959 422.696 307.935 431.153 308.037 439.668C308.05 441.091 308.05 441.091 308.062 442.543C308.074 443.393 308.086 444.243 308.098 445.119C308 447.074 308 447.074 307 448.074C304.667 448.115 302.333 448.116 300 448.074C299.654 447.043 299.654 447.043 299.301 445.992C298.975 445.091 298.649 444.19 298.312 443.261C297.999 442.368 297.686 441.475 297.363 440.554C295.657 437.45 294.144 436.658 291 435.074C288.309 434.491 288.309 434.491 285.48 434.343C284.459 434.263 283.437 434.182 282.385 434.099C280.802 433.994 280.802 433.994 279.188 433.886C278.113 433.804 277.039 433.723 275.932 433.638C273.288 433.439 270.645 433.251 268 433.074C268.069 439.231 268.157 445.387 268.262 451.543C268.296 453.636 268.324 455.729 268.346 457.822C268.38 460.836 268.432 463.849 268.488 466.863C268.495 467.794 268.501 468.726 268.508 469.686C268.624 474.875 269.088 478.594 272 483.074C275.75 486.094 279.27 486.61 284 487.074C284.042 489.407 284.041 491.741 284 494.074C282.269 495.804 279.935 495.201 277.578 495.203C276.42 495.206 275.262 495.209 274.069 495.213C272.179 495.21 272.179 495.21 270.25 495.207C268.966 495.208 267.683 495.209 266.36 495.21C263.64 495.211 260.92 495.209 258.199 495.204C254.705 495.198 251.211 495.202 247.717 495.208C244.395 495.212 241.072 495.209 237.75 495.207C236.49 495.209 235.229 495.211 233.931 495.213C232.773 495.21 231.615 495.206 230.422 495.203C229.397 495.202 228.372 495.202 227.315 495.201C225 495.074 225 495.074 224 494.074C223.959 492.074 223.957 490.073 224 488.074C225.578 487.672 225.578 487.672 227.188 487.261C233.116 485.504 233.116 485.504 237.119 481.101C238.397 476.711 238.295 472.498 238.291 467.947C238.297 466.93 238.304 465.913 238.311 464.866C238.33 461.508 238.334 458.15 238.336 454.793C238.342 452.458 238.349 450.123 238.356 447.788C238.368 442.895 238.372 438.003 238.371 433.11C238.37 426.839 238.398 420.568 238.432 414.296C238.454 409.475 238.458 404.654 238.457 399.833C238.46 397.52 238.469 395.208 238.484 392.895C238.504 389.663 238.498 386.433 238.486 383.201C238.497 382.245 238.508 381.289 238.52 380.304C238.48 376.062 238.375 373.696 236.144 369.999C233.509 367.633 231.737 367.218 228.25 366.761C227.265 366.621 226.28 366.48 225.266 366.336C224.518 366.249 223.77 366.163 223 366.074C223 363.434 223 360.794 223 358.074C232.832 357.942 242.665 357.812 252.497 357.683C257.064 357.623 261.63 357.562 266.197 357.501C270.612 357.442 275.028 357.384 279.443 357.326C281.119 357.304 282.795 357.282 284.471 357.259C293.648 357.135 302.822 357.038 312 357.074Z" fill="url(#paint3_linear_0_1)"/>
<path d="M74.0007 372.074C74.8656 372.341 75.7306 372.608 76.6218 372.883C87.439 376.68 97.5477 385.339 103.278 395.293C104.318 397.523 105.161 399.762 106.001 402.074C106.267 402.782 106.534 403.49 106.809 404.219C109.282 411.48 109.45 418.328 109.376 425.949C109.387 427.139 109.399 428.329 109.411 429.555C109.359 445.47 105.25 460.463 94.0007 472.074C84.5317 480.431 71.3253 483.098 59.0007 483.449C57.8251 483.498 56.6494 483.547 55.4382 483.598C51.9124 483.061 49.9336 482.173 47.2614 479.812C44.6495 476.212 45.2265 471.868 45.3195 467.592C45.3186 466.538 45.3178 465.484 45.3169 464.398C45.321 460.918 45.3677 457.44 45.4147 453.961C45.4259 451.547 45.4345 449.132 45.4405 446.718C45.4634 440.367 45.5223 434.017 45.5887 427.666C45.6501 421.184 45.6775 414.702 45.7077 408.221C45.772 395.505 45.8733 382.789 46.0007 370.074C55.0714 367.05 65.1458 369.26 74.0007 372.074Z" fill="white"/>
<path d="M206 375.074C206 376.064 206 377.054 206 378.074C200.25 381.074 200.25 381.074 198 381.074C197.26 387.04 196.848 392.855 196.839 398.863C196.834 399.69 196.829 400.517 196.824 401.37C196.809 404.074 196.802 406.779 196.797 409.484C196.794 410.414 196.791 411.345 196.788 412.304C196.773 417.221 196.764 422.139 196.76 427.056C196.754 432.119 196.73 437.181 196.702 442.244C196.683 446.155 196.678 450.066 196.676 453.977C196.673 455.844 196.665 457.71 196.652 459.576C196.635 462.189 196.637 464.801 196.644 467.414C196.63 468.556 196.63 468.556 196.616 469.72C196.657 475.105 197.794 479.147 200 484.074C201.699 485.59 201.699 485.59 204 486.074C205.238 486.445 206.475 486.816 207.75 487.199C208.823 487.487 209.895 487.776 211 488.074C210.67 490.384 210.34 492.694 210 495.074C202.716 495.097 195.432 495.114 188.147 495.125C184.765 495.131 181.383 495.138 178.001 495.149C174.117 495.162 170.232 495.167 166.348 495.171C165.128 495.176 163.908 495.182 162.651 495.187C160.97 495.187 160.97 495.187 159.254 495.187C158.262 495.189 157.269 495.192 156.246 495.194C154 495.074 154 495.074 153 494.074C152.959 492.074 152.957 490.073 153 488.074C153.603 487.927 154.207 487.78 154.828 487.628C155.627 487.404 156.427 487.18 157.25 486.949C158.433 486.635 158.433 486.635 159.641 486.316C163.068 484.511 164.161 482.474 166 479.074C166.55 476.08 166.527 473.155 166.486 470.118C166.49 469.238 166.493 468.357 166.497 467.45C166.505 464.552 166.483 461.655 166.461 458.757C166.459 456.737 166.458 454.718 166.458 452.698C166.455 448.471 166.439 444.244 166.412 440.016C166.378 434.6 166.37 429.184 166.372 423.768C166.371 419.6 166.36 415.431 166.346 411.263C166.339 409.266 166.335 407.269 166.334 405.272C166.329 402.481 166.312 399.69 166.291 396.899C166.291 396.076 166.292 395.252 166.293 394.404C166.247 390.219 166.057 386.838 164 383.074C162.087 381.847 162.087 381.847 159.875 381.261C159.151 381.028 158.426 380.794 157.68 380.554C157.125 380.395 156.571 380.237 156 380.074C156 378.754 156 377.434 156 376.074C161.513 375.929 167.027 375.787 172.541 375.646C174.412 375.598 176.284 375.55 178.156 375.501C180.862 375.43 183.568 375.361 186.273 375.292C187.508 375.259 187.508 375.259 188.768 375.226C194.513 375.082 200.253 375.05 206 375.074Z" fill="url(#paint4_linear_0_1)"/>
<path d="M188.003 323.793C192.58 326.244 195.69 329.455 197.999 334.074C198.731 340.867 198.795 346.696 194.609 352.316C190.479 356.827 186.724 360.378 180.374 360.699C174.773 360.284 171.494 357.693 167.749 353.637C164.297 348.582 163.299 344.183 163.999 338.074C165.204 332.237 167.675 328.909 172.281 325.203C176.814 322.226 182.955 321.982 188.003 323.793Z" fill="#7890FF"/>
<path d="M552 401.074C553.613 404.106 554.751 407.132 555.805 410.398C556.141 411.428 556.478 412.457 556.824 413.518C557.518 415.66 558.211 417.804 558.902 419.947C560.744 425.574 562.722 430.995 565.27 436.343C566 438.074 566 438.074 566 440.074C556.76 440.074 547.52 440.074 538 440.074C539.872 434.457 541.768 428.91 543.875 423.387C546.678 415.982 549.364 408.54 552 401.074Z" fill="#E4E6E5"/>
<path d="M295.047 0.613536C309.5 -6.38886 314.961 48.5522 322.5 63.6484C329.5 81.6484 340.057 94.638 351.047 109.614C371 132.648 393.047 166.902 393.047 192.614C388.764 192.138 384.619 191.542 380.414 190.598C354.263 185.323 329.968 193.903 307.297 206.301C287.614 217.048 264.863 221.282 243.066 214.946C233.226 211.821 223.958 207.287 214.98 202.231C211.233 200.165 207.431 198.225 203.609 196.301C202.922 195.951 202.235 195.601 201.527 195.241C198.391 193.669 195.467 192.377 192.047 191.614C193.211 185.051 194.767 178.873 197.047 172.614C197.361 171.683 197.676 170.752 198 169.793C205.69 148.186 219.77 129.335 233.289 111.047C236.012 107.278 238.554 103.393 241.113 99.512C242.88 96.8643 244.698 94.2666 246.547 91.6761C261.101 70.9643 272.33 48.3129 282.031 25.0125C290.255 5.40506 290.255 5.40506 295.047 0.613536Z" fill="#7890FF"/>
<path d="M383.047 262.648C374.736 284.339 354.107 303.858 333.321 313.282C309.422 323.919 283.623 326.806 258.651 317.391C233.582 307.34 212.725 289.659 200.047 265.648C200.047 264.988 200.047 264.328 200.047 263.648C207.634 263.53 212.485 265.716 218.859 269.675C229.627 276.339 239.782 280.084 252.047 282.648C252.944 282.873 253.841 283.099 254.766 283.331C280.469 289.229 303.205 280.379 325.906 269.273C343.187 260.845 364.635 252.046 383.047 262.648Z" fill="#7890FF" fill-opacity="0.78"/>
<path d="M367.359 198.274C368.723 198.274 368.723 198.274 370.116 198.274C378.739 198.419 386.736 199.775 394.046 204.649C394.387 206.712 394.387 206.712 394.339 209.219C394.329 210.115 394.32 211.011 394.31 211.934C394.285 212.871 394.259 213.808 394.234 214.774C394.22 215.718 394.206 216.663 394.193 217.637C394.157 219.975 394.108 222.311 394.046 224.649C393.345 224.455 392.644 224.262 391.921 224.063C390.972 223.802 390.024 223.542 389.046 223.274C387.654 222.891 387.654 222.891 386.234 222.5C385.182 222.219 384.13 221.938 383.046 221.649C381.829 221.293 380.612 220.937 379.359 220.57C357.458 215.173 335.604 222.423 316.486 232.674C294.194 244.617 269.956 251.444 244.925 243.965C236.298 241.143 228.143 237.296 220.12 233.078C210.111 227.841 201.346 223.984 190.046 222.649C189.951 216.215 189.893 209.991 191.046 203.649C198.068 203.065 202.134 204.753 208.171 208.211C209.852 209.133 211.533 210.053 213.214 210.973C214.445 211.656 214.445 211.656 215.7 212.353C224.826 217.392 233.961 221.88 244.046 224.649C244.867 224.874 245.688 225.1 246.534 225.332C274.818 231.71 300.752 221.204 325.439 208.35C338.331 201.797 352.919 198.249 367.359 198.274Z" fill="#6997CC"/>
<path d="M392.047 234.649C391.358 238.56 390.265 242.204 388.985 245.961C388.622 247.03 388.26 248.098 387.887 249.199C387.61 250.008 387.333 250.816 387.047 251.649C385.464 251.337 383.88 251.025 382.297 250.711C381.416 250.537 380.534 250.363 379.625 250.184C378.122 249.872 376.623 249.533 375.142 249.128C354.472 244.398 333.949 253.525 315.967 262.675C293.494 274.083 270.306 279.224 245.57 271.536C234.716 267.719 224.233 262.7 213.914 257.633C207.528 254.523 202.208 252.681 195.047 252.649C194.539 250.609 194.041 248.567 193.547 246.524C193.13 244.818 193.13 244.818 192.703 243.078C192.083 239.834 191.927 236.94 192.047 233.649C201.09 232.862 207.947 236.936 215.547 241.461C237.665 254.524 263.214 259.324 288.61 254.586C299.933 251.588 310.486 246.607 320.735 241.024C340.536 230.249 371.194 220.746 392.047 234.649Z" fill="#7890FF"/>
<path d="M264.047 105.648C262.256 111.916 258.93 114.167 256.734 120.336C254.615 126.072 251.478 131.222 248.379 136.477C244.297 143.648 241.471 150.669 239.088 158.556C236.86 165.813 236.86 165.813 234.047 168.648C231.484 169.086 231.484 169.086 229.047 168.648C225.797 163.774 226.062 159.333 227.047 153.648C230.53 144.106 236.327 135.614 242.98 128.023C244.92 125.794 246.607 123.506 248.297 121.086C250.845 117.586 259.691 105.648 264.047 105.648Z" fill="white"/>
<defs>
<linearGradient id="paint0_linear_0_1" x1="70.6795" y1="357.75" x2="102.5" y2="643.648" gradientUnits="userSpaceOnUse">
<stop stop-color="#7890FF"/>
</linearGradient>
<linearGradient id="paint1_linear_0_1" x1="415" y1="358.033" x2="415" y2="593.648" gradientUnits="userSpaceOnUse">
<stop stop-color="#7890FF"/>
</linearGradient>
<linearGradient id="paint2_linear_0_1" x1="559" y1="356.84" x2="559" y2="576.648" gradientUnits="userSpaceOnUse">
<stop stop-color="#7890FF"/>
</linearGradient>
<linearGradient id="paint3_linear_0_1" x1="268.531" y1="357.066" x2="269" y2="582.148" gradientUnits="userSpaceOnUse">
<stop stop-color="#7890FF"/>
</linearGradient>
<linearGradient id="paint4_linear_0_1" x1="181.984" y1="375.066" x2="182" y2="576.648" gradientUnits="userSpaceOnUse">
<stop stop-color="#7890FF"/>
</linearGradient>
</defs>
</svg>
