<svg width="393" height="279" viewBox="0 0 393 279" fill="none" xmlns="http://www.w3.org/2000/svg">
<path d="M402.225 214.397C367.752 236.997 303.049 243.053 249.695 234.603C206.38 227.743 168.494 212.486 144.18 192.801C127.708 179.466 117.441 164.4 104.191 150.145C86.0614 130.639 61.8707 112.402 31.1865 97.7121C32.5821 97.9996 34.0003 98.2583 35.4467 98.4821C44.7205 99.9178 55.4638 99.7285 63.2706 96.7786C71.077 93.8287 74.5042 87.6923 68.9967 83.592C63.6114 79.5828 52.8689 78.9219 43.4783 78.2934C34.0877 77.6651 23.1934 76.0391 20.1098 71.4307C17.4993 67.5301 21.8434 63.3917 25.9823 59.8588C32.2615 54.4989 38.6575 48.5755 37.1167 42.3671C35.5763 36.1586 21.7943 30.5889 11.2525 33.709C5.5455 35.3982 2.95215 38.8344 -0.509735 41.7166C-3.97202 44.5988 -10.2708 47.3356 -16.5044 46.2453C-14.2913 41.3495 -12.0743 36.2436 -14.3034 31.3498C-16.5325 26.456 -24.6582 21.8804 -34.4174 22.0616C-45.0462 22.2591 -52.2117 27.5254 -57.8343 32.1722C-63.4562 36.8191 -71.27 41.962 -81.8911 41.6831C-83.8004 41.6328 -69.4466 7.82619 -105.992 21.0802C-115.897 24.6722 -120.223 31.0177 -127.435 36.0286C-134.647 41.0397 -149.063 44.8098 -158.487 40.8908C-164.257 38.4912 -166.008 33.9368 -172.61 32.1957C-183.379 29.3557 -194.086 36.3545 -196.975 42.4028C-199.864 48.451 -202.841 56.0801 -214.583 57.5841C-220.615 58.357 -227.061 57.0686 -233.147 57.7213C-247.767 59.2892 -249.65 69.573 -247.592 77.1864C-241.737 98.8438 -276.827 99.1751 -291.136 115.498C-296.435 121.543 -293.343 128.561 -290.168 134.989C-285.928 143.574 -281.507 152.367 -271.69 159.643C-261.873 166.92 -245.357 172.476 -228.251 171.501C-232.67 174.216 -229.249 178.711 -223.238 180.435C-217.228 182.158 -209.876 181.884 -203.054 181.424C-182.862 180.064 -162.976 177.502 -143.919 173.808C-123.069 169.765 -104.083 160.074 -107.142 152.451C-102.092 148.901 -98.816 144.65 -99.4055 140.301C-100.008 135.856 -105.498 131.482 -113.294 129.802L-113.367 129.786L-113.655 129.726L-113.778 129.701L-114.044 129.65L-114.196 129.621L-114.444 129.576L-114.624 129.545L-114.861 129.505L-115.061 129.474L-115.424 129.419L-115.68 129.383L-115.868 129.358L-116.121 129.326L-116.305 129.304L-116.559 129.276L-116.747 129.256L-117.013 129.23L-117.187 129.213L-117.481 129.189L-117.635 129.176L-118.063 129.147L-118.08 129.146C-118.642 129.111 -119.204 129.093 -119.766 129.093C-121.932 129.09 -124.081 129.335 -126.086 129.771L-126.309 129.82L-126.749 129.924L-126.968 129.977C-127.621 130.141 -128.256 130.326 -128.867 130.528L-129.071 130.596C-129.543 130.757 -130.001 130.928 -130.442 131.109L-130.817 131.267C-131.187 131.428 -131.544 131.595 -131.888 131.769C-132.461 132.058 -132.995 132.366 -133.484 132.688L-133.771 132.884C-133.931 132.995 -134.086 133.109 -134.234 133.224L-134.441 133.387L-134.689 133.594L-134.924 133.804C-135.038 133.909 -135.148 134.016 -135.253 134.124L-135.456 134.341C-135.587 134.486 -135.709 134.633 -135.821 134.782L-135.904 134.893L-136.059 135.119L-136.131 135.232C-136.362 135.606 -136.533 135.987 -136.64 136.374L-136.648 136.405L-136.697 136.612L-136.721 136.744C-136.74 136.861 -136.753 136.978 -136.76 137.096L-136.765 137.339C-136.757 137.857 -136.626 138.381 -136.358 138.903C-136.72 138.351 -137 137.793 -137.201 137.233L-137.265 137.045C-137.489 136.359 -137.597 135.668 -137.596 134.978V134.977C-137.596 134.853 -137.593 134.73 -137.586 134.606C-137.575 134.412 -137.555 134.218 -137.528 134.025C-137.493 133.779 -137.445 133.534 -137.383 133.289C-137.349 133.155 -137.311 133.02 -137.269 132.886C-137.234 132.772 -137.196 132.658 -137.155 132.544C-137.111 132.421 -137.063 132.297 -137.012 132.174C-136.935 131.989 -136.852 131.805 -136.761 131.621C-136.631 131.357 -136.485 131.094 -136.325 130.833C-136.227 130.671 -136.122 130.509 -136.012 130.348L-135.887 130.169C-135.633 129.81 -135.352 129.456 -135.046 129.106L-134.891 128.931L-134.648 128.668C-134.493 128.505 -134.334 128.343 -134.169 128.182L-133.875 127.901C-133.693 127.732 -133.506 127.564 -133.313 127.398C-132.348 126.568 -131.239 125.774 -130.008 125.032L-129.76 124.884C-129.178 124.541 -128.57 124.209 -127.938 123.889L-127.665 123.753C-127.208 123.527 -126.739 123.308 -126.258 123.095C-126.066 123.01 -125.872 122.927 -125.676 122.844C-123.718 122.017 -121.582 121.304 -119.316 120.735C-119.09 120.678 -118.862 120.623 -118.633 120.569C-117.258 120.245 -115.839 119.974 -114.385 119.763C-111.963 119.411 -109.502 119.199 -107.03 119.114C-106.782 119.105 -106.535 119.098 -106.288 119.092C-105.793 119.08 -105.298 119.073 -104.802 119.071C-104.06 119.068 -103.316 119.076 -102.574 119.095C-101.584 119.121 -100.595 119.165 -99.6081 119.227C-99.1147 119.259 -98.6224 119.295 -98.1305 119.335C-96.4093 119.476 -94.6999 119.672 -93.0107 119.919C-92.5282 119.989 -92.0476 120.064 -91.5682 120.142C-83.6654 121.439 -76.2837 123.831 -70.4288 126.864C-70.0739 127.048 -69.7237 127.233 -69.3782 127.421C-68.8602 127.703 -68.3531 127.989 -67.8562 128.279C-67.6906 128.376 -67.5259 128.473 -67.3623 128.57C-64.748 130.133 -62.424 131.811 -60.3456 133.575C-60.0856 133.796 -59.8295 134.017 -59.5774 134.24C-59.3252 134.463 -59.0769 134.688 -58.8321 134.913C-58.7095 135.026 -58.5882 135.139 -58.4675 135.253C-57.9854 135.706 -57.5173 136.165 -57.0637 136.627C-56.8365 136.858 -56.6132 137.091 -56.3927 137.324C-55.9519 137.791 -55.5252 138.261 -55.1106 138.735C-54.7999 139.091 -54.4962 139.448 -54.1995 139.807C-53.9028 140.166 -53.6124 140.527 -53.3293 140.89C-51.3458 143.427 -49.6836 146.04 -48.2415 148.657C-48.0858 148.939 -47.9327 149.222 -47.782 149.504C-47.4803 150.069 -47.1875 150.636 -46.9041 151.204C-45.9121 153.191 -45.0326 155.195 -44.2678 157.211C-43.7217 158.651 -43.2345 160.097 -42.8066 161.548C-42.6357 162.128 -42.474 162.709 -42.3226 163.291C-38.7576 176.96 -40.5295 190.987 -48.5999 204.115C-49.4845 205.555 -50.4483 206.982 -51.4867 208.395C-51.6066 208.558 -51.7268 208.721 -51.849 208.884C-52.2195 209.379 -52.5993 209.872 -52.9885 210.363C-53.1064 210.512 -53.2251 210.661 -53.3449 210.809C-54.3822 212.097 -55.4835 213.372 -56.6468 214.632C-56.8295 214.83 -57.0137 215.028 -57.1995 215.225C-57.78 215.841 -58.3754 216.453 -58.9855 217.062C-59.2939 217.369 -59.6051 217.676 -59.9213 217.982C-60.1298 218.183 -60.3398 218.384 -60.551 218.585C-61.0655 219.073 -61.5905 219.557 -62.1238 220.039C-62.4681 220.351 -62.8159 220.661 -63.1681 220.971C-63.617 221.364 -64.0722 221.756 -64.534 222.146C-65.2265 222.73 -65.9332 223.311 -66.6534 223.886C-66.8935 224.078 -67.1355 224.269 -67.3787 224.46C-74.9216 230.371 -83.9531 235.765 -94.2689 240.396C-98.4479 242.272 -102.837 244.023 -107.424 245.632C-107.841 245.778 -108.26 245.923 -108.68 246.067C-110.361 246.643 -112.068 247.2 -113.8 247.737L-113.916 247.773C-114.241 247.873 -114.566 247.973 -114.892 248.072L-115.262 248.183C-115.502 248.256 -115.743 248.328 -115.984 248.4L-116.456 248.539C-116.662 248.6 -116.869 248.661 -117.076 248.722L-117.585 248.869C-117.787 248.928 -117.99 248.986 -118.193 249.044L-118.674 249.181C-118.893 249.243 -119.112 249.305 -119.331 249.366L-119.786 249.493C-120.008 249.555 -120.23 249.617 -120.454 249.678L-120.908 249.803C-121.144 249.867 -121.38 249.931 -121.615 249.994L-122.025 250.104C-122.281 250.173 -122.538 250.24 -122.794 250.308L-123.149 250.402C-123.453 250.482 -123.757 250.56 -124.061 250.639L-124.283 250.697C-125.059 250.896 -125.839 251.093 -126.621 251.287L-126.672 251.299C-127.044 251.391 -127.416 251.483 -127.789 251.573L-127.922 251.606C-128.272 251.691 -128.622 251.775 -128.973 251.859L-129.115 251.892C-129.463 251.975 -129.812 252.058 -130.161 252.14L-130.308 252.174C-130.659 252.256 -131.01 252.338 -131.361 252.419L-131.491 252.449C-131.866 252.535 -132.241 252.62 -132.617 252.705L-132.651 252.713C-152.034 257.094 -172.824 259.954 -192.898 263.554C-219.669 268.356 -246.685 275.045 -263.255 286.886C-266.377 289.118 -269.79 297.036 -260.41 296.673C-257.728 296.569 -255.584 295.538 -253.604 294.6C-242.028 289.119 -228.101 284.961 -213.111 282.509C-207.334 281.564 -200.357 280.986 -195.764 283.022C-187.882 286.517 -194.76 292.957 -200.826 297.308C-209.768 303.723 -216.441 310.973 -220.423 318.599C-221.475 320.615 -222.33 322.79 -220.966 324.757C-217.354 329.964 -202.814 329.593 -192.661 327.785C-138.649 318.167 -92.721 296.23 -35.8313 293.41C-28.2408 293.034 -17.3605 295.041 -19.7675 298.765C-20.8145 300.385 -24.1402 301.255 -27.1625 301.958C-40.1911 304.989 -53.2196 308.02 -66.2486 311.052C-71.6264 312.303 -77.7773 314.088 -78.2703 317.116C-79.041 321.851 -66.3251 323.549 -57.1227 323.169C0.89212 320.77 53.937 305.031 111.498 300.6C115.4 300.3 120.409 300.344 122.03 302.194C123.785 304.197 119.867 306.23 116.396 307.508C108.719 310.337 101.041 313.165 93.3631 315.993C91.3721 316.726 89.1524 317.704 89.405 318.958C89.649 320.169 92.0834 320.902 94.2886 321.345C114.321 325.362 136.713 321.715 157.152 318.285C199.935 311.105 244.88 304.835 289.452 308.016C282.233 309.892 274.681 311.917 270.259 315.402C265.837 318.887 266.024 324.29 272.808 326.554C277.835 328.232 284.436 327.673 290.231 326.89C334.899 320.858 374.011 304.68 395.071 283.527C416.129 262.373 418.799 236.583 402.225 214.397Z" fill="#51B3ED"/>
<path d="M41.8397 26.9217C46.8654 28.4458 51.4686 31.315 56.6368 32.2503C57.7738 32.4561 59.0248 32.5453 60.01 31.9404C60.9952 31.3355 61.4413 29.7846 60.5885 29.0053C59.9541 28.4257 58.9513 28.5159 58.1998 28.0989C56.5179 27.1653 57.278 24.3088 59.0256 23.5019C60.7733 22.695 62.8088 23.2223 64.6812 23.6638C66.5538 24.1054 68.7061 24.3945 70.247 23.2397C71.6817 22.1646 72.0834 20.0603 71.488 18.3703C70.8924 16.6803 69.4749 15.3854 67.8958 14.5399C64.4454 12.6924 60.0189 12.8205 56.6772 14.8647C53.4309 16.8507 50.9844 20.5443 47.2015 20.9424C44.8998 21.1845 42.6848 20.0993 40.396 19.7604C35.4194 19.0237 29.3569 22.7496 28.7199 27.9263C32.9825 26.1323 37.1926 25.5125 41.8397 26.9217Z" fill="#ACDDF1"/>
<path d="M83.7778 115.713C81.2661 115.333 78.9234 114.236 76.4674 113.585C74.0115 112.934 71.1431 112.779 69.0137 114.161C73.2634 115.822 77.165 118.37 80.3956 121.594C82.2572 123.451 84.3097 125.709 86.9311 125.522C89.3784 125.348 91.1784 122.928 91.5065 120.497C91.8346 118.065 91.0506 115.635 90.2771 113.306C88.703 115.298 86.2897 116.094 83.7778 115.713Z" fill="#ACDDF1"/>
<path d="M83.4424 64.4257C85.0798 65.9535 87.3373 67.8887 89.2122 66.6674C90.2609 65.9845 90.5573 64.5187 90.2388 63.308C89.9203 62.0972 89.1191 61.0798 88.3379 60.101C90.7817 59.9217 93.0256 61.4713 94.7151 63.2471C96.4048 65.0229 97.7991 67.1117 99.7778 68.5586C101.757 70.0052 104.619 70.6604 106.626 69.2556C108.847 67.7003 109.757 64.1898 107.883 62.2265C102.888 56.9931 95.929 53.6789 88.7188 53.0999C81.5087 52.521 74.1142 54.6828 68.3564 59.0527C74.1015 58.6088 79.2283 60.4934 83.4424 64.4257Z" fill="#ACDDF1"/>
<path d="M312.061 228.813C305.365 208.678 310.465 180.898 322.424 173.924C336.34 165.808 338.612 202.245 356.88 206.92C375.254 211.621 384.576 194.058 389.338 171.67C392.303 157.73 389.289 124.907 401.903 124.943C411.41 124.971 411.536 144.546 406.745 157.771C401.509 172.225 400.733 195.127 405.153 202.981C409.573 210.835 418.988 191.871 428.58 193.361C438.172 194.851 433.244 224.515 436.885 229.84C440.525 235.164 422.538 260.369 380.662 264.989C351.376 268.217 323.448 263.05 312.061 228.813Z" fill="#51B3ED"/>
<path opacity="0.5" d="M312.061 228.813C305.365 208.678 310.465 180.898 322.424 173.924C336.34 165.808 338.612 202.245 356.88 206.92C375.254 211.621 384.576 194.058 389.338 171.67C392.303 157.73 389.289 124.907 401.903 124.943C411.41 124.971 411.536 144.546 406.745 157.771C401.509 172.225 400.733 195.127 405.153 202.981C409.573 210.835 418.988 191.871 428.58 193.361C438.172 194.851 433.244 224.515 436.885 229.84C440.525 235.164 422.538 260.369 380.662 264.989C351.376 268.217 323.448 263.05 312.061 228.813Z" fill="#51B3ED"/>
<path opacity="0.2" d="M314.166 206.038C313.58 199.906 314.688 187.305 319.814 179.842C326.172 170.582 333.393 173.72 338.279 190.932C338.279 190.932 332.23 175.501 326.526 177.743C321.235 179.822 316.046 188.226 317.29 206.588C317.912 215.781 314.758 212.237 314.166 206.038Z" fill="#51B3ED"/>
<path d="M313.46 219.03C313.46 219.03 322.852 226.851 326.071 225.23C329.29 223.609 329.985 209.213 339.693 208.594C349.399 207.974 361.228 221.343 366.467 221.72C371.706 222.098 381.521 199.322 391.136 203.774C400.751 208.225 400.849 216.562 405.969 216.034C411.09 215.505 414.982 207.217 420.367 210.457C425.75 213.698 431.874 234.79 414.171 245.97C396.467 257.15 330.404 260.243 313.46 219.03Z" fill="#51B3ED"/>
<path opacity="0.4" d="M313.46 219.03C313.46 219.03 322.852 226.851 326.071 225.23C329.29 223.609 329.985 209.213 339.693 208.594C349.399 207.974 361.228 221.343 366.467 221.72C371.706 222.098 381.521 199.322 391.136 203.774C400.751 208.225 400.849 216.562 405.969 216.034C411.09 215.505 414.982 207.217 420.367 210.457C425.75 213.698 431.874 234.79 414.171 245.97C396.467 257.15 330.404 260.243 313.46 219.03Z" fill="#51B3ED"/>
<path d="M261.539 262.867C261.539 262.867 265.241 246.786 275.959 249.185C286.676 251.583 286.295 257.523 289.602 251.248C292.909 244.974 296.2 245.504 307.645 249.038C319.091 252.571 345.363 258.308 386.353 256.521C427.342 254.733 453.273 242.018 459.319 242.249C465.366 242.479 461.208 247.542 464.369 250.088C467.53 252.634 473.166 242.25 480.426 260.521C487.686 278.792 363.134 278.41 363.134 278.41C363.134 278.41 265.157 276.24 261.539 262.867Z" fill="#51B3ED"/>
<path opacity="0.5" d="M261.539 262.867C261.539 262.867 265.241 246.786 275.959 249.185C286.676 251.583 286.295 257.523 289.602 251.248C292.909 244.974 296.2 245.504 307.645 249.038C319.091 252.571 345.363 258.308 386.353 256.521C427.342 254.733 453.273 242.018 459.319 242.249C465.366 242.479 461.208 247.542 464.369 250.088C467.53 252.634 473.166 242.25 480.426 260.521C487.686 278.792 363.134 278.41 363.134 278.41C363.134 278.41 265.157 276.24 261.539 262.867Z" fill="#51B3ED"/>
<path opacity="0.2" d="M269.917 252.338C273.207 248.964 282.164 252.851 286.175 256.565C290.186 260.28 297.125 262.793 297.125 262.793C297.125 262.793 292.991 267.57 286.165 259.967C279.338 252.365 269.917 252.338 269.917 252.338Z" fill="#51B3ED"/>
<path opacity="0.2" d="M292.832 251.104C293.895 249.738 295.354 249.285 296.735 249.205C298.135 249.144 299.528 249.441 300.891 249.882C303.613 250.809 306.241 252.304 308.688 254.397C313.293 258.948 318.27 262.349 323.578 264.277C326.222 265.247 328.919 265.872 331.628 266.273C334.341 266.669 337.075 266.688 339.802 266.582C342.543 266.396 345.288 266.184 348.025 265.785L356.27 264.515C359.038 264.127 361.834 263.867 364.631 263.856C367.425 263.872 370.217 264.043 372.989 264.423C374.377 264.595 375.755 264.861 377.138 265.075L381.266 265.9L389.453 267.814C394.897 268.976 400.38 269.839 405.885 270.024C411.379 270.228 416.934 269.987 422.334 268.177C419.696 269.447 416.939 270.094 414.186 270.575C411.429 271.032 408.655 271.304 405.878 271.371C400.323 271.506 394.77 270.929 389.259 269.94C378.296 267.648 367.374 265.339 356.442 267.251C350.972 268.06 345.416 269.001 339.852 269.176C334.26 269.333 328.619 268.581 323.209 266.343C320.507 265.236 317.864 263.788 315.353 261.944C314.095 261.032 312.87 260.02 311.676 258.943C310.489 257.869 309.327 256.655 308.209 255.533C305.941 253.357 303.403 251.683 300.774 250.584C299.455 250.052 298.103 249.668 296.738 249.617C295.388 249.565 293.955 249.851 292.832 251.104Z" fill="#51B3ED"/>
<path d="M281.196 150.607C291.539 135.268 299.698 177.156 306.455 196.173C315.271 220.984 326.996 237.26 336.486 229.551C345.977 221.842 337.822 175.661 350.019 172.312C362.216 168.964 356.224 218.6 371.323 223.179C386.422 227.759 390.935 183.876 401.657 184.829C412.378 185.783 406.93 215.846 412.271 223.297C417.612 230.748 452.853 181.025 455.394 145.044C457.934 109.064 473.499 121.325 471.502 137.686C469.505 154.048 448.46 183.18 443.031 206.63C437.601 230.08 466.429 206.912 477.617 215.669C488.804 224.426 443.696 265.172 382.1 264.996C320.505 264.819 281.566 243.653 277.707 229.382C273.848 215.111 305.083 236.66 306.479 226.079C309.405 203.879 271.812 164.523 281.196 150.607Z" fill="#51B3ED"/>
<path opacity="0.6" d="M444.796 250.615C428.082 258.772 406.373 265.06 382.104 264.99C349.73 264.898 323.61 259.009 305.555 251.37C289.263 244.478 279.536 236.148 277.707 229.381C273.848 215.116 305.08 236.662 306.478 226.082C309.406 203.879 271.812 164.53 281.196 150.606C291.535 135.269 299.696 177.159 306.453 196.174C315.272 220.981 327 237.26 336.486 229.549C345.981 221.838 337.823 175.66 350.023 172.314C362.213 168.968 356.221 218.597 371.328 223.176C386.425 227.755 390.932 183.881 401.659 184.832C412.377 185.784 406.93 215.842 412.269 223.293C417.608 230.744 452.852 181.021 455.395 145.045C457.938 109.068 473.503 121.332 471.506 137.682C469.509 154.047 448.465 183.18 443.028 206.627C437.6 230.087 466.428 206.914 477.613 215.674C484.4 220.985 470.506 238.03 444.796 250.615Z" fill="#51B3ED"/>
<path opacity="0.2" d="M284.771 235.442C284.316 234.619 283.876 233.772 283.504 232.852C283.321 232.389 283.151 231.908 283.052 231.377C282.949 230.868 282.935 230.192 283.233 229.739C283.521 229.302 283.914 229.164 284.274 229.078C284.642 228.997 285.009 228.991 285.373 229.007C286.101 229.045 286.821 229.187 287.534 229.358C290.38 230.102 293.149 231.278 295.909 232.467C298.61 233.707 301.475 234.641 304.125 233.679C307.969 232.286 308.719 227.106 309.818 222.3C310.162 220.796 311.071 219.298 312.12 219.592C312.59 219.724 312.98 220.192 313.341 220.657C315.146 222.985 316.494 225.919 318.516 227.753C320.946 229.957 323.4 232.362 326 234.131C328.515 235.866 331.209 236.931 333.925 236.925C335.276 236.927 336.647 236.669 337.949 236.211C339.216 235.74 340.392 234.913 341.372 233.698C343.365 231.285 344.523 227.514 345.357 223.6C345.776 221.628 346.133 219.592 346.51 217.516C346.898 215.441 347.272 213.319 347.941 211.154C348.287 210.08 348.708 208.965 349.395 207.975C350.064 206.975 351.093 206.255 352.068 206.174C353.04 206.04 354.064 206.446 354.843 207.142C355.638 207.828 356.25 208.701 356.782 209.588C357.834 211.38 358.608 213.278 359.353 215.153L361.475 220.744C362.875 224.401 364.33 227.956 366.153 230.879C367.96 233.801 370.203 235.944 372.707 236.558C375.164 237.229 377.668 236.041 379.873 233.827C382.095 231.63 384.06 228.643 385.968 225.541C387.89 222.433 389.726 219.129 391.932 216.06C393.05 214.552 394.259 213.042 395.859 212.035C396.649 211.54 397.589 211.222 398.52 211.273C399.432 211.296 400.565 211.758 401.372 212.91C402.178 214.043 402.536 215.426 402.761 216.633C402.976 217.862 403.068 219.03 403.126 220.161C403.235 222.421 403.213 224.565 403.256 226.649C403.298 228.722 403.389 230.753 403.707 232.533C404.024 234.33 404.594 235.687 405.472 236.403C407.245 238.062 409.949 236.3 412.297 234.326C414.684 232.278 416.962 229.744 419.197 227.136C421.433 224.516 423.625 221.774 425.845 219.045C428.078 216.329 430.301 213.593 432.823 211.183C433.465 210.591 434.121 210.017 434.88 209.546C435.255 209.308 435.667 209.102 436.143 208.978C436.61 208.867 437.214 208.819 437.846 209.279C438.678 209.897 439.466 211.129 439.718 212.601C439.973 214.036 439.856 215.322 439.714 216.46C439.41 218.727 438.888 220.723 438.767 222.56C438.706 223.468 438.769 224.256 438.995 224.835C439.209 225.397 439.668 225.97 440.103 226.126C441.188 226.549 442.668 226.341 444.026 226.101C445.415 225.837 446.813 225.452 448.209 225.035C451.004 224.192 453.796 223.208 456.601 222.27C459.41 221.352 462.234 220.479 465.092 219.815C466.521 219.491 467.96 219.216 469.413 219.081C470.865 218.956 472.338 218.931 473.807 219.355C474.537 219.593 475.264 219.88 475.939 220.566C476.266 220.904 476.59 221.453 476.66 222.152C476.731 222.848 476.56 223.466 476.368 223.968C475.507 225.915 474.267 227.1 473.07 228.298C470.619 230.586 468.023 232.449 465.388 234.146C467.963 232.264 470.496 230.213 472.838 227.783C473.977 226.558 475.184 225.248 475.866 223.547C476.016 223.126 476.107 222.677 476.055 222.305C476.008 221.936 475.825 221.613 475.563 221.361C475.039 220.861 474.343 220.594 473.675 220.425C472.311 220.113 470.89 220.21 469.485 220.416C463.203 221.37 457.089 224.959 451.347 228.765C446.94 231.685 442.018 234.199 437.373 232.293C436.787 232.052 436.198 231.73 435.745 231.131C434.297 229.223 434.728 225.355 433.257 223.488C431.908 221.776 429.845 222.757 428.245 223.904C422.938 227.706 418.575 233.186 413.569 237.596C412.274 238.714 410.919 239.761 409.359 240.433C408.577 240.757 407.737 240.992 406.821 240.937C405.866 240.855 405.027 240.484 404.204 239.844C403.389 239.189 402.663 238.2 402.171 237.072C400.825 234.085 400.63 230.234 399.231 227.076C399.004 226.564 398.762 226.055 398.435 225.68C397.969 225.146 397.371 224.936 396.787 224.839C393.613 224.316 390.555 226.776 388.031 229.695C384.566 233.7 381.464 238.438 377.092 240.18C375.531 240.813 373.842 240.944 372.241 240.516C370.656 240.105 369.135 239.23 367.778 238.009C367.78 237.361 364.296 234.057 363.79 233.385C362.297 231.401 360.963 229.112 359.581 226.952C359.177 226.32 358.769 225.685 358.301 225.16C355.719 222.267 353.114 223.621 351.208 226.932C350.044 228.955 349.106 231.25 347.905 233.225C341.936 243.042 332.52 241.707 325.252 236.464C320.096 232.745 312.222 219.266 309.378 233.441C308.988 235.387 308.395 237.459 307.171 238.359C306.149 239.11 304.935 238.852 303.817 238.528C300.726 237.628 298.131 236.264 295.169 234.602C294.407 234.174 293.644 233.747 292.882 233.319C290.509 231.987 287.903 229.676 285.354 229.465C284.675 229.409 283.883 229.326 283.38 229.951C283.141 230.274 283.121 230.822 283.202 231.318C283.279 231.822 283.428 232.307 283.593 232.775C283.932 233.711 284.343 234.587 284.771 235.442Z" fill="#51B3ED"/>
<path opacity="0.2" d="M288.959 177.636C288.959 177.636 278.956 159.64 282.084 152.865C285.211 146.088 291.409 152.088 292.85 159.433C294.291 166.778 288.763 165.848 287.142 165.485C285.522 165.122 288.959 177.636 288.959 177.636Z" fill="#51B3ED"/>
<path opacity="0.2" d="M352.765 175.643C351.768 170.585 346.363 176.712 345.979 182.965C345.596 189.216 354.747 185.709 352.765 175.643Z" fill="#51B3ED"/>
<path opacity="0.2" d="M349.472 193.134C349.21 190.837 352.805 189.708 353.943 193.146C355.081 196.584 350.282 200.258 349.472 193.134Z" fill="#51B3ED"/>
<path d="M444.798 250.616C428.083 258.774 406.374 265.062 382.105 264.992C349.731 264.899 323.612 259.01 305.556 251.371C308.503 251.916 311.737 251.98 313.978 250.571C319.107 247.328 322.765 247.874 327.502 252.781C332.238 257.688 340.638 261.189 350.151 260.158C359.655 259.127 357.482 253.142 368.619 255.895C379.767 258.649 378.339 263.249 391.481 263.246C404.624 263.242 411.876 254.411 419.868 251.974C426.676 249.904 429.392 256.688 444.798 250.616Z" fill="#51B3ED"/>
<path opacity="0.5" d="M444.798 250.616C428.083 258.774 406.374 265.062 382.105 264.992C349.731 264.899 323.612 259.01 305.556 251.371C308.503 251.916 311.737 251.98 313.978 250.571C319.107 247.328 322.765 247.874 327.502 252.781C332.238 257.688 340.638 261.189 350.151 260.158C359.655 259.127 357.482 253.142 368.619 255.895C379.767 258.649 378.339 263.249 391.481 263.246C404.624 263.242 411.876 254.411 419.868 251.974C426.676 249.904 429.392 256.688 444.798 250.616Z" fill="#51B3ED"/>
<path d="M494.835 262.456C492.005 261.325 490.231 257.033 490.976 252.812C491.535 249.645 491.2 246.856 486.074 246.359C480.881 245.863 476.986 250.594 473.204 254.418C470.071 257.597 467.014 260.145 463.368 258.554C457.867 256.133 456.34 250.466 451.708 247.662C450.195 246.751 448.349 246.141 445.927 246.065C444.948 246.035 443.876 246.087 442.683 246.234C429.601 247.915 416.785 269.526 396.056 272.367C375.328 275.207 349.993 269.706 330.76 263.424C311.518 257.142 305.169 263.406 296.871 266.282C290.959 268.327 279.059 263.935 269.499 258.987C265.641 256.997 262.172 254.925 259.617 253.131C250.726 246.893 247.192 251.281 246.745 255.775C246.316 260.158 253.095 265.098 243.766 269.579C243.711 269.607 243.665 269.634 243.609 269.661C243.405 269.757 243.183 269.853 242.961 269.948C229.867 275.835 221.999 280.1 221.999 280.1L535.456 281C535.456 281 519.312 272.242 494.835 262.456Z" fill="#51B3ED"/>
<path opacity="0.7" d="M494.835 262.456C492.005 261.325 490.231 257.033 490.976 252.812C491.535 249.645 491.2 246.856 486.074 246.359C480.881 245.863 476.986 250.594 473.204 254.418C470.071 257.597 467.014 260.145 463.368 258.554C457.867 256.133 456.34 250.466 451.708 247.662C450.195 246.751 448.349 246.141 445.927 246.065C444.948 246.035 443.876 246.087 442.683 246.234C429.601 247.915 416.785 269.526 396.056 272.367C375.328 275.207 349.993 269.706 330.76 263.424C311.518 257.142 305.169 263.406 296.871 266.282C290.959 268.327 279.059 263.935 269.499 258.987C265.641 256.997 262.172 254.925 259.617 253.131C250.726 246.893 247.192 251.281 246.745 255.775C246.316 260.158 253.095 265.098 243.766 269.579C243.711 269.607 243.665 269.634 243.609 269.661C243.405 269.757 243.183 269.853 242.961 269.948C229.867 275.835 221.999 280.1 221.999 280.1L535.456 281C535.456 281 519.312 272.242 494.835 262.456Z" fill="#51B3ED"/>
<path opacity="0.5" d="M248.756 257.265C248.708 256.4 248.805 255.422 249.258 254.692C249.717 253.986 250.376 253.667 250.997 253.558C252.256 253.366 253.481 253.695 254.665 254.11C257.007 255.014 259.294 256.46 261.38 258.023C263.459 259.498 265.648 260.766 267.839 261.966C270.026 263.19 272.241 264.316 274.469 265.347C278.917 267.326 283.465 269.31 287.896 269.863C290.181 270.058 292.45 270.168 294.692 269.888C296.937 269.633 299.14 269.009 301.366 268.177C305.822 266.518 310.525 264.26 315.477 263.666C320.491 263.171 325.234 264.071 329.957 265.126C339.39 267.265 348.545 270.79 357.783 273.861C353.04 273.489 348.338 272.511 343.645 271.682C338.956 270.79 334.272 269.94 329.605 269.252C327.272 268.915 324.936 268.681 322.623 268.526C320.311 268.378 317.998 268.363 315.799 268.727C313.601 269.182 311.315 269.86 309.095 270.702C306.857 271.545 304.611 272.594 302.253 273.499C299.892 274.376 297.422 274.999 294.947 275.237C292.471 275.468 290 275.389 287.574 274.985C285.066 274.563 282.698 273.731 280.367 272.78C278.039 271.826 275.765 270.685 273.523 269.438C269.035 266.95 264.658 264.171 260.449 260.628C259.375 259.72 258.462 258.803 257.427 257.972C256.414 257.143 255.374 256.378 254.306 255.751C253.245 255.116 252.138 254.568 251.025 254.491C250.477 254.473 249.915 254.568 249.473 255.043C249.035 255.526 248.811 256.391 248.756 257.265Z" fill="#51B3ED"/>
</svg>
