<svg width="212" height="184" viewBox="0 0 212 184" fill="none" xmlns="http://www.w3.org/2000/svg">
<path d="M109.564 6.65465H0V81.8649H109.564V6.65465Z" fill="#4BBEFF"/>
<path d="M63.6459 34.0247H0V37.444H63.6459V34.0247Z" fill="white"/>
<path d="M109.564 50.554H67.8708V53.9734H109.564V50.554Z" fill="white"/>
<path d="M67.8708 6.65465H63.6459V81.8649H67.8708V6.65465Z" fill="white"/>
<path d="M34.9954 1.52588e-05C31.1573 1.52588e-05 27.4765 1.52178 24.7626 4.23056C22.0487 6.93932 20.5241 10.6132 20.5241 14.444C20.5241 22.4174 34.9954 36.1407 34.9954 36.1407C34.9954 36.1407 49.4513 22.4174 49.4513 14.444C49.4533 12.5479 49.0809 10.67 48.3554 8.91766C47.6298 7.16533 46.5653 5.57295 45.2227 4.23149C43.8801 2.89004 42.2858 1.82585 40.5309 1.09978C38.7761 0.373715 36.895 1.41881e-05 34.9954 1.52588e-05ZM34.9954 16.054C34.0839 16.054 33.1928 15.7842 32.4349 15.2788C31.677 14.7733 31.0863 14.0549 30.7375 13.2143C30.3887 12.3738 30.2974 11.4489 30.4752 10.5566C30.6531 9.66428 31.092 8.84463 31.7365 8.20132C32.3811 7.55801 33.2023 7.11986 34.0963 6.9424C34.9903 6.76493 35.9169 6.85598 36.759 7.20414C37.6011 7.5523 38.321 8.14191 38.8274 8.89838C39.3338 9.65486 39.6041 10.5442 39.6041 11.454C39.6041 12.674 39.1185 13.844 38.2542 14.7067C37.3899 15.5694 36.2177 16.054 34.9954 16.054Z" fill="#4BBEFF"/>
<path d="M116.554 155.296H45.6875V111.979L69.9141 68.6628H116.554V155.296Z" fill="#4BBEFF"/>
<path d="M202 39H117V155H202V39Z" fill="#F5F5F5"/>
<path d="M45.6875 111.979H87.8724V73.2935H67.3179L45.6875 111.979Z" fill="white"/>
<path d="M116.554 143.98H43.0913V157.688H116.554V143.98Z" fill="#4BBEFF"/>
<path d="M54.1675 131.713H49.1594V141.833H54.1675V131.713Z" fill="#4BBEFF"/>
<path d="M49.1594 131.713H44.1513V141.833H49.1594V131.713Z" fill="white"/>
<path d="M107.229 73.2935H91.6979V111.979H107.229V73.2935Z" fill="#4BBEFF"/>
<path d="M212.015 143.98H116.554V157.688H212.015V143.98Z" fill="#4BBEFF"/>
<path d="M125.925 39.1153H116.554V143.98H125.925V39.1153Z" fill="#4BBEFF"/>
<path d="M107.704 164.619C109.691 152.458 101.424 140.992 89.24 139.01C77.0567 137.027 65.569 145.278 63.5824 157.439C61.5961 169.6 69.8631 181.065 82.0465 183.048C94.2305 185.031 105.718 176.78 107.704 164.619Z" fill="#4BBEFF"/>
<path d="M97.6905 165.157C99.9589 158.53 96.4147 151.322 89.7748 149.058C83.1348 146.795 75.9136 150.332 73.6452 156.96C71.3773 163.587 74.9216 170.794 81.5609 173.058C88.2008 175.322 95.4226 171.785 97.6905 165.157Z" fill="#B4CCEF"/>
<path d="M85.6449 171.902C91.7281 171.902 96.6594 166.98 96.6594 160.908C96.6594 154.836 91.7281 149.914 85.6449 149.914C79.5617 149.914 74.6303 154.836 74.6303 160.908C74.6303 166.98 79.5617 171.902 85.6449 171.902Z" fill="#E3ECFF"/>
<path d="M87.8573 110.875H45.6875V111.979H87.8573V110.875Z" fill="#4BBEFF"/>
<path d="M193.796 121.026H138.061V123.28H193.796V121.026Z" fill="#03EB97"/>
<path d="M153.792 77.8169H98.0579V80.0708H153.792V77.8169Z" fill="#03EB97"/>
<path d="M160.967 164.235H105.232V166.489H160.967V164.235Z" fill="#4BBEFF"/>
<path d="M220.019 129.459H164.285V131.713H220.019V129.459Z" fill="#03EB97"/>
</svg>
