<svg width="187" height="184" viewBox="0 0 187 184" fill="none" xmlns="http://www.w3.org/2000/svg">
<mask id="mask0_1_458" style="mask-type:luminance" maskUnits="userSpaceOnUse" x="0" y="33" width="187" height="151">
<path d="M187 33H0V184H187V33Z" fill="white"/>
</mask>
<g mask="url(#mask0_1_458)">
<path d="M136.691 33C128.344 33 119.109 33.3398 119.109 33.759V37.7228H153.151V33.759C153.151 33.3398 145.039 33 136.691 33Z" fill="#4BBEFF"/>
<path d="M153.151 37.7224C153.151 38.1417 145.04 38.4814 136.691 38.4814C128.344 38.4814 119.109 38.1417 119.109 37.7224C119.109 37.3031 128.344 36.9634 136.691 36.9634C145.039 36.9634 153.151 37.3031 153.151 37.7224Z" fill="#4BBEFF"/>
<path d="M136.691 37.3862C129.289 37.3862 120.82 37.6874 120.82 38.0593V41.2318H151.439V38.0593C151.439 37.6874 144.094 37.3862 136.691 37.3862Z" fill="#4BBEFF"/>
<path d="M181.262 64.4989C181.262 79.8077 161.307 92.2178 136.691 92.2178C112.074 92.2178 92.1188 79.8077 92.1188 64.4989C92.1188 49.19 112.074 39.6216 136.691 39.6216C161.307 39.6216 181.262 49.19 181.262 64.4989Z" fill="#4BBEFF"/>
<path d="M181.262 64.525C181.262 62.7949 161.307 61.3925 136.691 61.3925C112.074 61.3925 92.1188 62.7949 92.1188 64.525V176.807C92.1188 180.733 112.074 183.917 136.691 183.917C161.307 183.917 181.262 180.733 181.262 176.807V64.525Z" fill="#9DDBFF"/>
<path opacity="0.15" d="M181.263 64.4989V176.806C181.263 180.733 161.308 183.916 136.691 183.916C132.951 183.916 129.318 183.842 125.848 183.703C145.224 182.93 159.575 180.135 159.575 176.805V64.4989C159.575 51.5161 145.223 42.6617 125.848 40.2714C129.319 39.8425 132.951 39.6216 136.691 39.6216C161.308 39.6216 181.263 49.19 181.263 64.4989Z" fill="#4BBEFF"/>
<path opacity="0.25" d="M136.13 80.1411C108.771 80.1411 92.2295 77.9973 92.0658 77.9756C91.8394 77.9459 91.6805 77.7379 91.7102 77.5114C91.7399 77.2849 91.9478 77.1258 92.1741 77.1555C92.3378 77.1772 108.831 79.3145 136.13 79.3145C163.438 79.3145 181.039 77.1772 181.213 77.1555C181.44 77.1266 181.646 77.2889 181.674 77.5154C181.702 77.7419 181.541 77.9484 181.315 77.9765C181.139 77.9974 163.487 80.1411 136.13 80.1411Z" fill="#4BBEFF"/>
<path opacity="0.25" d="M136.13 84.6792C108.771 84.6792 92.2295 82.5355 92.0658 82.5138C91.8394 82.4841 91.6805 82.276 91.7102 82.0495C91.7399 81.823 91.9478 81.664 92.1741 81.6937C92.3378 81.7154 108.831 83.8519 136.13 83.8519C163.438 83.8519 181.039 81.7146 181.213 81.6929C181.44 81.664 181.646 81.8255 181.674 82.0528C181.702 82.2793 181.541 82.4857 181.315 82.5138C181.139 82.5355 163.487 84.6792 136.13 84.6792Z" fill="#4BBEFF"/>
<path opacity="0.25" d="M136.13 109.594C108.771 109.594 92.2295 107.45 92.0658 107.429C91.8394 107.399 91.6805 107.191 91.7102 106.964C91.7399 106.738 91.9478 106.579 92.1741 106.609C92.3378 106.63 108.831 108.768 136.13 108.768C163.438 108.768 181.039 106.63 181.213 106.609C181.44 106.58 181.646 106.742 181.674 106.968C181.702 107.195 181.541 107.401 181.315 107.429C181.139 107.451 163.487 109.594 136.13 109.594Z" fill="#4BBEFF"/>
<path opacity="0.25" d="M136.13 114.133C108.771 114.133 92.2295 111.989 92.0658 111.968C91.8394 111.938 91.6805 111.73 91.7102 111.503C91.7399 111.277 91.9478 111.118 92.1741 111.147C92.3378 111.169 108.831 113.306 136.13 113.306C163.438 113.306 181.039 111.168 181.213 111.147C181.44 111.118 181.646 111.279 181.674 111.506C181.702 111.732 181.541 111.939 181.315 111.967C181.139 111.989 163.487 114.133 136.13 114.133Z" fill="#4BBEFF"/>
<path opacity="0.25" d="M136.13 139.048C108.771 139.048 92.2295 136.904 92.0658 136.882C91.8394 136.853 91.6805 136.645 91.7102 136.418C91.7399 136.192 91.9478 136.033 92.1741 136.062C92.3378 136.084 108.831 138.221 136.13 138.221C163.438 138.221 181.039 136.083 181.213 136.062C181.44 136.033 181.646 136.195 181.674 136.421C181.702 136.648 181.541 136.854 181.315 136.882C181.139 136.904 163.487 139.048 136.13 139.048Z" fill="#4BBEFF"/>
<path opacity="0.25" d="M136.13 143.585C108.771 143.585 92.2295 141.441 92.0658 141.42C91.8394 141.39 91.6805 141.182 91.7102 140.955C91.7399 140.729 91.9478 140.57 92.1741 140.6C92.3378 140.621 108.831 142.758 136.13 142.758C163.438 142.758 181.039 140.621 181.213 140.6C181.44 140.57 181.646 140.732 181.674 140.959C181.702 141.186 181.541 141.392 181.315 141.42C181.139 141.441 163.487 143.585 136.13 143.585Z" fill="#4BBEFF"/>
<path d="M167.456 44.1264V57.678C165.895 47.0574 149.302 40.5113 149.302 40.5113V37.7234H161.058C164.591 37.7226 167.456 40.5892 167.456 44.1264Z" fill="#BAE6FF"/>
<path d="M175.177 44.1265V57.678H167.456V44.1265C167.456 40.5892 164.591 37.7227 161.058 37.7227H168.778C172.312 37.7227 175.177 40.5892 175.177 44.1265Z" fill="#9DDBFF"/>
<path d="M105.925 44.1264V57.678C107.487 47.0574 124.08 40.5113 124.08 40.5113V37.7234H112.324C108.791 37.7226 105.925 40.5892 105.925 44.1264Z" fill="#BAE6FF"/>
<path d="M98.2054 44.1265V57.678H105.926V44.1265C105.926 40.5892 108.791 37.7227 112.325 37.7227H104.604C101.071 37.7227 98.2054 40.5892 98.2054 44.1265Z" fill="#9DDBFF"/>
<path d="M172.611 47.7002C172.611 46.6568 172.301 45.7605 171.856 45.3621L171.827 45.142H171.34C170.638 45.142 170.069 46.2874 170.069 47.7002C170.069 49.113 170.638 50.2584 171.34 50.2584H171.827C171.827 50.2584 171.832 50.1756 171.839 50.0535C172.294 49.6632 172.611 48.7564 172.611 47.7002Z" fill="#9DDBFF"/>
<path d="M173.099 47.7002C173.099 49.113 172.53 50.2584 171.828 50.2584C171.126 50.2584 170.557 49.113 170.557 47.7002C170.557 46.2874 171.126 45.142 171.828 45.142C172.53 45.142 173.099 46.2874 173.099 47.7002Z" fill="#CDD8F0"/>
<path d="M172.685 47.6999C172.685 48.0027 172.658 48.2798 172.611 48.5272C172.459 49.3504 172.096 49.8452 171.827 49.8452C171.558 49.8452 171.195 49.3504 171.042 48.5272C170.996 48.2798 170.969 48.0027 170.969 47.6999C170.969 47.3971 170.996 47.1208 171.042 46.8727C171.195 46.0494 171.558 45.5546 171.827 45.5546C172.096 45.5546 172.458 46.0494 172.611 46.8727C172.658 47.12 172.685 47.3971 172.685 47.6999Z" fill="#4BBEFF"/>
<path d="M100.238 47.7002C100.238 46.6568 100.549 45.7605 100.994 45.3621L101.023 45.142H101.51C102.212 45.142 102.781 46.2874 102.781 47.7002C102.781 49.113 102.212 50.2584 101.51 50.2584H101.023C101.023 50.2584 101.018 50.1756 101.01 50.0535C100.557 49.6632 100.238 48.7564 100.238 47.7002Z" fill="#9DDBFF"/>
<path d="M99.7513 47.7002C99.7513 49.113 100.32 50.2584 101.023 50.2584C101.725 50.2584 102.294 49.113 102.294 47.7002C102.294 46.2874 101.725 45.142 101.023 45.142C100.32 45.142 99.7513 46.2874 99.7513 47.7002Z" fill="#CDD8F0"/>
<path d="M101.88 47.6999C101.88 48.0027 101.853 48.2798 101.807 48.5272C101.654 49.3504 101.291 49.8452 101.023 49.8452C100.754 49.8452 100.39 49.3504 100.238 48.5272C100.191 48.2798 100.164 48.0027 100.164 47.6999C100.164 47.3971 100.191 47.1208 100.238 46.8727C100.39 46.0494 100.754 45.5546 101.023 45.5546C101.291 45.5546 101.654 46.0494 101.807 46.8727C101.853 47.12 101.88 47.3971 101.88 47.6999Z" fill="#4BBEFF"/>
<path d="M101.881 47.7003C101.881 48.0031 101.854 48.2802 101.807 48.5276H92.5249C89.2046 48.5276 86.5136 51.2215 86.5136 54.5435V77.8369C86.5136 82.0729 83.0826 85.5065 78.8486 85.5065H68.4809V91.1634H66.8284V85.5065H40.6588V91.1634H39.0063V85.5065H14.714C13.6771 85.5065 12.8368 86.3483 12.8368 87.3852V91.1642H11.1843V87.386C11.1843 85.4343 12.7645 83.8528 14.714 83.8528H78.8478C82.1684 83.8528 84.8603 81.1597 84.8603 77.8369V54.5435C84.8603 50.3075 88.2913 46.8738 92.524 46.8738H101.807C101.854 47.1204 101.881 47.3975 101.881 47.7003Z" fill="#4BBEFF"/>
<path d="M79.6669 105.232V175.101C79.6669 177.465 77.752 179.382 75.3892 179.382H59.9212C57.5584 179.382 55.6426 177.465 55.6426 175.101V105.232C55.6426 104.722 61.0215 104.308 67.6548 104.308C74.2897 104.308 79.6669 104.722 79.6669 105.232Z" fill="#BAE6FF"/>
<path opacity="0.25" d="M79.6676 163.493V175.101C79.6676 177.465 77.7527 179.382 75.3899 179.382H59.9219C57.5599 179.382 55.6442 177.465 55.6442 175.101V163.493C55.6442 165.155 61.023 166.502 67.6563 166.502C74.2896 166.502 79.6676 165.155 79.6676 163.493Z" fill="#4BBEFF"/>
<path d="M75.2174 128.059H65.117C64.7991 128.059 64.5415 127.802 64.5415 127.483V115.298C64.5415 114.98 64.7991 114.722 65.117 114.722H75.2174C75.5352 114.722 75.7928 114.98 75.7928 115.298V127.483C75.7928 127.802 75.5352 128.059 75.2174 128.059Z" fill="#EFF3FE"/>
<path d="M74.3761 117.295H65.9562C65.6954 117.295 65.4835 117.084 65.4835 116.822C65.4835 116.561 65.6954 116.349 65.9562 116.349H74.3761C74.6369 116.349 74.8488 116.561 74.8488 116.822C74.848 117.084 74.6369 117.295 74.3761 117.295Z" fill="#BAE6FF"/>
<path d="M74.3761 120.097H65.9562C65.6954 120.097 65.4835 119.885 65.4835 119.624C65.4835 119.363 65.6954 119.151 65.9562 119.151H74.3761C74.6369 119.151 74.8488 119.363 74.8488 119.624C74.848 119.885 74.6369 120.097 74.3761 120.097Z" fill="#BAE6FF"/>
<path d="M74.3761 122.899H65.9562C65.6954 122.899 65.4835 122.687 65.4835 122.426C65.4835 122.165 65.6954 121.953 65.9562 121.953H74.3761C74.6369 121.953 74.8488 122.165 74.8488 122.426C74.848 122.687 74.6369 122.899 74.3761 122.899Z" fill="#BAE6FF"/>
<path d="M74.3761 125.7H65.9562C65.6954 125.7 65.4835 125.488 65.4835 125.227C65.4835 124.966 65.6954 124.754 65.9562 124.754H74.3761C74.6369 124.754 74.8488 124.966 74.8488 125.227C74.848 125.489 74.6369 125.7 74.3761 125.7Z" fill="#BAE6FF"/>
<path d="M67.6548 92.2173C61.0215 92.2173 55.6426 97.5995 55.6426 104.239V105.231C55.6426 105.741 61.0215 106.155 67.6548 106.155C74.2889 106.155 79.6669 105.741 79.6669 105.231V104.239C79.6669 97.5995 74.2897 92.2173 67.6548 92.2173Z" fill="#4BBEFF"/>
<path d="M68.7884 88.032H66.5219C64.4376 88.032 62.7482 89.7227 62.7482 91.8086V93.5499C62.7482 93.9611 64.9449 94.2953 67.6552 94.2953C70.3655 94.2953 72.5621 93.9619 72.5621 93.5499V91.8086C72.5621 89.7227 70.8727 88.032 68.7884 88.032Z" fill="#4BBEFF"/>
<path d="M51.8448 105.232V175.101C51.8448 177.465 49.9299 179.382 47.5671 179.382H32.0991C29.7363 179.382 27.8206 177.465 27.8206 175.101V105.232C27.8206 104.722 33.1994 104.308 39.8327 104.308C46.4668 104.308 51.8448 104.722 51.8448 105.232Z" fill="#BAE6FF"/>
<path opacity="0.25" d="M51.8456 163.493V175.101C51.8456 177.465 49.9306 179.382 47.567 179.382H32.0991C29.7371 179.382 27.8206 177.465 27.8206 175.101V163.493C27.8206 165.155 33.1993 166.502 39.8326 166.502C46.4675 166.502 51.8456 165.155 51.8456 163.493Z" fill="#4BBEFF"/>
<path d="M40.1681 125.043H30.0686C29.7507 125.043 29.493 124.785 29.493 124.467V115.297C29.493 114.979 29.7507 114.721 30.0686 114.721H40.1681C40.4859 114.721 40.7436 114.979 40.7436 115.297V124.467C40.7436 124.785 40.4859 125.043 40.1681 125.043Z" fill="#EFF3FE"/>
<path d="M39.3269 117.295H30.9079C30.6471 117.295 30.4352 117.084 30.4352 116.822C30.4352 116.561 30.6471 116.349 30.9079 116.349H39.3269C39.5877 116.349 39.7996 116.561 39.7996 116.822C39.7996 117.084 39.5877 117.295 39.3269 117.295Z" fill="#BAE6FF"/>
<path d="M39.3269 120.097H30.9079C30.6471 120.097 30.4352 119.885 30.4352 119.624C30.4352 119.363 30.6471 119.151 30.9079 119.151H39.3269C39.5877 119.151 39.7996 119.363 39.7996 119.624C39.7996 119.885 39.5877 120.097 39.3269 120.097Z" fill="#BAE6FF"/>
<path d="M36.8406 122.899H30.9063C30.6455 122.899 30.4336 122.687 30.4336 122.426C30.4336 122.165 30.6455 121.953 30.9063 121.953H36.8406C37.1014 121.953 37.3133 122.165 37.3133 122.426C37.3133 122.687 37.1014 122.899 36.8406 122.899Z" fill="#BAE6FF"/>
<path d="M39.8327 92.2173C33.1994 92.2173 27.8206 97.5995 27.8206 104.239V105.231C27.8206 105.741 33.1994 106.155 39.8327 106.155C46.4668 106.155 51.8448 105.741 51.8448 105.231V104.239C51.8448 97.5995 46.4668 92.2173 39.8327 92.2173Z" fill="#4BBEFF"/>
<path d="M40.8724 88.032H38.6059C36.5216 88.032 34.8322 89.7227 34.8322 91.8086V93.5499C34.8322 93.9611 37.0288 94.2953 39.7391 94.2953C42.4494 94.2953 44.6461 93.9619 44.6461 93.5499V91.8086C44.6453 89.7227 42.9559 88.032 40.8724 88.032Z" fill="#4BBEFF"/>
<path d="M24.0243 105.232V175.101C24.0243 177.465 22.1093 179.382 19.7466 179.382H4.27852C1.91574 179.382 0 177.465 0 175.101V105.232C0 104.722 5.37884 104.308 12.0121 104.308C18.647 104.308 24.0243 104.722 24.0243 105.232Z" fill="#BAE6FF"/>
<path opacity="0.25" d="M24.025 163.493V175.101C24.025 177.465 22.1101 179.382 19.7473 179.382H4.2793C1.91732 179.382 0.00158691 177.465 0.00158691 175.101V163.493C0.00158691 165.155 5.38043 166.502 12.0137 166.502C18.6478 166.502 24.025 165.155 24.025 163.493Z" fill="#4BBEFF"/>
<path d="M22.1165 122.241H12.0169C11.699 122.241 11.4414 121.983 11.4414 121.665V115.298C11.4414 114.98 11.699 114.722 12.0169 114.722H22.1165C22.4343 114.722 22.6919 114.98 22.6919 115.298V121.665C22.6919 121.983 22.4343 122.241 22.1165 122.241Z" fill="#EFF3FE"/>
<path d="M21.2752 117.295H12.8562C12.5954 117.295 12.3835 117.084 12.3835 116.822C12.3835 116.561 12.5946 116.349 12.8562 116.349H21.2752C21.5361 116.349 21.7479 116.561 21.7479 116.822C21.7479 117.084 21.5369 117.295 21.2752 117.295Z" fill="#BAE6FF"/>
<path d="M17.593 120.097H12.8562C12.5954 120.097 12.3835 119.885 12.3835 119.624C12.3835 119.363 12.5946 119.151 12.8562 119.151H17.593C17.8538 119.151 18.0657 119.363 18.0657 119.624C18.0649 119.885 17.8538 120.097 17.593 120.097Z" fill="#BAE6FF"/>
<path d="M12.0121 92.2173C5.37884 92.2173 0 97.5995 0 104.239V105.231C0 105.741 5.37884 106.155 12.0121 106.155C18.6462 106.155 24.0243 105.741 24.0243 105.231V104.239C24.0243 97.5995 18.647 92.2173 12.0121 92.2173Z" fill="#4BBEFF"/>
<path opacity="0.15" d="M24.0242 104.239V175.101C24.0242 176.283 23.5451 177.354 22.7722 178.128C21.9969 178.904 20.9279 179.382 19.7465 179.382H13.7873C16.1501 179.382 18.0659 177.466 18.0659 175.101V104.239C18.0659 98.6292 14.2264 93.9168 9.03369 92.5908C9.98635 92.3466 10.9839 92.2181 12.0129 92.2181C18.6469 92.2173 24.0242 97.5995 24.0242 104.239Z" fill="#4BBEFF"/>
<path opacity="0.15" d="M51.8463 104.239V175.101C51.8463 176.283 51.3672 177.354 50.5935 178.128C49.8182 178.904 48.7492 179.382 47.5678 179.382H41.6087C43.9715 179.382 45.8864 177.466 45.8864 175.101V104.239C45.8864 98.6292 42.0468 93.9168 36.8542 92.5908C37.8068 92.3466 38.8045 92.2181 39.8334 92.2181C46.4683 92.2173 51.8463 97.5995 51.8463 104.239Z" fill="#4BBEFF"/>
<path opacity="0.15" d="M79.6684 104.239V175.101C79.6684 176.283 79.1893 177.354 78.4156 178.128C77.6403 178.904 76.5712 179.382 75.3898 179.382H69.4307C71.7935 179.382 73.7084 177.466 73.7084 175.101V104.239C73.7084 98.6292 69.8689 93.9168 64.6763 92.5908C65.6289 92.3466 66.6265 92.2181 67.6554 92.2181C74.2911 92.2173 79.6684 97.5995 79.6684 104.239Z" fill="#4BBEFF"/>
<path d="M13.0518 88.032H10.7853C8.70099 88.032 7.0116 89.7227 7.0116 91.8086V93.5499C7.0116 93.9611 9.20822 94.2953 11.9186 94.2953C14.628 94.2953 16.8255 93.9619 16.8255 93.5499V91.8086C16.8255 89.7227 15.1361 88.032 13.0518 88.032Z" fill="#4BBEFF"/>
<path d="M88.4647 80.851L88.248 80.0406C88.142 79.6454 87.7833 79.3699 87.374 79.3699H83.7728C83.6388 79.3699 83.5144 79.431 83.4333 79.5378C83.3515 79.6446 83.325 79.7796 83.3595 79.9097L83.6011 80.8109L83.4494 80.851L83.2078 79.9498C83.1604 79.7723 83.1974 79.5876 83.3089 79.4422C83.4205 79.2968 83.5898 79.2133 83.7728 79.2133H87.374C87.8539 79.2133 88.2753 79.537 88.3988 80.0012L88.6155 80.8117L88.4647 80.851Z" fill="#7D383C"/>
<path d="M117.881 115.65C115.505 115.65 114.027 115.031 114.005 115.021C113.981 115.011 113.964 114.99 113.959 114.964C113.193 111.013 114.789 105.865 114.805 105.814C114.812 105.794 114.825 105.778 114.844 105.768C114.862 105.758 114.884 105.757 114.904 105.763C114.941 105.775 118.645 106.947 122.872 105.762C122.9 105.754 122.93 105.762 122.95 105.783C122.97 105.804 122.977 105.834 122.968 105.861C122.952 105.913 121.368 111.023 122.126 114.934C122.134 114.974 122.11 115.013 122.072 115.024C120.496 115.493 119.075 115.65 117.881 115.65ZM114.105 114.892C114.482 115.039 117.609 116.166 121.959 114.893C121.292 111.313 122.532 106.79 122.778 105.95C118.897 106.995 115.482 106.095 114.932 105.935C114.741 106.578 113.414 111.244 114.105 114.892Z" fill="#4BBEFF"/>
<path d="M184.834 53.5161C184.834 50.8141 182.643 48.6214 179.943 48.6214H171.827C171.318 48.6214 170.908 48.211 170.908 47.7018C170.908 47.1925 171.318 46.7821 171.827 46.7821H179.943C183.652 46.7821 186.672 49.8045 186.672 53.5169V103.704H184.834V53.5161Z" fill="#4BBEFF"/>
</g>
<path d="M75.6211 38.5005C75.6211 59.0015 59.0016 75.6205 38.5001 75.6205C17.9987 75.6205 1.37903 59.0013 1.37903 38.5005C1.37903 17.999 17.9987 1.37933 38.5001 1.37933C59.0014 1.37933 75.6211 17.999 75.6211 38.5005Z" fill="#4BBEFF"/>
<path d="M60.9063 31.3489L74.9975 31.762C73.6453 24.5257 70.3046 18.0322 65.4096 12.9304H60.9061L60.9063 31.3489Z" fill="white"/>
<path d="M22.3684 48.0276L1.69971 43.4015C2.56946 50.1573 5.31853 56.3283 9.31518 61.4417L18.5515 64.7223L22.3684 48.0276Z" fill="white"/>
<path d="M37.2816 29.9968C37.2158 30.6587 37.8198 31.2596 38.6295 31.3402C39.4385 31.42 40.1481 30.9489 40.214 30.287L41.2542 19.782C41.3199 19.1205 40.7158 18.5187 39.9068 18.4386C39.0963 18.3585 38.387 18.8294 38.322 19.4918L37.2816 29.9968Z" fill="#F6B968"/>
<path d="M37.3238 30.0308L37.319 19.0782C37.3532 18.7233 38.6218 18.3056 38.9428 18.116L37.955 30.2004C37.9411 30.3465 37.7647 30.8876 37.7955 31.025C37.4754 30.7721 37.2856 30.4129 37.3238 30.0308Z" fill="#EEAA59"/>
<path d="M34.5082 31.6529C34.4697 32.3163 35.0965 32.8941 35.9091 32.9412C36.7214 32.9884 37.4119 32.4882 37.4506 31.8248L38.1292 21.1295C38.1675 20.466 37.4793 20.0457 36.6669 19.998C35.8546 19.9507 35.1649 20.4502 35.1257 21.1143L34.5082 31.6529Z" fill="#F6B968"/>
<path d="M34.5117 31.607L35.1029 20.8061C35.1376 20.4519 35.8096 20.4515 36.1313 20.2618L34.951 32.1757C34.9368 32.3219 34.9525 32.4641 34.9831 32.6015C34.6631 32.3484 34.4737 31.9891 34.5117 31.607Z" fill="#EEAA59"/>
<path d="M31.5421 31.8975C31.5022 32.5614 32.13 33.1391 32.9421 33.1865C33.7547 33.234 34.446 32.7342 34.4845 32.07L35.1005 21.5326C35.1407 20.8677 34.5131 20.2907 33.7003 20.2433C32.8886 20.1959 32.1983 20.6955 32.1589 21.3594L31.5421 31.8975Z" fill="#F6B968"/>
<path d="M66.4246 28.8567C66.5309 28.7569 66.6573 28.6905 66.7881 28.6508L66.8401 27.7801C66.8498 27.6006 67.0033 27.4645 67.1838 27.4741C67.3618 27.4847 67.4994 27.6385 67.4888 27.818L67.4367 28.6866C67.5517 28.7366 67.6575 28.8096 67.7473 28.9068C68.0993 29.2865 68.0767 29.8787 67.6985 30.2297C67.3185 30.5817 66.7259 30.5596 66.375 30.1804C66.0225 29.8007 66.0451 29.2083 66.4246 28.8567Z" fill="#33302F"/>
<path d="M69.5616 28.6088L69.6126 27.7365C69.6232 27.5576 69.7764 27.4213 69.9559 27.4317C70.1348 27.4422 70.2719 27.596 70.2613 27.7746L70.2103 28.6439C70.3239 28.6933 70.4302 28.766 70.5209 28.8636C70.8727 29.2424 70.8489 29.8358 70.4716 30.1869C70.0915 30.5384 69.499 30.5162 69.1486 30.1365C68.7952 29.7588 68.8187 29.1652 69.1973 28.8141C69.3053 28.7145 69.4295 28.6485 69.5616 28.6088Z" fill="#33302F"/>
<path d="M72.373 28.5542L72.424 27.6826C72.4341 27.5036 72.5872 27.3672 72.7667 27.3773C72.9466 27.3879 73.0833 27.5416 73.0727 27.7209L73.022 28.5893C73.1353 28.6392 73.2415 28.712 73.3326 28.809C73.684 29.1883 73.6611 29.7818 73.2819 30.1337C72.9033 30.4854 72.3098 30.4631 71.9589 30.0832C71.6069 29.7036 71.629 29.1119 72.0085 28.7595C72.1158 28.6599 72.2409 28.5942 72.373 28.5542Z" fill="#33302F"/>
<path d="M70.4074 28.9638C70.7561 29.3394 70.7335 29.9246 70.3586 30.2725C69.9837 30.6203 69.398 30.5979 69.0508 30.2244C68.7034 29.8481 68.7247 29.2634 69.1001 28.9155C69.4751 28.5684 70.059 28.5904 70.4074 28.9638Z" fill="#22201F"/>
<path d="M73.1955 28.9301C73.5428 29.3055 73.5221 29.8911 73.1467 30.2395C72.7723 30.5868 72.1861 30.5641 71.8384 30.1902C71.4921 29.8143 71.5135 29.2292 71.8884 28.8819C72.2628 28.5342 72.8481 28.5566 73.1955 28.9301Z" fill="#22201F"/>
<path d="M67.6423 28.999C67.991 29.3743 67.9689 29.9593 67.5935 30.3067C67.2195 30.6549 66.6339 30.6328 66.2861 30.2591C65.9382 29.8832 65.9599 29.2985 66.3343 28.9508C66.7094 28.6031 67.2954 28.6248 67.6423 28.999Z" fill="#22201F"/>
<path d="M41.4761 15.1245C40.654 15.4145 31.0174 20.6108 30.7503 22.0006C30.5229 23.1811 30.6088 30.5185 30.6695 32.5368C30.6712 32.6008 30.6695 32.7898 30.6695 32.7898C30.6695 33.5913 31.4045 34.2395 32.3125 34.2395C33.2191 34.2395 33.9545 33.5913 33.9545 32.7898V24.3611C34.0521 24.0844 34.1427 23.8948 34.2286 23.8212C34.789 23.3402 39.4758 21.143 41.7221 20.9933L44.5177 17.8787L41.5767 15.1035C41.5335 15.1101 41.4968 15.1171 41.4761 15.1245Z" fill="#FFCC90"/>
<path d="M31.7836 32.961C31.7836 32.961 31.5656 33.0693 31.2807 33.0718L31.2783 33.073L31.2756 33.0718C30.991 33.0734 30.7636 32.9692 30.7636 32.9692C30.7316 32.2859 30.6781 31.2637 30.8565 30.8662C30.9352 30.6891 31.0543 30.6327 31.164 30.6378L31.1652 30.6364L31.1668 30.6369L31.17 30.6356V30.6374C31.2783 30.6301 31.4037 30.685 31.4991 30.8607C31.7133 31.2541 31.7521 32.2774 31.7836 32.961Z" fill="#FFE0BC"/>
<path d="M31.0343 21.684C31.0024 21.7342 31.0186 21.8028 31.0686 21.8369L31.6543 22.2366C31.7046 22.2708 31.7717 22.2581 31.8032 22.2087C31.8346 22.1587 31.8186 22.0903 31.7676 22.0562L31.1837 21.6563C31.1324 21.6213 31.0663 21.6344 31.0343 21.684Z" fill="#FFE0BC"/>
<path d="M30.7984 22.0588C30.7669 22.1096 30.7823 22.178 30.8316 22.2129L31.4168 22.6123C31.4682 22.6465 31.5344 22.6344 31.566 22.5844C31.597 22.5345 31.5814 22.4662 31.5306 22.432L30.9461 22.0317C30.8949 21.9968 30.8284 22.01 30.7984 22.0588Z" fill="#FFE0BC"/>
<path d="M22.2624 23.6661L19.7325 37.6281L50.3776 43.181L52.9075 29.219L22.2624 23.6661Z" fill="#C1E4EA"/>
<path d="M49.2658 41.8919L21.2238 36.8115L23.3719 24.9559L51.4137 30.0365L49.2658 41.8919ZM22.4821 35.9393L48.3936 40.6343L50.1564 30.9085L24.2444 26.213L22.4821 35.9393Z" fill="#2A7B6D"/>
<path d="M29.2831 32.1492C29.1046 33.1393 28.1567 33.7955 27.1666 33.6165C26.1773 33.4368 25.5205 32.4896 25.7 31.5002C25.8792 30.5098 26.8266 29.8534 27.8163 30.0329C28.806 30.2119 29.4628 31.1592 29.2831 32.1492Z" fill="#2A7B6D"/>
<path d="M46.938 35.3488C46.7587 36.3382 45.8114 36.9944 44.8222 36.8154C43.8318 36.6358 43.1753 35.6892 43.3542 34.6993C43.5341 33.7091 44.4808 33.0532 45.4704 33.232C46.4601 33.4108 47.117 34.3583 46.938 35.3488Z" fill="#2A7B6D"/>
<path d="M40.5001 34.1812C40.0814 36.4905 37.8708 38.0226 35.5618 37.6044C33.2527 37.1862 31.7195 34.9753 32.1384 32.666C32.5566 30.357 34.7675 28.8254 37.0767 29.2433C39.3851 29.662 40.9178 31.8715 40.5001 34.1812Z" fill="#2A7B6D"/>
<path d="M41.5766 15.1037L41.7221 20.9933C42.1877 20.963 42.5506 21.0178 42.7475 21.1957C44.2523 22.5585 44.0885 23.6732 43.0052 25.4153C42.3731 26.4324 41.5166 27.4358 40.4914 29.3504C38.2312 33.5772 39.7692 33.7385 40.5573 34.2395C41.9743 35.1415 44.3361 29.8875 46.2909 28.4423C48.9347 26.4885 52.4427 24.0629 52.4427 24.0629H60.9065V15.1245C60.9065 15.1245 43.2473 14.8497 41.5766 15.1037Z" fill="#FFCC90"/>
<path d="M41.5784 33.4245C41.5784 33.4245 41.1584 33.2361 40.7049 32.8889C40.7027 32.8877 40.7027 32.8869 40.7008 32.8858C40.7008 32.8858 40.6981 32.884 40.6972 32.8822C40.2445 32.5345 39.9539 32.1776 39.9539 32.1776C40.3695 31.6338 40.9814 30.813 41.5353 30.7384C41.7805 30.705 42.0102 30.8104 42.1799 30.9477H42.1818L42.1845 30.9504L42.1895 30.953L42.189 30.9543C42.3656 31.0825 42.5271 31.2769 42.5587 31.5231C42.6301 32.0773 41.9949 32.8814 41.5784 33.4245Z" fill="#FFE0BC"/>
<path d="M43.1826 27.6083C43.1513 27.6583 43.2079 27.7515 43.312 27.8193L44.5058 28.5917C44.609 28.6584 44.7189 28.6719 44.7502 28.6237C44.7834 28.574 44.7243 28.4796 44.6205 28.4127L43.4294 27.6401C43.3257 27.5722 43.2153 27.5587 43.1826 27.6083Z" fill="#FFE0BC"/>
<path d="M42.9426 27.9806C42.9099 28.0309 42.9682 28.1252 43.07 28.192L44.263 28.9644C44.3671 29.0311 44.4774 29.0458 44.5091 28.997C44.5409 28.9466 44.4829 28.8521 44.3794 28.7849L43.1869 28.0119C43.0834 27.9457 42.9729 27.9314 42.9426 27.9806Z" fill="#FFE0BC"/>
<path d="M60.9063 13.4263H56.2704V27.5549H60.9063V13.4263Z" fill="#F2EBEC"/>
<path d="M41.8517 54.8423C41.5021 55.4196 40.7504 55.6032 40.1729 55.254C39.5956 54.9034 39.4117 54.1508 39.7621 53.5738L42.1713 49.6032C42.5214 49.0259 43.2731 48.8414 43.8505 49.1915C44.4278 49.5411 44.6109 50.2933 44.2613 50.8703L41.8517 54.8423Z" fill="#F6B968"/>
<path d="M36.8478 57.2731C36.226 57.5368 33.9355 57.9006 33.6729 57.2777L33.1316 56.7013C32.868 56.0803 32.0182 54.068 32.573 54.4525C35.3946 56.41 40.1744 53.2126 40.1744 53.2126C40.7959 52.9503 41.5132 53.2407 41.7753 53.863C42.0388 54.4845 41.7478 55.2018 41.1258 55.4645L36.8478 57.2731Z" fill="#F6B968"/>
<path d="M38.2117 56.1893L42.2367 53.9632C42.3743 53.8877 42.4893 53.7893 42.5817 53.6765C42.7073 53.5703 42.8111 53.4411 42.8839 53.2864L44.2984 49.7021C44.3954 49.4997 42.2995 52.962 42.2995 52.962L36.1036 56.7735C36.8794 56.6939 37.8528 56.3871 38.2117 56.1893Z" fill="#EEAA59"/>
<path d="M44.859 54.3789C44.5797 54.9925 43.8552 55.2649 43.2406 54.9852C42.626 54.7059 42.3541 53.9818 42.6333 53.3663L44.5554 49.1376C44.8352 48.5235 45.5597 48.2516 46.1735 48.5309C46.7886 48.8091 47.06 49.5348 46.7816 50.1497L44.859 54.3789Z" fill="#F6B968"/>
<path d="M40.177 57.3854C39.5905 57.7203 37.3599 58.3529 37.0257 57.7668L36.4193 57.2576C36.0851 56.671 36.6725 56.5179 37.2587 56.182L42.9999 52.9598C43.5859 52.6244 44.3326 52.8282 44.6675 53.4153C45.0034 54.0018 44.7977 54.7481 44.212 55.0829L40.177 57.3854Z" fill="#F6B968"/>
<path d="M40.2133 56.3195L44.2387 54.0947C44.3763 54.0188 44.4908 53.9199 44.5842 53.8081C44.7084 53.7014 44.8123 53.5703 44.8864 53.4161L46.8186 49.3567C46.9156 49.1548 46.9428 48.9417 46.9183 48.7357L44.3015 53.0929L38.1047 56.9044C38.8816 56.8247 39.8542 56.5177 40.2133 56.3195Z" fill="#EEAA59"/>
<path d="M46.9742 54.402C46.6945 55.0153 45.9708 55.2872 45.3559 55.0083C44.7412 54.7295 44.4693 54.0049 44.7482 53.3899L46.6708 49.1618C46.9501 48.5461 47.6746 48.2747 48.2892 48.5545C48.9038 48.8324 49.1752 49.5579 48.8965 50.1734L46.9742 54.402Z" fill="#F6B968"/>
<path d="M42.2937 57.4085C41.7068 57.7433 39.4763 58.3764 39.1411 57.7894L38.5352 57.2796C38.2009 56.6939 38.7886 56.5394 39.3744 56.2059L45.1156 52.9829C45.7012 52.648 46.4484 52.8521 46.7819 53.4387C47.1178 54.0242 46.913 54.771 46.3275 55.1058L42.2937 57.4085Z" fill="#F6B968"/>
<path d="M45.8298 57.7599C45.1871 58.2904 44.1556 58.1004 43.5249 57.3362C42.8961 56.5726 43.0473 55.6166 43.69 55.0861L49.046 50.9771C49.8459 50.4461 50.9299 50.0796 51.4737 50.7844C52.1789 51.6957 51.3707 52.673 50.4629 53.5258L45.8298 57.7599Z" fill="#FFCC90"/>
<path d="M43.6899 55.0862C42.9995 55.4327 36.7168 56.6315 35.9679 55.5144C34.9843 54.0528 35.3558 53.1485 36.6321 51.9078C37.3766 51.1831 38.3088 50.518 39.572 49.1185C42.3594 46.0325 41.1707 45.4819 40.5394 44.9877C39.3908 44.0906 36.4478 47.863 34.4977 48.6717C31.8629 49.7629 28.4006 51.0731 28.4006 51.0731L22.3681 49.6501L20.74 57.1819C20.74 57.1819 35.0158 60.9654 35.7683 60.894C36.4458 60.8292 43.8657 59.1348 45.8088 57.7791L43.8581 54.9306C43.7948 55.0074 43.7387 55.0612 43.6899 55.0862Z" fill="#FFCC90"/>
<path d="M22.2655 48.4797L19.3361 61.285L23.5373 62.2461L26.4667 49.4408L22.2655 48.4797Z" fill="#F2EBEC"/>
<path d="M16.2713 61.1413C16.2025 61.0239 16.1091 60.9306 16.0032 60.8593L16.1931 60.0713C16.2324 59.9089 16.1341 59.746 15.9706 59.7056C15.8091 59.667 15.6452 59.7667 15.6058 59.9296L15.4161 60.7149C15.3011 60.7287 15.1871 60.765 15.0802 60.8266C14.6646 61.0682 14.5237 61.6012 14.7653 62.0163C15.0073 62.4318 15.5401 62.5743 15.9552 62.331C16.3714 62.0894 16.5124 61.5576 16.2713 61.1413Z" fill="#A83A48"/>
<path d="M13.5487 60.0689L13.7398 59.2799C13.7782 59.1179 13.6791 58.9551 13.5164 58.9156C13.354 58.8769 13.1909 58.9755 13.1516 59.1382L12.9618 59.9248C12.8468 59.9378 12.7322 59.9736 12.6269 60.0357C12.2104 60.2773 12.0695 60.8108 12.3104 61.2263C12.5523 61.6418 13.086 61.7826 13.501 61.5401C13.9168 61.2995 14.0578 60.7658 13.8158 60.3514C13.7482 60.234 13.6543 60.1411 13.5487 60.0689Z" fill="#A83A48"/>
<path d="M11.0625 59.2578L11.2536 58.4699C11.2935 58.3078 11.1941 58.1451 11.0312 58.1051C10.8685 58.0664 10.7059 58.1653 10.6671 58.3277L10.4766 59.1134C10.3611 59.1262 10.247 59.1622 10.1404 59.2243C9.7246 59.4668 9.58377 60.001 9.82623 60.4162C10.0673 60.8312 10.6012 60.9729 11.0155 60.7304C11.4319 60.4879 11.5726 59.9553 11.3306 59.5398C11.2629 59.4216 11.1689 59.329 11.0625 59.2578Z" fill="#A83A48"/>
<path d="M12.6995 60.1562C12.2876 60.3954 12.1497 60.9222 12.3877 61.3325C12.6269 61.7442 13.1541 61.8823 13.5636 61.6445C13.9751 61.4053 14.1149 60.8784 13.8757 60.4667C13.6362 60.0569 13.1103 59.918 12.6995 60.1562Z" fill="#702730"/>
<path d="M10.2294 59.3687C9.8181 59.6079 9.67864 60.1346 9.91785 60.5465C10.1558 60.9573 10.684 61.0957 11.0939 60.857C11.5042 60.6178 11.6438 60.0901 11.4053 59.6817C11.1661 59.2707 10.6397 59.1309 10.2294 59.3687Z" fill="#702730"/>
<path d="M15.1483 60.937C14.7371 61.1762 14.5978 61.7039 14.8372 62.1134C15.0756 62.5242 15.6026 62.664 16.0131 62.4262C16.4239 62.1859 16.563 61.6592 16.3242 61.2498C16.086 60.8394 15.5591 60.6991 15.1483 60.937Z" fill="#702730"/>
<path d="M40.6712 46.5453C40.6712 46.5453 40.4761 46.2486 40.1541 45.943C40.1531 45.9421 40.1522 45.9421 40.1517 45.9407C40.1503 45.9407 40.1498 45.9389 40.1476 45.938C39.8269 45.6353 39.5174 45.4577 39.5174 45.4577C39.1531 45.8424 38.602 46.4113 38.6124 46.8437C38.617 47.0365 38.7271 47.1984 38.8531 47.3103C38.8531 47.3127 38.8541 47.3136 38.855 47.3144C38.8558 47.3153 38.8574 47.3172 38.8582 47.3182L38.8591 47.3172C38.9787 47.4368 39.1475 47.5353 39.3393 47.5297C39.7708 47.516 40.3078 46.9313 40.6712 46.5453Z" fill="#FFE0BC"/>
<path d="M51.3519 52.3184C51.3519 52.3184 51.2498 52.1127 51.0474 51.9264C51.0463 51.9264 51.046 51.9264 51.046 51.924C51.0441 51.924 51.0441 51.9231 51.0427 51.9231C50.8398 51.7373 50.6227 51.6504 50.6227 51.6504C50.2556 52.0321 49.7012 52.5994 49.629 52.9496C49.5963 53.1047 49.6544 53.2161 49.7353 53.284C49.7358 53.2864 49.7361 53.2854 49.7367 53.2864C49.7375 53.2869 49.7375 53.2869 49.7375 53.2888L49.7384 53.2879C49.8133 53.362 49.931 53.4121 50.0879 53.3694C50.4411 53.2782 50.9849 52.7008 51.3519 52.3184Z" fill="#FFE0BC"/>
<path d="M36.2222 48.6248C36.2636 48.5885 36.3585 48.6272 36.4352 48.7117L37.3216 49.6926C37.3984 49.7776 37.4266 49.8762 37.3866 49.9135C37.346 49.9497 37.2505 49.9111 37.1741 49.8252L36.2882 48.8457C36.2107 48.7614 36.182 48.6611 36.2222 48.6248Z" fill="#FFE0BC"/>
<path d="M36.5284 48.3497C36.57 48.3129 36.6653 48.3507 36.7416 48.4347L37.628 49.4155C37.7043 49.5006 37.7339 49.5997 37.6933 49.6365C37.6524 49.6738 37.5568 49.6337 37.4794 49.5485L36.5946 48.5677C36.5171 48.484 36.488 48.3843 36.5284 48.3497Z" fill="#FFE0BC"/>
<path d="M44.6279 56.7718C44.6739 56.7432 44.7493 56.7777 44.7962 56.8486L45.3335 57.6739C45.3796 57.7452 45.3796 57.8275 45.334 57.8561C45.2875 57.8869 45.2122 57.8506 45.1657 57.7793L44.6284 56.9554C44.5815 56.8849 44.5823 56.8015 44.6279 56.7718Z" fill="#FFE0BC"/>
<path d="M44.9772 56.5527C45.0241 56.5238 45.0996 56.5573 45.1461 56.6287L45.6831 57.4536C45.73 57.5253 45.73 57.6073 45.6836 57.6362C45.637 57.6656 45.5618 57.6312 45.5152 57.5594L44.9779 56.735C44.9312 56.6626 44.9312 56.5813 44.9772 56.5527Z" fill="#FFE0BC"/>
</svg>
