<svg width="139" height="189" viewBox="0 0 139 189" fill="none" xmlns="http://www.w3.org/2000/svg">
<g clip-path="url(#clip0_1_788)">
<path d="M103.983 64.3177C104.203 64.01 104.286 63.625 104.216 63.2536C103.221 57.996 105.231 55.9231 105.231 55.9231C105.231 55.3784 111.386 54.9366 119.004 54.932H119.349C122.511 54.9338 125.421 55.0116 127.745 55.1405C127.757 55.1414 127.769 55.1414 127.781 55.1424C127.923 55.1498 128.063 55.1587 128.201 55.1661C131.211 55.3477 133.122 55.6195 133.122 55.9231C133.122 55.9231 135.134 57.996 134.138 63.2536C134.067 63.625 134.15 64.01 134.371 64.3177C134.532 64.5426 134.678 64.7702 134.68 65.2013C134.684 65.6151 134.532 65.8139 134.354 65.9764C134.015 66.2864 133.858 66.7505 133.932 67.2049C134.03 67.8175 134.163 68.728 134.293 69.87C134.724 73.6602 135.123 80.0075 134.115 86.5541C133.863 88.1899 133.524 89.8383 133.074 91.462C132.929 91.9876 132.984 92.5486 133.23 93.0355C133.378 93.3255 133.459 93.7864 133.283 94.5098C132.74 96.7419 123.332 101.185 121.876 106.515H116.474C115.917 104.476 114.195 102.564 112.25 100.858C109.114 98.1078 105.402 95.8882 105.067 94.5098C104.891 93.7864 104.973 93.3255 105.12 93.0355C105.367 92.5486 105.421 91.9876 105.276 91.462C104.827 89.8383 104.488 88.1899 104.236 86.5541C103.228 80.0075 103.626 73.6602 104.058 69.87C104.188 68.7271 104.32 67.8175 104.418 67.2049C104.492 66.7505 104.336 66.2864 103.996 65.9764C103.818 65.813 103.666 65.6151 103.67 65.2013C103.676 64.7702 103.822 64.5426 103.983 64.3177Z" fill="#D0E0FA"/>
<path opacity="0.5" d="M119.349 55.6307C122.41 55.6326 125.298 55.7038 127.703 55.8383C127.716 55.8393 127.729 55.8393 127.742 55.8402H127.744C127.885 55.8476 128.022 55.8556 128.158 55.8644C130.883 56.0283 131.993 56.2242 132.421 56.3299L132.776 56.6218C132.933 56.8573 133.172 57.2866 133.368 57.9341C133.667 58.9173 133.924 60.6164 133.449 63.1223C133.343 63.6823 133.472 64.2665 133.802 64.7246C133.925 64.8954 133.978 64.9811 133.98 65.2055C133.981 65.3679 133.955 65.3921 133.882 65.4592C133.369 65.927 133.13 66.6206 133.24 67.3138C133.331 67.8766 133.466 68.7899 133.596 69.9486C133.87 72.3498 134.02 74.7844 134.043 77.1846C134.075 80.453 133.866 83.5697 133.423 86.4475C133.163 88.1327 132.82 89.7568 132.4 91.2744C132.208 91.9699 132.281 92.7068 132.606 93.3492C132.667 93.4684 132.746 93.7556 132.603 94.3431C132.569 94.4874 132.389 94.837 131.579 95.566C130.927 96.1526 130.031 96.8397 129.082 97.5664C126.146 99.8171 122.527 102.59 121.365 105.814H116.99C116.372 104.092 114.999 102.335 112.714 100.331C111.575 99.3311 110.35 98.3936 109.271 97.5654C108.323 96.8388 107.427 96.1517 106.775 95.5651C105.966 94.8361 105.786 94.4865 105.751 94.3431C105.609 93.7556 105.689 93.4684 105.748 93.3492C106.073 92.7068 106.147 91.9699 105.954 91.2744C105.535 89.7568 105.19 88.1327 104.931 86.4475C104.488 83.5697 104.279 80.453 104.31 77.1846C104.334 74.7835 104.484 72.3498 104.757 69.9486C104.889 68.7899 105.023 67.8766 105.113 67.3138C105.224 66.6206 104.984 65.927 104.471 65.4592C104.398 65.3931 104.371 65.3679 104.373 65.2055C104.375 64.9811 104.429 64.8954 104.552 64.7237C104.881 64.2651 105.009 63.6814 104.903 63.1223C104.429 60.6155 104.685 58.9163 104.984 57.9332C105.18 57.2856 105.42 56.8564 105.576 56.6209H105.93V56.3262C106.343 56.2224 107.393 56.039 109.957 55.8765C112.452 55.7192 115.664 55.6307 119.003 55.6288H119.349V55.6307Z" fill="white"/>
<path d="M104.06 69.8699H134.293C134.724 73.6597 135.123 80.0075 134.115 86.5541H104.237C103.229 80.0075 103.629 73.6597 104.06 69.8699Z" fill="#4BBEFF"/>
<path d="M119.519 91.2153C128.187 91.2153 131.581 92.0011 131.614 92.009C131.629 92.0127 131.638 92.0281 131.635 92.0425C131.631 92.0579 131.617 92.0663 131.601 92.0635C131.568 92.056 128.179 91.2712 119.519 91.2712C110.857 91.2712 106.748 92.056 106.708 92.0635C106.692 92.0663 106.678 92.057 106.675 92.0416C106.672 92.0262 106.682 92.0118 106.697 92.009C106.737 92.0002 110.851 91.2153 119.519 91.2153Z" fill="white"/>
<path d="M119.574 65.893C129.572 65.893 133.485 66.6788 133.524 66.6863C133.539 66.6891 133.549 66.7044 133.546 66.7198C133.543 66.7352 133.528 66.7449 133.513 66.7412C133.475 66.7333 129.565 65.9489 119.575 65.9489C109.581 65.9489 104.842 66.7333 104.794 66.7412C104.779 66.7431 104.765 66.7333 104.763 66.7179C104.759 66.7026 104.77 66.6881 104.786 66.6853C104.831 66.6788 109.575 65.893 119.574 65.893Z" fill="white"/>
<path d="M119.574 63.1195C129.572 63.1195 133.485 63.9053 133.524 63.9127C133.539 63.9155 133.549 63.9309 133.546 63.9453C133.543 63.9607 133.528 63.9704 133.513 63.9677C133.475 63.9597 129.565 63.1753 119.575 63.1753C109.581 63.1753 104.842 63.9597 104.794 63.9677C104.779 63.9704 104.765 63.9597 104.763 63.9444C104.759 63.929 104.77 63.9146 104.786 63.9118C104.831 63.9039 109.575 63.1195 119.574 63.1195Z" fill="white"/>
<path opacity="0.25" d="M114.391 54.9906C115.833 54.9529 117.386 54.932 119.005 54.931H119.35C126.968 54.9357 133.123 55.3775 133.123 55.9221C133.123 55.9221 135.135 57.9951 134.138 63.2526C134.068 63.6241 134.151 64.0096 134.371 64.3168C134.532 64.5416 134.678 64.7693 134.681 65.2003C134.685 65.6142 134.533 65.813 134.355 65.9754C134.015 66.2855 133.859 66.7496 133.933 67.2039C134.03 67.8166 134.163 68.7271 134.294 69.869C134.725 73.6593 135.124 80.0071 134.115 86.5532C133.863 88.189 133.524 89.8374 133.075 91.4611C132.93 91.9867 132.985 92.5476 133.231 93.0346C133.378 93.3246 133.46 93.7854 133.284 94.5088C132.771 96.62 124.327 100.709 122.182 105.655C121.836 105.433 120.622 105.151 119.176 105.151C118.584 105.151 118.03 105.199 117.559 105.269C116.966 105.359 116.503 105.487 116.261 105.605C115.84 103.12 116.778 100.572 118.803 98.995C121.235 97.1013 123.457 95.5595 123.712 94.5088C123.888 93.7854 123.807 93.3246 123.659 93.0346C123.413 92.5476 123.358 91.9867 123.503 91.4611C123.952 89.8374 124.292 88.189 124.543 86.5532C125.551 80.0071 125.152 73.6593 124.722 69.869C124.592 68.7262 124.459 67.8166 124.361 67.2039C124.288 66.7496 124.443 66.2855 124.783 65.9754C124.961 65.812 125.113 65.6142 125.109 65.2003C125.106 64.7693 124.96 64.5416 124.8 64.3168C124.579 64.0096 124.496 63.6241 124.567 63.2526C125.562 57.9951 123.551 55.9221 123.551 55.9221H123.55C123.55 55.4938 119.734 55.1289 114.391 54.9906Z" fill="white"/>
<path opacity="0.25" d="M103.983 64.3177C104.203 64.01 104.285 63.625 104.215 63.2536C103.22 57.996 105.231 55.9231 105.231 55.9231C105.231 55.3784 111.386 54.9366 119.004 54.932H119.349C122.511 54.9338 125.421 55.0116 127.745 55.1405C125.693 55.0432 117.31 54.8724 112.998 58.212C108.061 62.0344 106.455 93.3353 112.251 100.858C109.116 98.1078 105.404 95.8882 105.069 94.5098C104.893 93.7864 104.975 93.3255 105.122 93.0355C105.369 92.5486 105.423 91.9876 105.278 91.462C104.829 89.8383 104.49 88.1899 104.237 86.5541C103.23 80.0075 103.628 73.6602 104.06 69.8699C104.189 68.7271 104.322 67.8175 104.42 67.2049C104.493 66.7505 104.338 66.2864 103.998 65.9764C103.82 65.813 103.668 65.6151 103.672 65.2013C103.675 64.7702 103.822 64.5426 103.983 64.3177Z" fill="#4BBEFF"/>
<path d="M121.878 106.515C121.878 106.728 120.669 106.9 119.177 106.9C117.685 106.9 116.477 106.728 116.477 106.515C116.477 106.301 117.685 106.128 119.177 106.128C120.669 106.128 121.878 106.301 121.878 106.515Z" fill="#D0E0FA"/>
<path d="M112.252 89.2816C112.252 89.6456 111.956 89.9417 111.591 89.9417C111.226 89.9417 110.929 89.6456 110.929 89.2816C110.929 88.918 111.226 88.6219 111.591 88.6219C111.957 88.6219 112.252 88.9166 112.252 89.2816Z" fill="white"/>
<path d="M120.737 94.2309C120.737 94.4739 120.54 94.6708 120.297 94.6708C120.053 94.6708 119.856 94.4739 119.856 94.2309C119.856 93.9879 120.053 93.7915 120.297 93.7915C120.54 93.7915 120.737 93.9879 120.737 94.2309Z" fill="white"/>
<path d="M122.833 89.282C122.833 89.6768 122.513 89.9966 122.117 89.9966C121.722 89.9966 121.401 89.6768 121.401 89.282C121.401 88.8873 121.722 88.5674 122.117 88.5674C122.512 88.5665 122.833 88.8873 122.833 89.282Z" fill="white"/>
<path d="M112.692 68.4934C112.692 68.7364 112.495 68.9333 112.251 68.9333C112.008 68.9333 111.811 68.7364 111.811 68.4934C111.811 68.2504 112.008 68.0535 112.251 68.0535C112.495 68.0535 112.692 68.2513 112.692 68.4934Z" fill="white"/>
<path d="M123.769 67.6136C123.769 67.8566 123.572 68.0535 123.328 68.0535C123.085 68.0535 122.888 67.8566 122.888 67.6136C122.888 67.3706 123.085 67.1737 123.328 67.1737C123.572 67.1737 123.769 67.3706 123.769 67.6136Z" fill="white"/>
<path d="M123.327 59.2548C123.327 59.5285 123.105 59.7496 122.832 59.7496C122.559 59.7496 122.336 59.5276 122.336 59.2548C122.336 58.981 122.559 58.7604 122.832 58.7604C123.105 58.7604 123.327 58.982 123.327 59.2548Z" fill="white"/>
<path d="M113.684 61.5097C113.684 61.9333 113.341 62.276 112.917 62.276C112.492 62.276 112.149 61.9333 112.149 61.5097C112.149 61.0861 112.492 60.743 112.917 60.743C113.341 60.743 113.684 61.0861 113.684 61.5097Z" fill="white"/>
<path d="M119.644 61.7844C119.644 62.0562 119.424 62.2764 119.151 62.2764C118.88 62.2764 118.659 62.0562 118.659 61.7844C118.659 61.5125 118.879 61.2928 119.151 61.2928C119.423 61.2928 119.644 61.5125 119.644 61.7844Z" fill="white"/>
<path d="M130.215 61.0698C130.215 61.3128 130.017 61.5097 129.774 61.5097C129.53 61.5097 129.333 61.3128 129.333 61.0698C129.333 60.8268 129.53 60.6299 129.774 60.6299C130.017 60.6299 130.215 60.8268 130.215 61.0698Z" fill="white"/>
<path d="M129.775 89.6116C129.775 89.8546 129.577 90.0515 129.334 90.0515C129.09 90.0515 128.893 89.8546 128.893 89.6116C128.893 89.3686 129.09 89.1717 129.334 89.1717C129.577 89.1717 129.775 89.3686 129.775 89.6116Z" fill="white"/>
<path d="M136.93 183.694H113.421C112.279 183.694 111.354 182.77 111.354 181.63V143.195H139V181.63C138.999 182.77 138.073 183.694 136.93 183.694Z" fill="#D1E1FB"/>
<path d="M124.929 183.694H101.421C100.278 183.694 99.3523 182.77 99.3523 181.63V143.195H126.998V181.63C126.997 182.77 126.072 183.694 124.929 183.694Z" fill="#EFF3FC"/>
<path d="M137.16 144.986H124.767V104.267H137.202C138.194 104.267 138.999 105.07 138.999 106.061V143.152C138.999 144.164 138.176 144.986 137.16 144.986Z" fill="#4BBEFF"/>
<path d="M125.203 144.986H101.148C100.157 144.986 99.3523 144.184 99.3523 143.194V106.059C99.3523 105.07 100.156 104.267 101.148 104.267H125.203C126.195 104.267 126.998 105.069 126.998 106.059V143.194C126.998 144.184 126.195 144.986 125.203 144.986Z" fill="#D0DEF1"/>
<path d="M101.149 144.55C100.399 144.55 99.7903 143.942 99.7903 143.194V106.06C99.7903 105.313 100.399 104.705 101.149 104.705H125.203C125.952 104.705 126.561 105.313 126.561 106.06V143.194C126.561 143.942 125.952 144.55 125.203 144.55H101.149Z" fill="#4BBEFF"/>
<path d="M103.045 143.502C101.829 143.502 100.841 142.515 100.841 141.302V123.876C100.841 122.662 101.829 121.676 103.045 121.676H123.308C124.524 121.676 125.512 122.662 125.512 123.876V141.302C125.512 142.515 124.524 143.502 123.308 143.502H103.045Z" fill="#D0DEF1"/>
<path d="M124.769 123.876V141.303C124.769 142.108 124.115 142.761 123.308 142.761H103.044C102.237 142.761 101.583 142.108 101.583 141.303V123.876C101.583 123.072 102.237 122.418 103.044 122.418H123.308C124.114 122.418 124.769 123.072 124.769 123.876Z" fill="#B1C8E7"/>
<path d="M124.769 123.876V141.303C124.769 142.108 124.116 142.761 123.308 142.761H109.969C109.163 142.761 108.508 142.108 108.508 141.303V123.876C108.508 123.072 109.163 122.418 109.969 122.418H123.308C124.115 122.418 124.769 123.072 124.769 123.876Z" fill="#4BBEFF"/>
<path d="M108.06 129.075H105.209C105.209 129.075 107.11 126.498 107.11 122.418H109.961C109.962 126.369 108.06 129.075 108.06 129.075Z" fill="#B1C8E7"/>
<path d="M107.747 129.075H104.897C104.897 129.075 106.798 126.498 106.798 122.418H109.648C109.648 126.369 107.747 129.075 107.747 129.075Z" fill="#F6F8FC"/>
<path d="M106.039 122.418V124.864C106.039 124.983 106.591 125.08 107.271 125.08C107.951 125.08 108.503 124.983 108.503 124.864V122.418H106.039Z" fill="#4BBEFF"/>
<path d="M108.505 124.061V124.864C108.505 124.983 107.953 125.08 107.273 125.08C106.592 125.08 106.041 124.983 106.041 124.864V124.061C106.041 124.18 106.592 124.277 107.273 124.277C107.952 124.278 108.505 124.181 108.505 124.061Z" fill="#B1C8E7"/>
<path d="M120.769 122.418C120.769 125.483 119.625 127.8 119.112 128.684C118.963 128.94 118.868 129.076 118.868 129.076H116.017C116.017 129.076 117.917 126.499 117.917 122.418L120.769 122.418Z" fill="#B1C8E7"/>
<path d="M120.456 122.418C120.456 125.483 119.311 127.8 118.798 128.684C118.65 128.94 118.555 129.076 118.555 129.076H115.704C115.704 129.076 115.803 128.942 115.957 128.684C116.474 127.819 117.605 125.566 117.605 122.418H120.456Z" fill="#F6F8FC"/>
<path d="M116.848 122.418V124.864C116.848 124.983 117.399 125.08 118.08 125.08C118.76 125.08 119.311 124.983 119.311 124.864V122.418H116.848Z" fill="#4BBEFF"/>
<path d="M119.313 124.061V124.864C119.313 124.983 118.762 125.08 118.081 125.08C117.401 125.08 116.85 124.983 116.85 124.864V124.061C116.85 124.18 117.401 124.277 118.081 124.277C118.762 124.278 119.313 124.181 119.313 124.061Z" fill="#F2B48F"/>
<path d="M104.261 186.447H102.926C102.76 186.447 102.626 186.313 102.626 186.148V183.695H104.56V186.148C104.56 186.312 104.426 186.447 104.261 186.447Z" fill="#7D8599"/>
<path d="M103.784 186.447H102.449C102.283 186.447 102.148 186.313 102.148 186.148V183.695H104.083V186.148C104.083 186.312 103.949 186.447 103.784 186.447Z" fill="#4BBEFF"/>
<path d="M117.025 186.447H115.69C115.525 186.447 115.39 186.313 115.39 186.148V183.695H117.324V186.148C117.325 186.312 117.19 186.447 117.025 186.447Z" fill="#7D8599"/>
<path d="M116.547 186.447H115.212C115.046 186.447 114.912 186.313 114.912 186.148V183.695H116.847V186.148C116.847 186.312 116.712 186.447 116.547 186.447Z" fill="#7D8599"/>
<path d="M123.683 186.447H122.349C122.183 186.447 122.049 186.313 122.049 186.148V183.695H123.984V186.148C123.983 186.312 123.848 186.447 123.683 186.447Z" fill="#7D8599"/>
<path d="M123.205 186.447H121.87C121.705 186.447 121.57 186.313 121.57 186.148V183.695H123.505V186.148C123.506 186.312 123.371 186.447 123.205 186.447Z" fill="#4BBEFF"/>
<path d="M136.445 186.447H135.11C134.945 186.447 134.811 186.313 134.811 186.148V183.695H136.746V186.148C136.745 186.312 136.611 186.447 136.445 186.447Z" fill="#7D8599"/>
<path d="M135.968 186.447H134.633C134.468 186.447 134.334 186.313 134.334 186.148V183.695H136.268V186.148C136.267 186.312 136.133 186.447 135.968 186.447Z" fill="#7D8599"/>
<path d="M124.829 178.797H101.521C100.826 178.797 100.261 178.233 100.261 177.539V153.356C100.261 152.663 100.826 152.098 101.521 152.098H124.829C125.524 152.098 126.089 152.663 126.089 153.356V177.539C126.089 178.232 125.524 178.797 124.829 178.797ZM101.521 152.395C100.99 152.395 100.559 152.827 100.559 153.356V177.539C100.559 178.069 100.991 178.5 101.521 178.5H124.829C125.36 178.5 125.791 178.069 125.791 177.539V153.356C125.791 152.827 125.359 152.395 124.829 152.395H101.521Z" fill="#4BBEFF"/>
<path d="M104.136 156.38C104.136 157.327 103.621 158.095 102.986 158.095C102.351 158.095 101.836 157.327 101.836 156.38C101.836 155.433 102.351 154.666 102.986 154.666C103.621 154.666 104.136 155.433 104.136 156.38Z" fill="#4BBEFF"/>
<path d="M103.882 156.38C103.882 157.327 103.368 158.095 102.733 158.095C102.097 158.095 101.582 157.327 101.582 156.38C101.582 155.433 102.097 154.666 102.733 154.666C103.368 154.666 103.882 155.433 103.882 156.38Z" fill="#D1E1FB"/>
<path d="M118.11 108.702C118.11 109.36 117.682 109.893 117.154 109.893C116.625 109.893 116.198 109.36 116.198 108.702C116.198 108.046 116.626 107.513 117.154 107.513C117.681 107.513 118.11 108.046 118.11 108.702Z" fill="#B1C8E7"/>
<path d="M117.935 108.702C117.935 109.36 117.506 109.893 116.978 109.893C116.449 109.893 116.022 109.36 116.022 108.702C116.022 108.046 116.45 107.513 116.978 107.513C117.505 107.513 117.935 108.046 117.935 108.702Z" fill="white"/>
<path d="M122.601 108.702C122.601 109.36 122.173 109.893 121.645 109.893C121.117 109.893 120.688 109.36 120.688 108.702C120.688 108.046 121.117 107.513 121.645 107.513C122.173 107.513 122.601 108.046 122.601 108.702Z" fill="#EC836E"/>
<path d="M122.424 108.702C122.424 109.36 121.996 109.893 121.467 109.893C120.939 109.893 120.511 109.36 120.511 108.702C120.511 108.046 120.939 107.513 121.467 107.513C121.996 107.513 122.424 108.046 122.424 108.702Z" fill="#F2B48F"/>
<path d="M125.022 119.748H101.329C101.059 119.748 100.839 119.529 100.839 119.259V114.457C100.839 114.187 101.059 113.967 101.329 113.967H125.022C125.292 113.967 125.511 114.187 125.511 114.457V119.259C125.511 119.529 125.292 119.748 125.022 119.748Z" fill="#EFF3FC"/>
<path d="M101.329 119.378C101.265 119.378 101.212 119.325 101.212 119.261V114.458C101.212 114.393 101.265 114.34 101.329 114.34H125.022C125.087 114.34 125.14 114.393 125.14 114.458V119.261C125.14 119.326 125.087 119.378 125.022 119.378H101.329Z" fill="#4BBEFF"/>
<path d="M118.799 128.684C118.651 128.939 118.556 129.076 118.556 129.076H115.705C115.705 129.076 115.804 128.942 115.958 128.684H118.799Z" fill="#F2B48F"/>
<path d="M119.113 128.684C118.965 128.939 118.869 129.076 118.869 129.076H118.557C118.557 129.076 118.652 128.94 118.8 128.684H119.113Z" fill="#EF9A78"/>
<path d="M107.99 128.684C107.842 128.939 107.746 129.076 107.746 129.076H104.896C104.896 129.076 104.995 128.942 105.149 128.684H107.99Z" fill="#D0DEF1"/>
<path d="M108.304 128.684C108.156 128.939 108.06 129.076 108.06 129.076H107.747C107.747 129.076 107.843 128.94 107.991 128.684H108.304Z" fill="#B1C8E7"/>
<path d="M78.4361 188.669L14.0231 188.631C6.27599 188.627 -0.0013991 182.375 2.33904e-07 174.665L0.0317223 13.9609C0.0331216 6.24678 6.31937 -0.00418755 14.0712 2.10483e-06L78.4846 0.0377096C86.2318 0.0423648 92.5087 6.29426 92.5073 14.0037L92.4756 174.709C92.4737 182.423 86.1875 188.674 78.4361 188.669Z" fill="#263238"/>
<path d="M78.8862 4.82862L66.3543 4.7709C64.6737 4.76345 63.3052 6.17863 63.2982 7.93176L63.2884 10.2002C63.2814 11.9538 61.9124 13.369 60.2323 13.3611L35.8048 13.2484C34.1247 13.241 32.7678 11.8128 32.7753 10.0596L32.7851 7.79118C32.7925 6.03757 31.4357 4.60984 29.7551 4.60239L25.3476 4.58191L14.3792 4.53117C8.93212 4.5065 4.49626 8.89399 4.47341 14.3308L3.80453 172.184C3.78168 177.619 8.17508 182.042 13.6194 182.068L78.1264 182.365C83.5731 182.39 88.0089 178.002 88.0323 172.565L88.7007 14.7111C88.724 9.27804 84.3306 4.85376 78.8862 4.82862Z" fill="#F5F5F5"/>
<path d="M51.5089 152.535C51.4352 154.441 51.3652 156.229 51.3069 157.715H60.5728L59.4384 152.035L51.5089 152.535Z" fill="#F5F5F5"/>
<path d="M13.8494 154.912L13.9301 157.714H50.3805C50.4421 156.141 50.5107 154.394 50.5802 152.593L13.8494 154.912Z" fill="#F5F5F5"/>
<path d="M59.9043 152.005L61.0443 157.714H78.1273L77.9216 150.867L59.9043 152.005Z" fill="#F5F5F5"/>
<path d="M52.4342 72.1882L55.6648 53.4972L47.2045 52.8716V72.1882H52.4342Z" fill="#EBEBEB"/>
<path d="M13.0876 144.535L3.9057 148.125L3.87817 154.617L13.361 154.018L13.0876 144.535Z" fill="#F5F5F5"/>
<path d="M13.0463 143.076L12.5444 125.668L12.5374 125.668V119.529L4.02386 120.429L3.91284 146.637L13.0425 143.067L13.0463 143.076Z" fill="#EBEBEB"/>
<path d="M12.5374 105.823L4.09006 104.71L4.02942 119.037L12.5374 118.137V105.823Z" fill="#F5F5F5"/>
<path d="M75.4961 119.787L75.1407 124.776L65.1644 125.85L65.9364 129.797L77.2616 128.945L77.0914 123.285L77.9949 119.536L75.4961 119.787Z" fill="#F5F5F5"/>
<path d="M57.5157 130.431L65.4723 129.832L63.7394 120.972L56.795 121.671L57.5157 130.431Z" fill="#F5F5F5"/>
<path d="M57.5913 131.351L58.1996 138.74L59.2784 148.873L59.7216 151.092L77.8932 149.945L77.2897 129.869L57.5913 131.351Z" fill="#EBEBEB"/>
<path d="M26.3155 96.4682L27.0142 97.6641L12.9995 105.822V125.173L27.7904 124.129L56.2969 121.257L55.253 108.573L28.0199 105.022L28.1995 103.65L55.1369 107.162L53.3705 85.6933L26.7082 88.2518L26.6196 87.3329L53.2944 84.773L52.3727 73.5717H26.7264L4.20377 77.6622L4.09509 103.314L12.6231 104.437L26.3155 96.4682ZM14.4347 123.326C14.4347 123.326 14.5406 107.369 14.4347 106.773L25.87 100.702L27.3524 122.511L14.4347 123.326Z" fill="#F5F5F5"/>
<path d="M74.5628 119.881L64.2017 120.925L64.9871 124.941L74.2736 123.942L74.5628 119.881Z" fill="#F5F5F5"/>
<path d="M51.6404 149.116C51.6082 149.953 51.5761 150.788 51.5448 151.608L59.2565 151.121L58.86 149.136L51.6404 149.116Z" fill="#F5F5F5"/>
<path d="M35.0295 72.1882L36.3896 66.0411H46.7413V52.8371L14.3689 50.4444V62.842L4.2578 65.1245L4.21069 76.255L26.6023 72.1882H35.0295Z" fill="#EBEBEB"/>
<path d="M56.6313 35.4484L56.3551 34.3172L68.7168 29.4348L60.6763 13.3261C60.5307 13.3475 60.3833 13.3624 60.2322 13.3615L46.5714 13.2986L46.9433 35.8441L56.6313 35.4484Z" fill="#F5F5F5"/>
<path d="M75.3651 26.8087L75.3506 4.8121L66.3539 4.77067C64.6733 4.76322 63.3047 6.17839 63.2977 7.93106L63.2879 10.2C63.2837 11.2819 62.7599 12.2343 61.9651 12.8036L70.0112 28.9231L75.3651 26.8087Z" fill="#EBEBEB"/>
<path d="M28.8935 27.7528L27.851 4.59331L25.3471 4.58168L15.5695 4.53652L11.4042 25.2469L28.8935 27.7528ZM26.6648 6.94044L26.9978 25.8009L14.0018 23.903L16.848 6.94044H26.6648Z" fill="#F5F5F5"/>
<path d="M29.3659 27.8203L29.3683 28.0177C29.3907 29.8248 29.428 33.0774 29.455 36.5566L46.4811 35.8621L46.1089 13.2957L35.8052 13.2482C34.1246 13.2408 32.7682 11.813 32.7756 10.0594L32.7854 7.79094C32.7929 6.03734 31.436 4.60959 29.7554 4.60214L28.3146 4.59516L29.3599 27.8194L29.3659 27.8203Z" fill="#F5F5F5"/>
<path d="M10.0291 25.0499L14.1539 4.54152C8.81075 4.63742 4.49522 8.97001 4.47283 14.3309L4.42944 24.5546L4.47283 24.2539L10.0291 25.0499Z" fill="#F5F5F5"/>
<path d="M12.9818 50.342L4.32279 49.7019L4.26355 63.7042L12.9818 61.7364V50.342Z" fill="#F5F5F5"/>
<path d="M9.93803 25.5033L4.42886 24.7138L4.33276 47.3892L5.51848 47.4772L9.93803 25.5033Z" fill="#F5F5F5"/>
<path d="M27.4277 142.812L27.5732 124.607L13.0057 125.635L13.5198 143.47L27.4277 142.812Z" fill="#F5F5F5"/>
<path d="M30.1081 138.61L50.7397 148.474C50.9855 142.028 51.2052 136 51.1847 135.616L51.632 135.593L51.8503 135.158C52.1437 135.304 52.1437 135.304 51.9897 139.698C51.9039 142.15 51.7822 145.413 51.6576 148.676H58.7928L57.7396 138.784L56.3356 121.718L29.3795 124.433L30.1081 138.61Z" fill="#F5F5F5"/>
<path d="M80.6797 108.397L80.4469 105.996L55.717 108.564L56.7577 121.211L78.11 119.061L80.6797 108.397Z" fill="#F5F5F5"/>
<path d="M46.7418 67.4255H37.5041L36.45 72.1887H46.7418V67.4255Z" fill="#F5F5F5"/>
<path d="M76.8609 69.0329L53.7249 67.4353L52.7817 72.8907L53.7557 84.7297L78.1562 82.3882L76.8609 69.0329ZM54.5757 72.8804L55.8174 69.4379L75.9126 70.706L77.0755 80.555L55.2553 83.1372L54.5757 72.8804Z" fill="#F5F5F5"/>
<path d="M79.2613 93.778L78.2454 83.3066L53.8313 85.6496L54.7483 96.7927L79.2613 93.778Z" fill="#F5F5F5"/>
<path d="M13.3879 154.942L3.91632 155.54L3.87713 154.924L3.86548 157.715H13.4681L13.3879 154.942Z" fill="#F5F5F5"/>
<path d="M88.5309 21.6092L88.6704 21.9607L88.7012 14.7112C88.724 9.27766 84.3306 4.85385 78.8863 4.82872L75.8134 4.81475L75.8273 26.6266L88.5309 21.6092Z" fill="#EBEBEB"/>
<path d="M50.72 148.976L29.66 138.907L28.9179 124.478L28.0358 124.567L27.8866 143.251L13.5332 143.93L13.5453 144.347L13.5486 144.355L13.5458 144.356L13.8233 153.989L50.617 151.666C50.651 150.773 50.686 149.872 50.72 148.976ZM14.4344 145.118L34.525 143.711L47.5963 149.763L14.4348 151.555L14.4344 145.118Z" fill="#F5F5F5"/>
<path d="M82.545 45.8346L83.4065 40.7344C75.8548 38.0446 75.3319 30.1848 75.3543 27.8056L70.4244 29.7528L77.8469 44.6229L82.545 45.8346Z" fill="#F5F5F5"/>
<path d="M55.6028 107.184L65.8706 106.118L63.8471 97.0683L54.8616 98.1734L55.6028 107.184Z" fill="#F5F5F5"/>
<path d="M77.7537 54.709L58.5754 54.7057L56.9839 54.5879L54.8177 67.1206L77.5811 68.6927L77.0526 63.2433L79.2934 55.1941L77.7537 54.709Z" fill="#F5F5F5"/>
<path d="M76.4276 51.3456L76.6673 45.3631L69.1301 30.2636L57.4434 34.8797L61.4608 51.3456H76.4276ZM68.6753 32.1005L75.5819 45.2137L74.5842 49.3001L62.7669 48.856L59.8124 36.4527L68.6753 32.1005Z" fill="#F5F5F5"/>
<path d="M79.4119 123.525L79.765 135.275L88.0737 134.808L88.0998 135.269L79.779 135.736L80.202 149.799L88.0579 149.303L88.1162 150.224L80.2295 150.722L80.4399 157.715H88.0956L88.2617 118.502L80.432 119.291L79.4119 123.525Z" fill="#F5F5F5"/>
<path d="M28.908 28.2206L11.3133 25.6998L6.91284 47.5791L28.9859 49.2112C29.074 45.8427 28.9966 35.5101 28.908 28.2206Z" fill="#EBEBEB"/>
<path d="M57.8474 51.3456H60.5098L56.7424 35.9058L46.9503 36.3052L47.1849 50.5575L57.8474 51.3456Z" fill="#F5F5F5"/>
<path d="M3.81798 168.947L3.80446 172.185C3.80399 172.285 3.81565 172.382 3.81798 172.481V168.947Z" fill="#F5F5F5"/>
<path d="M29.436 49.2447L46.7218 50.5226L46.4878 36.3235L29.458 37.0181C29.4934 41.8199 29.5079 46.9418 29.436 49.2447Z" fill="#F5F5F5"/>
<path d="M79.3946 95.1559L64.308 97.0115L66.3337 106.07L80.3126 104.618L79.3946 95.1559Z" fill="#F5F5F5"/>
<path d="M83.4849 40.2721L84.4513 34.5486L88.6153 34.8721L88.6675 22.5476L75.8217 27.6212C75.5605 36.2934 81.0188 39.343 83.4849 40.2721Z" fill="#EBEBEB"/>
<path d="M78.5392 62.3914L79.0635 67.797L88.474 68.4469L88.5211 57.3154L80.6428 54.8323L78.5392 62.3914Z" fill="#F5F5F5"/>
<path d="M83.0175 108.56L80.5463 118.815L88.2636 118.038L88.3093 107.284C85.9407 106.661 83.8743 106.154 82.7637 105.941L83.0175 108.56Z" fill="#F5F5F5"/>
<path d="M77.8082 51.5202L88.5304 54.8994L88.5565 48.8137L78.0261 46.0985L77.8082 51.5202Z" fill="#F5F5F5"/>
<path d="M82.6266 104.532C83.4909 104.662 85.1286 105.009 88.3149 105.845L88.4147 82.3305L80.5463 83.0855L82.6266 104.532Z" fill="#F5F5F5"/>
<path d="M80.4572 82.1675L88.4184 81.4031L88.4674 69.8346L79.1987 69.195L80.4572 82.1675Z" fill="#F5F5F5"/>
<path d="M84.3734 40.5629C85.8824 41.021 87.2864 41.3752 88.5873 41.6354L88.612 35.7969L85.2223 35.5334L84.3734 40.5629Z" fill="#F5F5F5"/>
<path d="M48.8636 42.9154L53.9819 44.2356L54.0043 38.9594C52.6801 38.695 51.2514 38.3352 49.7154 37.8706L48.8636 42.9154Z" fill="#F5F5F5"/>
<path d="M88.1158 150.224L88.0575 149.303L80.2016 149.799L79.7786 135.736L88.0994 135.268L88.0733 134.808L79.7646 135.274L79.411 123.525L80.4316 119.29L88.2613 118.502L88.2636 118.038L80.5463 118.815L83.0175 108.56L82.7633 105.941C83.8739 106.154 85.9403 106.661 88.3089 107.284L88.3149 105.846C85.1287 105.01 83.491 104.662 82.6267 104.532L80.5463 83.086L88.4147 82.3309L88.4185 81.4031L80.4568 82.167L79.1983 69.1945L88.4675 69.8346L88.4735 68.4473L79.063 67.7975L78.5383 62.3914L80.6419 54.8328L88.5202 57.3159L88.5304 54.8998L77.8083 51.5207L78.0257 46.099L88.5565 48.8146L88.5626 47.3869L83.4443 46.0668L84.2961 41.022C85.832 41.4866 87.2612 41.846 88.585 42.1109L88.5869 41.636C87.2864 41.3758 85.882 41.0216 84.373 40.5635L85.2219 35.534L88.6116 35.7975L88.6153 34.8721L84.4514 34.5485L83.4849 40.2721C81.0193 39.3434 75.5605 36.2933 75.8222 27.6212L88.668 22.5475L88.6704 21.961L88.5309 21.6095L75.8273 26.6268L75.8133 4.81503L75.3511 4.8127L75.3655 26.8093L70.0112 28.9242L61.9651 12.8047C61.5877 13.0752 61.1493 13.2563 60.6759 13.3265L68.7164 29.4353L56.3547 34.3176L56.6309 35.4489L46.9428 35.8441L46.5713 13.2986L46.1086 13.2963L46.4808 35.8627L29.4547 36.5573C29.4276 33.0784 29.3903 29.8254 29.3679 28.0183L29.3656 27.8209L29.3595 27.82L28.3142 4.59578L27.8515 4.59392L28.894 27.7534L11.4052 25.2475L15.5705 4.53712L14.3797 4.53154C14.3041 4.53107 14.2304 4.54038 14.1549 4.54178L10.0301 25.0501L4.47386 24.2541L4.43048 24.5548L4.43002 24.714L9.93917 25.5035L5.51963 47.4767L4.33347 47.3892L4.32366 49.7019L12.9827 50.342V61.7364L4.26443 63.7046L4.25836 65.1249L14.3699 62.8425V50.4448L46.7423 52.8381V66.042H36.3907L35.0305 72.1892H26.6033L4.21172 76.2559L4.20566 77.6641L26.7283 73.5736H52.3746L53.2963 84.7749L26.6215 87.3348L26.7101 88.2537L53.3723 85.6952L55.1387 107.163L28.2013 103.652L28.0218 105.024L55.2548 108.574L56.2988 121.259L27.7923 124.131L13.0014 125.175V105.824L27.0161 97.666L26.3174 96.4701L12.6259 104.44L4.09791 103.316L4.09184 104.712L12.5387 105.825V118.139L4.03074 119.038L4.02514 120.431L12.5387 119.531V125.67L12.5457 125.67L13.0475 143.078L13.0443 143.069L3.91413 146.639L3.90807 148.128L13.09 144.538L13.3633 154.021L3.88054 154.619L3.87915 154.926L3.91786 155.541L13.3899 154.944L13.4697 157.717H13.9324L13.8517 154.914L50.583 152.596C50.513 154.397 50.4449 156.143 50.3833 157.717H51.3087C51.3671 156.231 51.437 154.443 51.5107 152.537L59.4402 152.037L60.5746 157.717H61.0457L59.9058 152.007L77.923 150.87L78.1287 157.717H80.4414M51.5443 151.608C51.576 150.788 51.6082 149.954 51.6399 149.116L58.8595 149.135L59.256 151.12L51.5443 151.608ZM59.7215 151.092L59.2784 148.873L58.1995 138.739L57.5917 131.35L77.2901 129.869L77.8937 149.944L59.7215 151.092ZM64.2012 120.925L74.5623 119.881L74.2731 123.942L64.9867 124.941L64.2012 120.925ZM63.7394 120.972L65.4728 129.833L57.5162 130.431L56.7955 121.671L63.7394 120.972ZM77.2616 128.945L65.9364 129.797L65.1644 125.85L75.1407 124.776L75.4961 119.788L77.9949 119.536L77.0914 123.285L77.2616 128.945ZM63.8472 97.0678L65.8706 106.118L55.6028 107.184L54.8616 98.1729L63.8472 97.0678ZM66.3338 106.07L64.3085 97.0115L79.3951 95.1559L80.3131 104.618L66.3338 106.07ZM76.7248 67.6359L53.9614 66.0643L56.1276 53.5317L57.7191 53.6495L76.8973 53.6527L78.4371 54.1378L76.1963 62.1871L76.7248 67.6359ZM75.3548 27.8055C75.3324 30.1848 75.8553 38.0446 83.407 40.7343L82.5455 45.8345L77.847 44.6228L70.4245 29.7528L75.3548 27.8055ZM69.1306 30.2639L76.6679 45.3634L76.4281 51.3456H61.4618L57.4443 34.88L69.1306 30.2639ZM56.7423 35.9055L60.5098 51.3452H57.8478L47.1854 50.557L46.9503 36.3049L56.7423 35.9055ZM46.4882 36.324L46.7222 50.523L29.4365 49.2452C29.5088 46.9423 29.4943 41.8204 29.4584 37.0186L46.4882 36.324ZM11.3133 25.7005L28.908 28.2212C28.9966 35.5108 29.0736 45.8434 28.9854 49.2117L6.91242 47.5796L11.3133 25.7005ZM55.6644 53.4972L52.4338 72.1882H47.204V52.8716L55.6644 53.4972ZM37.5041 67.4251H46.7418V72.1878H36.4504L37.5041 67.4251ZM52.7813 72.8907L53.7245 67.4353L76.8605 69.0329L78.1563 82.3882L53.7557 84.7297L52.7813 72.8907ZM78.2454 83.3066L79.2613 93.7784L54.7483 96.7931L53.8313 85.65L78.2454 83.3066ZM55.7166 108.564L80.4465 105.996L80.6793 108.397L78.1092 119.061L56.7568 121.211L55.7166 108.564ZM57.7391 138.783L58.7924 148.676H51.6572C51.7817 145.412 51.9035 142.149 51.9893 139.698C52.1432 135.304 52.1432 135.304 51.8498 135.157L51.6315 135.592L51.1842 135.615C51.2047 135.999 50.985 142.027 50.7392 148.473L30.1077 138.609L29.3786 124.432L56.3347 121.717L57.7391 138.783ZM27.5735 124.606L27.428 142.811L13.5201 143.47L13.006 125.635L27.5735 124.606ZM13.5457 144.356L13.5485 144.355L13.5452 144.347L13.5331 143.93L27.8865 143.251L28.0358 124.567L28.9178 124.478L29.6599 138.907L50.7196 148.976C50.6856 149.872 50.6506 150.773 50.6165 151.666L13.8232 153.989L13.5457 144.356Z" fill="white"/>
<path d="M34.5248 143.712L14.4342 145.119V151.555L47.5954 149.764L34.5248 143.712Z" fill="#E0E0E0"/>
<path d="M75.9131 70.706L55.8174 69.4379L54.5757 72.8804L55.2558 83.1372L77.076 80.555L75.9131 70.706Z" fill="#E0E0E0"/>
<path d="M27.3915 27.0056L27.058 8.1452H17.2413L14.395 25.1077L27.3915 27.0056Z" fill="#E0E0E0"/>
<path d="M74.5843 49.3001L75.582 45.2134L68.6754 32.1003L59.812 36.4528L62.7665 48.856L74.5843 49.3001Z" fill="#EBEBEB"/>
<path d="M78.7076 20.9318C78.7076 19.012 76.9692 17.4972 74.9775 17.8701C73.7246 18.1047 72.7264 19.1256 72.5067 20.3788C72.3696 21.1622 72.5315 21.8991 72.8897 22.5071H72.8878L72.8967 22.5187C73.0166 22.7203 73.1668 22.8642 73.3184 23.076L75.1328 25.4743C75.3586 25.7727 75.8078 25.7727 76.0335 25.4743L77.8177 23.1155C77.8177 23.1155 78.1507 22.7194 78.2715 22.5155L78.278 22.5071H78.2766C78.5486 22.0448 78.7076 21.5076 78.7076 20.9318ZM75.5829 22.2897C74.8236 22.2897 74.2079 21.6752 74.2079 20.9174C74.2079 20.1595 74.8236 19.545 75.5829 19.545C76.3423 19.545 76.958 20.1595 76.958 20.9174C76.958 21.6752 76.3423 22.2897 75.5829 22.2897Z" fill="#4BBEFF"/>
<path d="M79.3975 182.365H12.9146C7.88351 182.365 3.80444 178.295 3.80444 173.273V151.608H88.2618V173.518C88.2618 178.404 84.2933 182.365 79.3975 182.365Z" fill="#4BBEFF"/>
<path d="M24.2616 168.801V162.182H25.7965V167.553H29.1222V168.801H24.2616ZM32.2826 168.877C31.7394 168.877 31.2562 168.763 30.833 168.536C30.4161 168.309 30.0844 168.001 29.8381 167.609C29.5981 167.212 29.4781 166.762 29.4781 166.257C29.4781 165.746 29.5981 165.296 29.8381 164.905C30.0844 164.508 30.4161 164.199 30.833 163.978C31.2562 163.751 31.7394 163.638 32.2826 163.638C32.8195 163.638 33.2996 163.751 33.7228 163.978C34.146 164.199 34.4776 164.505 34.7177 164.896C34.9576 165.287 35.0777 165.74 35.0777 166.257C35.0777 166.762 34.9576 167.212 34.7177 167.609C34.4776 168.001 34.146 168.309 33.7228 168.536C33.2996 168.763 32.8195 168.877 32.2826 168.877ZM32.2826 167.666C32.529 167.666 32.75 167.609 32.9458 167.496C33.1416 167.382 33.2964 167.222 33.4101 167.014C33.5238 166.799 33.5807 166.547 33.5807 166.257C33.5807 165.961 33.5238 165.709 33.4101 165.501C33.2964 165.293 33.1416 165.132 32.9458 165.018C32.75 164.905 32.529 164.848 32.2826 164.848C32.0363 164.848 31.8152 164.905 31.6194 165.018C31.4235 165.132 31.2657 165.293 31.1456 165.501C31.0319 165.709 30.9751 165.961 30.9751 166.257C30.9751 166.547 31.0319 166.799 31.1456 167.014C31.2657 167.222 31.4235 167.382 31.6194 167.496C31.8152 167.609 32.0363 167.666 32.2826 167.666ZM38.5291 168.877C37.9795 168.877 37.49 168.766 37.0605 168.546C36.631 168.318 36.293 168.007 36.0467 167.609C35.8067 167.212 35.6867 166.762 35.6867 166.257C35.6867 165.746 35.8067 165.296 36.0467 164.905C36.293 164.508 36.631 164.199 37.0605 163.978C37.49 163.751 37.9795 163.638 38.5291 163.638C39.066 163.638 39.5335 163.751 39.9314 163.978C40.3293 164.199 40.623 164.518 40.8125 164.933L39.6661 165.548C39.5335 165.308 39.366 165.132 39.1639 165.018C38.9681 164.905 38.7533 164.848 38.5196 164.848C38.267 164.848 38.0396 164.905 37.8374 165.018C37.6353 165.132 37.4742 165.293 37.3542 165.501C37.2405 165.709 37.1837 165.961 37.1837 166.257C37.1837 166.554 37.2405 166.806 37.3542 167.014C37.4742 167.222 37.6353 167.382 37.8374 167.496C38.0396 167.609 38.267 167.666 38.5196 167.666C38.7533 167.666 38.9681 167.613 39.1639 167.506C39.366 167.392 39.5335 167.212 39.6661 166.967L40.8125 167.59C40.623 168.001 40.3293 168.318 39.9314 168.546C39.5335 168.766 39.066 168.877 38.5291 168.877ZM44.7903 168.801V167.808L44.6955 167.59V165.813C44.6955 165.497 44.5976 165.252 44.4018 165.075C44.2123 164.899 43.9186 164.81 43.5206 164.81C43.249 164.81 42.9806 164.855 42.7152 164.943C42.4563 165.025 42.2352 165.139 42.052 165.283L41.5214 164.253C41.7994 164.057 42.1342 163.906 42.5258 163.799C42.9174 163.692 43.3153 163.638 43.7196 163.638C44.4965 163.638 45.0997 163.821 45.5293 164.187C45.9588 164.552 46.1736 165.123 46.1736 165.898V168.801H44.7903ZM43.2364 168.877C42.8384 168.877 42.4973 168.811 42.2131 168.678C41.9289 168.539 41.7109 168.353 41.5594 168.12C41.4078 167.887 41.332 167.625 41.332 167.335C41.332 167.033 41.4046 166.768 41.5499 166.541C41.7015 166.314 41.9383 166.138 42.2605 166.011C42.5826 165.879 43.0027 165.813 43.5206 165.813H44.8755V166.673H43.6817C43.3343 166.673 43.0943 166.73 42.9616 166.844C42.8353 166.957 42.7721 167.099 42.7721 167.269C42.7721 167.458 42.8448 167.609 42.99 167.723C43.1416 167.83 43.3469 167.884 43.6059 167.884C43.8522 167.884 44.0733 167.827 44.2692 167.713C44.465 167.594 44.6071 167.42 44.6955 167.193L44.9229 167.874C44.8155 168.202 44.6197 168.451 44.3354 168.621C44.0512 168.791 43.6848 168.877 43.2364 168.877ZM49.5959 168.877C48.9956 168.877 48.5282 168.725 48.1933 168.423C47.8589 168.114 47.6914 167.657 47.6914 167.051V162.588H49.1696V167.033C49.1696 167.247 49.226 167.414 49.3399 167.534C49.4537 167.647 49.6085 167.704 49.8044 167.704C50.0381 167.704 50.2368 167.641 50.401 167.515L50.7989 168.555C50.6473 168.662 50.4644 168.744 50.2494 168.801C50.0409 168.851 49.8231 168.877 49.5959 168.877ZM46.905 164.962V163.827H50.4388V164.962H46.905ZM51.6287 168.801V163.714H53.1069V168.801H51.6287ZM52.368 163.005C52.0961 163.005 51.875 162.925 51.7047 162.768C51.534 162.61 51.4486 162.415 51.4486 162.182C51.4486 161.948 51.534 161.753 51.7047 161.595C51.875 161.438 52.0961 161.359 52.368 161.359C52.6395 161.359 52.8606 161.435 53.0308 161.586C53.2015 161.731 53.2869 161.92 53.2869 162.153C53.2869 162.399 53.2015 162.604 53.0308 162.768C52.8666 162.925 52.6455 163.005 52.368 163.005ZM57.5768 163.638C57.9812 163.638 58.3413 163.72 58.6571 163.884C58.9794 164.041 59.2317 164.287 59.415 164.621C59.5983 164.949 59.6898 165.372 59.6898 165.888V168.801H58.2116V166.116C58.2116 165.706 58.1202 165.403 57.9369 165.207C57.7601 165.012 57.5073 164.915 57.1789 164.915C56.9452 164.915 56.7334 164.965 56.5441 165.066C56.3608 165.16 56.2157 165.308 56.1084 165.51C56.0072 165.712 55.9568 165.97 55.9568 166.286V168.801H54.4787V163.714H55.8906V165.123L55.6252 164.697C55.808 164.356 56.0702 164.095 56.4116 163.912C56.7526 163.729 57.1411 163.638 57.5768 163.638ZM63.4638 170.711C62.9838 170.711 62.5192 170.651 62.0709 170.532C61.6288 170.418 61.2593 170.244 60.9622 170.011L61.5499 168.952C61.7645 169.129 62.036 169.267 62.3648 169.368C62.6992 169.475 63.0276 169.529 63.3499 169.529C63.8742 169.529 64.2534 169.412 64.4871 169.179C64.7269 168.946 64.8472 168.599 64.8472 168.139V167.373L64.9419 166.097L64.9228 164.81V163.714H66.3249V167.95C66.3249 168.896 66.0786 169.592 65.5861 170.039C65.0935 170.487 64.3859 170.711 63.4638 170.711ZM63.2361 168.555C62.7627 168.555 62.3331 168.454 61.9478 168.252C61.5686 168.044 61.2626 167.758 61.0284 167.392C60.8013 167.02 60.6875 166.588 60.6875 166.097C60.6875 165.598 60.8013 165.166 61.0284 164.801C61.2626 164.429 61.5686 164.142 61.9478 163.941C62.3331 163.739 62.7627 163.638 63.2361 163.638C63.6657 163.638 64.0449 163.726 64.3733 163.903C64.7017 164.073 64.9578 164.341 65.1406 164.707C65.3239 165.066 65.4153 165.529 65.4153 166.097C65.4153 166.657 65.3239 167.121 65.1406 167.487C64.9578 167.846 64.7017 168.114 64.3733 168.29C64.0449 168.467 63.6657 168.555 63.2361 168.555ZM63.53 167.345C63.7889 167.345 64.0198 167.294 64.2217 167.193C64.4237 167.086 64.5818 166.938 64.6956 166.749C64.809 166.56 64.8659 166.342 64.8659 166.097C64.8659 165.844 64.809 165.627 64.6956 165.444C64.5818 165.255 64.4237 165.11 64.2217 165.009C64.0198 164.902 63.7889 164.848 63.53 164.848C63.2711 164.848 63.0407 164.902 62.8382 165.009C62.6363 165.11 62.4754 165.255 62.355 165.444C62.2417 165.627 62.1848 165.844 62.1848 166.097C62.1848 166.342 62.2417 166.56 62.355 166.749C62.4754 166.938 62.6363 167.086 62.8382 167.193C63.0407 167.294 63.2711 167.345 63.53 167.345Z" fill="white"/>
<path d="M13.0002 125.174L56.7581 121.212L53.8321 85.6501L52.3031 72.981L47.2049 73.1835L47.1825 51.6906L75.5829 52.8721L76.2097 43.7595L69.3213 29.6911L75.5829 27.2168" stroke="#4BBEFF" stroke-width="2" stroke-miterlimit="10"/>
<path d="M16.8484 117.261C16.8484 114.897 14.7074 113.031 12.2544 113.491C10.7114 113.78 9.4823 115.037 9.21176 116.58C9.04291 117.545 9.24254 118.452 9.68333 119.201H9.681L9.69173 119.216C9.83913 119.464 10.0243 119.641 10.2109 119.902L12.4451 122.856C12.7231 123.223 13.2763 123.223 13.5543 122.856L15.7513 119.951C15.7513 119.951 16.1613 119.463 16.3101 119.212L16.318 119.201H16.3166C16.6525 118.631 16.8484 117.97 16.8484 117.261ZM13.0002 118.933C12.065 118.933 11.3066 118.177 11.3066 117.243C11.3066 116.309 12.0645 115.553 13.0002 115.553C13.9354 115.553 14.6939 116.309 14.6939 117.243C14.6939 118.177 13.9354 118.933 13.0002 118.933Z" fill="#4BBEFF"/>
<path d="M13.8969 125.174C13.8969 125.668 13.4953 126.07 12.9995 126.07C12.5041 126.07 12.1021 125.669 12.1021 125.174C12.1021 124.679 12.5037 124.278 12.9995 124.278C13.4953 124.278 13.8969 124.679 13.8969 125.174Z" fill="#4BBEFF"/>
<path d="M75.6743 27.9518C76.081 27.9518 76.4108 27.6228 76.4108 27.2168C76.4108 26.8109 76.081 26.4817 75.6743 26.4817C75.2675 26.4817 74.9377 26.8109 74.9377 27.2168C74.9377 27.6228 75.2675 27.9518 75.6743 27.9518Z" fill="#4BBEFF"/>
<path d="M56.1457 30.5446H19.0686C18.2412 30.5446 17.5699 31.2145 17.5699 32.0403V43.499C17.5699 44.3248 18.2412 44.9947 19.0686 44.9947H46.5715L46.8243 48.4468L51.9874 44.9947H56.1457C56.9732 44.9947 57.6444 44.3248 57.6444 43.499V32.0403C57.6444 31.214 56.9737 30.5446 56.1457 30.5446Z" fill="white"/>
<path d="M56.1457 30.5445C56.1457 30.5445 56.2707 30.5259 56.5076 30.5757C56.7381 30.6264 57.1 30.7707 57.3864 31.1557C57.5292 31.3447 57.6355 31.598 57.6705 31.8894C57.6877 32.1826 57.6789 32.4918 57.6845 32.8325C57.6882 33.5131 57.6924 34.2956 57.6966 35.1741C57.7027 36.937 57.7101 39.0853 57.719 41.5707C57.7204 42.1927 57.7223 42.8355 57.7241 43.4989C57.7395 44.2037 57.2031 44.9052 56.4591 45.0477C56.0813 45.1073 55.7389 45.0686 55.3728 45.0812C55.0108 45.0821 54.6437 45.0826 54.2724 45.0835C53.5294 45.0849 52.7672 45.0863 51.9873 45.0877L52.0396 45.0719C50.4257 46.1547 48.6957 47.3152 46.8821 48.5325L46.7343 48.6317L46.7212 48.4543C46.641 47.3785 46.5538 46.2036 46.4642 45.0025L46.5715 45.1021C39.0687 45.1063 30.3985 45.111 21.2049 45.1156C20.7268 45.1156 20.2501 45.1156 19.7748 45.1156L19.0625 45.1152C18.8069 45.1133 18.5518 45.0505 18.3246 44.9341C17.8703 44.7013 17.5391 44.2451 17.4687 43.7419C17.4286 43.2396 17.458 42.7978 17.4486 42.3258C17.4491 40.467 17.45 38.6352 17.4505 36.835C17.451 35.9352 17.4514 35.0433 17.4519 34.1597C17.4524 33.7179 17.4524 33.2785 17.4528 32.8409L17.4533 32.1864C17.4472 31.9755 17.4645 31.7218 17.5457 31.5067C17.6996 31.0659 18.0513 30.7014 18.4851 30.5389C18.6978 30.4537 18.9399 30.4253 19.1558 30.4295L19.7939 30.43C20.6424 30.4309 21.4815 30.4314 22.3099 30.4323C28.9367 30.4421 34.9048 30.4509 39.92 30.4584C44.9263 30.4747 48.9802 30.4877 51.7919 30.497C53.1866 30.5068 54.2729 30.5147 55.0197 30.5198C55.3821 30.5249 55.661 30.5291 55.8593 30.5319C56.0491 30.5361 56.1457 30.5445 56.1457 30.5445C56.1457 30.5445 56.0487 30.5529 55.8598 30.5571C55.6615 30.5599 55.3831 30.564 55.0202 30.5692C54.2734 30.5743 53.187 30.5822 51.7924 30.592C48.9807 30.6013 44.9263 30.6143 39.9205 30.6306C34.9053 30.6381 28.9371 30.6469 22.3104 30.6567C21.482 30.6576 20.6428 30.6581 19.7944 30.659L19.1563 30.6595C18.9459 30.6567 18.7566 30.6814 18.569 30.7544C18.1973 30.8936 17.896 31.2079 17.7649 31.5849C17.6954 31.7781 17.6809 31.9648 17.6865 32.1878L17.687 32.8423C17.6875 33.2794 17.6875 33.7193 17.6879 34.1611C17.6884 35.0447 17.6889 35.9366 17.6893 36.8364C17.6898 38.6361 17.6907 40.4679 17.6912 42.3272C17.6991 42.7834 17.6739 43.2773 17.7089 43.7075C17.7686 44.1343 18.0508 44.523 18.437 44.7209C18.6301 44.8196 18.8461 44.8726 19.0639 44.875H19.7753C20.2506 44.875 20.7273 44.875 21.2054 44.875C30.399 44.8796 39.0692 44.8848 46.5719 44.8885H46.6722L46.6792 44.9881C46.7655 46.1896 46.8504 47.365 46.9278 48.4408L46.7669 48.3626C48.5846 47.1513 50.3179 45.9964 51.9356 44.9183L51.9594 44.9024H51.9878C52.7677 44.9038 53.5294 44.9052 54.2729 44.9066C54.6447 44.9076 55.0113 44.908 55.3733 44.909C55.7296 44.8996 56.107 44.9346 56.4265 44.8834C57.0907 44.7591 57.5758 44.1339 57.5651 43.5008C57.5669 42.8374 57.5683 42.1945 57.5702 41.5726C57.5791 39.0872 57.5865 36.9388 57.5926 35.1759C57.5973 34.297 57.6015 33.515 57.6047 32.8344C57.6038 32.4964 57.6164 32.178 57.6038 31.8978C57.5744 31.6189 57.4769 31.374 57.3426 31.1892C57.0734 30.8131 56.7259 30.6627 56.5016 30.6045C56.2707 30.545 56.1452 30.5538 56.1457 30.5445Z" fill="#263238"/>
<path d="M32.0454 39.5931C31.793 39.5931 31.5588 39.5522 31.3428 39.4702C31.13 39.3883 30.9444 39.2729 30.7863 39.1242C30.6311 38.9754 30.5095 38.8009 30.4213 38.6006C30.3362 38.4002 30.2936 38.1817 30.2936 37.945C30.2936 37.7082 30.3362 37.4896 30.4213 37.2893C30.5095 37.089 30.6327 36.9144 30.7909 36.7657C30.949 36.617 31.1345 36.5017 31.3474 36.4197C31.5603 36.3378 31.7915 36.2968 32.0408 36.2968C32.2933 36.2968 32.5244 36.3378 32.7343 36.4197C32.9472 36.5017 33.1312 36.617 33.2863 36.7657C33.4444 36.9144 33.5676 37.089 33.6558 37.2893C33.744 37.4866 33.7881 37.7052 33.7881 37.945C33.7881 38.1817 33.744 38.4018 33.6558 38.6052C33.5676 38.8055 33.4444 38.98 33.2863 39.1287C33.1312 39.2744 32.9472 39.3883 32.7343 39.4702C32.5244 39.5522 32.2948 39.5931 32.0454 39.5931ZM32.0408 38.9648C32.1838 38.9648 32.3146 38.9406 32.4332 38.892C32.5548 38.8434 32.6613 38.7736 32.7525 38.6825C32.8438 38.5915 32.9137 38.4837 32.9624 38.3593C33.0141 38.2348 33.0399 38.0967 33.0399 37.945C33.0399 37.7932 33.0141 37.6551 32.9624 37.5306C32.9137 37.4062 32.8438 37.2985 32.7525 37.2074C32.6643 37.1163 32.5594 37.0465 32.4377 36.998C32.3161 36.9494 32.1838 36.9251 32.0408 36.9251C31.8979 36.9251 31.7656 36.9494 31.6439 36.998C31.5253 37.0465 31.4204 37.1163 31.3292 37.2074C31.2379 37.2985 31.1664 37.4062 31.1148 37.5306C31.0661 37.6551 31.0418 37.7932 31.0418 37.945C31.0418 38.0937 31.0661 38.2318 31.1148 38.3593C31.1664 38.4837 31.2364 38.5915 31.3246 38.6825C31.4158 38.7736 31.5223 38.8434 31.6439 38.892C31.7656 38.9406 31.8979 38.9648 32.0408 38.9648ZM35.7441 39.5749C35.5281 39.5749 35.3426 39.5294 35.1875 39.4383C35.0324 39.3473 34.9138 39.2092 34.8317 39.024C34.7496 38.8358 34.7085 38.5991 34.7085 38.3137C34.7085 38.0254 34.7511 37.7886 34.8362 37.6035C34.9244 37.4183 35.0461 37.2802 35.2012 37.1891C35.3563 37.0981 35.5373 37.0526 35.7441 37.0526C35.9752 37.0526 36.182 37.1042 36.3645 37.2074C36.55 37.3106 36.696 37.4563 36.8025 37.6445C36.912 37.8326 36.9667 38.0558 36.9667 38.3137C36.9667 38.5687 36.912 38.7903 36.8025 38.9785C36.696 39.1667 36.55 39.3139 36.3645 39.4201C36.182 39.5233 35.9752 39.5749 35.7441 39.5749ZM34.2933 39.5385V36.1602H35.005V37.5853L34.9594 38.3092L34.9731 39.0377V39.5385H34.2933ZM35.6209 38.9921C35.7395 38.9921 35.8444 38.9648 35.9357 38.9102C36.03 38.8556 36.1045 38.7781 36.1592 38.678C36.217 38.5748 36.2459 38.4534 36.2459 38.3137C36.2459 38.1711 36.217 38.0497 36.1592 37.9495C36.1045 37.8493 36.03 37.7719 35.9357 37.7173C35.8444 37.6627 35.7395 37.6353 35.6209 37.6353C35.5023 37.6353 35.3959 37.6627 35.3015 37.7173C35.2073 37.7719 35.1328 37.8493 35.078 37.9495C35.0233 38.0497 34.9959 38.1711 34.9959 38.3137C34.9959 38.4534 35.0233 38.5748 35.078 38.678C35.1328 38.7781 35.2073 38.8556 35.3015 38.9102C35.3959 38.9648 35.5023 38.9921 35.6209 38.9921ZM37.2607 40.4582C37.1511 40.4582 37.0462 40.4461 36.9459 40.4218C36.8455 40.4005 36.7603 40.3671 36.6904 40.3216L36.882 39.8071C36.9641 39.8648 37.0645 39.8936 37.1831 39.8936C37.2713 39.8936 37.3413 39.8633 37.3929 39.8026C37.4477 39.7449 37.4751 39.6569 37.4751 39.5385V37.089H38.1867V39.534C38.1867 39.8162 38.1061 40.0409 37.9449 40.2078C37.7838 40.3747 37.5556 40.4582 37.2607 40.4582ZM37.8309 36.7475C37.7001 36.7475 37.5937 36.7096 37.5116 36.6337C37.4295 36.5578 37.3884 36.4637 37.3884 36.3514C37.3884 36.2391 37.4295 36.145 37.5116 36.0691C37.5937 35.9932 37.7001 35.9553 37.8309 35.9553C37.9617 35.9553 38.0681 35.9917 38.1503 36.0646C38.2323 36.1344 38.2734 36.2254 38.2734 36.3378C38.2734 36.4561 38.2323 36.5548 38.1503 36.6337C38.0711 36.7096 37.9647 36.7475 37.8309 36.7475ZM40.0601 39.5749C39.7803 39.5749 39.534 39.5203 39.321 39.411C39.1112 39.3018 38.9485 39.153 38.8329 38.9648C38.7174 38.7736 38.6596 38.5566 38.6596 38.3137C38.6596 38.0679 38.7158 37.8509 38.8284 37.6627C38.9439 37.4714 39.1005 37.3227 39.2982 37.2165C39.4959 37.1072 39.7195 37.0526 39.9689 37.0526C40.2091 37.0526 40.425 37.1042 40.6167 37.2074C40.8113 37.3075 40.9649 37.4532 41.0774 37.6445C41.19 37.8326 41.2462 38.0588 41.2462 38.3229C41.2462 38.3502 41.2447 38.382 41.2416 38.4185C41.2386 38.4519 41.2356 38.4838 41.2326 38.5141H39.2389V38.0997H40.8585L40.5847 38.2227C40.5847 38.0952 40.5589 37.9844 40.5072 37.8903C40.4555 37.7962 40.384 37.7234 40.2928 37.6718C40.2015 37.6171 40.0951 37.5898 39.9734 37.5898C39.8517 37.5898 39.7438 37.6171 39.6495 37.6718C39.5583 37.7234 39.4868 37.7978 39.4351 37.8949C39.3834 37.989 39.3575 38.1013 39.3575 38.2318V38.3411C39.3575 38.4746 39.3864 38.593 39.4442 38.6962C39.505 38.7963 39.5887 38.8738 39.6951 38.9284C39.8046 38.98 39.9323 39.0058 40.0783 39.0058C40.2091 39.0058 40.3232 38.9861 40.4205 38.9466C40.5209 38.9071 40.6121 38.848 40.6942 38.7691L41.0729 39.1788C40.9603 39.3063 40.8189 39.405 40.6486 39.4747C40.4783 39.5415 40.2821 39.5749 40.0601 39.5749ZM42.9062 39.5749C42.6416 39.5749 42.4058 39.5218 42.1991 39.4156C41.9922 39.3063 41.8295 39.1561 41.7109 38.9648C41.5954 38.7736 41.5376 38.5566 41.5376 38.3137C41.5376 38.0679 41.5954 37.8509 41.7109 37.6627C41.8295 37.4714 41.9922 37.3227 42.1991 37.2165C42.4058 37.1072 42.6416 37.0526 42.9062 37.0526C43.1647 37.0526 43.3898 37.1072 43.5814 37.2165C43.7729 37.3227 43.9144 37.476 44.0056 37.6763L43.4536 37.9723C43.3898 37.8569 43.3092 37.7719 43.2118 37.7173C43.1175 37.6627 43.0141 37.6353 42.9016 37.6353C42.78 37.6353 42.6705 37.6627 42.5732 37.7173C42.4758 37.7719 42.3982 37.8493 42.3405 37.9495C42.2857 38.0497 42.2584 38.1711 42.2584 38.3137C42.2584 38.4564 42.2857 38.5778 42.3405 38.678C42.3982 38.7781 42.4758 38.8556 42.5732 38.9102C42.6705 38.9648 42.78 38.9921 42.9016 38.9921C43.0141 38.9921 43.1175 38.9664 43.2118 38.9147C43.3092 38.8601 43.3898 38.7736 43.4536 38.6552L44.0056 38.9557C43.9144 39.153 43.7729 39.3063 43.5814 39.4156C43.3898 39.5218 43.1647 39.5749 42.9062 39.5749ZM45.4547 39.5749C45.1657 39.5749 44.9407 39.5021 44.7795 39.3564C44.6183 39.2077 44.5377 38.9876 44.5377 38.6962V36.5472H45.2494V38.6871C45.2494 38.7903 45.2768 38.8707 45.3315 38.9284C45.3862 38.983 45.4608 39.0103 45.555 39.0103C45.6676 39.0103 45.7634 38.98 45.8425 38.9193L46.0341 39.4201C45.9611 39.4717 45.8729 39.5112 45.7695 39.5385C45.6691 39.5628 45.5642 39.5749 45.4547 39.5749ZM44.1591 37.69V37.1436H45.8607V37.69H44.1591ZM46.4336 39.5385V37.089H47.1453V39.5385H46.4336ZM46.7894 36.7475C46.6588 36.7475 46.5521 36.7096 46.4701 36.6337C46.388 36.5578 46.3469 36.4637 46.3469 36.3514C46.3469 36.2391 46.388 36.145 46.4701 36.0691C46.5521 35.9932 46.6588 35.9553 46.7894 35.9553C46.92 35.9553 47.0268 35.9917 47.1089 36.0646C47.191 36.1344 47.232 36.2254 47.232 36.3378C47.232 36.4561 47.191 36.5548 47.1089 36.6337C47.0296 36.7096 46.9232 36.7475 46.7894 36.7475ZM48.4718 39.5385L47.441 37.089H48.1752L49.033 39.197H48.6677L49.5577 37.089H50.242L49.2065 39.5385H48.4718ZM51.6833 39.5749C51.4039 39.5749 51.1572 39.5203 50.9445 39.411C50.7346 39.3018 50.5718 39.153 50.4561 38.9648C50.3409 38.7736 50.283 38.5566 50.283 38.3137C50.283 38.0679 50.339 37.8509 50.4519 37.6627C50.5671 37.4714 50.7238 37.3227 50.9216 37.2165C51.1194 37.1072 51.3428 37.0526 51.5923 37.0526C51.8326 37.0526 52.0485 37.1042 52.2402 37.2074C52.4347 37.3075 52.5882 37.4532 52.7011 37.6445C52.8135 37.8326 52.8695 38.0588 52.8695 38.3229C52.8695 38.3502 52.8681 38.382 52.8653 38.4185C52.862 38.4519 52.8592 38.4838 52.8559 38.5141H50.8624V38.0997H52.4818L52.208 38.2227C52.208 38.0952 52.1824 37.9844 52.1306 37.8903C52.0788 37.7962 52.0075 37.7234 51.9161 37.6718C51.8251 37.6171 51.7183 37.5898 51.597 37.5898C51.4753 37.5898 51.367 37.6171 51.2728 37.6718C51.1819 37.7234 51.11 37.7978 51.0587 37.8949C51.007 37.989 50.9808 38.1013 50.9808 38.2318V38.3411C50.9808 38.4746 51.0098 38.593 51.0676 38.6962C51.1282 38.7963 51.2122 38.8738 51.3185 38.9284C51.4282 38.98 51.556 39.0058 51.702 39.0058C51.8326 39.0058 51.9464 38.9861 52.0439 38.9466C52.1441 38.9071 52.2356 38.848 52.3177 38.7691L52.6964 39.1788C52.5835 39.3063 52.4422 39.405 52.272 39.4747C52.1017 39.5415 51.9053 39.5749 51.6833 39.5749Z" fill="#263238"/>
<path d="M26.3334 36.3214C26.3334 37.1598 25.6524 37.839 24.8128 37.839C23.9732 37.839 23.2921 37.1593 23.2921 36.3214C23.2921 35.4834 23.9732 34.8038 24.8128 34.8038C25.6524 34.8038 26.3334 35.483 26.3334 36.3214Z" fill="#4BBEFF"/>
<path d="M24.8124 37.5337C23.3875 37.5337 22.2325 38.6868 22.2325 40.1085H27.3928C27.3928 38.6868 26.2374 37.5337 24.8124 37.5337Z" fill="#4BBEFF"/>
<path d="M47.2054 53.4093C48.3473 53.4093 49.2732 52.4857 49.2732 51.3456C49.2732 50.206 48.3473 49.282 47.2054 49.282C46.0632 49.282 45.1375 50.206 45.1375 51.3456C45.1375 52.4857 46.0632 53.4093 47.2054 53.4093Z" fill="#4BBEFF"/>
</g>
<defs>
<clipPath id="clip0_1_788">
<rect width="139" height="189" fill="white"/>
</clipPath>
</defs>
</svg>
