<svg width="210" height="55" viewBox="0 0 210 55" fill="none" xmlns="http://www.w3.org/2000/svg">
<path d="M5.70149 54L0.707175 36.5455H4.73843L7.62763 48.6733H7.77252L10.96 36.5455H14.4117L17.5907 48.6989H17.7441L20.6333 36.5455H24.6646L19.6702 54H16.0737L12.7498 42.5881H12.6134L9.29808 54H5.70149ZM30.3312 54.2557C28.9846 54.2557 27.8255 53.983 26.8539 53.4375C25.888 52.8864 25.1437 52.108 24.621 51.1023C24.0982 50.0909 23.8369 48.8949 23.8369 47.5142C23.8369 46.1676 24.0982 44.9858 24.621 43.9688C25.1437 42.9517 25.8795 42.1591 26.8283 41.5909C27.7829 41.0227 28.9022 40.7386 30.1863 40.7386C31.0499 40.7386 31.8539 40.8778 32.5982 41.1562C33.3482 41.429 34.0016 41.8409 34.5585 42.392C35.121 42.9432 35.5585 43.6364 35.871 44.4716C36.1835 45.3011 36.3397 46.2727 36.3397 47.3864V48.3835H25.2857V46.1335H32.9221C32.9221 45.6108 32.8085 45.1477 32.5812 44.7443C32.3539 44.3409 32.0386 44.0256 31.6352 43.7983C31.2374 43.5653 30.7744 43.4489 30.246 43.4489C29.6948 43.4489 29.2062 43.5767 28.78 43.8324C28.3596 44.0824 28.03 44.4205 27.7914 44.8466C27.5528 45.267 27.4306 45.7358 27.4249 46.2528V48.392C27.4249 49.0398 27.5442 49.5994 27.7829 50.071C28.0272 50.5426 28.371 50.9062 28.8141 51.1619C29.2573 51.4176 29.7829 51.5455 30.3908 51.5455C30.7942 51.5455 31.1636 51.4886 31.4988 51.375C31.834 51.2614 32.121 51.0909 32.3596 50.8636C32.5982 50.6364 32.78 50.358 32.905 50.0284L36.263 50.25C36.0925 51.0568 35.7431 51.7614 35.2147 52.3636C34.692 52.9602 34.0158 53.4261 33.1863 53.7614C32.3624 54.0909 31.4107 54.2557 30.3312 54.2557ZM41.5397 36.5455V54H37.909V36.5455H41.5397ZM49.5629 54.2557C48.2219 54.2557 47.0685 53.9716 46.1026 53.4034C45.1424 52.8295 44.4038 52.0341 43.8867 51.017C43.3754 50 43.1197 48.8295 43.1197 47.5057C43.1197 46.1648 43.3782 44.9886 43.8952 43.9773C44.418 42.9602 45.1594 42.1676 46.1197 41.5994C47.0799 41.0256 48.2219 40.7386 49.5458 40.7386C50.6879 40.7386 51.6879 40.946 52.5458 41.3608C53.4038 41.7756 54.0827 42.358 54.5827 43.108C55.0827 43.858 55.3583 44.7386 55.4094 45.75H51.9833C51.8867 45.0966 51.631 44.571 51.2163 44.1733C50.8072 43.7699 50.2702 43.5682 49.6055 43.5682C49.043 43.5682 48.5515 43.7216 48.131 44.0284C47.7163 44.3295 47.3924 44.7699 47.1594 45.3494C46.9265 45.929 46.81 46.6307 46.81 47.4545C46.81 48.2898 46.9237 49 47.1509 49.5852C47.3839 50.1705 47.7106 50.6165 48.131 50.9233C48.5515 51.2301 49.043 51.3835 49.6055 51.3835C50.0202 51.3835 50.3924 51.2983 50.7219 51.1278C51.0572 50.9574 51.3327 50.7102 51.5487 50.3864C51.7702 50.0568 51.9151 49.6619 51.9833 49.2017H55.4094C55.3526 50.2017 55.0799 51.0824 54.5913 51.8438C54.1083 52.5994 53.4407 53.1903 52.5884 53.6165C51.7362 54.0426 50.7276 54.2557 49.5629 54.2557ZM62.8488 54.2557C61.5249 54.2557 60.38 53.9744 59.4141 53.4119C58.4539 52.8437 57.7124 52.054 57.1897 51.0426C56.667 50.0256 56.4056 48.8466 56.4056 47.5057C56.4056 46.1534 56.667 44.9716 57.1897 43.9602C57.7124 42.9432 58.4539 42.1534 59.4141 41.5909C60.38 41.0227 61.5249 40.7386 62.8488 40.7386C64.1727 40.7386 65.3147 41.0227 66.2749 41.5909C67.2408 42.1534 67.9852 42.9432 68.5079 43.9602C69.0306 44.9716 69.292 46.1534 69.292 47.5057C69.292 48.8466 69.0306 50.0256 68.5079 51.0426C67.9852 52.054 67.2408 52.8437 66.2749 53.4119C65.3147 53.9744 64.1727 54.2557 62.8488 54.2557ZM62.8658 51.4432C63.4681 51.4432 63.971 51.2727 64.3744 50.9318C64.7778 50.5852 65.0817 50.1136 65.2863 49.517C65.4965 48.9205 65.6016 48.2415 65.6016 47.4801C65.6016 46.7188 65.4965 46.0398 65.2863 45.4432C65.0817 44.8466 64.7778 44.375 64.3744 44.0284C63.971 43.6818 63.4681 43.5085 62.8658 43.5085C62.2579 43.5085 61.7465 43.6818 61.3317 44.0284C60.9227 44.375 60.613 44.8466 60.4028 45.4432C60.1982 46.0398 60.096 46.7188 60.096 47.4801C60.096 48.2415 60.1982 48.9205 60.4028 49.517C60.613 50.1136 60.9227 50.5852 61.3317 50.9318C61.7465 51.2727 62.2579 51.4432 62.8658 51.4432ZM70.8528 54V40.9091H74.313V43.2188H74.4664C74.7391 42.4517 75.1937 41.8466 75.83 41.4034C76.4664 40.9602 77.2278 40.7386 78.1141 40.7386C79.0119 40.7386 79.7761 40.9631 80.4067 41.4119C81.0374 41.8551 81.4579 42.4574 81.6681 43.2188H81.8045C82.0715 42.4688 82.5545 41.8693 83.2533 41.4205C83.9579 40.9659 84.7903 40.7386 85.7505 40.7386C86.9721 40.7386 87.9636 41.1278 88.7249 41.9062C89.492 42.679 89.8755 43.7756 89.8755 45.196V54H86.2533V45.9119C86.2533 45.1847 86.0602 44.6392 85.6738 44.2756C85.2874 43.9119 84.8045 43.7301 84.2249 43.7301C83.5658 43.7301 83.0516 43.9403 82.6823 44.3608C82.313 44.7756 82.1283 45.3239 82.1283 46.0057V54H78.6085V45.8352C78.6085 45.1932 78.4238 44.6818 78.0545 44.3011C77.6908 43.9205 77.2107 43.7301 76.6141 43.7301C76.2107 43.7301 75.8471 43.8324 75.5232 44.0369C75.205 44.2358 74.9522 44.517 74.7647 44.8807C74.5772 45.2386 74.4835 45.6591 74.4835 46.142V54H70.8528ZM97.9093 54.2557C96.5627 54.2557 95.4036 53.983 94.432 53.4375C93.4661 52.8864 92.7218 52.108 92.1991 51.1023C91.6763 50.0909 91.415 48.8949 91.415 47.5142C91.415 46.1676 91.6763 44.9858 92.1991 43.9688C92.7218 42.9517 93.4576 42.1591 94.4065 41.5909C95.361 41.0227 96.4803 40.7386 97.7644 40.7386C98.6281 40.7386 99.432 40.8778 100.176 41.1562C100.926 41.429 101.58 41.8409 102.137 42.392C102.699 42.9432 103.137 43.6364 103.449 44.4716C103.762 45.3011 103.918 46.2727 103.918 47.3864V48.3835H92.8638V46.1335H100.5C100.5 45.6108 100.387 45.1477 100.159 44.7443C99.932 44.3409 99.6167 44.0256 99.2133 43.7983C98.8156 43.5653 98.3525 43.4489 97.8241 43.4489C97.2729 43.4489 96.7843 43.5767 96.3582 43.8324C95.9377 44.0824 95.6082 44.4205 95.3695 44.8466C95.1309 45.267 95.0087 45.7358 95.0031 46.2528V48.392C95.0031 49.0398 95.1224 49.5994 95.361 50.071C95.6053 50.5426 95.9491 50.9062 96.3923 51.1619C96.8354 51.4176 97.361 51.5455 97.969 51.5455C98.3724 51.5455 98.7417 51.4886 99.0769 51.375C99.4121 51.2614 99.6991 51.0909 99.9377 50.8636C100.176 50.6364 100.358 50.358 100.483 50.0284L103.841 50.25C103.671 51.0568 103.321 51.7614 102.793 52.3636C102.27 52.9602 101.594 53.4261 100.764 53.7614C99.9406 54.0909 98.9888 54.2557 97.9093 54.2557ZM116.157 54.2557C114.833 54.2557 113.688 53.9744 112.722 53.4119C111.762 52.8437 111.02 52.054 110.498 51.0426C109.975 50.0256 109.713 48.8466 109.713 47.5057C109.713 46.1534 109.975 44.9716 110.498 43.9602C111.02 42.9432 111.762 42.1534 112.722 41.5909C113.688 41.0227 114.833 40.7386 116.157 40.7386C117.48 40.7386 118.623 41.0227 119.583 41.5909C120.549 42.1534 121.293 42.9432 121.816 43.9602C122.338 44.9716 122.6 46.1534 122.6 47.5057C122.6 48.8466 122.338 50.0256 121.816 51.0426C121.293 52.054 120.549 52.8437 119.583 53.4119C118.623 53.9744 117.48 54.2557 116.157 54.2557ZM116.174 51.4432C116.776 51.4432 117.279 51.2727 117.682 50.9318C118.086 50.5852 118.39 50.1136 118.594 49.517C118.804 48.9205 118.909 48.2415 118.909 47.4801C118.909 46.7188 118.804 46.0398 118.594 45.4432C118.39 44.8466 118.086 44.375 117.682 44.0284C117.279 43.6818 116.776 43.5085 116.174 43.5085C115.566 43.5085 115.054 43.6818 114.64 44.0284C114.23 44.375 113.921 44.8466 113.711 45.4432C113.506 46.0398 113.404 46.7188 113.404 47.4801C113.404 48.2415 113.506 48.9205 113.711 49.517C113.921 50.1136 114.23 50.5852 114.64 50.9318C115.054 51.2727 115.566 51.4432 116.174 51.4432ZM127.791 46.4318V54H124.161V40.9091H127.621V43.2188H127.774C128.064 42.4574 128.55 41.8551 129.232 41.4119C129.913 40.9631 130.74 40.7386 131.712 40.7386C132.621 40.7386 133.413 40.9375 134.09 41.3352C134.766 41.733 135.291 42.3011 135.666 43.0398C136.041 43.7727 136.229 44.6477 136.229 45.6648V54H132.598V46.3125C132.604 45.5114 132.399 44.8864 131.984 44.4375C131.57 43.983 130.999 43.7557 130.271 43.7557C129.783 43.7557 129.351 43.8608 128.976 44.071C128.607 44.2812 128.317 44.5881 128.107 44.9915C127.902 45.3892 127.797 45.8693 127.791 46.4318Z" fill="black"/>
<path d="M154.055 54H147.868V36.5455H154.106C155.862 36.5455 157.373 36.8949 158.641 37.5938C159.908 38.2869 160.882 39.2841 161.564 40.5852C162.251 41.8864 162.595 43.4432 162.595 45.2557C162.595 47.0739 162.251 48.6364 161.564 49.9432C160.882 51.25 159.902 52.2528 158.623 52.9517C157.351 53.6506 155.828 54 154.055 54ZM151.558 50.8381H153.902C154.993 50.8381 155.91 50.6449 156.655 50.2585C157.405 49.8665 157.967 49.2614 158.342 48.4432C158.723 47.6193 158.913 46.5568 158.913 45.2557C158.913 43.9659 158.723 42.9119 158.342 42.0938C157.967 41.2756 157.408 40.6733 156.663 40.2869C155.919 39.9006 155.001 39.7074 153.91 39.7074H151.558V50.8381ZM164.461 54V40.9091H168.091V54H164.461ZM166.284 39.2216C165.745 39.2216 165.282 39.0426 164.895 38.6847C164.515 38.321 164.324 37.8864 164.324 37.3807C164.324 36.8807 164.515 36.4517 164.895 36.0938C165.282 35.7301 165.745 35.5483 166.284 35.5483C166.824 35.5483 167.284 35.7301 167.665 36.0938C168.051 36.4517 168.245 36.8807 168.245 37.3807C168.245 37.8864 168.051 38.321 167.665 38.6847C167.284 39.0426 166.824 39.2216 166.284 39.2216ZM177.239 40.9091V43.6364H169.16V40.9091H177.239ZM171.009 54V39.9631C171.009 39.0142 171.194 38.2273 171.563 37.6023C171.938 36.9773 172.45 36.5085 173.097 36.196C173.745 35.8835 174.481 35.7273 175.305 35.7273C175.862 35.7273 176.37 35.7699 176.83 35.8551C177.296 35.9403 177.643 36.017 177.87 36.0852L177.222 38.8125C177.08 38.767 176.904 38.7244 176.694 38.6847C176.489 38.6449 176.279 38.625 176.063 38.625C175.529 38.625 175.157 38.75 174.947 39C174.737 39.2443 174.631 39.5881 174.631 40.0312V54H171.009ZM181.24 54L177.677 40.9091H181.351L183.379 49.7045H183.498L185.612 40.9091H189.217L191.365 49.6534H191.476L193.47 40.9091H197.135L193.581 54H189.737L187.487 45.767H187.325L185.075 54H181.24ZM202.004 54.2472C201.169 54.2472 200.425 54.1023 199.772 53.8125C199.118 53.517 198.601 53.0824 198.22 52.5085C197.845 51.929 197.658 51.2074 197.658 50.3438C197.658 49.6165 197.791 49.0057 198.058 48.5114C198.326 48.017 198.689 47.6193 199.149 47.3182C199.61 47.017 200.132 46.7898 200.718 46.6364C201.308 46.483 201.928 46.375 202.576 46.3125C203.337 46.233 203.951 46.1591 204.416 46.0909C204.882 46.017 205.22 45.9091 205.431 45.767C205.641 45.625 205.746 45.4148 205.746 45.1364V45.0852C205.746 44.5455 205.576 44.1278 205.235 43.8324C204.899 43.5369 204.422 43.3892 203.803 43.3892C203.149 43.3892 202.629 43.5341 202.243 43.8239C201.857 44.108 201.601 44.4659 201.476 44.8977L198.118 44.625C198.289 43.8295 198.624 43.142 199.124 42.5625C199.624 41.9773 200.269 41.5284 201.058 41.2159C201.854 40.8977 202.774 40.7386 203.82 40.7386C204.547 40.7386 205.243 40.8239 205.908 40.9943C206.578 41.1648 207.172 41.429 207.689 41.7869C208.212 42.1449 208.624 42.6051 208.925 43.1676C209.226 43.7244 209.377 44.392 209.377 45.1705V54H205.933V52.1847H205.831C205.621 52.5938 205.34 52.9545 204.987 53.267C204.635 53.5739 204.212 53.8153 203.718 53.9915C203.223 54.1619 202.652 54.2472 202.004 54.2472ZM203.044 51.7415C203.578 51.7415 204.05 51.6364 204.459 51.4261C204.868 51.2102 205.189 50.9205 205.422 50.5568C205.655 50.1932 205.772 49.7812 205.772 49.321V47.9318C205.658 48.0057 205.502 48.0739 205.303 48.1364C205.11 48.1932 204.891 48.2472 204.647 48.2983C204.402 48.3437 204.158 48.3864 203.914 48.4261C203.669 48.4602 203.448 48.4915 203.249 48.5199C202.823 48.5824 202.451 48.6818 202.132 48.8182C201.814 48.9545 201.567 49.1392 201.391 49.3722C201.215 49.5994 201.127 49.8835 201.127 50.2244C201.127 50.7188 201.306 51.0966 201.664 51.358C202.027 51.6136 202.487 51.7415 203.044 51.7415Z" fill="#39B7FF"/>
<path d="M30.0139 18V0.545454H33.7043V7.74716H41.1957V0.545454H44.8776V18H41.1957V10.7898H33.7043V18H30.0139ZM53.0179 18.2557C51.6713 18.2557 50.5122 17.983 49.5406 17.4375C48.5747 16.8864 47.8304 16.108 47.3077 15.1023C46.7849 14.0909 46.5236 12.8949 46.5236 11.5142C46.5236 10.1676 46.7849 8.9858 47.3077 7.96875C47.8304 6.9517 48.5662 6.15909 49.5151 5.59091C50.4696 5.02273 51.5889 4.73864 52.873 4.73864C53.7366 4.73864 54.5406 4.87784 55.2849 5.15625C56.0349 5.42898 56.6884 5.84091 57.2452 6.39205C57.8077 6.94318 58.2452 7.63636 58.5577 8.47159C58.8702 9.30114 59.0264 10.2727 59.0264 11.3864V12.3835H47.9724V10.1335H55.6088C55.6088 9.6108 55.4952 9.14773 55.2679 8.74432C55.0406 8.34091 54.7253 8.02557 54.3219 7.7983C53.9241 7.56534 53.4611 7.44886 52.9327 7.44886C52.3815 7.44886 51.8929 7.5767 51.4668 7.83239C51.0463 8.08239 50.7168 8.42045 50.4781 8.84659C50.2395 9.26705 50.1173 9.7358 50.1116 10.2528V12.392C50.1116 13.0398 50.231 13.5994 50.4696 14.071C50.7139 14.5426 51.0577 14.9062 51.5009 15.1619C51.944 15.4176 52.4696 15.5455 53.0776 15.5455C53.481 15.5455 53.8503 15.4886 54.1855 15.375C54.5207 15.2614 54.8077 15.0909 55.0463 14.8636C55.2849 14.6364 55.4668 14.358 55.5918 14.0284L58.9497 14.25C58.7793 15.0568 58.4298 15.7614 57.9014 16.3636C57.3787 16.9602 56.7026 17.4261 55.873 17.7614C55.0491 18.0909 54.0974 18.2557 53.0179 18.2557ZM64.2264 0.545454V18H60.5957V0.545454H64.2264ZM69.9655 0.545454V18H66.3348V0.545454H69.9655ZM77.9886 18.2557C76.6648 18.2557 75.5199 17.9744 74.554 17.4119C73.5937 16.8437 72.8523 16.054 72.3295 15.0426C71.8068 14.0256 71.5455 12.8466 71.5455 11.5057C71.5455 10.1534 71.8068 8.97159 72.3295 7.96023C72.8523 6.94318 73.5937 6.15341 74.554 5.59091C75.5199 5.02273 76.6648 4.73864 77.9886 4.73864C79.3125 4.73864 80.4545 5.02273 81.4148 5.59091C82.3807 6.15341 83.125 6.94318 83.6477 7.96023C84.1705 8.97159 84.4318 10.1534 84.4318 11.5057C84.4318 12.8466 84.1705 14.0256 83.6477 15.0426C83.125 16.054 82.3807 16.8437 81.4148 17.4119C80.4545 17.9744 79.3125 18.2557 77.9886 18.2557ZM78.0057 15.4432C78.608 15.4432 79.1108 15.2727 79.5142 14.9318C79.9176 14.5852 80.2216 14.1136 80.4261 13.517C80.6364 12.9205 80.7415 12.2415 80.7415 11.4801C80.7415 10.7188 80.6364 10.0398 80.4261 9.44318C80.2216 8.84659 79.9176 8.375 79.5142 8.02841C79.1108 7.68182 78.608 7.50852 78.0057 7.50852C77.3977 7.50852 76.8864 7.68182 76.4716 8.02841C76.0625 8.375 75.7528 8.84659 75.5426 9.44318C75.3381 10.0398 75.2358 10.7188 75.2358 11.4801C75.2358 12.2415 75.3381 12.9205 75.5426 13.517C75.7528 14.1136 76.0625 14.5852 76.4716 14.9318C76.8864 15.2727 77.3977 15.4432 78.0057 15.4432ZM90.3307 0.545454L89.9983 12.767H86.879L86.5381 0.545454H90.3307ZM88.4386 18.2216C87.8761 18.2216 87.3932 18.0227 86.9898 17.625C86.5864 17.2216 86.3875 16.7386 86.3932 16.1761C86.3875 15.6193 86.5864 15.142 86.9898 14.7443C87.3932 14.3466 87.8761 14.1477 88.4386 14.1477C88.9784 14.1477 89.4528 14.3466 89.8619 14.7443C90.271 15.142 90.4784 15.6193 90.4841 16.1761C90.4784 16.5511 90.379 16.8949 90.1858 17.2074C89.9983 17.5142 89.7511 17.7614 89.4443 17.9489C89.1375 18.1307 88.8023 18.2216 88.4386 18.2216Z" fill="black"/>
<path d="M100.95 0.545454L105.169 13.8068H105.331L109.558 0.545454H113.649L107.632 18H102.876L96.8507 0.545454H100.95ZM119.371 18.2557C118.024 18.2557 116.865 17.983 115.894 17.4375C114.928 16.8864 114.184 16.108 113.661 15.1023C113.138 14.0909 112.877 12.8949 112.877 11.5142C112.877 10.1676 113.138 8.9858 113.661 7.96875C114.184 6.9517 114.919 6.15909 115.868 5.59091C116.823 5.02273 117.942 4.73864 119.226 4.73864C120.09 4.73864 120.894 4.87784 121.638 5.15625C122.388 5.42898 123.041 5.84091 123.598 6.39205C124.161 6.94318 124.598 7.63636 124.911 8.47159C125.223 9.30114 125.38 10.2727 125.38 11.3864V12.3835H114.326V10.1335H121.962C121.962 9.6108 121.848 9.14773 121.621 8.74432C121.394 8.34091 121.078 8.02557 120.675 7.7983C120.277 7.56534 119.814 7.44886 119.286 7.44886C118.735 7.44886 118.246 7.5767 117.82 7.83239C117.399 8.08239 117.07 8.42045 116.831 8.84659C116.593 9.26705 116.47 9.7358 116.465 10.2528V12.392C116.465 13.0398 116.584 13.5994 116.823 14.071C117.067 14.5426 117.411 14.9062 117.854 15.1619C118.297 15.4176 118.823 15.5455 119.431 15.5455C119.834 15.5455 120.203 15.4886 120.539 15.375C120.874 15.2614 121.161 15.0909 121.399 14.8636C121.638 14.6364 121.82 14.358 121.945 14.0284L125.303 14.25C125.132 15.0568 124.783 15.7614 124.255 16.3636C123.732 16.9602 123.056 17.4261 122.226 17.7614C121.402 18.0909 120.451 18.2557 119.371 18.2557ZM130.58 10.4318V18H126.949V4.90909H130.409V7.21875H130.562C130.852 6.45739 131.338 5.85511 132.02 5.41193C132.702 4.96307 133.528 4.73864 134.5 4.73864C135.409 4.73864 136.202 4.9375 136.878 5.33523C137.554 5.73295 138.08 6.30114 138.455 7.03977C138.83 7.77273 139.017 8.64773 139.017 9.66477V18H135.386V10.3125C135.392 9.51136 135.188 8.88636 134.773 8.4375C134.358 7.98295 133.787 7.75568 133.06 7.75568C132.571 7.75568 132.139 7.8608 131.764 8.07102C131.395 8.28125 131.105 8.58807 130.895 8.99148C130.69 9.3892 130.585 9.86932 130.58 10.4318ZM145.902 18.2131C144.908 18.2131 144.008 17.9574 143.201 17.446C142.4 16.929 141.763 16.1705 141.292 15.1705C140.826 14.1648 140.593 12.9318 140.593 11.4716C140.593 9.97159 140.834 8.72443 141.317 7.73011C141.8 6.73011 142.442 5.98295 143.243 5.48864C144.05 4.98864 144.934 4.73864 145.894 4.73864C146.627 4.73864 147.238 4.86364 147.726 5.11364C148.221 5.35795 148.618 5.66477 148.919 6.03409C149.226 6.39773 149.459 6.75568 149.618 7.10795H149.729V0.545454H153.351V18H149.772V15.9034H149.618C149.448 16.267 149.206 16.6278 148.894 16.9858C148.587 17.3381 148.187 17.6307 147.692 17.8636C147.204 18.0966 146.607 18.2131 145.902 18.2131ZM147.053 15.3239C147.638 15.3239 148.133 15.1648 148.536 14.8466C148.945 14.5227 149.258 14.071 149.473 13.4915C149.695 12.9119 149.806 12.233 149.806 11.4545C149.806 10.6761 149.698 10 149.482 9.42614C149.266 8.85227 148.954 8.40909 148.544 8.09659C148.135 7.78409 147.638 7.62784 147.053 7.62784C146.456 7.62784 145.954 7.78977 145.544 8.11364C145.135 8.4375 144.826 8.88636 144.615 9.46023C144.405 10.0341 144.3 10.6989 144.3 11.4545C144.3 12.2159 144.405 12.8892 144.615 13.4744C144.831 14.054 145.141 14.5085 145.544 14.8381C145.954 15.1619 146.456 15.3239 147.053 15.3239ZM161.451 18.2557C160.127 18.2557 158.982 17.9744 158.016 17.4119C157.056 16.8437 156.315 16.054 155.792 15.0426C155.269 14.0256 155.008 12.8466 155.008 11.5057C155.008 10.1534 155.269 8.97159 155.792 7.96023C156.315 6.94318 157.056 6.15341 158.016 5.59091C158.982 5.02273 160.127 4.73864 161.451 4.73864C162.775 4.73864 163.917 5.02273 164.877 5.59091C165.843 6.15341 166.587 6.94318 167.11 7.96023C167.633 8.97159 167.894 10.1534 167.894 11.5057C167.894 12.8466 167.633 14.0256 167.11 15.0426C166.587 16.054 165.843 16.8437 164.877 17.4119C163.917 17.9744 162.775 18.2557 161.451 18.2557ZM161.468 15.4432C162.07 15.4432 162.573 15.2727 162.977 14.9318C163.38 14.5852 163.684 14.1136 163.889 13.517C164.099 12.9205 164.204 12.2415 164.204 11.4801C164.204 10.7188 164.099 10.0398 163.889 9.44318C163.684 8.84659 163.38 8.375 162.977 8.02841C162.573 7.68182 162.07 7.50852 161.468 7.50852C160.86 7.50852 160.349 7.68182 159.934 8.02841C159.525 8.375 159.215 8.84659 159.005 9.44318C158.801 10.0398 158.698 10.7188 158.698 11.4801C158.698 12.2415 158.801 12.9205 159.005 13.517C159.215 14.1136 159.525 14.5852 159.934 14.9318C160.349 15.2727 160.86 15.4432 161.468 15.4432ZM169.455 18V4.90909H172.975V7.19318H173.111C173.35 6.38068 173.751 5.76705 174.313 5.35227C174.876 4.93182 175.523 4.72159 176.256 4.72159C176.438 4.72159 176.634 4.73295 176.844 4.75568C177.055 4.77841 177.239 4.80966 177.398 4.84943V8.07102C177.228 8.01989 176.992 7.97443 176.691 7.93466C176.39 7.89489 176.114 7.875 175.864 7.875C175.33 7.875 174.853 7.99148 174.432 8.22443C174.018 8.4517 173.688 8.76989 173.444 9.17898C173.205 9.58807 173.086 10.0597 173.086 10.5938V18H169.455ZM189.367 8.64205L186.044 8.84659C185.987 8.5625 185.865 8.30682 185.677 8.07955C185.49 7.84659 185.242 7.66193 184.936 7.52557C184.635 7.38352 184.274 7.3125 183.853 7.3125C183.291 7.3125 182.816 7.43182 182.43 7.67045C182.044 7.90341 181.85 8.21591 181.85 8.60795C181.85 8.92045 181.975 9.18466 182.225 9.40057C182.475 9.61648 182.904 9.78977 183.512 9.92045L185.882 10.3977C187.154 10.6591 188.103 11.0795 188.728 11.6591C189.353 12.2386 189.666 13 189.666 13.9432C189.666 14.8011 189.413 15.554 188.907 16.2017C188.407 16.8494 187.72 17.3551 186.845 17.7188C185.975 18.0767 184.973 18.2557 183.836 18.2557C182.103 18.2557 180.723 17.8949 179.694 17.1733C178.671 16.446 178.072 15.4574 177.896 14.2074L181.467 14.0199C181.575 14.5483 181.836 14.9517 182.251 15.2301C182.666 15.5028 183.197 15.6392 183.845 15.6392C184.481 15.6392 184.992 15.517 185.379 15.2727C185.771 15.0227 185.97 14.7017 185.975 14.3097C185.97 13.9801 185.831 13.7102 185.558 13.5C185.285 13.2841 184.865 13.1193 184.296 13.0057L182.029 12.554C180.751 12.2983 179.799 11.8551 179.174 11.2244C178.555 10.5937 178.245 9.78977 178.245 8.8125C178.245 7.97159 178.473 7.24716 178.927 6.6392C179.387 6.03125 180.032 5.5625 180.862 5.23295C181.697 4.90341 182.674 4.73864 183.794 4.73864C185.447 4.73864 186.748 5.08807 187.697 5.78693C188.652 6.4858 189.208 7.4375 189.367 8.64205Z" fill="#4BBEFF"/>
</svg>
