<svg width="227" height="227" viewBox="0 0 227 227" fill="none" xmlns="http://www.w3.org/2000/svg">
<g clip-path="url(#clip0_2408_2)">
<mask id="mask0_2408_2" style="mask-type:luminance" maskUnits="userSpaceOnUse" x="0" y="0" width="227" height="227">
<path d="M227 0H0V227H227V0Z" fill="white"/>
</mask>
<g mask="url(#mask0_2408_2)">
<path d="M227 0H0V227H227V0Z" fill="#F6F4E7"/>
<path d="M227 60.9195V136.188C226.396 136.198 225.788 136.202 225.184 136.202H0V27.1827C6.84178 29.2938 12.2807 34.0654 15.5086 39.586C18.8592 45.3246 20.0123 51.8168 20.1031 58.2136C20.9521 53.4829 25.4467 49.3652 30.9764 48.2529C36.5016 47.1406 42.7214 49.1064 46.0174 53.0017C43.5159 45.2928 45.3728 36.6577 50.9297 30.1746C52.1873 28.7082 53.69 27.3008 55.6695 26.5971C61.0221 24.6903 66.6654 28.522 70.5516 32.1586C71.9091 22.2795 83.1683 14.0984 94.9768 14.4117C106.781 14.725 117.409 23.4872 118.026 33.4161C120.169 29.7841 121.159 26.3973 123.302 22.7608C125.971 18.2298 128.827 13.5128 133.726 10.5799C141.807 5.7403 153.715 7.38832 161.156 12.9135C168.597 18.4387 172.071 26.9603 172.774 35.2912C174.159 32.1722 177.591 29.7614 181.482 29.1667C185.377 28.5765 189.59 29.825 192.187 32.3402C194.743 34.8145 195.633 38.1922 196.178 41.4383C197.209 47.5946 197.322 53.8598 196.514 60.0387C197.1 56.0253 201.803 52.5432 206.538 53.2151C210.234 53.7372 213.053 56.4703 214.261 59.4576C215.473 62.4449 215.373 65.6774 215.264 68.8327C216.277 64.7785 220.585 61.4643 225.47 60.9785C225.979 60.9285 226.492 60.9104 227 60.9195Z" fill="white"/>
<path d="M227 126.211H0V226.999H227V126.211Z" fill="#EAE7D8"/>
<path d="M15.5691 115.163C15.1192 113.061 15.0438 110.452 16.8035 109.218C18.8043 107.813 21.5079 109.25 23.5018 110.664C21.4661 107.182 20.0778 103.322 19.429 99.3408C19.2147 98.0251 19.0853 96.6454 19.5157 95.3837C19.9466 94.1221 21.0743 93.0116 22.4072 92.9939C24.3844 92.9671 25.6111 95.1027 27.3372 96.067C26.1854 92.7269 25.6352 89.1803 25.7205 85.6481C25.7573 84.1191 26.175 82.2536 27.6455 81.8327C29.0919 81.4191 30.4122 82.7212 31.356 83.8925C31.2879 79.1342 31.3665 73.934 34.3924 70.2612C34.9286 69.6106 35.6141 68.9941 36.4531 68.9123C38.3172 68.7312 39.2919 71.0484 39.6093 72.8939C40.357 77.2419 40.7852 81.6452 40.8896 86.0558C41.4716 84.2703 44.4185 84.5831 45.3401 86.2193C46.2622 87.8555 45.7755 89.8994 45.1794 91.6804C43.9459 95.3669 42.3396 98.9286 40.3934 102.294C41.5279 101.52 43.1991 102.022 44.0453 103.104C44.8916 104.186 45.0568 105.661 44.9184 107.027C44.5393 110.763 42.2171 113.975 39.9761 116.986C41.0031 115.657 43.2404 115.814 44.4312 116.999C45.6221 118.184 45.9131 120.029 45.692 121.694C45.1358 125.88 41.8947 129.185 38.5083 131.707C36.0109 133.567 32.6776 135.711 29.4311 135.693C26.7829 135.679 25.7459 133.775 24.1247 131.903C19.9456 127.077 16.9102 121.434 15.5691 115.163Z" fill="#EAE7D8"/>
<path d="M48.3486 91.4212C47.7466 88.6078 47.6458 85.1175 50.0007 83.4644C52.6784 81.5853 56.2967 83.5085 58.9649 85.4012C56.2405 80.7404 54.3822 75.5753 53.5142 70.2471C53.2273 68.4861 53.0543 66.6401 53.6304 64.9512C54.207 63.2628 55.7161 61.7764 57.4998 61.7528C60.1458 61.7174 61.7874 64.5753 64.0978 65.8656C62.5565 61.3955 61.8201 56.6489 61.9345 51.9219C61.984 49.8757 62.5424 47.3792 64.5105 46.8162C66.4464 46.2623 68.2129 48.0052 69.4764 49.5729C69.3851 43.2046 69.4904 36.2457 73.5401 31.3303C74.2574 30.4595 75.175 29.6346 76.2982 29.5251C78.7929 29.2823 80.0972 32.3835 80.5217 34.8537C81.5223 40.6727 82.0953 46.5656 82.2351 52.468C83.0142 50.0786 86.9576 50.4972 88.1916 52.6864C89.4256 54.8761 88.7741 57.611 87.9764 59.9945C86.3261 64.9281 84.1764 69.6946 81.5714 74.1978C83.0896 73.1618 85.3264 73.8346 86.4587 75.2824C87.591 76.7303 87.8125 78.7042 87.6268 80.533C87.1197 85.531 84.0121 89.83 81.0125 93.8601C82.3868 92.0814 85.3809 92.292 86.9744 93.8774C88.568 95.4628 88.958 97.9321 88.6615 100.16C87.9169 105.762 83.5794 110.186 79.0476 113.561C75.7052 116.05 71.2447 118.919 66.8995 118.895C63.3555 118.876 61.9677 116.328 59.798 113.823C54.2056 107.364 50.1441 99.813 48.3486 91.4212Z" fill="#EAE7D8"/>
<path d="M165.935 100.046C165.333 97.2328 165.232 93.7424 167.587 92.0894C170.264 90.2103 173.883 92.1335 176.551 94.0262C173.826 89.3654 171.968 84.2003 171.1 78.8721C170.813 77.1111 170.64 75.2651 171.216 73.5762C171.792 71.8878 173.302 70.4014 175.086 70.3778C177.732 70.3424 179.373 73.2003 181.684 74.4906C180.142 70.0205 179.406 65.2739 179.52 60.5469C179.57 58.5007 180.128 56.0041 182.096 55.4412C184.032 54.8873 185.799 56.6302 187.062 58.1979C186.971 51.8296 187.076 44.8707 191.126 39.9553C191.843 39.0845 192.761 38.2596 193.884 38.1501C196.379 37.9073 197.683 41.0085 198.108 43.4787C199.108 49.2977 199.681 55.1906 199.821 61.093C200.6 58.7036 204.544 59.1222 205.778 61.3114C207.012 63.5011 206.36 66.2364 205.562 68.6194C203.912 73.5531 201.762 78.3196 199.157 82.8228C200.675 81.7868 202.912 82.4596 204.045 83.9074C205.177 85.3552 205.398 87.3292 205.213 89.158C204.706 94.156 201.598 98.455 198.598 102.485C199.973 100.706 202.967 100.917 204.56 102.502C206.154 104.088 206.544 106.557 206.247 108.785C205.503 114.387 201.165 118.811 196.634 122.186C193.291 124.675 188.831 127.544 184.485 127.52C180.941 127.501 179.554 124.953 177.384 122.448C171.792 115.989 167.73 108.438 165.935 100.046Z" fill="#EAE7D8"/>
<path d="M217.465 162.078H16.7969C14.5496 162.078 12.7109 160.24 12.7109 157.992C12.7109 155.745 14.5496 153.906 16.7969 153.906H217.465C219.712 153.906 221.551 155.745 221.551 157.992C221.551 160.24 219.712 162.078 217.465 162.078Z" fill="#DDD9C7"/>
<path d="M152.058 131.97H66.9434V83.2635C66.9434 77.9122 71.2814 73.5742 76.6327 73.5742H142.369C147.72 73.5742 152.058 77.9122 152.058 83.2635V131.97Z" fill="#FFCA5F"/>
<path d="M64.7241 81.0359L36.9098 84.4686C36.2769 84.5467 35.7094 84.904 35.3558 85.446L18.1755 111.798C17.4468 112.916 17.0632 114.232 17.0745 115.576L17.3265 145.191H152.113V123.706H67.2942L67.1675 83.2437C67.163 81.9085 66.0203 80.8761 64.7241 81.0359Z" fill="#86E2C7"/>
<path d="M151.508 147.669H18.7409C17.0743 147.669 15.7109 146.306 15.7109 144.639C15.7109 142.973 17.0743 141.609 18.7409 141.609H151.508C153.175 141.609 154.538 142.973 154.538 144.639C154.538 146.306 153.174 147.669 151.508 147.669Z" fill="#27A080"/>
<path d="M49.317 160.341C56.1626 160.341 61.7121 154.792 61.7121 147.946C61.7121 141.1 56.1626 135.551 49.317 135.551C42.4714 135.551 36.9219 141.1 36.9219 147.946C36.9219 154.792 42.4714 160.341 49.317 160.341Z" fill="#282F39"/>
<path d="M54.139 149.086C54.771 146.421 53.1235 143.749 50.4591 143.117C47.7947 142.485 45.1225 144.132 44.4905 146.797C43.8585 149.461 45.5061 152.133 48.1704 152.765C50.8348 153.397 53.507 151.75 54.139 149.086Z" fill="#F2F2F2"/>
<path d="M123.413 160.341C130.258 160.341 135.808 154.792 135.808 147.946C135.808 141.1 130.258 135.551 123.413 135.551C116.567 135.551 111.018 141.1 111.018 147.946C111.018 154.792 116.567 160.341 123.413 160.341Z" fill="#282F39"/>
<path d="M128.215 149.124C128.867 146.464 127.24 143.78 124.581 143.128C121.921 142.476 119.237 144.103 118.585 146.763C117.933 149.422 119.56 152.107 122.22 152.759C124.879 153.411 127.563 151.783 128.215 149.124Z" fill="#F2F2F2"/>
<path d="M151.645 126.46H67.0817C65.3397 126.46 63.9141 125.035 63.9141 123.293C63.9141 121.551 65.3397 120.125 67.0817 120.125H151.645C153.387 120.125 154.813 121.551 154.813 123.293C154.813 125.035 153.387 126.46 151.645 126.46Z" fill="#27A080"/>
<path d="M62.3376 144.426C61.3357 144.796 60.1961 144.404 59.6736 143.472C57.6274 139.826 53.718 137.478 49.454 137.478C45.1896 137.478 41.2807 139.826 39.2345 143.472C38.7119 144.404 37.5724 144.796 36.5704 144.426C35.3015 143.957 34.7444 142.461 35.41 141.283C38.232 136.286 43.6001 133.07 49.4545 133.07C55.3088 133.07 60.6764 136.286 63.499 141.283C64.1636 142.461 63.607 143.957 62.3376 144.426Z" fill="#37BB9B"/>
<path d="M136.433 144.426C135.432 144.796 134.292 144.404 133.769 143.472C131.723 139.826 127.814 137.478 123.55 137.478C119.285 137.478 115.377 139.826 113.33 143.472C112.808 144.404 111.668 144.796 110.666 144.426C109.397 143.957 108.84 142.461 109.505 141.283C112.327 136.286 117.696 133.07 123.55 133.07C129.404 133.07 134.772 136.286 137.594 141.283C138.259 142.461 137.702 143.957 136.433 144.426Z" fill="#37BB9B"/>
<path d="M127.407 93.4052H87.4995C86.9692 93.4052 86.5352 92.9711 86.5352 92.4409C86.5352 91.9106 86.9692 91.4766 87.4995 91.4766H127.407C127.937 91.4766 128.371 91.9106 128.371 92.4409C128.371 92.9716 127.937 93.4052 127.407 93.4052Z" fill="white"/>
<path d="M127.407 107.178H87.4995C86.9692 107.178 86.5352 106.744 86.5352 106.214C86.5352 105.684 86.9692 105.25 87.4995 105.25H127.407C127.937 105.25 128.371 105.684 128.371 106.214C128.371 106.744 127.937 107.178 127.407 107.178Z" fill="white"/>
<path d="M116.356 100.291H76.4482C75.918 100.291 75.4844 99.8578 75.4844 99.3276C75.4844 98.7973 75.9184 98.3633 76.4482 98.3633H116.356C116.886 98.3633 117.32 98.7973 117.32 99.3276C117.32 99.8578 116.886 100.291 116.356 100.291Z" fill="white"/>
<path d="M18.19 135.825C16.675 135.825 15.4355 134.585 15.4355 133.07V126.184C15.4355 124.669 16.675 123.43 18.19 123.43C19.705 123.43 20.9444 124.669 20.9444 126.184V133.07C20.9444 134.585 19.705 135.825 18.19 135.825Z" fill="#F79937"/>
<path d="M151.784 138.58C150.269 138.58 149.029 137.341 149.029 135.826V131.418C149.029 129.903 150.269 128.664 151.784 128.664C153.299 128.664 154.538 129.903 154.538 131.418V135.826C154.538 137.341 153.299 138.58 151.784 138.58Z" fill="#F16C5F"/>
<path d="M57.579 117.645H53.9983C53.3923 117.645 52.8965 117.149 52.8965 116.543C52.8965 115.937 53.3923 115.441 53.9983 115.441H57.579C58.1851 115.441 58.6809 115.937 58.6809 116.543C58.6809 117.149 58.1851 117.645 57.579 117.645Z" fill="#F2F2F2"/>
<path d="M60.0585 91.3832V110.086C60.0585 111.681 58.7777 112.981 57.1828 113.006L45.589 113.185L43.6114 113.215L39.5458 113.279L33.7364 113.37L29.9959 113.427C27.6601 113.463 26.2277 110.879 27.4976 108.918L38.9066 91.2865C39.3915 90.5374 40.1928 90.0498 41.0853 89.9672L49.3654 89.1849L54.3235 88.7137L56.8605 88.474C57.0339 88.4576 57.2046 88.4576 57.3726 88.4685C57.9319 88.5126 58.4468 88.7164 58.8767 89.0333C59.5904 89.5649 60.0585 90.4162 60.0585 91.3832Z" fill="#F6F4E7"/>
<path d="M54.3234 88.7148C53.5221 90.3951 52.4861 92.0177 51.6516 93.5381C50.1421 96.2898 48.5803 99.0057 46.9468 101.689C44.5615 105.609 42.0963 109.47 39.5457 113.28L33.7363 113.371C36.8517 108.831 39.8925 104.237 42.8399 99.59C44.5202 96.94 46.1977 94.2845 47.8616 91.6241C48.3683 90.8173 48.8672 90.0019 49.3657 89.1866L54.3234 88.7148Z" fill="#E6E6E6"/>
<path d="M58.8766 89.033C56.4473 93.5503 53.8304 97.9768 51.3733 102.475C49.4289 106.034 47.4975 109.604 45.5889 113.185L43.6113 113.215C45.6688 109.328 47.7568 105.456 49.8969 101.613C52.3376 97.2222 54.7393 92.7627 57.3725 88.4688C57.9318 88.5127 58.4467 88.7165 58.8766 89.033Z" fill="#E6E6E6"/>
<path d="M27.8309 116.266C26.4675 116.266 25.3516 115.151 25.3516 113.787V109.655C25.3516 108.292 26.467 107.176 27.8309 107.176C29.1942 107.176 30.3097 108.291 30.3097 109.655V113.787C30.3102 115.151 29.1947 116.266 27.8309 116.266Z" fill="#37BB9B"/>
<path d="M217.013 134.016H189.809V156.3H217.013V134.016Z" fill="white"/>
<path d="M196.217 134.016H189.809V156.3H196.217V134.016Z" fill="#F2F2F2"/>
<path d="M208.511 134.016H203.672V143.422H208.511V134.016Z" fill="#F2F2F2"/>
<path d="M207.072 145.883H199.094V151.961H207.072V145.883Z" fill="#FFCA5F"/>
<path d="M213.872 143.062H209.033V146.749H213.872V143.062Z" fill="#BBEFF2"/>
<path d="M200.669 111.77H173.465V134.054H200.669V111.77Z" fill="white"/>
<path d="M179.874 111.77H173.465V134.054H179.874V111.77Z" fill="#F2F2F2"/>
<path d="M192.167 111.77H187.328V121.176H192.167V111.77Z" fill="#F2F2F2"/>
<path d="M190.728 123.637H182.75V129.714H190.728V123.637Z" fill="#FFCA5F"/>
<path d="M197.529 120.816H192.689V124.503H197.529V120.816Z" fill="#BBEFF2"/>
<path d="M187.048 134.016H159.844V156.3H187.048V134.016Z" fill="white"/>
<path d="M166.252 134.016H159.844V156.3H166.252V134.016Z" fill="#F2F2F2"/>
<path d="M178.546 134.016H173.707V143.422H178.546V134.016Z" fill="#F2F2F2"/>
<path d="M177.109 145.883H169.131V151.961H177.109V145.883Z" fill="#FFA85A"/>
<path d="M183.909 143.062H179.07V146.749H183.909V143.062Z" fill="#BBEFF2"/>
<mask id="mask1_2408_2" style="mask-type:luminance" maskUnits="userSpaceOnUse" x="0" y="0" width="227" height="227">
<path d="M227 0H0V227H227V0Z" fill="white"/>
</mask>
<g mask="url(#mask1_2408_2)">
<path d="M80.008 213.129C80.008 213.129 70.4948 296.98 78.1052 345.041H110.766L112.352 250.282L122.943 249.942L123.894 345.041H157.38C157.38 345.041 163.721 255.736 154.209 213.47C154.209 213.47 81.5125 214.746 80.008 213.129Z" fill="#282F39"/>
<path d="M176.627 186.641C174.179 172.72 170.941 158.949 167.474 145.244C165.705 138.249 163.711 130.965 158.806 125.672C153.537 119.986 145.734 117.495 138.226 115.558C136.709 115.167 135.131 114.74 133.518 114.321C133.12 114.215 132.718 114.11 132.312 114.007C131.473 113.793 130.625 113.585 129.769 113.384C124.912 112.249 119.888 111.434 115.245 111.969C112.307 112.306 109.331 112.937 106.376 113.755C105.585 113.973 104.794 114.205 104.007 114.447C103.57 114.58 103.134 114.719 102.698 114.863C98.703 116.154 94.7932 117.719 91.0985 119.277C88.8521 120.228 86.6026 121.264 84.7521 122.849C82.8103 124.509 81.4188 126.675 80.3079 128.996C79.4153 130.121 78.5631 131.28 77.7414 132.448C67.2762 147.318 60.4789 164.687 55.5099 182.398C54.3518 186.525 53.2776 190.786 53.619 195.072C53.9604 199.358 55.9798 203.734 59.6359 205.713C61.905 206.941 64.5386 207.139 67.0887 207.313C68.0485 207.378 69.011 207.443 69.9744 207.5C69.7342 214.574 69.5658 221.664 69.3415 228.761C88.0236 232.159 125.46 236.696 166.377 228.917C165.674 222.294 164.976 215.671 164.277 209.045C164.216 208.489 164.164 207.897 164.42 207.399C164.825 206.605 170.248 205.347 171.084 205.04C174.37 203.844 176.48 200.487 177.137 197.051C177.793 193.618 177.233 190.08 176.627 186.641Z" fill="#F79937"/>
<path d="M129.768 113.383C126.551 117.419 123.333 121.455 120.115 125.491C119.686 126.029 119.256 126.568 118.827 127.107C118.524 127.488 118.217 127.87 117.913 128.252C117.613 127.857 117.3 127.458 116.976 127.056C116.56 126.538 116.124 126.012 115.681 125.484C112.572 121.789 108.853 117.795 106.375 113.755C109.33 112.937 112.306 112.307 115.244 111.969C119.887 111.434 124.911 112.248 129.768 113.383Z" fill="#F9CEBE"/>
<path d="M116.977 127.054C112.185 126.536 107.29 128.986 104.887 133.182C104.505 133.851 103.595 133.496 103.537 132.814C103.234 129.365 102.992 125.915 102.862 122.456C102.77 120.005 102.531 117.377 102.699 114.861C103.135 114.718 103.571 114.578 104.007 114.445C104.321 117.077 104.219 119.848 104.355 122.456C104.498 125.206 104.655 127.96 104.839 130.711C107.498 127.418 111.452 125.503 115.682 125.483C116.125 126.011 116.561 126.536 116.977 127.054Z" fill="#EF882B"/>
<path d="M133.398 122.458C133.268 125.918 133.026 129.367 132.726 132.817C132.665 133.498 131.755 133.853 131.373 133.185C128.912 128.89 123.843 126.422 118.942 127.097C118.904 127.104 118.863 127.107 118.826 127.107C119.256 126.569 119.685 126.03 120.115 125.491C124.522 125.365 128.663 127.301 131.421 130.713C131.605 127.962 131.762 125.208 131.905 122.458C132.048 119.704 131.925 116.772 132.31 114.008C132.716 114.11 133.119 114.216 133.517 114.322C133.762 117.001 133.496 119.83 133.398 122.458Z" fill="#EF882B"/>
<path d="M85.9154 126.839C85.3629 126.324 84.572 127.115 85.0869 127.667C93.5145 136.722 86.3036 150.382 82.2743 159.734C77.5332 170.74 72.2523 181.508 66.4624 191.999C66.1855 192.501 66.3975 193.348 67.0522 193.449C71.5096 194.139 75.9656 194.858 80.4343 195.472C81.6283 195.636 82.1745 193.831 80.9441 193.623C76.9208 192.942 72.8815 192.345 68.8459 191.737C74.7874 180.792 80.1546 169.546 84.8907 158.026C88.693 148.778 94.8797 135.198 85.9154 126.839Z" fill="#EF882B"/>
<path d="M122.984 148.896C121.526 148.95 120.085 148.897 118.64 148.751C118.624 145.214 118.621 141.678 118.58 138.142C118.56 136.367 118.55 134.591 118.495 132.817C118.453 131.472 118.729 129.846 117.863 128.744C117.829 128.7 117.739 128.7 117.705 128.744C116.897 129.787 117.143 131.209 117.109 132.484C117.059 134.369 117.059 136.256 117.049 138.142C117.031 141.913 117.056 145.685 117.062 149.457C117.063 149.925 117.427 150.192 117.852 150.248C119.562 150.47 121.261 150.551 122.984 150.494C124.01 150.46 124.014 148.858 122.984 148.896Z" fill="#EF882B"/>
<path d="M124.707 132.078C124.311 131.399 123.563 130.956 122.774 130.957C122.625 130.957 122.478 130.978 122.333 131.008C122.295 131.014 122.257 131.023 122.219 131.031C122.205 131.035 122.191 131.039 122.177 131.043C121.678 131.162 121.223 131.446 120.896 131.869C120.338 132.592 120.254 133.6 120.7 134.405C121.101 135.13 121.919 135.591 122.748 135.571C123.565 135.551 124.339 135.109 124.739 134.392C125.134 133.683 125.115 132.778 124.707 132.078Z" fill="white"/>
<path d="M124.707 142.598C124.311 141.919 123.563 141.475 122.774 141.477C122.625 141.477 122.478 141.497 122.333 141.527C122.295 141.534 122.257 141.542 122.219 141.551C122.205 141.554 122.191 141.558 122.177 141.562C121.678 141.681 121.223 141.965 120.896 142.388C120.338 143.111 120.254 144.119 120.7 144.924C121.101 145.649 121.919 146.11 122.748 146.09C123.565 146.07 124.339 145.628 124.739 144.911C125.134 144.202 125.115 143.297 124.707 142.598Z" fill="white"/>
<path d="M142.748 128.254H96.0508V144.615H142.748V128.254Z" fill="white"/>
<path d="M107.052 128.254H96.0508V144.615H107.052V128.254Z" fill="#F2F2F2"/>
<path d="M128.156 128.254H119.85V135.16H128.156V128.254Z" fill="#F2F2F2"/>
<path d="M105.802 196.306C105.28 198.201 103.917 199.847 102.151 200.709C101.711 200.921 101.217 201.122 100.992 201.555C100.723 202.076 100.958 202.737 100.733 203.276C100.419 204.04 99.407 204.193 98.8005 204.749C98.4836 205.038 98.2857 205.434 97.9996 205.754C97.236 206.606 95.9884 206.783 94.8466 206.896C90.1804 207.353 85.4865 207.558 80.793 207.503C80.7962 203.256 81.0659 199.009 81.0795 194.779C81.6112 194.84 82.1428 194.895 82.6749 194.949C83.8303 195.065 85.0062 195.167 86.1516 194.959C87.8832 194.643 89.3963 193.644 90.9749 192.863C92.5498 192.079 94.3872 191.496 96.0502 192.072C95.4572 194.161 93.5654 195.576 91.7894 196.827C96.4624 196.653 101.132 196.479 105.802 196.306Z" fill="#F9CEBE"/>
<path d="M161.913 184.157C160.916 181.638 160.168 179.028 159.488 176.409C156.671 165.561 153.947 154.593 151.73 143.606C151.108 140.529 150.605 137.419 150.416 134.284C150.224 131.086 150.537 127.97 150.896 124.798C150.972 124.128 149.956 124.057 149.766 124.645C147.84 130.598 148.787 137.417 149.917 143.437C151.135 149.934 152.731 156.372 154.266 162.799C155.772 169.107 157.097 175.532 159.103 181.704C159.578 183.164 160.11 184.604 160.72 186.012C161.024 186.715 161.716 187.67 161.812 188.422C161.951 189.513 160.856 189.966 160.151 190.354C157.158 192.002 153.966 193.236 150.684 194.17C149.528 194.499 150.022 196.311 151.18 195.972C153.623 195.259 156.008 194.376 158.315 193.301C159.945 192.541 162.577 191.675 163.437 189.94C164.342 188.114 162.557 185.784 161.913 184.157Z" fill="#EF882B"/>
<path d="M124.218 115.362C124.218 119.176 121.157 122.319 117.305 122.384C113.16 122.452 109.857 118.934 110.185 114.803L110.433 111.678L111.5 98.2002L123.495 97.832L124.091 112.23L124.211 115.066C124.214 115.165 124.218 115.264 124.218 115.362Z" fill="#F9CEBE"/>
<path d="M124.092 112.23C119.858 114.003 114.821 113.815 110.703 111.811C110.614 111.766 110.522 111.722 110.434 111.678L111.501 98.2002L123.495 97.832L124.092 112.23Z" fill="#F4B7A4"/>
<path d="M90.4434 75.0597C91.82 75.2758 93.28 74.889 94.3692 74.0196C93.6986 74.6275 93.1102 75.4879 93.2841 76.3763C93.458 77.2644 94.7859 77.8087 95.3053 77.0678C94.8204 78.6454 95.1986 80.352 95.693 81.9265C96.3522 84.0262 97.2158 86.062 98.2672 87.9956C98.625 88.6529 99.0962 89.3657 99.834 89.4901C101.006 89.6872 101.789 88.3283 102.113 87.1852C103.425 82.5657 103.324 77.6793 103.213 72.8787C103.134 69.4015 101.584 64.5301 97.0805 65.5262C93.2378 66.3756 90.5061 71.4332 90.4434 75.0597Z" fill="#282F39"/>
<path d="M145.883 75.0597C144.507 75.2758 143.046 74.889 141.957 74.0196C142.628 74.6275 143.216 75.4879 143.043 76.3763C142.869 77.2644 141.541 77.8087 141.021 77.0678C141.506 78.6454 141.128 80.352 140.634 81.9265C139.974 84.0262 139.111 86.062 138.059 87.9956C137.702 88.6529 137.23 89.3657 136.493 89.4901C135.32 89.6872 134.537 88.3283 134.213 87.1852C132.902 82.5657 133.002 77.6793 133.113 72.8787C133.193 69.4015 134.743 64.5301 139.246 65.5262C143.089 66.3756 145.821 71.4332 145.883 75.0597Z" fill="#282F39"/>
<path d="M94.8362 83.7369C94.1016 85.1271 94.3182 86.7746 94.7604 88.2633C95.2303 89.8441 95.9367 91.3664 96.8547 92.7752C97.3672 93.5624 97.9693 94.3351 98.8201 94.8231C99.6708 95.3117 100.822 95.4592 101.678 94.9784C102.724 94.3909 102.994 93.1356 103.118 92.0229C103.439 89.1336 102.936 86.9145 101.183 84.5564C100.367 83.4577 99.6563 82.0063 98.0047 81.9073C96.6944 81.8288 95.3874 82.6945 94.8362 83.7369Z" fill="#F4B7A4"/>
<path d="M142.948 83.7369C143.683 85.1271 143.467 86.7746 143.024 88.2633C142.554 89.8441 141.848 91.3664 140.93 92.7752C140.417 93.5624 139.815 94.3351 138.965 94.8231C138.114 95.3117 136.963 95.4592 136.107 94.9784C135.061 94.3909 134.79 93.1356 134.667 92.0229C134.346 89.1336 134.849 86.9145 136.601 84.5564C137.418 83.4577 138.128 82.0063 139.78 81.9073C141.091 81.8288 142.398 82.6945 142.948 83.7369Z" fill="#F4B7A4"/>
<path d="M137.12 65.0661L137.015 84.2258L136.953 95.3002C135.263 107.077 118.175 109.919 118.175 109.919C105.288 110.151 100.458 96.4489 100.458 96.4489C100.458 96.4489 100.386 90.8588 100.304 84.4846C100.198 76.195 100.079 66.5793 100.086 66.2352C100.342 52.0658 117.521 51.6704 117.521 51.6704C134.938 50.4469 137.12 65.0661 137.12 65.0661Z" fill="#F9CEBE"/>
<path d="M131.033 78.3713C130.471 77.2712 128.589 77.2108 128.045 78.3713C127.73 79.0436 127.536 79.761 127.514 80.4769V80.4801C127.464 81.4085 127.731 82.3088 128.155 83.1242C128.483 83.7534 129.264 84.0662 129.934 83.9764C130.664 83.8783 131.179 83.3821 131.418 82.6974C131.921 81.2578 131.718 79.7097 131.033 78.3713Z" fill="#282F39"/>
<path d="M132.027 73.7858C130.558 73.2301 128.538 73.2914 127.295 74.3201C126.723 74.7932 127.178 75.8896 127.918 75.8242C128.514 75.7711 129.09 75.5904 129.688 75.5564C130.309 75.521 130.873 75.6485 131.467 75.8143C132.795 76.1852 133.271 74.2566 132.027 73.7858Z" fill="#282F39"/>
<path d="M106.598 78.3713C107.161 77.2712 109.042 77.2108 109.586 78.3713C109.902 79.0436 110.096 79.761 110.117 80.4769V80.4801C110.168 81.4085 109.9 82.3088 109.476 83.1242C109.148 83.7534 108.367 84.0662 107.697 83.9764C106.968 83.8783 106.452 83.3821 106.213 82.6974C105.71 81.2578 105.914 79.7097 106.598 78.3713Z" fill="#282F39"/>
<path d="M105.606 73.7858C107.074 73.2301 109.095 73.2914 110.337 74.3201C110.909 74.7932 110.454 75.8896 109.714 75.8242C109.118 75.7711 108.543 75.5904 107.944 75.5564C107.323 75.521 106.759 75.6485 106.165 75.8143C104.838 76.1852 104.362 74.2566 105.606 73.7858Z" fill="#282F39"/>
<path d="M134.91 72.5185C132.327 69.0004 126.697 69.3959 124.159 72.7405C123.557 73.3883 123.113 74.1597 122.805 75.0064C121.162 74.418 119.462 74.1442 117.705 74.28C116.789 74.3504 115.669 74.4194 114.914 74.9701C114.681 74.0934 114.321 73.2585 113.778 72.5189C111.194 69.0009 105.564 69.3963 103.026 72.7409C100.269 75.7069 100.836 81.2775 102.457 84.6825C104.384 88.7285 110.712 88.4666 113.427 85.3485C114.911 83.6447 115.177 81.1649 115.268 78.998C115.313 77.9374 115.281 76.8288 115.089 75.7587C117.669 75.2193 119.964 75.1117 122.547 75.8517C121.819 78.7474 122.438 82.2618 123.59 84.6825C125.517 88.7285 131.845 88.4666 134.56 85.3485C136.043 83.6447 136.31 81.1649 136.402 78.998C136.495 76.7847 136.262 74.359 134.91 72.5185ZM113.005 84.0315C111.918 85.6985 109.953 86.4327 108.027 86.5421C105.606 86.6796 103.883 85.6332 103.145 83.3042C102.095 79.9904 101.628 75.4522 104.346 72.8826C105.605 71.9287 106.898 71.1442 108.611 71.1442C110.495 71.1442 112.248 72.0477 113.197 73.6962C114.715 76.3303 114.675 81.4691 113.005 84.0315ZM134.138 84.0315C133.052 85.6985 131.087 86.4327 129.16 86.5421C126.738 86.6796 125.016 85.6332 124.279 83.3042C123.228 79.9904 122.762 75.4522 125.479 72.8826C126.738 71.9287 128.031 71.1442 129.744 71.1442C131.628 71.1442 133.381 72.0477 134.33 73.6962C135.848 76.3303 135.808 81.4691 134.138 84.0315Z" fill="white"/>
<path d="M118.864 85.8885C118.593 85.9321 117.274 85.9839 117.257 85.544C117.253 85.4246 117.857 84.858 117.966 84.7159C118.231 84.3681 118.467 84.0144 118.594 83.5886C119.008 82.1925 118.754 80.3702 118.673 78.9419C118.648 78.4897 118.014 78.497 117.975 78.9419C117.858 80.3053 118.155 82.0472 117.725 83.3489C117.474 84.1102 116.126 84.8784 116.112 85.6951C116.087 87.1107 118.271 86.9609 119.122 86.8283C119.739 86.733 119.479 85.7896 118.864 85.8885Z" fill="#F4B7A4"/>
<path d="M96.5139 70.1078C96.4113 70.915 96.3922 71.8311 96.9429 72.43C97.9072 73.4778 99.6347 72.7337 100.807 71.9242C103.997 69.7205 107.085 67.3692 110.059 64.8804C109.451 66.138 109.013 67.4773 108.762 68.8511C108.662 69.3982 108.598 69.9929 108.859 70.4837C109.486 71.66 111.252 71.3068 112.449 70.7207C115.588 69.1839 118.495 67.1754 121.043 64.7828C120.613 66.0526 120.257 67.6539 121.236 68.5696C122.283 69.5493 123.976 68.9401 125.239 68.2609C127.097 67.2625 128.958 66.1829 130.372 64.6198C131.787 63.0567 132.711 60.917 132.351 58.8395C132.027 56.9713 130.7 55.3827 129.082 54.3948C127.464 53.4065 125.575 52.9534 123.696 52.695C111.52 51.0234 98.2032 56.8083 96.5139 70.1078Z" fill="#282F39"/>
<path d="M132.539 70.1205C133.926 70.97 135.771 71.4031 137.151 70.5419C138.602 69.6357 138.978 67.6662 138.799 65.9642C138.422 62.3835 136.103 59.067 132.869 57.4848C130.054 56.1074 126.106 57.1348 126.589 60.7995C127.042 64.2367 129.589 68.3145 132.539 70.1205Z" fill="#282F39"/>
<path d="M141.416 66.7329C141.406 67.0702 141.385 67.2409 141.385 67.2409L138.3 67.265C138 66.7198 137.687 66.1813 137.36 65.6529C136.634 64.4802 135.829 63.3216 134.721 62.4967C133.975 61.941 133.112 61.5591 132.25 61.2014C131.831 61.0275 131.412 60.8604 130.989 60.7006C129.199 60.0019 127.379 59.3849 125.563 58.7643C123.814 58.1678 122.048 57.568 120.215 57.3769C118.773 57.2271 117.314 57.3324 115.872 57.4759C111.942 57.8645 107.981 58.5496 104.331 60.0083C103.298 60.421 102.293 60.8945 101.321 61.4397C100.397 61.9614 99.5009 62.5475 98.7373 63.2839C98.1308 63.87 96.7706 65.5675 95.9016 67.2514L94.3848 67.2414C94.3848 67.2414 94.3644 67.0712 94.3544 66.737C94.3031 65.1112 94.4565 59.5824 98.0254 50.5397C98.0254 50.5397 101.458 47.9459 106.373 45.6723C109.727 44.1215 113.773 42.7172 117.887 42.3867C121.893 42.7104 125.829 44.0502 129.129 45.5497C134.187 47.8542 137.746 50.5401 137.746 50.5401C141.311 59.5752 141.467 65.1035 141.416 66.7329Z" fill="#FFCA5F"/>
<path d="M106.373 45.6719C105.837 50.4575 104.982 55.2399 104.331 60.0083C103.298 60.421 102.293 60.8945 101.321 61.4397C100.397 61.9614 99.5009 62.5475 98.7373 63.2839C98.1308 63.87 96.7706 65.5675 95.9016 67.2514L94.3848 67.2414C94.3848 67.2414 94.3644 67.0712 94.3544 66.737C94.3031 65.1112 94.4565 59.5824 98.0254 50.5397C98.0254 50.5397 101.457 47.9455 106.373 45.6719Z" fill="#F79937"/>
<path d="M141.417 66.7344C141.407 67.0717 141.386 67.2424 141.386 67.2424L138.301 67.2665C138.001 66.7213 137.688 66.1828 137.36 65.6544C136.634 64.4817 135.83 63.3231 134.722 62.4981C133.976 61.9425 133.113 61.5606 132.251 61.2029C131.832 61.029 131.413 60.8619 130.99 60.7021C130.37 55.6505 129.749 50.6024 129.129 45.5508C134.187 47.8553 137.746 50.5411 137.746 50.5411C141.312 59.5767 141.468 65.105 141.417 66.7344Z" fill="#F79937"/>
<path d="M117.885 55.4805C105.674 55.4805 95.8894 60.2965 94.3535 66.7356C94.3558 66.8069 94.3581 66.9639 94.3608 67.1669C94.3767 68.3432 95.3296 69.2921 96.5064 69.3011C97.3717 69.3075 98.1508 68.7954 98.5035 68.0054C99.3643 66.075 100.973 63.4359 103.191 62.3045C107.084 60.3206 112.304 59.2301 117.884 59.2301C123.465 59.2301 128.685 60.321 132.578 62.3045C134.796 63.4359 136.404 66.075 137.265 68.0054C137.617 68.7958 138.397 69.3079 139.262 69.3011C140.439 69.2921 141.392 68.3437 141.408 67.1669C141.411 66.9626 141.413 66.8041 141.415 66.7319C139.877 60.2965 130.092 55.4805 117.885 55.4805Z" fill="#EF882B"/>
<path d="M101.486 84.7407C101.349 84.0297 100.924 83.3401 100.55 82.7476C100.183 82.1674 99.787 81.4964 99.2005 81.1622C98.791 80.9293 98.1862 81.322 98.361 81.8632C98.5626 82.4879 98.9798 82.9841 99.3003 83.5412C99.629 84.1128 99.8638 84.7797 100.237 85.3127C100.694 85.966 101.653 85.6092 101.486 84.7407Z" fill="white"/>
<path d="M137.726 81.638C137.061 82.2142 136.672 82.9878 136.269 83.7564C135.881 84.4941 135.448 85.2628 135.342 86.0936C135.275 86.6139 136.091 86.9521 136.415 86.5381C136.928 85.882 137.18 85.0408 137.486 84.2694C137.803 83.4726 138.158 82.7117 138.235 81.8487C138.26 81.5699 137.903 81.4846 137.726 81.638Z" fill="white"/>
<path d="M137.017 84.2266L137.003 86.6332L136.956 95.301C135.265 107.078 118.178 109.92 118.178 109.92C105.29 110.152 100.46 96.4496 100.46 96.4496C100.46 96.4496 100.409 92.3491 100.341 87.168C100.33 86.2991 100.317 85.4024 100.307 84.4853C105.443 84.6456 128.646 85.283 137.017 84.2266Z" fill="#27A080"/>
<path d="M137.017 84.2266L137.003 86.6332C127.156 89.4317 106.214 87.7237 100.341 87.1685C100.33 86.2995 100.317 85.4029 100.307 84.4858C105.443 84.6456 128.646 85.283 137.017 84.2266Z" fill="#86E2C7"/>
<path d="M132.223 93.8462C129.782 93.2342 127.343 92.6186 124.897 92.0306C122.67 91.4954 120.46 90.9292 118.152 90.9842C115.837 91.0391 113.503 91.3678 111.201 91.6071C108.78 91.859 106.311 92.0102 103.932 92.5428C103.552 92.6277 103.653 93.1892 104.021 93.2015C108.637 93.3604 113.25 92.4134 117.855 92.2327C120.268 92.1378 122.564 92.728 124.893 93.2778C127.237 93.8312 129.588 94.3556 131.937 94.8858C132.611 95.0384 132.899 94.0155 132.223 93.8462Z" fill="#1D9372"/>
<path d="M129.466 101.346C127.378 100.734 125.291 100.118 123.198 99.5306C121.292 98.9954 119.402 98.4292 117.427 98.4842C115.446 98.5391 113.449 98.8678 111.48 99.1071C109.408 99.359 107.295 99.5102 105.26 100.043C104.936 100.128 105.021 100.689 105.336 100.702C109.286 100.86 113.232 99.9134 117.172 99.7327C119.237 99.6378 121.202 100.228 123.195 100.778C125.2 101.331 127.211 101.856 129.221 102.386C129.798 102.538 130.045 101.516 129.466 101.346Z" fill="#1D9372"/>
</g>
<path d="M71.248 157.977V231.086H137.841V157.977H71.248ZM130.454 208.527C130.562 210.017 131.207 211.315 131.72 212.677C131.768 212.809 131.82 212.997 131.872 213.225C131.131 215.48 129.008 217.111 126.504 217.111C126.472 217.111 126.449 217.111 126.416 217.106H126.413C124.891 217.082 123.513 216.458 122.507 215.452C121.486 214.431 120.853 213.017 120.853 211.455V189.136C120.853 187.169 121.855 185.442 123.369 184.429C124.246 183.848 125.291 183.5 126.413 183.484H126.416C126.449 183.48 126.473 183.48 126.504 183.48C128.067 183.48 129.48 184.112 130.502 185.134C130.999 185.635 131.403 186.232 131.692 186.888C131.584 187.297 131.484 187.633 131.419 187.842C130.583 190.425 130.05 192.445 130.907 195.189C131.756 197.912 132.565 198.529 131.868 201.549C131.323 203.885 130.266 206.008 130.454 208.527Z" fill="#AADDF9"/>
<path d="M124.776 215.453C125.521 216.199 126.476 216.737 127.544 216.975C127.181 217.054 126.805 217.1 126.42 217.106H126.417C126.383 217.108 126.352 217.108 126.317 217.108C124.756 217.108 123.343 216.476 122.32 215.453C121.297 214.43 120.664 213.015 120.664 211.454V189.133C120.664 187.079 121.762 185.279 123.4 184.29C124.252 183.775 125.251 183.48 126.317 183.48C126.352 183.48 126.383 183.48 126.417 183.482H126.42C126.805 183.488 127.182 183.534 127.544 183.613C125.014 184.175 123.12 186.433 123.12 189.133V211.454C123.12 213.015 123.753 214.43 124.776 215.453Z" fill="#4A7DAF"/>
<g opacity="0.4">
<path d="M101.286 203.66C95.6265 216.975 82.2689 223.645 71.248 218.778V171.838C77.4547 167.603 84.9584 166.519 91.56 169.654C102.672 174.929 107.024 190.154 101.286 203.66Z" fill="#AADDF9"/>
</g>
<path d="M140.472 169.596C140.472 171.208 139.349 172.559 137.842 172.908C137.593 172.964 137.334 172.995 137.071 172.995H72.0163C71.753 172.995 71.4955 172.964 71.249 172.908C69.7413 172.559 68.6172 171.21 68.6172 169.596C68.6172 168.655 68.9958 167.805 69.6137 167.19C70.0559 166.747 70.6198 166.427 71.2486 166.283C71.4951 166.227 71.7525 166.195 72.0158 166.195H137.071C137.334 166.195 137.592 166.227 137.842 166.283C139.35 166.632 140.472 167.983 140.472 169.596Z" fill="#AADDF9"/>
<g opacity="0.2">
<path d="M139.98 230.786C139.98 229.356 139.094 228.134 137.841 227.642V172.91C139.347 172.561 140.473 171.207 140.473 169.597C140.473 167.983 139.347 166.633 137.841 166.284V160.725C138.049 160.677 138.249 160.609 138.441 160.521C138.51 160.497 138.574 160.464 138.633 160.432C138.646 160.428 138.653 160.42 138.662 160.416C138.734 160.38 138.801 160.341 138.866 160.3C138.97 160.232 139.07 160.164 139.166 160.088C139.214 160.052 139.262 160.012 139.31 159.968C139.327 159.956 139.342 159.939 139.358 159.923C139.406 159.883 139.45 159.839 139.495 159.791C139.514 159.775 139.535 159.755 139.555 159.735C139.606 159.675 139.659 159.615 139.711 159.555C139.714 159.546 139.719 159.543 139.723 159.539C139.771 159.478 139.815 159.418 139.859 159.355C139.895 159.306 139.923 159.263 139.947 159.215C139.987 159.158 140.019 159.102 140.051 159.042C140.095 158.966 140.131 158.89 140.167 158.81C140.207 158.729 140.239 158.645 140.267 158.566C140.295 158.485 140.323 158.401 140.347 158.317C140.371 158.229 140.391 158.145 140.407 158.057C140.423 157.969 140.439 157.877 140.447 157.789H126.413C126.409 157.854 126.405 157.917 126.401 157.977C126.325 158.946 125.684 157.436 125.608 158.357C125.543 159.151 105.316 159.435 89.5575 159.792C86.8416 159.852 84.2579 159.916 81.9353 159.984C75.6583 160.176 71.2681 160.401 71.2486 160.725C71.2486 160.877 75.1384 161.298 80.8375 161.842C83.8457 162.131 87.3587 162.452 91.0761 162.788C106.678 164.202 125.812 165.86 125.788 166.197C125.64 168.464 125.443 170.735 125.187 172.998C125.14 173.434 113.143 173.231 100.478 172.998C99.1114 172.97 97.7413 172.946 96.3756 172.918C94.605 172.886 92.8467 172.854 91.1324 172.821C87.2829 172.754 83.6414 172.698 80.5537 172.674C75.0381 172.622 71.2808 172.665 71.2486 172.91V172.915C71.2486 173.231 75.0177 173.599 80.5537 173.991C83.6459 174.217 87.2875 174.44 91.1324 174.673C93.5118 174.813 95.967 174.957 98.4186 175.101C111.745 175.883 124.947 176.66 124.851 177.249C124.583 178.906 123.746 182.648 123.397 184.294C123.39 184.342 123.381 184.386 123.37 184.431C122.693 187.635 121.867 190.815 120.854 193.952C120.79 194.153 120.73 194.348 120.662 194.541C120.454 195.182 120.129 195.786 120.013 196.448C116.664 215.457 103.101 223.024 91.1328 225.944C87.9762 226.714 84.9321 227.158 82.2163 227.407C81.6474 227.459 81.0904 227.498 80.5542 227.534C75.0544 227.899 71.249 227.474 71.249 227.474C70.588 227.611 70.0032 227.939 69.5424 228.395C68.9336 229.004 68.5527 229.854 68.5527 230.787C68.5527 232.445 69.7508 233.827 71.3289 234.111C71.3607 235.253 71.4733 236.366 71.6608 237.444C71.2849 237.572 70.9439 237.752 70.6597 237.969C70.0632 238.429 69.6904 239.058 69.6904 239.759C69.6904 240.704 70.3637 241.526 71.3652 241.954C70.692 249.549 76.9004 254.327 82.9332 254.327H126.021C132.021 254.327 138.198 249.597 137.601 242.078C138.771 241.689 139.588 240.796 139.588 239.759C139.588 238.689 138.719 237.772 137.494 237.403C137.689 236.282 137.801 235.12 137.826 233.935C139.086 233.442 139.98 232.221 139.98 230.786ZM123.12 189.136C123.12 186.436 125.011 184.177 127.542 183.616C127.182 183.536 126.805 183.489 126.416 183.484C126.449 183.48 126.473 183.48 126.504 183.48C128.067 183.48 129.48 184.113 130.502 185.134C130.999 185.635 131.404 186.232 131.692 186.889C131.584 187.297 131.484 187.634 131.419 187.842C130.583 190.426 130.05 192.445 130.907 195.189C131.756 197.912 132.565 198.529 131.868 201.55C131.323 203.885 130.266 206.008 130.454 208.528C130.562 210.018 131.207 211.316 131.72 212.678C131.768 212.81 131.82 212.998 131.872 213.226C131.131 215.481 129.008 217.111 126.504 217.111C126.472 217.111 126.449 217.111 126.416 217.107C126.805 217.103 127.181 217.056 127.542 216.975C126.473 216.739 125.519 216.202 124.774 215.453C123.753 214.432 123.12 213.018 123.12 211.456V189.136Z" fill="#4A7DAF"/>
</g>
<g opacity="0.4">
<path d="M109.369 168.069C109.369 168.599 108.941 169.029 108.41 169.029H74.3406C73.8113 169.029 73.3809 168.599 73.3809 168.069C73.3809 167.54 73.8113 167.109 74.3406 167.109H108.41C108.941 167.109 109.369 167.54 109.369 168.069Z" fill="#AADDF9"/>
</g>
<path d="M137.759 155.712C137.759 155.712 135.639 156.322 126.49 156.741C123.509 156.877 119.785 156.993 115.143 157.064C112.293 157.103 109.097 157.129 105.514 157.129C78.4686 157.129 71.3281 155.712 71.3281 155.712C71.3535 155.128 71.5892 154.562 71.9887 154.013C75.0268 149.824 87.5168 146.755 88.1347 146.645C95.1318 145.411 98.1118 140.915 99.374 137.067C99.9682 135.259 100.184 133.596 100.257 132.479C100.302 132.477 100.351 132.477 100.396 132.477H109.732C109.81 132.477 109.886 132.479 109.963 132.488C110.04 133.208 110.176 134.151 110.417 135.211C110.544 135.778 110.7 136.379 110.893 136.993C112.146 140.992 114.914 145.702 121.04 146.645C121.296 146.685 123.699 147.266 126.605 148.244C130.525 149.564 135.364 151.607 137.102 154.013C137.499 154.561 137.733 155.128 137.759 155.712Z" fill="#AADDF9"/>
<g opacity="0.2">
<path d="M137.761 155.713C137.761 155.713 135.641 156.322 126.491 156.741C123.511 156.878 119.787 156.994 115.145 157.065C115.441 156.118 115.587 155.101 115.551 154.013C115.542 153.715 115.517 153.415 115.479 153.106C115.094 149.941 111.838 148.02 110.101 145.449C108.22 142.658 107.639 140.371 107.506 137.294C107.483 136.753 107.475 136.189 107.475 135.594L110.419 135.211C110.546 135.778 110.703 136.379 110.895 136.993C112.148 140.992 114.916 145.702 121.042 146.645C121.298 146.685 123.701 147.266 126.608 148.243C130.527 149.564 135.367 151.607 137.104 154.013C137.5 154.562 137.735 155.129 137.761 155.713Z" fill="#4A7DAF"/>
</g>
<path d="M112.139 134.886C112.139 135.792 111.636 136.585 110.894 136.993C110.55 137.186 110.154 137.294 109.733 137.294H100.397C100.032 137.294 99.6862 137.212 99.3748 137.067C98.5549 136.682 97.9883 135.848 97.9883 134.885C97.9883 134.222 98.2584 133.618 98.6942 133.182C99.0997 132.777 99.6495 132.516 100.258 132.479C100.303 132.477 100.352 132.477 100.397 132.477H109.733C109.811 132.477 109.887 132.479 109.964 132.488C111.185 132.604 112.139 133.636 112.139 134.886Z" fill="#AADDF9"/>
<path d="M140.472 157.412C140.472 159.024 139.349 160.376 137.842 160.725C137.593 160.781 137.334 160.813 137.071 160.813H72.0163C71.753 160.813 71.4955 160.781 71.249 160.725C69.7413 160.376 68.6172 159.028 68.6172 157.412C68.6172 156.471 68.9958 155.621 69.6137 155.006C70.2234 154.397 71.0629 154.02 71.9886 154.012H137.102C138.967 154.029 140.472 155.545 140.472 157.412Z" fill="#AADDF9"/>
<g opacity="0.4">
<path d="M109.369 157.128C109.369 157.658 108.941 158.088 108.41 158.088H74.3406C73.8113 158.088 73.3809 157.658 73.3809 157.128C73.3809 156.598 73.8113 156.168 74.3406 156.168H108.41C108.941 156.168 109.369 156.599 109.369 157.128Z" fill="#AADDF9"/>
</g>
<g opacity="0.4">
<path d="M90.8038 147.921C88.6564 148.716 86.5117 148.825 84.4237 149.522C82.4607 150.177 81.2367 151.424 79.7012 152.691L79.8896 152.88C80.0463 152.809 87.2576 154.581 94.4367 151.935C97.7945 150.698 99.0548 144.397 99.6877 141.375C97.3936 144.43 94.4653 146.565 90.8038 147.921Z" fill="#AADDF9"/>
</g>
<g opacity="0.4">
<path d="M107.851 134.177C107.851 134.595 107.513 134.933 107.095 134.933H100.861C100.443 134.933 100.105 134.595 100.105 134.177C100.105 133.76 100.443 133.422 100.861 133.422H107.095C107.513 133.422 107.851 133.76 107.851 134.177Z" fill="#AADDF9"/>
</g>
<g opacity="0.4">
<path d="M91.1314 237.984C91.1314 240.905 88.7633 243.274 85.8418 243.274C82.9203 243.274 80.5527 240.905 80.5527 237.984V163.551C80.5527 160.63 82.9208 158.262 85.8418 158.262C88.7633 158.262 91.1314 160.631 91.1314 163.551V237.984Z" fill="#AADDF9"/>
</g>
<path d="M111.56 127.502V130.33C111.56 131.298 111.275 132.209 110.772 133.004C109.796 134.563 107.986 135.681 105.856 135.929C105.557 135.967 105.254 135.987 104.942 135.987C103.113 135.987 101.457 135.351 100.265 134.33C99.8084 133.941 99.4165 133.495 99.1128 133.004C98.6093 132.209 98.3242 131.298 98.3242 130.33V127.502C98.3242 126.732 98.5031 125.997 98.8309 125.328C99.827 123.286 102.186 121.848 104.942 121.848C105.416 121.848 105.878 121.891 106.324 121.973C107.596 122.202 108.733 122.746 109.62 123.503C110.226 124.021 110.719 124.64 111.053 125.328C111.381 125.998 111.56 126.733 111.56 127.502Z" fill="#AADDF9"/>
<path d="M112.222 123.417C112.222 124.237 111.753 124.951 111.054 125.328C110.717 125.513 110.323 125.617 109.906 125.617H99.9808C99.5632 125.617 99.17 125.513 98.8322 125.328C98.134 124.951 97.6641 124.237 97.6641 123.417C97.6641 122.807 97.922 122.262 98.3428 121.862C98.7596 121.464 99.3425 121.219 99.9808 121.219H109.906C111.183 121.218 112.222 122.201 112.222 123.417Z" fill="#AADDF9"/>
<path d="M112.222 135.042C112.222 136.259 111.183 137.242 109.905 137.242H99.9804C98.6987 137.242 97.6641 136.258 97.6641 135.042C97.6641 134.433 97.922 133.886 98.3428 133.487C98.5603 133.28 98.8227 133.114 99.1137 133.004C99.3811 132.9 99.6753 132.844 99.9804 132.844H109.905C110.213 132.844 110.505 132.9 110.773 133.004C111.623 133.33 112.222 134.119 112.222 135.042Z" fill="#AADDF9"/>
<g opacity="0.3">
<path d="M112.221 135.043C112.221 136.259 111.181 137.243 109.904 137.243H105.726C105.889 136.743 105.93 136.312 105.855 135.929C105.599 134.544 103.876 133.811 101.08 133.001C102.232 133.035 103.221 132.985 104.064 132.844C106.986 132.356 108.165 130.814 108.195 128.131C108.214 126.302 107.099 125.808 105.389 125.617C103.938 125.454 102.064 125.507 100.088 125.146C103.288 124.904 105.481 123.578 106.324 121.972C106.458 121.727 106.556 121.476 106.622 121.219H109.904C111.181 121.219 112.221 122.202 112.221 123.418C112.221 124.237 111.752 124.951 111.052 125.328C111.381 125.998 111.56 126.732 111.56 127.502V130.33C111.56 131.298 111.274 132.209 110.772 133.004C111.621 133.331 112.221 134.12 112.221 135.043Z" fill="#4A7DAF"/>
</g>
<path d="M124.766 196.309C125.287 198.204 126.651 199.851 128.416 200.713C128.856 200.925 129.35 201.125 129.575 201.559C129.845 202.08 129.609 202.741 129.835 203.28C130.148 204.044 131.161 204.197 131.767 204.753C132.084 205.042 132.282 205.438 132.568 205.758C133.332 206.61 134.579 206.787 135.721 206.9C140.387 207.357 145.081 207.561 149.775 207.507C149.771 203.26 149.502 199.013 149.488 194.783C148.957 194.844 148.425 194.898 147.893 194.953C146.737 195.069 145.562 195.171 144.416 194.963C142.685 194.646 141.171 193.648 139.593 192.867C138.018 192.083 136.181 191.5 134.518 192.076C135.11 194.165 137.002 195.58 138.778 196.831C134.105 196.657 129.435 196.483 124.766 196.309Z" fill="#F9CEBE"/>
</g>
</g>
<defs>
<clipPath id="clip0_2408_2">
<rect width="227" height="227" fill="white"/>
</clipPath>
</defs>
</svg>
