<svg width="479" height="310" viewBox="0 0 479 310" fill="none" xmlns="http://www.w3.org/2000/svg">
<path d="M437.709 0H41.2913C18.5226 0 0 18.2462 0 40.674V268.476C0 290.905 18.5226 309.151 41.2913 309.151H437.709C460.477 309.151 479 290.905 479 268.476V40.674C479 18.2452 460.477 0 437.709 0ZM41.2913 11.9962H437.709C453.76 11.9962 466.822 24.8611 466.822 40.674V66.3998H12.179V40.674C12.179 24.8611 25.2388 11.9962 41.2913 11.9962ZM437.709 297.154H41.2913C25.2388 297.154 12.1779 284.289 12.1779 268.476V95.3896H466.821V268.476C466.822 284.289 453.762 297.154 437.709 297.154Z" fill="#48A9EE"/>
<path d="M145.495 162.163H74.4314C61.3685 162.163 50.7412 172.632 50.7412 185.5V213.241C50.7412 226.108 61.3685 236.577 74.4314 236.577H145.495C158.558 236.577 169.185 226.108 169.185 213.241V185.5C169.185 172.632 158.558 162.163 145.495 162.163ZM157.007 213.241C157.007 219.493 151.842 224.581 145.495 224.581H74.4314C68.0836 224.581 62.9192 219.493 62.9192 213.241V185.5C62.9192 179.248 68.0836 174.159 74.4314 174.159H145.495C151.842 174.159 157.007 179.248 157.007 185.5V213.241Z" fill="#48A9EE"/>
<path d="M423.646 162.163H225.49C222.128 162.163 219.401 164.85 219.401 168.161C219.401 171.472 222.128 174.159 225.49 174.159H423.646C427.007 174.159 429.735 171.472 429.735 168.161C429.735 164.85 427.01 162.163 423.646 162.163Z" fill="#48A9EE"/>
<path d="M320.681 208.975H225.49C222.128 208.975 219.401 211.661 219.401 214.973C219.401 218.285 222.128 220.971 225.49 220.971H320.681C324.042 220.971 326.77 218.285 326.77 214.973C326.77 211.661 324.044 208.975 320.681 208.975Z" fill="#48A9EE"/>
</svg>
