<svg width="466" height="349" viewBox="0 0 466 349" fill="none" xmlns="http://www.w3.org/2000/svg">
<path d="M230.88 231.521C221.149 231.521 212.331 228.941 206.047 226.122L201.553 240.49C207.241 243.19 216.96 245.399 226.983 245.769V257.428H241.647V244.91C258.844 242.45 268.271 233.12 268.271 222.192C268.271 211.134 261.085 204.384 243.291 199.225C230.576 195.296 225.338 192.716 225.338 188.666C225.338 185.227 228.481 181.788 238.199 181.788C248.978 181.788 255.86 184.617 259.746 185.967L264.081 172.09C259.148 170.12 252.413 168.41 242.39 168.04V157.231H227.737V168.9C211.733 171.48 202.452 179.949 202.452 190.757C202.452 202.666 213.378 208.805 229.382 213.224C240.452 216.294 245.239 219.244 245.239 223.913C245.24 228.821 239.406 231.521 230.88 231.521Z" fill="#32B5ED"/>
<path d="M0 127.078H466L233 0L0 127.078ZM95.6127 103.382L233 28.4401L370.387 103.382H95.6127Z" fill="#32B5ED"/>
<path d="M233 88.7752C244.295 88.7752 253.451 81.3266 253.451 72.1383C253.451 62.95 244.295 55.5015 233 55.5015C221.705 55.5015 212.549 62.95 212.549 72.1383C212.549 81.3266 221.705 88.7752 233 88.7752Z" fill="#32B5ED"/>
<path d="M19.4922 348.964H446.509V284.262H19.4922V348.964ZM48.3566 307.959H417.644V325.268H48.3566V307.959Z" fill="#32B5ED"/>
<path d="M109.72 145.082H66.4238V266.525H109.72V145.082Z" fill="#32B5ED"/>
<path d="M175.877 145.082H132.581V266.525H175.877V145.082Z" fill="#32B5ED"/>
<path d="M333.418 145.082H290.122V266.525H333.418V145.082Z" fill="#32B5ED"/>
<path d="M399.575 145.082H356.279V266.525H399.575V145.082Z" fill="#32B5ED"/>
</svg>
