<svg width="500" height="412" viewBox="0 0 500 412" fill="none" xmlns="http://www.w3.org/2000/svg">
<path fill-rule="evenodd" clip-rule="evenodd" d="M408.004 65.6324C408.004 56.3241 404.678 47.3999 398.743 40.825C392.821 34.2353 384.785 30.5415 376.399 30.5415C304.993 30.5415 131.815 30.5415 60.4086 30.5415C52.0224 30.5415 43.9863 34.2353 38.0649 40.825C32.129 47.3999 28.8037 56.3241 28.8037 65.6324C28.8037 119.562 28.8037 222.249 28.8037 276.178C28.8037 285.486 32.129 294.41 38.0649 300.985C43.9863 307.575 52.0224 311.269 60.4086 311.269C131.815 311.269 304.993 311.269 376.399 311.269C384.785 311.269 392.821 307.575 398.743 300.985C404.678 294.41 408.004 285.486 408.004 276.178C408.004 222.249 408.004 119.562 408.004 65.6324Z" fill="white" stroke="#4EA7EF" stroke-width="22.0415" stroke-miterlimit="2" stroke-linejoin="round"/>
<path d="M392.193 381.45C435.824 381.45 471.193 342.174 471.193 293.723C471.193 245.273 435.824 205.996 392.193 205.996C348.563 205.996 313.193 245.273 313.193 293.723C313.193 342.174 348.563 381.45 392.193 381.45Z" fill="white" stroke="#4EA7EF" stroke-width="27.7778" stroke-miterlimit="2" stroke-linejoin="round"/>
<path fill-rule="evenodd" clip-rule="evenodd" d="M376.4 13H60.4C47.8232 13 35.7678 18.5443 26.8882 28.4224C17.9928 38.283 13 51.6702 13 65.6364V276.182C13 290.148 17.9928 303.535 26.8882 313.396C35.7678 323.274 47.8232 328.818 60.4 328.818H302.804C315.823 369.682 350.962 399 392.2 399C444.514 399 487 351.82 487 293.727C487 247.934 460.598 208.912 423.8 194.455V65.6364C423.8 51.6702 418.807 38.283 409.912 28.4224C401.032 18.5443 388.977 13 376.4 13ZM392.2 223.545C427.086 223.545 455.4 254.987 455.4 293.727C455.4 332.468 427.086 363.909 392.2 363.909C357.314 363.909 329 332.468 329 293.727C329 254.987 357.314 223.545 392.2 223.545ZM376.4 258.636V293.727C376.4 303.412 383.478 311.273 392.2 311.273H423.8C432.522 311.273 439.6 303.412 439.6 293.727C439.6 284.042 432.522 276.182 423.8 276.182H408V258.636C408 248.951 400.922 241.091 392.2 241.091C383.478 241.091 376.4 248.951 376.4 258.636ZM392.2 118.273H376.4C350.235 118.273 329 94.6916 329 65.6364V48.0909H107.8V65.6364C107.8 94.6916 86.5648 118.273 60.4 118.273H44.6V223.545H60.4C86.5648 223.545 107.8 247.127 107.8 276.182V293.727H297.4C297.4 235.634 339.886 188.455 392.2 188.455V118.273ZM44.6 258.636V276.182C44.6 280.831 46.259 285.305 49.2294 288.586C52.184 291.885 56.213 293.727 60.4 293.727H76.2V276.182C76.2 266.497 69.1216 258.636 60.4 258.636H44.6ZM218.4 83.1818C174.792 83.1818 139.4 122.484 139.4 170.909C139.4 219.335 174.792 258.636 218.4 258.636C262.008 258.636 297.4 219.335 297.4 170.909C297.4 122.484 262.008 83.1818 218.4 83.1818ZM218.4 118.273C244.565 118.273 265.8 141.854 265.8 170.909C265.8 199.964 244.565 223.545 218.4 223.545C192.235 223.545 171 199.964 171 170.909C171 141.854 192.235 118.273 218.4 118.273ZM360.6 48.0909V65.6364C360.6 75.3215 367.678 83.1818 376.4 83.1818H392.2V65.6364C392.2 60.9868 390.541 56.5127 387.571 53.2317C384.616 49.9332 380.587 48.0909 376.4 48.0909H360.6ZM76.2 48.0909H60.4C56.213 48.0909 52.184 49.9332 49.2294 53.2317C46.259 56.5127 44.6 60.9868 44.6 65.6364V83.1818H60.4C69.1216 83.1818 76.2 75.3215 76.2 65.6364V48.0909Z" fill="#FBFBFB" stroke="#4EA7EF" stroke-width="25" stroke-miterlimit="2" stroke-linejoin="round"/>
</svg>
