<svg width="434" height="321" viewBox="0 0 434 321" fill="none" xmlns="http://www.w3.org/2000/svg">
<path d="M434 130.704C431.728 119.983 419.231 112.835 402.189 112.835C396.508 112.835 391.964 112.835 386.283 112.835C376.058 111.942 373.786 114.622 373.786 120.876C373.786 152.146 373.786 182.521 373.786 213.791C373.786 229.872 353.335 246.847 329.477 250.421C254.492 263.822 179.508 276.33 104.523 289.731C96.5707 291.517 87.4816 291.517 78.3925 291.517C74.9844 291.517 69.3034 289.731 68.1676 287.051C67.0312 285.264 70.4399 281.69 72.7121 279.903C76.1203 278.116 80.6648 276.33 85.2094 274.543C98.843 270.969 113.612 267.395 127.246 263.822C182.916 249.527 238.586 235.232 294.257 220.045C319.252 213.791 332.885 200.39 332.885 183.415C334.021 129.811 332.885 75.3123 332.885 21.7078C332.885 12.7737 327.204 5.62649 314.707 2.05285C299.937 -2.4142 286.303 1.15938 273.806 5.62645C194.277 35.1089 115.885 64.5913 36.3558 94.0739C13.6333 103.008 0 115.516 0 133.384C0 184.308 0 235.233 0 286.157C0 288.837 -0.000277354 291.517 1.13585 293.304C9.08874 310.279 29.5393 321 56.8063 321C112.477 321 168.146 321 223.817 321C279.487 321 334.021 321 389.691 321C402.189 321 412.414 319.213 421.503 312.959C432.864 305.812 432.864 295.984 432.864 287.051C432.864 243.097 434 130.704 434 130.704ZM202.231 114.623C207.911 103.008 220.409 95.8607 238.586 94.0739C251.084 93.1807 261.309 98.5412 263.581 107.475C265.854 120.876 245.403 136.958 223.817 136.958C206.775 136.958 196.55 127.13 202.231 114.623Z" fill="#4EA7EF"/>
</svg>
