<svg width="73" height="69" viewBox="0 0 73 69" fill="none" xmlns="http://www.w3.org/2000/svg">
<path d="M72.9422 27.9353C72.5603 25.6439 70.4599 24.1163 67.5957 24.1163C66.6409 24.1163 65.8772 24.1163 64.9224 24.1163C63.2039 23.9254 62.822 24.4982 62.822 25.8349C62.822 32.5181 62.822 39.0103 62.822 45.6935C62.822 49.1306 59.3849 52.7586 55.375 53.5224C42.7724 56.3866 30.1698 59.0599 17.5672 61.9241C16.2306 62.306 14.703 62.306 13.1754 62.306C12.6026 62.306 11.6478 61.9241 11.4569 61.3513C11.2659 60.9694 11.8388 60.2056 12.2207 59.8237C12.7935 59.4418 13.5573 59.0599 14.3211 58.678C16.6125 57.9142 19.0948 57.1504 21.3862 56.3866C30.7426 53.3314 40.0991 50.2762 49.4556 47.0301C53.6565 45.6935 55.9478 42.8293 55.9478 39.2013C56.1388 27.7444 55.9478 16.0965 55.9478 4.63961C55.9478 2.73013 54.9931 1.20255 52.8926 0.438755C50.4103 -0.515987 48.1189 0.247795 46.0185 1.20254C32.6521 7.50383 19.4767 13.8051 6.11031 20.1064C2.29134 22.0159 0 24.6892 0 28.5081C0 39.3922 0 50.2763 0 61.1603C0 61.7332 -4.66182e-05 62.306 0.190902 62.6879C1.52754 66.3159 4.96466 68.6073 9.54741 68.6073C18.9039 68.6073 28.2603 68.6073 37.6168 68.6073C46.9732 68.6073 56.1388 68.6073 65.4952 68.6073C67.5957 68.6073 69.3142 68.2254 70.8418 66.8888C72.7513 65.3612 72.7513 63.2607 72.7513 61.3513C72.7513 51.957 72.9422 27.9353 72.9422 27.9353ZM33.9888 24.4983C34.9435 22.0159 37.044 20.4883 40.0991 20.1064C42.1996 19.9155 43.9181 21.0612 44.3 22.9707C44.6819 25.8349 41.2448 29.272 37.6168 29.272C34.7526 29.272 33.034 27.1715 33.9888 24.4983Z" fill="#FD6727"/>
</svg>
